<svg width="36" height="36" viewBox="0 0 36 36" fill="none" xmlns="http://www.w3.org/2000/svg">
<path d="M4 30H3C3 30.3451 3.17796 30.6658 3.47079 30.8485C3.76362 31.0311 4.12993 31.0499 4.43987 30.8981L4 30ZM5.16667 6V7V6ZM32 30L31.5601 30.8981C31.8701 31.0499 32.2364 31.0311 32.5292 30.8485C32.822 30.6658 33 30.3451 33 30H32ZM27.3333 27.7143L27.7732 26.8162C27.4957 26.6803 27.171 26.6803 26.8935 26.8162L27.3333 27.7143ZM22.6667 30L22.2268 30.8981C22.5043 31.034 22.829 31.034 23.1065 30.8981L22.6667 30ZM18 27.7143L18.4399 26.8162C18.1624 26.6803 17.8376 26.6803 17.5601 26.8162L18 27.7143ZM13.3333 30L12.8935 30.8981C13.171 31.034 13.4957 31.034 13.7732 30.8981L13.3333 30ZM8.66667 27.7143L9.10653 26.8162C8.82904 26.6803 8.50429 26.6803 8.2268 26.8162L8.66667 27.7143ZM20 14C19.4477 14 19 14.4477 19 15C19 15.5523 19.4477 16 20 16V14ZM27 16C27.5523 16 28 15.5523 28 15C28 14.4477 27.5523 14 27 14V16ZM20 18C19.4477 18 19 18.4477 19 19C19 19.5523 19.4477 20 20 20V18ZM27 20C27.5523 20 28 19.5523 28 19C28 18.4477 27.5523 18 27 18V20ZM9 12V11C8.44772 11 8 11.4477 8 12H9ZM16 12H17C17 11.4477 16.5523 11 16 11V12ZM16 22V23C16.5523 23 17 22.5523 17 22H16ZM9 22H8C8 22.5523 8.44772 23 9 23V22ZM5 30V7.14286H3V30H5ZM5 7.14286C5 7.1117 5.01244 7.07755 5.04149 7.04909L3.64193 5.62038C3.23339 6.02058 3 6.5678 3 7.14286H5ZM5.04149 7.04909C5.07124 7.01995 5.11589 7 5.16667 7L5.16667 5C4.59861 5 4.04977 5.22086 3.64193 5.62038L5.04149 7.04909ZM5.16667 7H30.8333V5H5.16667V7ZM30.8333 7C30.8841 7 30.9288 7.01995 30.9585 7.04909L32.3581 5.62038C31.9502 5.22086 31.4014 5 30.8333 5V7ZM30.9585 7.04909C30.9876 7.07755 31 7.1117 31 7.14286H33C33 6.5678 32.7666 6.02058 32.3581 5.62038L30.9585 7.04909ZM31 7.14286V30H33V7.14286H31ZM32.4399 29.1019L27.7732 26.8162L26.8935 28.6123L31.5601 30.8981L32.4399 29.1019ZM26.8935 26.8162L22.2268 29.1019L23.1065 30.8981L27.7732 28.6123L26.8935 26.8162ZM23.1065 29.1019L18.4399 26.8162L17.5601 28.6123L22.2268 30.8981L23.1065 29.1019ZM17.5601 26.8162L12.8935 29.1019L13.7732 30.8981L18.4399 28.6123L17.5601 26.8162ZM13.7732 29.1019L9.10653 26.8162L8.2268 28.6123L12.8935 30.8981L13.7732 29.1019ZM8.2268 26.8162L3.56013 29.1019L4.43987 30.8981L9.10653 28.6123L8.2268 26.8162ZM20 16H27V14H20V16ZM20 20H27V18H20V20ZM9 13H16V11H9V13ZM15 12V22H17V12H15ZM16 21H9V23H16V21ZM10 22V12H8V22H10Z" fill="#0017FC"/>
</svg>
