<svg width="16" height="16" viewBox="0 0 16 16" fill="none" xmlns="http://www.w3.org/2000/svg">
<circle cx="8" cy="8" r="6.5" stroke="#808080"/>
<path d="M8 10C4.5 10 3.5 13 3.5 13C3.5 13 4.62132 13.6095 5.5 14C6.37868 14.3905 8 14.5 8 14.5C8 14.5 9.62132 14.3905 10.5 14C11.3787 13.6095 12.5 13 12.5 13C12.5 13 11.5 10 8 10Z" fill="#808080"/>
<path d="M6.79446 5.49374C7.08894 5.18159 7.51101 5 8.00014 5C8.48311 5 8.90478 5.18171 9.20204 5.49712C9.50269 5.81645 9.65636 6.25109 9.61997 6.73637C9.5426 7.76068 8.76076 8.5 8.00014 8.5C7.23906 8.5 6.45622 7.76031 6.38038 6.73712C6.34504 6.24271 6.50229 5.80343 6.79446 5.49374Z" fill="#808080" stroke="#808080"/>
</svg>
