<svg width="20" height="20"
    xmlns="http://www.w3.org/2000/svg" viewBox="0 0 20 20">
    <path d="M4.733 3.661c-.231.122-.233.132-.233 1.614V6.6H3.216c-1.053 0-1.306.009-1.402.049-.213.089-.214.097-.214 1.842 0 1.449.004 1.568.061 1.676.121.229.143.233 1.514.233H4.4v2.1H3.174c-1.124 0-1.235.005-1.341.061-.235.124-.233.106-.233 1.84 0 1.733-.003 1.71.235 1.838.109.058.359.061 5.865.061s5.756-.003 5.865-.061a.5.5 0 0 0 .174-.174c.057-.106.061-.232.061-1.839V12.5H11v-2.1h2.067l-.132-.194a3.966 3.966 0 0 1-.254-.45l-.122-.256H8.1V7.4h4.656l.094-.242c.051-.133.129-.313.172-.4l.079-.158H11V4.4h3.417l.166-.204c.092-.112.264-.292.383-.4l.216-.196h-5.166c-4.948 0-5.172.003-5.283.061m10.95.279a.684.684 0 0 0-.369.314c-.039.071-.498.804-1.02 1.629a69.966 69.966 0 0 0-1.021 1.639 2.526 2.526 0 0 0-.138.382c-.238.858-.01 1.675.637 2.28.365.342.819.515 1.353.516h.275v.292l-.001.291-.131.056a.463.463 0 0 0-.2.166c-.066.109-.068.158-.068 2.195 0 2.008.003 2.087.065 2.19.119.195.189.21.962.21.748 0 .875-.021.935-.153.027-.06.038-.676.038-2.15 0-2.248.006-2.176-.187-2.327a.317.317 0 0 0-.151-.07c-.056 0-.062-.029-.062-.3v-.3h.225c.124 0 .352-.031.508-.068 1.109-.266 1.708-1.086 1.657-2.265-.017-.386-.082-.656-.224-.935-.033-.065-.482-.807-.997-1.65-.995-1.625-1.086-1.748-1.419-1.903a1.028 1.028 0 0 0-.667-.039M10.2 5.45V6.5H5.3V4.4h4.9v1.05m6.918.8c.528.862.995 1.649 1.037 1.75.252.604-.098 1.518-.688 1.797l-.184.086-1.166.011c-1.321.012-1.432-.002-1.777-.226a1.162 1.162 0 0 1-.47-.535c-.077-.162-.087-.225-.087-.55 0-.301.013-.393.07-.517.038-.082.511-.847 1.052-1.7.54-.852.992-1.576 1.004-1.608.012-.032.052-.058.088-.058s.076-.016.088-.036c.012-.02.034-.024.048-.009.014.016.457.733.985 1.595M7.3 8.45V9.5H2.4V7.4h4.9v1.05m2.9 2.9v1.05H5.3v-2.1h4.9v1.05m6 2.35v1.6h-.4v-3.2h.4v1.6m-8.9.65v1.05H2.4v-2.1h4.9v1.05m5.7 0v1.05H8.1v-2.1H13v1.05" fill-rule="evenodd"/>
</svg>
