<svg width="17" height="17" viewBox="0 0 17 17" fill="none" xmlns="http://www.w3.org/2000/svg">
<path d="M8.19532 10.9311C9.31069 10.9311 10.2149 10.0329 10.2149 8.92501C10.2149 7.81709 9.31069 6.91895 8.19532 6.91895C7.07996 6.91895 6.17578 7.81709 6.17578 8.92501C6.17578 10.0329 7.07996 10.9311 8.19532 10.9311Z" fill="#0017FC"/>
<path d="M8.19532 10.9311C9.31069 10.9311 10.2149 10.0329 10.2149 8.92501C10.2149 7.81709 9.31069 6.91895 8.19532 6.91895C7.07996 6.91895 6.17578 7.81709 6.17578 8.92501C6.17578 10.0329 7.07996 10.9311 8.19532 10.9311Z" fill="#384BF8"/>
<path d="M14.5064 4.91292H11.8873C11.7927 4.91292 11.6753 4.85211 11.5838 4.7562L10.7229 3.41464C10.3727 2.90686 10.2149 2.90686 9.6469 2.90686H6.74381C6.17581 2.90686 5.98648 2.90686 5.66872 3.41496L4.80694 4.7562C4.73689 4.83205 4.63844 4.91292 4.53493 4.91292V4.41141C4.53493 4.3449 4.50834 4.28112 4.46099 4.23409C4.41365 4.18707 4.34944 4.16065 4.28249 4.16065H3.02028C2.95332 4.16065 2.88911 4.18707 2.84177 4.23409C2.79443 4.28112 2.76783 4.3449 2.76783 4.41141V4.91292H1.88428C1.68343 4.91292 1.4908 4.99218 1.34877 5.13326C1.20674 5.27433 1.12695 5.46568 1.12695 5.66519V13.1879C1.12695 13.3874 1.20674 13.5788 1.34877 13.7199C1.4908 13.8609 1.68343 13.9402 1.88428 13.9402H14.5064C14.7073 13.9402 14.8999 13.8609 15.0419 13.7199C15.184 13.5788 15.2638 13.3874 15.2638 13.1879V5.66519C15.2638 5.46568 15.184 5.27433 15.0419 5.13326C14.8999 4.99218 14.7073 4.91292 14.5064 4.91292ZM8.33767 11.931C7.72709 11.9595 7.12211 11.8038 6.60223 11.4845C6.08235 11.1651 5.67189 10.697 5.42479 10.1417C5.17768 9.58632 5.10549 8.96971 5.2177 8.37285C5.32991 7.77599 5.62126 7.22681 6.05349 6.79747C6.48571 6.36813 7.03858 6.07872 7.63945 5.96726C8.24032 5.85581 8.86108 5.92752 9.42016 6.17297C9.97925 6.41843 10.4505 6.82615 10.772 7.34255C11.0935 7.85896 11.2502 8.4599 11.2215 9.06641C11.1854 9.81455 10.8699 10.5225 10.3367 11.0521C9.80354 11.5817 9.09085 11.8951 8.33767 11.931Z" fill="#0017FC"/>
<path d="M14.5064 4.91292H11.8873C11.7927 4.91292 11.6753 4.85211 11.5838 4.7562L10.7229 3.41464C10.3727 2.90686 10.2149 2.90686 9.6469 2.90686H6.74381C6.17581 2.90686 5.98648 2.90686 5.66872 3.41496L4.80694 4.7562C4.73689 4.83205 4.63844 4.91292 4.53493 4.91292V4.41141C4.53493 4.3449 4.50834 4.28112 4.46099 4.23409C4.41365 4.18707 4.34944 4.16065 4.28249 4.16065H3.02028C2.95332 4.16065 2.88911 4.18707 2.84177 4.23409C2.79443 4.28112 2.76783 4.3449 2.76783 4.41141V4.91292H1.88428C1.68343 4.91292 1.4908 4.99218 1.34877 5.13326C1.20674 5.27433 1.12695 5.46568 1.12695 5.66519V13.1879C1.12695 13.3874 1.20674 13.5788 1.34877 13.7199C1.4908 13.8609 1.68343 13.9402 1.88428 13.9402H14.5064C14.7073 13.9402 14.8999 13.8609 15.0419 13.7199C15.184 13.5788 15.2638 13.3874 15.2638 13.1879V5.66519C15.2638 5.46568 15.184 5.27433 15.0419 5.13326C14.8999 4.99218 14.7073 4.91292 14.5064 4.91292ZM8.33767 11.931C7.72709 11.9595 7.12211 11.8038 6.60223 11.4845C6.08235 11.1651 5.67189 10.697 5.42479 10.1417C5.17768 9.58632 5.10549 8.96971 5.2177 8.37285C5.32991 7.77599 5.62126 7.22681 6.05349 6.79747C6.48571 6.36813 7.03858 6.07872 7.63945 5.96726C8.24032 5.85581 8.86108 5.92752 9.42016 6.17297C9.97925 6.41843 10.4505 6.82615 10.772 7.34255C11.0935 7.85896 11.2502 8.4599 11.2215 9.06641C11.1854 9.81455 10.8699 10.5225 10.3367 11.0521C9.80354 11.5817 9.09085 11.8951 8.33767 11.931Z" fill="#384BF8"/>
</svg>
