<svg xmlns="http://www.w3.org/2000/svg" xmlns:xlink="http://www.w3.org/1999/xlink" version="1.1" id="Слой_1" x="0px" y="0px" viewBox="0 0 21 17" style="enable-background:new 0 0 21 17;" xml:space="preserve">
<path class="st0" d="M4.6,1.4C4.2,1.6,3.8,1.9,3.8,2c0,0.1,2.5,0.2,6.1,0.3c5.7,0.1,6.1,0.1,6.9,0.5C18.4,3.6,18.5,4,18.5,8  c0,3.9,0.1,4.3,1.1,3c0.4-0.6,0.5-1,0.5-3.9c0-3.5-0.2-4.2-1.5-5.1C17.3,1,16.9,1,10.9,1C5.8,1,5.3,1,4.6,1.4z"/>
<path class="st0" d="M2.3,3.3C1.1,3.8,0.9,4.4,0.9,8.5c0,3,0.1,3.9,0.4,4.4C1.7,13.5,2.7,14,3.7,14c0.6,0,0.6,0,0.6,1.1  c0,2.1,1,2.2,4.2,0.2l2.3-1.4h2.4c4.3,0,4.6-0.3,4.6-5.5c0-5.8,0.4-5.5-8.4-5.5C4.2,3,2.8,3,2.3,3.3z M15.6,4.7  c0.5,0.4,0.6,0.6,0.6,3.8c0,4.3,0.1,4.2-3.8,4.3l-2.7,0.1l-1.9,1.2l-1.9,1.1l-0.1-2.3l-1.1-0.1c-2-0.2-2.1-0.4-2.2-4.1  C2.3,5.4,2.5,4.9,3.6,4.4c0.5-0.2,2-0.3,6-0.2C14.9,4.2,15.1,4.3,15.6,4.7z"/>
</svg>