<svg width="16" height="16" viewBox="0 0 16 16" fill="none" xmlns="http://www.w3.org/2000/svg">
<path d="M11.1096 0.072533C10.4467 0.1658 9.86837 0.383424 9.26332 0.769818C8.80508 1.06294 6.06454 3.79435 5.96666 4.05638C5.71307 4.71814 6.38931 5.40654 7.0522 5.15782C7.22571 5.09121 7.50599 4.83361 8.7072 3.64778C10.0063 2.3598 10.1842 2.19992 10.4779 2.05335C10.9272 1.82685 11.3098 1.7469 11.7992 1.77355C13.254 1.84905 14.3395 3.05265 14.255 4.49163C14.2461 4.70925 14.2016 4.98906 14.1571 5.11341C13.9525 5.71299 13.9124 5.76184 12.4176 7.26744C11.6301 8.06244 10.9539 8.78193 10.9094 8.86631C10.7404 9.19497 10.8516 9.70572 11.1408 9.91446C11.2831 10.0211 11.5234 10.1099 11.6613 10.1099C11.9994 10.1099 12.0706 10.0521 13.4853 8.65313C14.2372 7.90255 14.9757 7.12976 15.1226 6.93435C15.5808 6.32589 15.8255 5.74408 15.9367 5.00682C16.0212 4.46498 16.0212 4.19406 15.9367 3.67887C15.6475 1.89791 14.3262 0.512222 12.5644 0.139153C12.1685 0.0547678 11.4744 0.0236786 11.1096 0.072533Z" fill="#0017FC"/>
<path d="M10.0641 4.80628C9.86832 4.90843 4.88997 9.87825 4.78765 10.0737C4.63638 10.3712 4.68977 10.7976 4.92111 11.0596C5.13466 11.3039 5.62849 11.3838 5.93992 11.224C6.14902 11.1129 11.1185 6.14311 11.2208 5.93881C11.2742 5.82778 11.292 5.7123 11.2786 5.51245C11.2564 5.18379 11.1185 4.96617 10.8426 4.82404C10.6291 4.71745 10.2554 4.70857 10.0641 4.80628Z" fill="#0017FC"/>
<path d="M4.03575 5.98322C3.92007 6.01875 3.52857 6.37849 2.48752 7.41332C1.7223 8.17722 1.01493 8.90115 0.917049 9.02551C0.632318 9.39858 0.352035 9.92709 0.209669 10.3623C-0.350895 12.0989 0.236363 13.982 1.68671 15.1101C3.22604 16.3048 5.42826 16.2959 6.98983 15.0879C7.1144 14.9902 7.83958 14.284 8.60479 13.5201C9.76596 12.3565 9.99731 12.0989 10.0373 11.9523C10.1085 11.6858 10.0996 11.5704 9.97062 11.3172C9.76152 10.8997 9.24544 10.7221 8.84059 10.9308C8.75606 10.9708 8.03533 11.6503 7.23897 12.4364C5.72634 13.9287 5.68185 13.9687 5.08124 14.173C4.74313 14.2885 4.15587 14.3107 3.76436 14.2218C2.10046 13.8443 1.25517 12.0722 1.99814 10.5222C2.12716 10.2513 2.30067 10.0603 3.5953 8.75459C5.16577 7.16904 5.24141 7.07133 5.17022 6.70271C5.0679 6.1431 4.56517 5.82333 4.03575 5.98322Z" fill="#0017FC"/>
</svg>
