<svg width="24" height="24" viewBox="0 0 24 24" fill="none"
    xmlns="http://www.w3.org/2000/svg">
    <path d="M5.656 5.041a1.7 1.7 0 0 0-.616.619.804.804 0 0 0 .006.697c.065.138.763.862 2.809 2.913L10.578 12l-2.723 2.73c-2.046 2.051-2.744 2.775-2.809 2.913-.17.36-.084.704.261 1.05.346.345.69.431 1.05.261.138-.065.862-.763 2.913-2.809L12 13.422l2.73 2.723c2.051 2.046 2.775 2.744 2.913 2.809.36.17.704.084 1.05-.261.345-.346.431-.69.261-1.05-.065-.138-.763-.862-2.809-2.913L13.422 12l2.723-2.73c2.046-2.051 2.744-2.775 2.809-2.913.17-.36.084-.704-.261-1.05-.346-.345-.69-.431-1.05-.261-.138.065-.862.763-2.913 2.809L12 10.578 9.27 7.855C7.219 5.809 6.495 5.111 6.357 5.046a.81.81 0 0 0-.701-.005"/>
</svg>