<svg width="20" height="20" viewBox="0 0 20 20" fill="none" xmlns="http://www.w3.org/2000/svg">
<path d="M3.03201 9.96818C3.17594 10.6469 3.5702 11.2256 4.13968 11.5978C5.11907 12.239 6.43326 12.0951 7.25932 11.2537C7.51277 10.9941 7.72242 10.672 7.83506 10.3529C7.88826 10.209 7.93206 10.0683 7.93206 10.0432C7.93206 10.0057 8.05097 9.99946 8.71432 9.99946H9.49658L9.50284 12.5925C9.51222 15.1573 9.51222 15.1886 9.57793 15.2731C9.61235 15.32 9.68119 15.3888 9.72813 15.4232C9.80948 15.4858 9.8658 15.4889 10.9422 15.5045L12.0718 15.5202L12.1093 15.6297C12.5317 16.8464 13.9304 17.3688 15.0287 16.7182C15.254 16.5868 15.5857 16.2552 15.7171 16.03C16.1833 15.2418 16.0644 14.2534 15.4261 13.6153C15.3041 13.4933 15.1257 13.3463 15.0287 13.29C13.9554 12.6582 12.5755 13.1399 12.1406 14.2972L12.0686 14.488L11.2833 14.4974L10.4979 14.5036V9.99946H11.2833C12.0467 9.99946 12.0686 10.0026 12.0843 10.062C12.0937 10.0996 12.15 10.2278 12.2063 10.3467C12.7226 11.4226 14.0086 11.8168 15.0287 11.2131C15.254 11.0817 15.5857 10.7502 15.7171 10.5249C16.1833 9.73672 16.0644 8.7483 15.4261 8.11021C15.3041 7.98822 15.1257 7.84121 15.0287 7.78491C13.9554 7.15308 12.5755 7.63477 12.1406 8.79209L12.0686 8.98289L11.2833 8.99228L10.4979 8.99853V4.49437H11.2833C12.0467 4.49437 12.0686 4.4975 12.0843 4.55693C12.0937 4.59447 12.15 4.72271 12.2063 4.84157C12.7226 5.91756 14.0086 6.31168 15.0287 5.70799C15.254 5.57662 15.5857 5.24507 15.7171 5.01986C16.1833 4.23163 16.0644 3.24322 15.4261 2.60513C15.3041 2.48314 15.1257 2.33613 15.0287 2.27983C13.9554 1.648 12.5755 2.12969 12.1406 3.28701L12.0686 3.47781L9.81887 3.50909L9.70309 3.5998C9.48719 3.76245 9.49658 3.62482 9.49658 6.4493V8.99853H7.94771L7.85697 8.71702C7.36884 7.18123 5.48829 6.51499 4.13968 7.40018C3.59523 7.75676 3.23852 8.25097 3.06017 8.9047C2.99446 9.14867 2.97881 9.71795 3.03201 9.96818ZM13.1294 14.5349C13.242 14.3222 13.3422 14.2252 13.5768 14.1032C13.7114 14.0344 13.7771 14.0219 14.0024 14.0219C14.2464 14.0188 14.284 14.0282 14.4655 14.1251C14.6845 14.244 14.7784 14.3441 14.9035 14.5787C14.9724 14.7132 14.9849 14.7789 14.988 15.0041C14.988 15.2512 14.9786 15.2856 14.8754 15.4733C14.4498 16.2459 13.3547 16.152 13.0512 15.3169C12.9698 15.0948 13.0011 14.7726 13.1294 14.5349ZM13.1294 9.02981C13.242 8.81712 13.3422 8.72015 13.5768 8.59816C13.7114 8.52935 13.7771 8.51684 14.0024 8.51684C14.2308 8.51684 14.2902 8.52935 14.4311 8.60129C14.6376 8.70764 14.794 8.86403 14.9004 9.07048C14.9724 9.2081 14.9849 9.27379 14.988 9.499C14.988 9.7461 14.9786 9.78051 14.8754 9.96818C14.4498 10.7408 13.3547 10.6469 13.0512 9.81178C12.9698 9.5897 13.0011 9.26753 13.1294 9.02981ZM13.1294 3.52473C13.242 3.31203 13.3422 3.21507 13.5768 3.09308C13.7114 3.02427 13.7771 3.01175 14.0024 3.01175C14.2308 3.01175 14.2902 3.02427 14.4311 3.09621C14.6376 3.20256 14.794 3.35895 14.9004 3.56539C14.9724 3.70302 14.9849 3.7687 14.988 3.99391C14.988 4.24101 14.9786 4.27542 14.8754 4.4631C14.5625 5.02924 13.8929 5.16061 13.3547 4.75712C13.2483 4.67579 13.1137 4.47248 13.0418 4.28168C12.9698 4.08775 13.0073 3.74994 13.1294 3.52473Z" fill="#0017FC"/>
</svg>
