<svg width="12" height="12" viewBox="0 0 12 12" fill="none" xmlns="http://www.w3.org/2000/svg">
<path d="M10.2803 6.03033C10.5732 5.73744 10.5732 5.26256 10.2803 4.96967C9.98744 4.67678 9.51256 4.67678 9.21967 4.96967L10.2803 6.03033ZM6 9.25L5.46967 9.78033C5.76256 10.0732 6.23744 10.0732 6.53033 9.78033L6 9.25ZM2.78033 4.96967C2.48744 4.67678 2.01256 4.67678 1.71967 4.96967C1.42678 5.26256 1.42678 5.73744 1.71967 6.03033L2.78033 4.96967ZM9.21967 4.96967L5.46967 8.71967L6.53033 9.78033L10.2803 6.03033L9.21967 4.96967ZM6.53033 8.71967L2.78033 4.96967L1.71967 6.03033L5.46967 9.78033L6.53033 8.71967Z" fill="#939499"/>
</svg>
