<svg width="16" height="16" viewBox="0 0 16 16" fill="none" xmlns="http://www.w3.org/2000/svg">
<path fill-rule="evenodd" clip-rule="evenodd" d="M2.25162 11.1017L11.1019 2.25143C11.4362 1.91717 11.9787 1.91717 12.313 2.25143L13.7495 3.68791C14.0837 4.02218 14.0837 4.56471 13.7495 4.89898L4.8983 13.7484C4.73803 13.9095 4.52033 13.9995 4.2932 13.9995H2.00049V11.7068C2.00049 11.4797 2.09048 11.262 2.25162 11.1017Z" stroke="#75C75A" stroke-width="1.5" stroke-linecap="round" stroke-linejoin="round"/>
<path fill-rule="evenodd" clip-rule="evenodd" d="M2.25162 11.1017L11.1019 2.25143C11.4362 1.91717 11.9787 1.91717 12.313 2.25143L13.7495 3.68791C14.0837 4.02218 14.0837 4.56471 13.7495 4.89898L4.8983 13.7484C4.73803 13.9095 4.52033 13.9995 4.2932 13.9995H2.00049V11.7068C2.00049 11.4797 2.09048 11.262 2.25162 11.1017Z" stroke="#0FCC2D" stroke-width="1.5" stroke-linecap="round" stroke-linejoin="round"/>
<path d="M9.5 3.85156L12.1484 6.49997" stroke="#75C75A" stroke-width="1.5" stroke-linecap="round" stroke-linejoin="round"/>
<path d="M9.5 3.85156L12.1484 6.49997" stroke="#0FCC2D" stroke-width="1.5" stroke-linecap="round" stroke-linejoin="round"/>
</svg>
