<svg viewBox="0 0 26 24" fill="none"
    xmlns="http://www.w3.org/2000/svg">
    <path xmlns="http://www.w3.org/2000/svg" d="M20.1,21.8H5.6c-1.7,0-3.2-1.3-3.2-3v-2.2c0-0.4,0.3-0.7,0.8-0.7S4,16.1,4,16.5v2.2c0,0.8,0.7,1.5,1.7,1.5h14.5  c0.9,0,1.7-0.7,1.7-1.5V5.2c0-0.8-0.7-1.5-1.7-1.5H5.6C4.7,3.7,4,4.4,4,5.2v2.2c0,0.4-0.3,0.8-0.8,0.8S2.5,7.9,2.5,7.5V5.2  c0-1.7,1.4-3,3.2-3h14.5c1.7,0,3.2,1.3,3.2,3v13.5C23.3,20.4,21.9,21.8,20.1,21.8z M12.9,16.1c-0.2,0-0.4-0.1-0.5-0.2  c-0.3-0.3-0.3-0.8,0-1.1l2.2-2.1H3.2c-0.4,0-0.8-0.3-0.8-0.8s0.3-0.8,0.8-0.8h11.4l-2.2-2.1c-0.3-0.3-0.3-0.8,0-1.1  c0.3-0.3,0.8-0.3,1.1,0l3.6,3.3c0.2,0.1,0.3,0.4,0.3,0.6s-0.1,0.5-0.3,0.6l-3.6,3.3C13.3,16.1,13.1,16.1,12.9,16.1z"/>
    </svg>
