<svg xmlns="http://www.w3.org/2000/svg" width="20" height="20" fill="none" viewBox="0 0 20 20">
    <path d="M9.683 1.228c-.359.127-.714.455-.852.787l-.077.185H7.015c-1.66 0-1.747-.003-1.889-.066a2.091 2.091 0 0 0-.387-.107 1.487 1.487 0 0 0-1.509.683c-.242.374-.23.066-.232 5.697l-.002 5.043-.273.131c-.512.246-.957.789-1.109 1.352-.092.34-.078.879.032 1.217a2.248 2.248 0 0 0 1.387 1.393l.217.074 6.792.008c7.54.01 7.032.025 7.52-.214.321-.158.767-.589.931-.901.238-.452.306-1.075.174-1.59a2.112 2.112 0 0 0-1.15-1.368c-.285-.135-.456-.178-.83-.206-.283-.022-.287-.024-.243-.093.11-.172.17-.577.126-.851a1.408 1.408 0 0 0-1.4-1.202c-.423.001-.732.13-1.027.431a1.419 1.419 0 0 0-.384 1.217c.021.124.066.284.102.355l.064.13h-1.266c-1.193 0-1.265-.003-1.241-.058.205-.473.2-.914-.016-1.337-.095-.187-.401-.486-.594-.582a1.45 1.45 0 0 0-1.249-.032c-.371.174-.664.5-.776.862-.094.304-.06.801.071 1.056l.048.091H6l-.001-4.991c0-4.07-.008-5.027-.045-5.183l-.045-.191 1.43-.009 1.429-.009.031.11c.082.299.41.652.753.813l.215.1V7.262l-.175.052c-.659.195-1.152.801-1.243 1.529l-.023.19H9.1v-.128c0-.287.305-.705.613-.839.434-.19.988-.05 1.272.323.111.145.215.409.215.545v.099h.733V8.87c0-.355-.221-.822-.536-1.13a1.8 1.8 0 0 0-.667-.417l-.213-.076-.009-1.641c-.008-1.542-.005-1.642.05-1.66.328-.102.702-.405.843-.682a1.467 1.467 0 0 0-.002-1.365c-.112-.221-.399-.487-.657-.609-.201-.095-.261-.107-.559-.114-.249-.006-.375.007-.5.052m.694.703c.134.051.329.242.394.385a.657.657 0 0 1-.18.772.678.678 0 0 1-1.024-.143c-.07-.104-.084-.162-.084-.365 0-.214.012-.257.1-.383.174-.247.53-.366.794-.266M4.9 2.897a.878.878 0 0 1 .267.271l.083.149v9.933h-1.5V8.283c0-4.782.002-4.971.062-5.083.169-.317.464-.482.788-.441a.967.967 0 0 1 .3.138m5.493 9.088c.495.207.584.806.173 1.158a.666.666 0 0 1-1.024-.21.702.702 0 0 1 .034-.689.681.681 0 0 1 .817-.259m5.149.069c.446.313.38.987-.116 1.194-.503.21-1.053-.252-.927-.778.113-.469.658-.687 1.043-.416m1.472 2.096c.562.171.984.743.986 1.335a1.418 1.418 0 0 1-1.187 1.382c-.121.02-2.68.032-6.696.032-7.084 0-6.771.008-7.108-.188a1.427 1.427 0 0 1-.557-1.878c.091-.183.385-.483.565-.575.31-.16-.003-.153 7.116-.155 5.861-.002 6.738.004 6.881.047M3.415 15.215c-.117.117-.117.406-.001.541l.08.094.849.01c.993.013 1.06-.001 1.126-.221.053-.177.016-.353-.091-.438-.083-.064-.131-.068-.984-.068h-.897l-.082.082m3.607-.014c-.107.085-.144.261-.091.438.066.22.131.233 1.125.221l.85-.01.08-.094c.116-.135.116-.424-.001-.541l-.082-.082h-.897c-.853 0-.901.004-.984.068m3.56.021c-.064.068-.082.124-.082.252 0 .367.069.393 1.077.393.485 0 .82-.014.886-.037.21-.074.276-.406.117-.594l-.086-.103h-1.831l-.081.089m3.597-.01c-.079.068-.092.105-.094.266-.001.161.011.2.091.28l.092.092h.897c.891 0 .897 0 .978-.077.097-.091.132-.258.087-.421-.06-.215-.077-.219-1.069-.219-.888 0-.891.001-.982.079" />
</svg>