<svg width="16" height="16" viewBox="0 0 16 16" fill="none" xmlns="http://www.w3.org/2000/svg">
<path d="M1.3335 8.00004L0.889793 7.76955C0.81473 7.91404 0.81473 8.08604 0.889793 8.23054L1.3335 8.00004ZM14.6668 8.00004L15.1105 8.23054C15.1856 8.08604 15.1856 7.91404 15.1105 7.76955L14.6668 8.00004ZM1.3335 8.00004C1.7772 8.23054 1.77713 8.23067 1.77707 8.23079C1.77706 8.23081 1.777 8.23091 1.77699 8.23095C1.77695 8.23101 1.77695 8.23101 1.77699 8.23093C1.77707 8.23079 1.77729 8.23036 1.77766 8.22966C1.7784 8.22827 1.77971 8.22578 1.78161 8.22223C1.7854 8.21513 1.79151 8.2038 1.79991 8.18852C1.81671 8.15796 1.84267 8.11163 1.87763 8.0518C1.9476 7.93208 2.0534 7.75866 2.19377 7.54947C2.47511 7.13018 2.8921 6.57203 3.43409 6.01558C4.52588 4.89468 6.0713 3.83337 8.00016 3.83337V2.83337C5.6866 2.83337 3.89869 4.10541 2.71775 5.31784C2.12338 5.92805 1.66916 6.53657 1.36338 6.99228C1.21018 7.22059 1.09344 7.41175 1.01426 7.54724C0.974654 7.61501 0.944389 7.66895 0.923609 7.70675C0.913217 7.72565 0.905192 7.74052 0.899552 7.75108C0.896731 7.75636 0.894506 7.76056 0.892879 7.76365C0.892066 7.7652 0.891402 7.76646 0.890887 7.76745C0.89063 7.76794 0.89041 7.76836 0.890228 7.76871C0.890137 7.76889 0.890028 7.76909 0.889983 7.76918C0.889883 7.76937 0.889793 7.76955 1.3335 8.00004ZM8.00016 3.83337C9.92902 3.83337 11.4744 4.89468 12.5662 6.01558C13.1082 6.57203 13.5252 7.13018 13.8066 7.54947C13.9469 7.75866 14.0527 7.93208 14.1227 8.0518C14.1577 8.11163 14.1836 8.15796 14.2004 8.18852C14.2088 8.2038 14.2149 8.21513 14.2187 8.22223C14.2206 8.22578 14.2219 8.22827 14.2227 8.22966C14.223 8.23036 14.2233 8.23079 14.2233 8.23093C14.2234 8.23101 14.2234 8.23101 14.2233 8.23095C14.2233 8.23091 14.2233 8.23081 14.2233 8.23079C14.2232 8.23067 14.2231 8.23054 14.6668 8.00004C15.1105 7.76955 15.1104 7.76937 15.1103 7.76918C15.1103 7.76909 15.1102 7.76889 15.1101 7.76871C15.1099 7.76836 15.1097 7.76794 15.1094 7.76745C15.1089 7.76646 15.1083 7.7652 15.1074 7.76365C15.1058 7.76056 15.1036 7.75636 15.1008 7.75108C15.0951 7.74052 15.0871 7.72565 15.0767 7.70675C15.0559 7.66895 15.0257 7.61501 14.9861 7.54724C14.9069 7.41175 14.7901 7.22059 14.6369 6.99228C14.3312 6.53657 13.8769 5.92805 13.2826 5.31784C12.1016 4.10541 10.3137 2.83337 8.00016 2.83337V3.83337ZM14.6668 8.00004C14.2231 7.76955 14.2232 7.76941 14.2233 7.76929C14.2233 7.76927 14.2233 7.76917 14.2233 7.76914C14.2234 7.76907 14.2234 7.76907 14.2233 7.76915C14.2233 7.7693 14.223 7.76972 14.2227 7.77042C14.2219 7.77182 14.2206 7.77431 14.2187 7.77786C14.2149 7.78496 14.2088 7.79629 14.2004 7.81156C14.1836 7.84213 14.1577 7.88845 14.1227 7.94828C14.0527 8.068 13.9469 8.24142 13.8066 8.45061C13.5252 8.8699 13.1082 9.42805 12.5662 9.9845C11.4744 11.1054 9.92902 12.1667 8.00016 12.1667V13.1667C10.3137 13.1667 12.1016 11.8947 13.2826 10.6822C13.8769 10.072 14.3312 9.46351 14.6369 9.0078C14.7901 8.77949 14.9069 8.58833 14.9861 8.45285C15.0257 8.38507 15.0559 8.33113 15.0767 8.29334C15.0871 8.27443 15.0951 8.25956 15.1008 8.249C15.1036 8.24372 15.1058 8.23952 15.1074 8.23643C15.1083 8.23488 15.1089 8.23362 15.1094 8.23263C15.1097 8.23214 15.1099 8.23172 15.1101 8.23137C15.1102 8.2312 15.1103 8.23099 15.1103 8.2309C15.1104 8.23071 15.1105 8.23054 14.6668 8.00004ZM8.00016 12.1667C6.0713 12.1667 4.52588 11.1054 3.43409 9.9845C2.8921 9.42805 2.47511 8.8699 2.19377 8.45061C2.0534 8.24142 1.9476 8.068 1.87763 7.94828C1.84267 7.88845 1.81671 7.84213 1.79991 7.81156C1.79151 7.79629 1.7854 7.78496 1.78161 7.77786C1.77971 7.77431 1.7784 7.77182 1.77766 7.77042C1.77729 7.76972 1.77707 7.7693 1.77699 7.76915C1.77695 7.76907 1.77695 7.76907 1.77699 7.76914C1.777 7.76917 1.77706 7.76927 1.77707 7.76929C1.77713 7.76941 1.7772 7.76955 1.3335 8.00004C0.889793 8.23054 0.889883 8.23071 0.889983 8.2309C0.890028 8.23099 0.890137 8.2312 0.890228 8.23137C0.89041 8.23172 0.89063 8.23214 0.890887 8.23263C0.891402 8.23362 0.892066 8.23488 0.892879 8.23643C0.894506 8.23952 0.896731 8.24372 0.899552 8.249C0.905192 8.25956 0.913217 8.27443 0.923609 8.29334C0.944389 8.33113 0.974654 8.38507 1.01426 8.45285C1.09344 8.58833 1.21018 8.77949 1.36338 9.0078C1.66916 9.46351 2.12338 10.072 2.71775 10.6822C3.89869 11.8947 5.6866 13.1667 8.00016 13.1667V12.1667ZM9.5 8C9.5 8.82843 8.82843 9.5 8 9.5V10.5C9.38071 10.5 10.5 9.38071 10.5 8H9.5ZM8 9.5C7.17157 9.5 6.5 8.82843 6.5 8H5.5C5.5 9.38071 6.61929 10.5 8 10.5V9.5ZM6.5 8C6.5 7.17157 7.17157 6.5 8 6.5V5.5C6.61929 5.5 5.5 6.61929 5.5 8H6.5ZM8 6.5C8.82843 6.5 9.5 7.17157 9.5 8H10.5C10.5 6.61929 9.38071 5.5 8 5.5V6.5Z" fill="#808080"/>
</svg>
