<svg width="10" height="12" viewBox="0 0 10 12" fill="none"
    xmlns="http://www.w3.org/2000/svg">
    <path d="M9.35034 7.02584C9.21288 5.23617 8.37963 4.11466 7.64453 3.12499C6.96386 2.20877 6.37598 1.41757 6.37598 0.250428C6.37598 0.156678 6.32348 0.0709907 6.24023 0.0280298C6.15672 -0.015189 6.05638 -0.00811087 5.98047 0.047061C4.87647 0.837045 3.95533 2.16851 3.63355 3.43891C3.41017 4.32337 3.38062 5.31769 3.37647 5.97438C2.35694 5.75662 2.12598 4.23159 2.12355 4.21498C2.11206 4.13587 2.06373 4.06704 1.99342 4.02944C1.92238 3.99234 1.83888 3.98965 1.76685 4.0253C1.71339 4.05117 0.454586 4.69078 0.381344 7.24455C0.376211 7.32951 0.375977 7.41473 0.375977 7.49993C0.375977 9.98095 2.39477 11.9996 4.87598 11.9996C4.8794 11.9999 4.88305 12.0004 4.88598 11.9996H4.88915C7.36427 11.9925 9.37598 9.97657 9.37598 7.49993C9.37598 7.37517 9.35034 7.02584 9.35034 7.02584ZM4.87598 11.4997C4.04882 11.4997 3.37598 10.7829 3.37598 9.90187C3.37598 9.87185 3.37574 9.84157 3.37792 9.80447C3.38793 9.43291 3.4585 9.17927 3.53589 9.01057C3.68092 9.32208 3.94019 9.60844 4.36134 9.60844C4.49952 9.60844 4.61134 9.49662 4.61134 9.35845C4.61134 9.00253 4.61868 8.59191 4.7073 8.22131C4.78616 7.89272 4.97463 7.54312 5.21341 7.26288C5.3196 7.62663 5.52665 7.92103 5.7288 8.20837C6.01811 8.61947 6.31717 9.04451 6.36967 9.76931C6.37284 9.81227 6.37602 9.85549 6.37602 9.90187C6.37598 10.7829 5.70313 11.4997 4.87598 11.4997Z" fill="white"/>
</svg>
