<svg xmlns="http://www.w3.org/2000/svg" width="24" height="24" viewBox="0 0 24 24" fill="none"><path d="m4.66 2.265-.3.06c-.739.147-1.481.751-1.838 1.495-.281.584-.262-.001-.262 8.18s-.019 7.596.262 8.18c.351.731 1.065 1.316 1.838 1.506.326.08 14.954.08 15.28 0 .753-.185 1.474-.765 1.823-1.466.297-.596.273-.07.288-6.5.01-4.22.001-5.823-.032-5.94-.039-.136-.44-.555-2.652-2.774-1.774-1.779-2.658-2.638-2.767-2.689-.154-.073-.367-.075-5.86-.071-3.135.002-5.736.01-5.78.019M6.249 6.03c.011 2.254.012 2.271.098 2.41a.794.794 0 0 0 .22.22c.131.079.204.08 4.433.08s4.302-.001 4.433-.08c.223-.135.307-.314.307-.66 0-.346-.084-.525-.307-.66-.13-.078-.214-.08-3.903-.091l-3.77-.011V3.76h7.94l2.271 2.271 2.27 2.27-.011 5.52-.01 5.519-.093.188a1.43 1.43 0 0 1-.599.599c-.174.086-.247.094-.977.105l-.789.013-.011-3.773-.011-3.772-.087-.14a.794.794 0 0 0-.22-.22c-.131-.079-.204-.08-5.433-.08s-5.302.001-5.433.08a.794.794 0 0 0-.22.22l-.087.14-.011 3.772-.011 3.773-.789-.013c-.73-.011-.803-.019-.977-.105a1.43 1.43 0 0 1-.599-.599l-.093-.188-.011-7.26c-.009-5.436 0-7.303.035-7.43.093-.34.433-.7.782-.828.111-.041.364-.057.903-.059l.748-.003.012 2.27M16.24 17v3.24H7.76v-6.48h8.48V17" /></svg>