<svg width="32" height="32" viewBox="0 0 32 32" fill="none" xmlns="http://www.w3.org/2000/svg">
<path d="M5 15C4.44772 15 4 15.4477 4 16C4 16.5523 4.44772 17 5 17V15ZM27 17C27.5523 17 28 16.5523 28 16C28 15.4477 27.5523 15 27 15V17ZM5 7C4.44772 7 4 7.44772 4 8C4 8.55228 4.44772 9 5 9V7ZM27 9C27.5523 9 28 8.55228 28 8C28 7.44772 27.5523 7 27 7V9ZM5 23C4.44772 23 4 23.4477 4 24C4 24.5523 4.44772 25 5 25V23ZM27 25C27.5523 25 28 24.5523 28 24C28 23.4477 27.5523 23 27 23V25ZM5 17H27V15H5V17ZM5 9H27V7H5V9ZM5 25H27V23H5V25Z" fill="#141416"/>
</svg>
