<svg width="36" height="36" fill="none" viewBox="0 0 36 36"
    xmlns="http://www.w3.org/2000/svg">
    <path d="M16.53 3.722c-4.54.454-8.552 2.77-10.906 6.298-.528.79-1.231 2.226-1.513 3.09-1.257 3.846-.556 7.98 1.914 11.3.559.75 1.557 1.79 2.293 2.388l.557.453.017 2.349c.017 2.178.026 2.364.131 2.537.168.277.431.408.823.411.319.002.467-.063 2.904-1.276l2.569-1.277.755.098c1.012.133 2.843.132 3.876-.001 3.332-.43 6.27-1.816 8.556-4.035 1.238-1.202 1.994-2.227 2.693-3.647 1.255-2.551 1.605-5.191 1.052-7.919-.405-1.997-1.409-4.047-2.782-5.68-2.261-2.689-5.727-4.532-9.459-5.03-.661-.088-2.823-.125-3.48-.059m3.42 2.093c4.779.704 8.625 3.73 10.013 7.877.57 1.705.673 3.778.272 5.508-.447 1.933-1.372 3.617-2.812 5.118-1.892 1.973-4.485 3.286-7.383 3.739-.941.147-3.12.149-4.016.004-1.041-.168-.884-.213-3.109.886l-1.995.986v-1.632c0-.898-.026-1.724-.059-1.836-.075-.265-.216-.41-.871-.905-2.248-1.696-3.728-3.99-4.298-6.66-.114-.536-.134-.822-.138-1.92-.003-1.121.014-1.38.135-1.976.964-4.764 5.019-8.385 10.282-9.182 1.051-.158 2.925-.162 3.979-.007m-2.85 5.019c-.981.211-1.925.942-2.362 1.829-.388.789-.492 1.686-.249 2.155.198.383.888.534 1.392.305.315-.143.431-.359.494-.924.055-.491.155-.72.437-1.002.281-.281.615-.414 1.038-.414.752 0 1.35.505 1.449 1.221.083.612-.052.832-.911 1.477-1.123.845-1.526 1.58-1.527 2.789-.001.905.24 1.2.981 1.2.733 0 .936-.22 1.001-1.081.054-.712.151-.875.796-1.342 1.208-.872 1.675-1.658 1.681-2.827.006-.979-.303-1.722-1.012-2.436a3.438 3.438 0 0 0-3.208-.95m.27 10.251c-.24.108-.542.433-.657.708-.25.598.067 1.309.7 1.574.972.406 1.997-.661 1.553-1.617-.13-.281-.445-.596-.685-.686-.231-.087-.693-.076-.911.021" fill="#000"/>
</svg>