<svg width="22" height="23" viewBox="0 0 22 23" fill="none" xmlns="http://www.w3.org/2000/svg">
<path d="M4.68359 1.73047L3.7168 2.74121L5.15625 4.24609L6.12305 3.23535L4.68359 1.73047ZM17.3164 1.73047L15.877 3.23535L16.8438 4.24609L18.2832 2.74121L17.3164 1.73047ZM11 2.17969C10.7744 2.18249 10.5435 2.19653 10.3125 2.22461C10.3044 2.22461 10.2991 2.22461 10.291 2.22461C7.50342 2.55872 5.28516 4.91431 4.89844 7.81738C4.5896 10.1533 5.51074 12.2703 7.04688 13.6348C7.70483 14.2244 8.11035 15.0105 8.25 15.8135V20.126H9.81836C10.0574 20.5555 10.4924 20.8447 11 20.8447C11.5076 20.8447 11.9426 20.5555 12.1816 20.126H13.75V17.251H13.8145V16.3975C13.8145 15.3446 14.3381 14.2805 15.1895 13.4551C16.3281 12.2646 17.1875 10.5717 17.1875 8.62598C17.1875 5.07434 14.3918 2.146 11 2.17969ZM11 3.61719C13.656 3.57788 15.8125 5.85205 15.8125 8.62598C15.8125 10.1309 15.1465 11.4561 14.2227 12.4219L14.2441 12.4443C13.3203 13.3456 12.7295 14.5248 12.5684 15.8135H9.56055C9.41016 14.5809 8.90259 13.3905 7.94922 12.5342C6.73535 11.4532 6.01025 9.83044 6.25195 7.99707C6.55273 5.73132 8.30908 3.91199 10.4629 3.66211C10.6428 3.63965 10.8228 3.61999 11 3.61719ZM1.375 8.62598V10.0635H3.4375V8.62598H1.375ZM18.5625 8.62598V10.0635H20.625V8.62598H18.5625ZM5.15625 14.4434L3.7168 15.9482L4.68359 16.959L6.12305 15.4541L5.15625 14.4434ZM16.8438 14.4434L15.877 15.4541L17.3164 16.959L18.2832 15.9482L16.8438 14.4434ZM9.625 17.251H12.375V18.6885H9.625V17.251Z" fill="#35E000"/>
</svg>
