<svg width="16" height="16" viewBox="0 0 16 16" fill="none" xmlns="http://www.w3.org/2000/svg">
<path d="M11.1096 0.072518C10.4467 0.165785 9.86837 0.383409 9.26332 0.769803C8.80508 1.06293 6.06454 3.79433 5.96666 4.05637C5.71307 4.71812 6.38931 5.40652 7.0522 5.15781C7.22571 5.09119 7.50599 4.8336 8.7072 3.64777C10.0063 2.35979 10.1842 2.1999 10.4779 2.05334C10.9272 1.82683 11.3098 1.74689 11.7992 1.77354C13.254 1.84904 14.3395 3.05263 14.255 4.49161C14.2461 4.70924 14.2016 4.98904 14.1571 5.1134C13.9525 5.71297 13.9124 5.76183 12.4176 7.26743C11.6301 8.06242 10.9539 8.78191 10.9094 8.8663C10.7404 9.19495 10.8516 9.7057 11.1408 9.91445C11.2831 10.021 11.5234 10.1099 11.6613 10.1099C11.9994 10.1099 12.0706 10.0521 13.4853 8.65312C14.2372 7.90254 14.9757 7.12975 15.1226 6.93433C15.5808 6.32587 15.8255 5.74406 15.9367 5.00681C16.0212 4.46497 16.0212 4.19405 15.9367 3.67886C15.6475 1.89789 14.3262 0.512207 12.5644 0.139138C12.1685 0.0547528 11.4744 0.0236637 11.1096 0.072518Z" fill="#0017FC"/>
<path d="M10.0643 4.80622C9.86856 4.90837 4.89021 9.87818 4.78789 10.0736C4.63662 10.3712 4.69001 10.7975 4.92136 11.0596C5.1349 11.3038 5.62874 11.3838 5.94016 11.2239C6.14926 11.1129 11.1187 6.14305 11.221 5.93875C11.2744 5.82771 11.2922 5.71224 11.2789 5.51238C11.2566 5.18373 11.1187 4.9661 10.8429 4.82398C10.6293 4.71739 10.2556 4.70851 10.0643 4.80622Z" fill="#0017FC"/>
<path d="M4.03575 5.98316C3.92007 6.01869 3.52857 6.37843 2.48752 7.41326C1.7223 8.17716 1.01493 8.90109 0.917049 9.02545C0.632318 9.39852 0.352035 9.92704 0.209669 10.3623C-0.350895 12.0988 0.236363 13.9819 1.68671 15.11C3.22604 16.3047 5.42826 16.2959 6.98983 15.0878C7.1144 14.9901 7.83958 14.284 8.60479 13.52C9.76596 12.3564 9.99731 12.0988 10.0373 11.9523C10.1085 11.6858 10.0996 11.5703 9.97062 11.3172C9.76152 10.8997 9.24544 10.722 8.84059 10.9308C8.75606 10.9707 8.03533 11.6503 7.23897 12.4364C5.72634 13.9286 5.68185 13.9686 5.08124 14.1729C4.74313 14.2884 4.15587 14.3106 3.76436 14.2218C2.10046 13.8443 1.25517 12.0722 1.99814 10.5222C2.12716 10.2513 2.30067 10.0603 3.5953 8.75453C5.16577 7.16899 5.24141 7.07128 5.17022 6.70265C5.0679 6.14304 4.56517 5.82327 4.03575 5.98316Z" fill="#0017FC"/>
</svg>
