<svg xmlns="http://www.w3.org/2000/svg" width="20" height="20" fill="none" viewBox="0 0 20 20">
    <path d="M9.337 2.036c-3.01.34-5.315 2.662-5.64 5.681-.078.726.012 1.736.223 2.516.445 1.637 1.314 3.172 2.729 4.816.688.8 1.92 1.988 2.529 2.439a1.371 1.371 0 0 0 1.644 0c.339-.251 1.043-.886 1.595-1.438 3.601-3.607 4.783-7.401 3.269-10.5a6.343 6.343 0 0 0-4.619-3.453c-.447-.078-1.312-.109-1.73-.061m1.223 1c2.816.309 4.902 2.74 4.762 5.547-.091 1.808-.91 3.612-2.538 5.589-.696.846-2.449 2.526-2.69 2.579-.173.038-.279-.018-.68-.358-.513-.435-1.748-1.673-2.132-2.137-1.619-1.953-2.443-3.692-2.591-5.464a5.456 5.456 0 0 1 .27-2.197c.812-2.341 3.152-3.829 5.599-3.559M9.478 5.38C8.33 5.6 7.455 6.39 7.113 7.517c-.083.271-.091.349-.091.816 0 .468.008.545.091.815a3.04 3.04 0 0 0 2.072 2.073c.27.082.347.091.815.091.468 0 .545-.009.815-.091a3.04 3.04 0 0 0 2.072-2.073c.083-.27.091-.347.091-.815 0-.467-.008-.545-.091-.816-.317-1.042-1.116-1.822-2.137-2.085-.346-.089-.949-.113-1.272-.052m.939 1.003c.75.158 1.375.783 1.533 1.534a1.931 1.931 0 0 1-.547 1.817c-.291.289-.548.438-.923.533a2.01 2.01 0 0 1-1.424-.173 2.269 2.269 0 0 1-.834-.861c-.392-.8-.249-1.679.375-2.303a1.94 1.94 0 0 1 1.82-.547" fill="#939499" />
</svg>