<svg width="153" height="54" viewBox="0 0 153 54" fill="none"
    xmlns="http://www.w3.org/2000/svg" class="dont-remove" >
    <path stroke-width="1.5" stroke-linecap="round" d="M81 48.5528L81.1826 48.3489C81.252 48.2695 81.3379 48.1684 81.442 48.0637C81.4894 47.9282 81.5266 47.7895 81.5534 47.6486C81.5881 47.4844 81.6173 47.2877 81.6411 47.0675C81.6648 46.8474 81.7014 46.6434 81.7361 46.4738C81.7708 46.3041 81.8 46.1688 81.8292 46.0659L82.2511 44.7629C82.3516 44.4561 82.41 44.2738 82.4337 44.2215C82.553 43.8903 82.6927 43.5667 82.852 43.2524C82.9838 42.996 83.132 42.7483 83.2958 42.5106L83.4109 42.3825C83.4511 42.3374 83.4967 42.2887 83.5497 42.2363C83.6977 42.1696 83.8365 42.1028 83.9661 42.0396C84.0369 42.0079 84.1102 41.982 84.1853 41.962C84.2574 41.9428 84.3317 41.9331 84.4063 41.9331C84.4602 41.9322 84.5132 41.9465 84.5591 41.9743C84.6051 42.0021 84.642 42.0423 84.6657 42.0902C84.7352 42.2385 84.7666 42.4016 84.757 42.5648C84.7548 42.7125 84.7365 42.8595 84.7022 43.0033C84.6657 43.164 84.6145 43.339 84.5506 43.5303C84.4538 43.801 84.3807 44.0158 84.3278 44.1764C84.2748 44.337 84.2438 44.4381 84.231 44.4778C84.2054 44.5872 84.1667 44.6932 84.1159 44.7936C84.055 44.9211 83.9747 45.0763 83.8748 45.2592C83.7506 45.4938 83.6538 45.6743 83.5826 45.8006C83.5114 45.927 83.4712 46.0028 83.4584 46.0262L83.3707 46.1128L83.2776 46.2049V46.3475C83.2642 46.3846 83.2437 46.4189 83.2173 46.4485C83.1497 46.5803 83.0584 46.7427 82.9433 46.9376C82.8283 47.1325 82.6858 47.3545 82.5178 47.6053C82.4349 47.7141 82.3622 47.8301 82.3004 47.9518C82.2577 48.0311 82.2328 48.1185 82.2274 48.2081V48.7333C82.2475 48.8361 82.2712 48.9372 82.2949 49.0401C82.3187 49.1429 82.3424 49.2386 82.3662 49.3342C82.3768 49.4391 82.4166 49.5391 82.4812 49.623C82.5036 49.6531 82.5328 49.6777 82.5663 49.6949C82.5999 49.7121 82.637 49.7215 82.6748 49.7222C82.8181 49.7271 82.9591 49.6859 83.0767 49.6049C83.1931 49.513 83.2763 49.3864 83.3141 49.244C83.2214 49.2102 83.1364 49.1587 83.0639 49.0924C83.0378 49.0696 83.0167 49.0419 83.0016 49.0109C82.9866 48.9799 82.9779 48.9463 82.9762 48.9119C82.9971 48.8696 83.0142 48.8255 83.0273 48.7802C83.042 48.7333 83.0566 48.6827 83.073 48.6322C83.0771 48.6034 83.0838 48.575 83.0931 48.5474C83.1055 48.5131 83.1129 48.4773 83.115 48.4409C83.2558 48.1718 83.426 47.9188 83.6228 47.6865C83.6698 47.619 83.7304 47.5617 83.8008 47.5183C83.8712 47.4748 83.9498 47.4461 84.0319 47.4339C84.0785 47.435 84.1249 47.4398 84.1707 47.4483C84.2184 47.4561 84.2666 47.4609 84.315 47.4628C84.354 47.4602 84.3925 47.4536 84.4301 47.4429C84.4674 47.4312 84.506 47.4239 84.5451 47.4213C84.5732 47.4187 84.6015 47.4237 84.6269 47.4357C84.6523 47.4478 84.6739 47.4665 84.6894 47.4898C84.7196 47.5451 84.7341 47.6075 84.7314 47.6703C84.7259 47.864 84.6746 48.0537 84.5816 48.2243C84.5188 48.3323 84.468 48.4467 84.4301 48.5654C84.4325 48.581 84.4381 48.5959 84.4466 48.6093C84.4551 48.6226 84.4662 48.6341 84.4794 48.643C84.5055 48.6336 84.5306 48.6215 84.5543 48.6069C84.5813 48.5898 84.6064 48.5698 84.6291 48.5474C84.6502 48.6091 84.6752 48.6693 84.704 48.7279C84.7387 48.7946 84.7771 48.8722 84.8173 48.9607C84.8342 48.9836 84.8483 49.0084 84.8593 49.0347C84.8663 49.055 84.87 49.0763 84.8702 49.0978C84.7326 49.2406 84.5836 49.3722 84.4246 49.4912C84.3301 49.5672 84.2176 49.6181 84.0976 49.6392H83.9954L83.8511 49.6302C83.7944 49.697 83.7269 49.7746 83.6483 49.8612C83.5698 49.9478 83.484 50.0525 83.3872 50.1716L83.2356 50.2817C83.1753 50.3286 83.1077 50.3846 83.031 50.4532C82.9302 50.5557 82.813 50.6411 82.684 50.7058C82.5758 50.7578 82.4572 50.785 82.337 50.7852C82.2851 50.786 82.2334 50.7793 82.1835 50.7654C82.1192 50.7467 82.0577 50.7194 82.0009 50.6842C81.9468 50.6565 81.8954 50.6239 81.8475 50.5867C81.7945 50.5452 81.7342 50.4965 81.6648 50.4405C81.5878 50.2207 81.5268 49.9958 81.4822 49.7674C81.4468 49.5726 81.4285 49.3751 81.4274 49.1772C81.4286 49.1499 81.4255 49.1225 81.4183 49.096C81.4136 49.0755 81.4043 49.0564 81.3909 49.0401L81.3379 49.022L81.2959 49.0401L81.2356 49.0996C81.2027 49.0112 81.1662 48.9192 81.126 48.8307C81.0858 48.7423 81.042 48.6484 81 48.5528ZM83.7944 43.7054C83.7975 43.6887 83.7975 43.6715 83.7944 43.6548C83.7874 43.6388 83.7761 43.6251 83.7616 43.6151C83.7378 43.6151 83.7086 43.6386 83.6776 43.6963C83.6367 43.7746 83.606 43.8577 83.5862 43.9436C83.5628 44.0411 83.5266 44.1351 83.4785 44.2233C83.4219 44.3316 83.3488 44.4579 83.2611 44.6059C83.1785 44.7438 83.1035 44.8859 83.0365 45.0318C82.9653 45.1888 82.8922 45.3585 82.8191 45.5407C82.7383 45.7249 82.6699 45.9142 82.6146 46.1074C82.5764 46.2354 82.5543 46.3675 82.5488 46.5009L82.5598 46.555C82.6291 46.4893 82.6839 46.41 82.7205 46.3222C82.7954 46.1832 82.8922 45.9829 83.0127 45.7212C83.126 45.4902 83.21 45.3097 83.263 45.1798C83.3159 45.0499 83.3506 44.9614 83.3634 44.9181C83.3945 44.8098 83.4328 44.6853 83.4785 44.5427C83.5241 44.4002 83.5716 44.2396 83.6282 44.0645C83.6684 43.9977 83.7031 43.94 83.7305 43.884C83.7528 43.8552 83.7712 43.8237 83.7853 43.7902C83.7908 43.7622 83.7914 43.7335 83.7871 43.7054H83.7944Z" fill="black"/>
    <path d="M84.6016 48.5527C84.7329 48.4251 84.8753 48.3091 85.0271 48.2062C85.1761 48.1041 85.3183 47.9926 85.4527 47.8723C85.513 47.8001 85.5915 47.7153 85.6883 47.6124L86.0335 47.2515C86.1045 47.1859 86.1837 47.1295 86.2691 47.0837C86.3397 47.0455 86.4187 47.025 86.4992 47.0241C86.5812 47.019 86.6622 47.0448 86.7257 47.0963C86.7545 47.1261 86.7766 47.1617 86.7905 47.2005C86.8043 47.2394 86.8096 47.2808 86.8061 47.3219C86.7825 47.5796 86.721 47.8325 86.6234 48.0726C86.5227 48.3243 86.4611 48.5896 86.4408 48.8595C86.439 48.8747 86.4405 48.8902 86.4452 48.9048C86.45 48.9194 86.4578 48.9329 86.4682 48.9443C86.4855 48.9602 86.5085 48.9686 86.5321 48.9678H86.5613C86.638 48.919 86.7275 48.8595 86.8298 48.7873C86.9321 48.7151 87.049 48.6231 87.1768 48.5166C87.3047 48.4101 87.4106 48.2946 87.5659 48.1394C87.7211 47.9842 87.9037 47.8055 88.1138 47.598C88.2093 47.5215 88.3007 47.4401 88.3878 47.3544C88.4919 47.2551 88.6069 47.136 88.7348 46.9934C88.7919 46.9193 88.8682 46.862 88.9558 46.8274C89.0663 46.7848 89.1843 46.7646 89.3028 46.7678C89.3759 46.7623 89.4488 46.78 89.511 46.8184C89.534 46.8363 89.5524 46.8594 89.5644 46.8858C89.5765 46.9122 89.582 46.9411 89.5804 46.97C89.5833 46.997 89.5833 47.0242 89.5804 47.0512C89.5804 47.0764 89.5695 47.1017 89.5658 47.1252C89.5366 47.2443 89.4946 47.3905 89.4379 47.5637C89.3813 47.737 89.3138 47.9409 89.2334 48.1755C89.164 48.3217 89.0927 48.4986 89.0197 48.7025C88.9466 48.9064 88.8644 49.132 88.7804 49.3792L88.8224 49.4334C88.9592 49.3546 89.0856 49.2595 89.1987 49.1501C89.3643 48.9997 89.5737 48.7999 89.827 48.5509L90.0681 49.0923L89.9512 49.2078C89.8947 49.2617 89.8336 49.3106 89.7685 49.354C89.3772 49.6261 89.0078 49.9278 88.6635 50.2563C88.3846 50.5187 88.1392 50.8138 87.933 51.1352C87.6627 51.5744 87.438 51.9305 87.259 52.2036C87.0764 52.4779 86.9504 52.6692 86.87 52.7811C86.6493 53.087 86.3833 53.3583 86.081 53.586C85.8714 53.7471 85.6157 53.8387 85.3504 53.8477C85.2816 53.8544 85.2126 53.8357 85.1568 53.7953C85.1353 53.7732 85.1188 53.7468 85.1084 53.7178C85.098 53.6889 85.094 53.6581 85.0965 53.6275C85.0983 53.577 85.1082 53.527 85.1258 53.4795C85.1511 53.4101 85.1881 53.3454 85.2353 53.2882C85.3115 53.1809 85.3817 53.0694 85.4454 52.9544L85.628 52.7992C85.6396 52.7646 85.6476 52.7289 85.6518 52.6927C85.6721 52.6667 85.6947 52.6425 85.7193 52.6205L85.8253 52.5248C85.8864 52.3963 85.9624 52.2752 86.0517 52.1639C86.1735 51.9979 86.3452 51.7861 86.5668 51.5286C86.7312 51.3373 86.8828 51.1677 87.0198 51.0179L87.3704 50.6389C87.385 50.6082 87.4033 50.5704 87.4216 50.527C87.4392 50.4842 87.4538 50.4401 87.4654 50.3953C87.5184 50.2924 87.575 50.1661 87.6389 50.0199C87.7028 49.8737 87.7759 49.7005 87.8636 49.502C87.9074 49.3721 87.9422 49.2395 87.9677 49.1049C87.9951 48.9551 88.0206 48.7945 88.0462 48.6195C88.0362 48.5998 88.0306 48.5783 88.0298 48.5563C88.0251 48.5187 88.0159 48.4817 88.0024 48.4462C87.9173 48.4906 87.8376 48.5445 87.7649 48.6068C87.6791 48.679 87.5823 48.762 87.4837 48.8577C87.3656 49.0141 87.2302 49.1569 87.08 49.2836C86.9578 49.3876 86.8221 49.475 86.6764 49.5435C86.6009 49.6985 86.4825 49.8293 86.3349 49.9207C86.1893 50.0046 86.023 50.0471 85.8545 50.0434C85.746 50.0507 85.6385 50.0179 85.5531 49.9513C85.5165 49.9142 85.4883 49.8696 85.4707 49.8207C85.453 49.7718 85.4463 49.7197 85.4509 49.668C85.4517 49.6383 85.4548 49.6088 85.46 49.5796C85.4669 49.537 85.4761 49.4949 85.4874 49.4532C85.4709 49.4135 85.4509 49.3576 85.4271 49.2872C85.4435 49.2186 85.4563 49.1428 85.4691 49.0598C85.4724 48.9694 85.4632 48.8789 85.4417 48.7909C85.4235 48.7314 85.3942 48.7025 85.3541 48.7025L85.3303 48.7151C85.2865 48.7458 85.2244 48.7945 85.1477 48.8577C85.071 48.9209 84.965 48.9985 84.8573 49.0905C84.8372 49.0382 84.8116 48.9768 84.7824 48.91C84.7532 48.8433 84.7203 48.7548 84.6874 48.6592C84.6807 48.6363 84.6709 48.6145 84.6582 48.5942C84.6428 48.5762 84.6234 48.562 84.6016 48.5527V48.5527Z" fill="black"/>
    <path d="M98.9137 48.5456C99.0014 48.7405 99.0781 48.9246 99.142 49.087C99.0482 49.1765 98.9403 49.2503 98.8224 49.3054C98.6735 49.379 98.5182 49.4394 98.3585 49.4858C98.3092 49.4967 98.2526 49.5129 98.1868 49.5328C98.121 49.5526 98.0443 49.5725 97.9603 49.5923C97.8434 49.6013 97.7028 49.6122 97.5402 49.6284C97.3777 49.6446 97.1859 49.6663 96.9649 49.6952C96.6993 49.9041 96.4199 50.0952 96.1284 50.2673C95.9382 50.3847 95.7322 50.4752 95.5166 50.5362L95.4252 50.6138C95.2654 50.68 95.0989 50.7291 94.9284 50.76C94.733 50.7979 94.5029 50.8303 94.2362 50.8592C94.1808 50.8421 94.1301 50.8124 94.0883 50.7726C94.0262 50.7126 93.9688 50.648 93.9166 50.5795C93.9568 50.5344 94.0079 50.4784 94.0682 50.399C94.1285 50.3196 94.1942 50.2456 94.2673 50.15C94.3236 50.0657 94.3962 49.9934 94.481 49.937C94.5783 49.8784 94.6862 49.8392 94.7988 49.8215C94.9476 49.7899 95.0946 49.7502 95.2389 49.7024C95.2857 49.6658 95.3352 49.6326 95.3869 49.6031C95.4453 49.5707 95.5093 49.5291 95.5823 49.4822C95.6854 49.4326 95.7828 49.3721 95.8727 49.3018C95.9732 49.2223 96.0827 49.1213 96.2033 49.0094L96.5905 48.6376C96.6873 48.5438 96.7457 48.486 96.7731 48.4572C96.8036 48.4043 96.8378 48.3537 96.8754 48.3056C96.9141 48.258 96.9583 48.215 97.0069 48.1774C97.0635 48.0818 97.1348 47.9627 97.2188 47.8165C97.3028 47.6703 97.4014 47.5043 97.5202 47.313C97.547 47.2857 97.572 47.2568 97.595 47.2263C97.6261 47.1884 97.6608 47.1487 97.701 47.1054C97.7971 46.9836 97.86 46.8395 97.8836 46.6867C97.9233 46.4627 97.9417 46.2356 97.9384 46.0082C97.9347 45.8094 97.886 45.6139 97.796 45.4361C97.681 45.2059 97.534 44.9927 97.3594 44.8026C97.1994 44.6244 97.024 44.4601 96.8352 44.3118C96.6617 44.1723 96.4737 44.0513 96.2745 43.9508C96.1302 43.8804 95.9933 43.81 95.8672 43.7397L95.5202 43.5592C95.4642 43.7577 95.393 44.032 95.3065 44.3821C95.2207 44.7322 95.1239 45.1564 95.0143 45.6581C94.8925 46.2223 94.8018 46.6771 94.7421 47.0224C94.696 47.2529 94.6661 47.4863 94.6527 47.7208C94.6283 47.8195 94.6082 47.9188 94.5924 48.0186L94.333 49.2025C94.2284 49.4125 94.1062 49.6135 93.9677 49.8035C93.8673 49.9352 93.7851 50.0002 93.7321 50.0002C93.6792 50.0002 93.6773 49.9785 93.6518 49.9316C93.6199 49.8621 93.5954 49.7895 93.5787 49.715L93.6518 49.3739C93.6369 49.3413 93.6247 49.3075 93.6152 49.2729C93.6408 49.0148 93.6627 48.7531 93.6828 48.4896C93.7029 48.2262 93.7266 47.9609 93.7504 47.6992C93.7705 47.405 93.7997 47.1289 93.8399 46.8708C93.8801 46.6127 93.9257 46.3727 93.9732 46.1489L93.9002 45.8439C93.934 45.7531 93.9597 45.6595 93.9769 45.5642C93.9988 45.4523 94.017 45.326 94.0335 45.1834C94.0499 45.003 94.0645 44.8514 94.0755 44.7377C94.0823 44.6584 94.0964 44.5798 94.1175 44.5031C94.1379 44.4384 94.1549 44.3727 94.1686 44.3063C94.1869 44.2269 94.2088 44.1259 94.2326 44.0194C94.2866 43.9228 94.3584 43.8371 94.4444 43.7667C94.5373 43.6819 94.62 43.5868 94.691 43.4834C94.7541 43.4758 94.8157 43.4587 94.8737 43.4329C94.891 43.4256 94.9059 43.4136 94.9166 43.3983C94.9273 43.3829 94.9333 43.3649 94.9339 43.3462C94.9339 43.3174 94.9102 43.2939 94.8645 43.274C94.7975 43.2493 94.7275 43.2335 94.6563 43.2271C94.6042 43.2264 94.5522 43.221 94.5011 43.2109C94.4382 43.2018 94.3769 43.1848 94.3184 43.1604L93.8235 42.9221C93.7374 42.8857 93.6569 42.8378 93.5842 42.7796C93.5604 42.7619 93.5407 42.7394 93.5265 42.7136C93.5123 42.6877 93.504 42.6591 93.502 42.6298C93.5251 42.5504 93.5452 42.471 93.5623 42.3915C93.5331 42.3121 93.5111 42.2472 93.4929 42.1948C93.4773 42.1568 93.4674 42.1166 93.4636 42.0757C93.4616 42.0456 93.4714 42.0159 93.491 41.9927C93.5008 41.9824 93.5127 41.9743 93.526 41.969C93.5392 41.9637 93.5535 41.9613 93.5677 41.962L93.8636 42.0162L93.9842 41.9765L94.1047 41.9332C94.1916 41.9318 94.2784 41.9384 94.3641 41.953C94.4262 41.9625 94.4874 41.9776 94.5467 41.9981L94.7202 42.0866C94.7796 42.118 94.8405 42.1463 94.9029 42.1714L95.0965 42.1407C95.1191 42.1402 95.1415 42.1445 95.1622 42.1533C95.2197 42.1888 95.2809 42.2179 95.3449 42.24C95.4217 42.2682 95.5004 42.2911 95.5805 42.3085C95.6773 42.3248 95.7631 42.341 95.827 42.3591C95.883 42.3723 95.9374 42.391 95.9896 42.415C96.417 42.6334 96.7896 42.8409 97.1092 43.0322C97.3902 43.1973 97.656 43.3863 97.9037 43.5971C98.2069 43.8456 98.4555 44.1526 98.6343 44.4994C98.7894 44.8137 98.8699 45.1587 98.8699 45.5083C98.8525 46.1306 98.6806 46.7392 98.3694 47.2805C97.9638 47.9996 97.4626 48.6618 96.8791 49.2494C96.9516 49.219 97.026 49.193 97.1019 49.1718L97.4215 49.0689C97.6754 49.013 97.9366 48.9534 98.2069 48.8885C98.3534 48.8483 98.4963 48.7964 98.6343 48.7333C98.7378 48.6872 98.8323 48.6237 98.9137 48.5456V48.5456Z" fill="black"/>
    <path d="M98.877 48.5527C98.9285 48.4617 98.9898 48.3764 99.0596 48.2982C99.1488 48.202 99.2459 48.1132 99.35 48.033C99.361 47.9535 99.3737 47.8759 99.3865 47.7983C99.3993 47.7207 99.4066 47.6413 99.4103 47.5619C99.4252 47.4953 99.4441 47.4296 99.4669 47.3652C99.4925 47.2912 99.5217 47.2082 99.5546 47.1216C99.5874 47.035 99.6404 46.9249 99.7025 46.7931C99.7762 46.6422 99.8579 46.4952 99.9473 46.3528C100.031 46.2607 100.119 46.1615 100.212 46.0514L100.49 45.7211C100.536 45.684 100.584 45.6496 100.634 45.6183C100.689 45.5863 100.741 45.5507 100.791 45.5118C100.844 45.4941 100.899 45.4802 100.954 45.4703C101.019 45.4576 101.086 45.4516 101.153 45.4522C101.235 45.4495 101.318 45.4592 101.397 45.4811C101.458 45.5001 101.512 45.5358 101.553 45.584C101.587 45.6269 101.614 45.675 101.633 45.7265C101.663 45.8025 101.688 45.8802 101.708 45.9594C101.721 46.0388 101.735 46.1254 101.75 46.221C101.75 46.1976 101.75 46.2066 101.73 46.2517C101.71 46.2968 101.695 46.3636 101.666 46.4593L101.613 46.6505C101.527 46.8924 101.398 47.1168 101.231 47.3129C100.986 47.6161 100.72 47.9025 100.435 48.1701C100.406 48.2011 100.382 48.2365 100.364 48.2748C100.343 48.3164 100.333 48.3621 100.333 48.4083C100.331 48.4848 100.346 48.5606 100.378 48.6303C100.405 48.6902 100.451 48.7402 100.508 48.7729C100.556 48.8033 100.607 48.8275 100.661 48.8451C100.743 48.8715 100.827 48.8932 100.912 48.91C101.057 48.8998 101.201 48.8737 101.341 48.8324C101.46 48.7968 101.575 48.749 101.684 48.6899C101.704 48.6772 101.737 48.661 101.781 48.6393C101.828 48.6152 101.873 48.5861 101.914 48.5527C101.965 48.6682 102.013 48.7711 102.053 48.8613C102.093 48.9515 102.124 49.0328 102.15 49.1013C101.961 49.2908 101.751 49.4596 101.525 49.6048C101.372 49.7073 101.193 49.7661 101.008 49.7745C100.941 49.8156 100.867 49.8449 100.789 49.8611C100.692 49.8804 100.594 49.8895 100.495 49.8882C100.361 49.8908 100.227 49.8682 100.101 49.8214C99.9905 49.782 99.8915 49.717 99.8121 49.6319C99.7628 49.5782 99.7222 49.5173 99.6916 49.4514C99.6514 49.3744 99.6094 49.2824 99.5655 49.1753C99.5393 49.1066 99.5049 49.0412 99.4632 48.9804C99.4512 48.9624 99.4349 48.9474 99.4159 48.9368C99.3969 48.9261 99.3755 48.92 99.3537 48.9191C99.3139 48.9215 99.2761 48.9367 99.2459 48.9624C99.1961 49.002 99.1514 49.0475 99.1126 49.0977C99.0903 49.0217 99.0622 48.9475 99.0286 48.8757C98.9938 48.7927 98.9409 48.6826 98.877 48.5527ZM100.808 46.6145C100.718 46.6145 100.599 46.7282 100.442 46.9574C100.327 47.1043 100.25 47.2773 100.219 47.4609C100.218 47.4698 100.219 47.479 100.221 47.4877C100.224 47.4964 100.228 47.5044 100.234 47.5114C100.243 47.5181 100.253 47.523 100.264 47.5258C100.275 47.5286 100.287 47.5292 100.298 47.5276C100.321 47.527 100.342 47.5202 100.361 47.5081C100.38 47.4961 100.396 47.4791 100.406 47.4591L100.484 47.3309C100.53 47.2899 100.573 47.2465 100.614 47.201L100.738 47.0674C100.782 47.0177 100.819 46.9618 100.846 46.9014C100.87 46.8487 100.883 46.7915 100.882 46.7336C100.883 46.7035 100.876 46.6737 100.862 46.6469C100.856 46.6378 100.848 46.6301 100.839 46.6245C100.829 46.6188 100.819 46.6154 100.808 46.6145V46.6145Z" fill="black"/>
    <path d="M101.911 48.5528C101.93 48.5203 101.951 48.4889 101.975 48.4589L102.068 48.338C102.108 48.3055 102.161 48.2604 102.225 48.2008C102.289 48.1413 102.362 48.0709 102.442 47.9915L102.707 47.6973L103.089 47.2696L103.33 47.0115L103.673 46.6325C103.774 46.5116 103.898 46.4121 104.038 46.3402C104.166 46.277 104.307 46.2443 104.449 46.2445C104.51 46.2399 104.57 46.2497 104.626 46.2733C104.682 46.2969 104.731 46.3335 104.769 46.3799C104.845 46.4956 104.88 46.6323 104.871 46.7697C104.855 46.9477 104.821 47.1237 104.769 47.2949C104.7 47.5523 104.593 47.894 104.449 48.3199C104.413 48.3994 104.378 48.4752 104.347 48.5455C104.325 48.5892 104.309 48.6353 104.298 48.6827C104.292 48.7124 104.288 48.7426 104.287 48.7729C104.29 48.8063 104.305 48.8374 104.329 48.8614C104.35 48.8489 104.369 48.8331 104.385 48.8144C104.404 48.7946 104.426 48.7711 104.449 48.7422C104.489 48.6752 104.539 48.6143 104.597 48.5618C104.663 48.4968 104.743 48.4246 104.835 48.3452C104.874 48.273 104.922 48.2057 104.977 48.1449C105.037 48.0793 105.102 48.019 105.173 47.9644C105.197 47.9408 105.218 47.9148 105.237 47.8868C105.266 47.848 105.297 47.8106 105.33 47.7749C105.387 47.7171 105.448 47.6629 105.512 47.6125C105.584 47.5584 105.668 47.5006 105.764 47.4411C105.86 47.3915 105.958 47.3475 106.058 47.3093C106.13 47.2803 106.206 47.2644 106.283 47.2624C106.4 47.2598 106.516 47.2905 106.616 47.3508C106.721 47.4208 106.806 47.5173 106.862 47.6305C106.944 47.8778 107.019 48.107 107.092 48.3163C107.123 48.4165 107.173 48.5097 107.24 48.5907C107.262 48.6178 107.29 48.6399 107.321 48.6555C107.353 48.6711 107.388 48.6797 107.423 48.6809C107.471 48.6812 107.519 48.6708 107.563 48.6502C107.609 48.6291 107.649 48.599 107.682 48.5618L107.923 49.1032C107.854 49.1573 107.784 49.2151 107.711 49.2746L107.501 49.4551C107.425 49.5286 107.338 49.5896 107.242 49.6356C107.166 49.6678 107.084 49.685 107.001 49.6861C106.909 49.6864 106.817 49.666 106.734 49.6266C106.648 49.5849 106.573 49.5229 106.517 49.4461C106.47 49.3906 106.43 49.3301 106.396 49.2656C106.349 49.1808 106.292 49.0743 106.228 48.9462C106.163 48.882 106.102 48.8132 106.046 48.7404C105.98 48.6556 105.901 48.56 105.814 48.4409L105.759 48.4228C105.679 48.448 105.604 48.4838 105.534 48.5293C105.45 48.5832 105.37 48.6436 105.295 48.7098C105.176 48.8228 105.045 48.9227 104.904 49.0075C104.837 49.0353 104.78 49.0833 104.742 49.1447C104.657 49.2767 104.559 49.4005 104.451 49.5147C104.316 49.6645 104.144 49.8431 103.94 50.0561C103.887 50.1084 103.836 50.1589 103.783 50.2077C103.73 50.2564 103.679 50.3069 103.626 50.3539C103.573 50.3978 103.51 50.4292 103.443 50.4459C103.372 50.4646 103.298 50.4737 103.224 50.473C103.061 50.473 102.974 50.4188 102.961 50.3087C102.948 50.1987 102.933 50.0904 102.921 49.9785C102.981 49.8106 103.05 49.6031 103.127 49.3522C103.204 49.1014 103.291 48.8108 103.39 48.4752C103.392 48.4478 103.399 48.421 103.41 48.3957C103.425 48.3615 103.441 48.3163 103.461 48.2622C103.479 48.2183 103.493 48.173 103.503 48.1268C103.51 48.0948 103.515 48.0622 103.516 48.0294C103.517 48.0166 103.514 48.0039 103.509 47.9923C103.503 47.9807 103.495 47.9706 103.485 47.9626C103.456 47.945 103.422 47.9368 103.388 47.9392C103.329 47.9468 103.274 47.972 103.229 48.0113C103.142 48.0778 103.061 48.1535 102.99 48.2369C102.879 48.356 102.787 48.4499 102.72 48.5185C102.678 48.5627 102.631 48.6026 102.581 48.6376C102.53 48.6734 102.483 48.7132 102.438 48.7567L102.256 48.9372L102.219 49.0075C102.199 49.047 102.173 49.0834 102.143 49.1158C102.12 49.0398 102.091 48.9656 102.057 48.8938C102.028 48.7928 101.976 48.6827 101.911 48.5528Z" fill="black"/>
    <path d="M107.679 48.5527L107.715 48.5112L107.734 48.4517C107.904 48.2409 108.096 48.048 108.307 47.876C108.517 47.7047 108.707 47.5117 108.875 47.3003C108.908 47.2429 108.956 47.1955 109.014 47.1631C109.061 47.1369 109.115 47.1226 109.169 47.1216C109.296 47.1173 109.421 47.154 109.525 47.2263C109.627 47.303 109.696 47.4143 109.719 47.5385C109.746 47.6612 109.774 47.7857 109.797 47.9121C109.821 48.0384 109.841 48.1629 109.858 48.2892C109.885 48.3687 109.92 48.4896 109.96 48.6502C109.977 48.7465 110.008 48.84 110.051 48.9281C110.07 48.9665 110.101 48.9972 110.141 49.0147C110.189 49.0343 110.24 49.0435 110.292 49.0418C110.368 49.0406 110.444 49.0272 110.515 49.0021C110.601 48.9714 110.681 48.9263 110.751 48.8686C110.811 48.8162 110.875 48.7639 110.933 48.7097L111.129 48.5527L111.37 49.0941C111.289 49.1714 111.204 49.2437 111.114 49.3107C111.008 49.3919 110.88 49.4912 110.731 49.594C110.598 49.6937 110.456 49.7824 110.309 49.8593C110.228 49.9062 110.137 49.9358 110.044 49.946C109.679 49.946 109.441 49.9044 109.332 49.8214C109.222 49.7366 109.101 49.5056 108.966 49.123C108.945 49.0835 108.92 49.0456 108.893 49.0093C108.86 48.966 108.826 48.9155 108.786 48.8541C108.749 48.7828 108.706 48.7145 108.658 48.6502C108.621 48.6033 108.592 48.5816 108.568 48.5816C108.47 48.5958 108.379 48.6407 108.309 48.7097C108.166 48.8271 108.033 48.9556 107.911 49.0941C107.891 49.0418 107.865 48.9804 107.834 48.9137C107.803 48.8469 107.774 48.7585 107.741 48.6628C107.733 48.6403 107.723 48.6185 107.712 48.5978C107.703 48.581 107.692 48.5657 107.679 48.5527V48.5527ZM110.201 43.8479C110.279 43.8412 110.358 43.8623 110.422 43.9074C110.447 43.9303 110.466 43.9584 110.478 43.9897C110.49 44.021 110.495 44.0546 110.491 44.0879C110.468 44.1998 110.448 44.2936 110.431 44.3676C110.391 44.512 110.356 44.6293 110.325 44.7196C110.294 44.8098 110.272 44.8766 110.256 44.9163C110.221 45.0011 110.171 45.0788 110.108 45.1455C110.042 45.2164 109.966 45.2772 109.881 45.3259C109.809 45.3784 109.731 45.4231 109.649 45.4595C109.61 45.4816 109.565 45.4928 109.52 45.492L109.324 45.4721C109.26 45.4721 109.2 45.4721 109.142 45.4721C109.082 45.4354 109.038 45.3782 109.017 45.3115C108.984 45.2071 108.968 45.0979 108.972 44.9885C108.995 44.8193 109.073 44.6618 109.193 44.5391C109.281 44.398 109.42 44.2949 109.582 44.2503C109.649 44.1655 109.732 44.0699 109.823 43.9634C109.871 43.9325 109.924 43.9094 109.98 43.8948C110.051 43.8691 110.125 43.8533 110.201 43.8479V43.8479Z" fill="black"/>
    <path d="M111.136 48.5527L111.173 48.5112C111.195 48.4446 111.231 48.3831 111.279 48.3308C111.346 48.2563 111.424 48.1925 111.511 48.1413C111.642 48.0583 111.746 47.9897 111.821 47.9373C111.872 47.907 111.917 47.8693 111.956 47.8255C111.983 47.7938 112.008 47.76 112.029 47.7244C112.073 47.6919 112.128 47.6486 112.192 47.5926C112.256 47.5367 112.329 47.4699 112.409 47.3905C112.444 47.363 112.475 47.3308 112.501 47.2949C112.532 47.2498 112.565 47.201 112.596 47.1451C112.659 47.1027 112.72 47.0569 112.778 47.0079C112.844 46.952 112.922 46.8816 113.01 46.7932C113.098 46.7047 113.224 46.5676 113.352 46.4322C113.48 46.2969 113.62 46.1687 113.777 46.0298C113.825 46.0065 113.874 45.9872 113.925 45.972C113.969 45.9594 114.015 45.9527 114.06 45.9522C114.208 45.9407 114.354 45.9867 114.468 46.0803C114.514 46.1282 114.55 46.1849 114.573 46.247C114.596 46.3091 114.606 46.3752 114.603 46.4412C114.6 46.5071 114.593 46.5728 114.583 46.638C114.568 46.73 114.553 46.8437 114.537 46.9827C114.48 47.3851 114.44 47.6287 114.417 47.7172C114.393 47.8056 114.307 48.0781 114.163 48.5401C114.124 48.6313 114.091 48.7247 114.064 48.8198C114.029 48.9317 113.987 49.0671 113.94 49.2259C113.955 49.247 113.976 49.2633 114 49.2728C114.056 49.2589 114.108 49.2309 114.15 49.1916C114.223 49.1393 114.32 49.0581 114.44 48.9516C114.561 48.8451 114.692 48.726 114.773 48.6592C114.82 48.6162 114.87 48.5764 114.922 48.5401C114.972 48.6466 115.016 48.7458 115.056 48.8343C115.096 48.9227 115.131 49.0147 115.158 49.0887C115.107 49.1191 115.059 49.1548 115.016 49.1952C114.973 49.2357 114.934 49.2798 114.899 49.327L114.606 49.5165C114.495 49.5886 114.375 49.6662 114.241 49.7493C114.181 49.8088 114.099 49.8828 113.996 49.9676L113.649 50.2564L113.534 50.2798C113.49 50.3467 113.436 50.4074 113.375 50.4603C113.335 50.4946 113.289 50.5226 113.24 50.5433C113.175 50.5686 113.111 50.5902 113.047 50.6119L112.842 50.6805C112.821 50.6758 112.801 50.6663 112.785 50.6529C112.768 50.6394 112.754 50.6223 112.745 50.6029C112.723 50.5549 112.715 50.5018 112.722 50.4495C112.657 50.333 112.608 50.2086 112.575 50.0795C112.537 49.9272 112.519 49.7708 112.521 49.6139C112.521 49.5814 112.521 49.5489 112.521 49.5128C112.521 49.4767 112.521 49.4443 112.532 49.4172C112.513 49.3581 112.499 49.2978 112.49 49.2367C112.489 49.1803 112.501 49.1243 112.525 49.0731C112.549 49.0218 112.584 48.9766 112.628 48.9408C112.715 48.8657 112.827 48.8246 112.943 48.8253C112.971 48.8247 113 48.8334 113.023 48.85C113.046 48.8666 113.064 48.8902 113.072 48.9173C113.098 48.9786 113.125 49.0093 113.154 49.0093C113.182 49.0093 113.211 48.9552 113.242 48.8451C113.281 48.687 113.309 48.5267 113.328 48.3651C113.354 48.2073 113.373 48.0482 113.383 47.8886C113.392 47.7533 113.396 47.6504 113.396 47.5782C113.398 47.5371 113.387 47.4964 113.363 47.4627C113.348 47.4487 113.33 47.4379 113.311 47.431C113.292 47.4242 113.272 47.4215 113.251 47.423C113.198 47.423 113.028 47.5421 112.743 47.7839C112.459 48.0258 112.06 48.3777 111.549 48.8505C111.533 48.8776 111.509 48.9119 111.48 48.9516C111.45 48.9913 111.414 49.0418 111.374 49.1014C111.351 49.0254 111.323 48.9512 111.29 48.8794C111.248 48.7928 111.195 48.6827 111.136 48.5527Z" fill="black"/>
    <path d="M122.277 48.5455L122.52 49.0869C122.408 49.1487 122.283 49.1874 122.155 49.2006C121.972 49.2313 121.717 49.2602 121.41 49.2836C121.086 49.6007 120.732 49.8854 120.352 50.1337C120.028 50.347 119.676 50.5158 119.306 50.6354L119.028 50.7112C118.953 50.7127 118.878 50.7017 118.807 50.6787C118.72 50.6481 118.635 50.6114 118.553 50.5686C118.471 50.5184 118.396 50.4577 118.33 50.3881C118.306 50.3647 118.286 50.3367 118.273 50.3057C118.259 50.2747 118.252 50.2414 118.252 50.2077C118.256 50.1408 118.275 50.0756 118.306 50.0162C118.338 49.9568 118.381 49.9046 118.435 49.863C118.586 49.7293 118.76 49.6224 118.948 49.5471C119.397 49.3396 119.843 49.132 120.281 48.9209C120.33 48.9167 120.38 48.9301 120.42 48.9588C120.433 48.9716 120.444 48.9871 120.451 49.0041C120.459 49.0212 120.462 49.0395 120.462 49.0581C120.462 49.1645 120.383 49.2548 120.23 49.3288C120.077 49.4028 119.996 49.4551 119.996 49.4876C120.025 49.5273 120.049 49.5471 120.069 49.5471C120.122 49.5471 120.237 49.4695 120.416 49.3143C120.595 49.1591 120.683 49.0617 120.679 49.022L120.648 48.8848L120.661 48.8613C120.747 48.7883 120.825 48.706 120.893 48.6159C120.935 48.5644 120.962 48.5016 120.968 48.4354C120.952 48.2923 120.901 48.1552 120.818 48.0366C120.684 47.8246 120.532 47.6236 120.365 47.4356C120.222 47.2624 120.069 47.0979 119.907 46.9429C119.753 46.7986 119.607 46.6704 119.467 46.5585C119.414 46.5153 119.365 46.4682 119.32 46.4178C119.285 46.3781 119.253 46.3352 119.225 46.2896C119.18 46.2102 119.145 46.1453 119.12 46.0929C119.102 46.0556 119.079 46.0214 119.05 45.9919C119.031 45.9678 119.003 45.9389 118.968 45.9052C118.933 45.8728 118.893 45.8331 118.844 45.7897C118.751 45.6862 118.684 45.5626 118.648 45.4288C118.598 45.2404 118.575 45.0461 118.579 44.8513C118.579 44.7028 118.6 44.5551 118.643 44.4128C118.681 44.277 118.743 44.1488 118.825 44.0338C118.839 44.0068 118.85 43.9791 118.86 43.9508L118.904 43.8443C119.025 43.6177 119.184 43.4128 119.373 43.2379C119.642 42.9837 119.933 42.7536 120.243 42.5503C120.29 42.5268 120.349 42.4944 120.425 42.4547C120.504 42.4072 120.581 42.3553 120.654 42.2995C120.704 42.2589 120.757 42.2232 120.814 42.193C120.881 42.1567 120.951 42.1265 121.023 42.1027C121.13 42.0594 121.253 42.0107 121.388 41.9602C121.55 41.8742 121.717 41.7983 121.888 41.7328C121.985 41.6938 122.087 41.67 122.192 41.6624C122.247 41.6585 122.303 41.6672 122.354 41.6879C122.406 41.7085 122.452 41.7406 122.489 41.7815C122.561 41.8818 122.597 42.0034 122.59 42.1262C122.592 42.2632 122.579 42.4001 122.55 42.5341C122.538 42.6143 122.501 42.6889 122.444 42.747C121.969 43.12 121.587 43.4009 121.298 43.5898C121.121 43.7308 120.912 43.828 120.688 43.8732C120.664 43.8745 120.64 43.871 120.617 43.863C120.594 43.8549 120.573 43.8424 120.555 43.8262C120.521 43.7861 120.504 43.7343 120.508 43.6819C120.508 43.5754 120.597 43.4563 120.78 43.3209C120.962 43.1856 121.048 43.0935 121.045 43.0249L120.99 42.9889C120.966 42.9903 120.942 42.9964 120.92 43.0069C120.892 43.0209 120.865 43.0372 120.84 43.0556C120.546 43.2795 120.278 43.5342 120.04 43.8154C119.888 43.9768 119.794 44.1827 119.772 44.4019C119.773 44.5383 119.796 44.6736 119.841 44.8026C119.892 44.9489 119.96 45.0888 120.044 45.2195C120.107 45.3193 120.2 45.4456 120.323 45.5984C120.445 45.7518 120.603 45.9341 120.791 46.1489C121.052 46.4461 121.253 46.6771 121.393 46.8419C121.467 46.9312 121.546 47.0168 121.629 47.0982C121.706 47.1955 121.775 47.2986 121.835 47.4068C121.887 47.5011 121.925 47.6019 121.949 47.7063C121.972 47.7981 121.986 47.8917 121.992 47.9861C121.992 48.0961 122.003 48.2315 122.003 48.3903C122.003 48.4842 122.018 48.5383 122.045 48.5527C122.09 48.5682 122.137 48.5749 122.184 48.5726C122.205 48.5732 122.225 48.5682 122.243 48.5582C122.254 48.5544 122.266 48.5502 122.277 48.5455V48.5455Z" fill="black"/>
    <path d="M122.277 48.5527C122.293 48.5407 122.306 48.5267 122.318 48.5112C122.327 48.4929 122.333 48.4724 122.332 48.4516C122.415 48.3806 122.493 48.3033 122.564 48.2206C122.65 48.1232 122.747 48.0095 122.856 47.8777C122.966 47.746 123.039 47.6395 123.132 47.5168C123.225 47.3941 123.328 47.2786 123.435 47.1558C123.543 47.0331 123.618 46.9122 123.698 46.7841C123.779 46.6559 123.881 46.5278 123.972 46.4051C124.133 46.3293 124.259 46.2751 124.338 46.2445C124.396 46.2198 124.457 46.2034 124.52 46.1957C124.546 46.1942 124.572 46.1986 124.596 46.2086C124.621 46.2186 124.642 46.234 124.659 46.2535C124.695 46.2999 124.712 46.3577 124.708 46.4159C124.706 46.4507 124.7 46.4852 124.69 46.5188C124.677 46.5621 124.663 46.609 124.648 46.6614C124.619 46.7408 124.588 46.822 124.551 46.905C124.518 47.0439 124.48 47.1829 124.436 47.3237C124.392 47.4644 124.35 47.5998 124.31 47.7333C124.27 47.9048 124.239 48.0618 124.215 48.2044C124.194 48.3345 124.183 48.466 124.182 48.5978C124.178 48.7639 124.189 48.93 124.215 49.0941C124.239 49.2006 124.27 49.2475 124.31 49.2367L124.46 49.15L124.672 49.0345C124.745 48.9587 124.825 48.8649 124.917 48.753C125.008 48.6411 125.116 48.5112 125.245 48.3596C125.317 48.2495 125.391 48.1394 125.468 48.0329L125.567 47.9192C125.604 47.8771 125.64 47.8331 125.673 47.7875C125.729 47.6299 125.816 47.4851 125.93 47.3616C125.97 47.3179 126.019 47.2828 126.073 47.2586C126.128 47.2344 126.187 47.2215 126.246 47.2208C126.331 47.2182 126.416 47.2316 126.496 47.2605C126.553 47.2812 126.599 47.3225 126.626 47.376C126.642 47.4227 126.653 47.4712 126.657 47.5204C126.663 47.6105 126.664 47.7009 126.661 47.7911C126.664 47.8556 126.673 47.9197 126.688 47.9824C126.703 48.0416 126.712 48.102 126.716 48.1629C126.707 48.2788 126.735 48.3946 126.794 48.4949C126.822 48.5316 126.858 48.5609 126.901 48.5801C126.943 48.5993 126.989 48.6079 127.035 48.605C127.074 48.6035 127.113 48.5974 127.15 48.587C127.194 48.5743 127.238 48.5617 127.284 48.5455L127.525 49.0869C127.284 49.2294 127.085 49.3377 126.929 49.4117C126.822 49.4704 126.704 49.5078 126.582 49.5218C126.404 49.5286 126.229 49.4737 126.087 49.3666C125.948 49.2457 125.849 49.0858 125.804 48.9082C125.795 48.8576 125.778 48.8088 125.753 48.7638C125.725 48.7131 125.692 48.6653 125.654 48.6213C125.618 48.661 125.576 48.7079 125.53 48.7638C125.485 48.8198 125.435 48.8757 125.382 48.9317C125.275 49.0616 125.165 49.1897 125.057 49.3161C124.949 49.4424 124.838 49.5651 124.725 49.6878C124.608 49.8342 124.463 49.9567 124.299 50.0488C124.176 50.1173 124.038 50.1551 123.897 50.1589C123.816 50.1627 123.734 50.1501 123.658 50.1219C123.581 50.0936 123.511 50.0503 123.452 49.9946C123.327 49.8608 123.251 49.6902 123.234 49.5092C123.198 49.3016 123.174 49.1482 123.161 49.0255C123.152 48.9566 123.152 48.8869 123.161 48.818C123.158 48.7294 123.147 48.6413 123.128 48.5545C123.114 48.4949 123.094 48.466 123.065 48.466L123.028 48.4841L122.685 48.836C122.667 48.8716 122.647 48.906 122.624 48.9389C122.589 48.9923 122.551 49.0435 122.509 49.0923C122.487 49.0163 122.459 48.9421 122.425 48.8703C122.385 48.7927 122.332 48.6826 122.277 48.5527Z" fill="black"/>
    <path d="M127.289 48.5527C127.329 48.5068 127.365 48.4579 127.397 48.4066C127.44 48.3426 127.488 48.2822 127.541 48.2261L127.939 47.8796C127.947 47.8744 127.954 47.8674 127.959 47.8593C127.963 47.8511 127.966 47.842 127.967 47.8327C127.967 47.8128 127.967 47.7839 127.967 47.7478C127.964 47.7059 127.958 47.6643 127.948 47.6233C127.955 47.4694 127.974 47.3162 128.003 47.1649C128.016 47.0316 128.048 46.9008 128.1 46.7769L128.063 46.6632C128.115 46.3979 128.188 46.1056 128.283 45.7898C128.378 45.4739 128.485 45.131 128.606 44.7611C128.654 44.6841 128.696 44.6039 128.732 44.5211C128.778 44.4236 128.827 44.3135 128.884 44.189C128.959 43.9663 129.049 43.7492 129.156 43.5393C129.267 43.3137 129.395 43.0809 129.536 42.8427C129.679 42.5903 129.848 42.3527 130.04 42.1334C130.086 42.0693 130.144 42.0151 130.212 41.9738C130.28 41.9326 130.356 41.9052 130.434 41.8934C130.606 41.8741 130.779 41.9228 130.915 42.0288C131.018 42.1755 131.064 42.3545 131.044 42.5323C131.04 42.631 131.028 42.7293 131.01 42.8264C130.991 42.926 130.98 43.0267 130.977 43.1278C130.97 43.2263 130.948 43.3232 130.911 43.4148C130.87 43.5234 130.848 43.6381 130.845 43.7541C130.84 43.7873 130.829 43.8196 130.814 43.8497V43.9327C130.794 44.0019 130.77 44.07 130.743 44.1366C130.71 44.2161 130.668 44.3171 130.615 44.4218C130.562 44.5265 130.551 44.6365 130.507 44.7683C130.463 44.9 130.41 45.0426 130.35 45.1978C130.326 45.2375 130.295 45.2862 130.257 45.344C130.219 45.3999 130.177 45.4649 130.133 45.5371C130.117 45.5986 130.097 45.659 130.073 45.7176C130.045 45.7849 130.006 45.8643 129.958 45.9558C129.93 46.0101 129.897 46.062 129.861 46.111C129.821 46.1669 129.773 46.2373 129.716 46.3257C129.693 46.3654 129.667 46.4142 129.638 46.4755C129.609 46.5369 129.578 46.6019 129.541 46.6777C129.505 46.7535 129.439 46.8293 129.358 46.9285C129.278 47.0278 129.203 47.1451 129.11 47.2786C128.986 47.4988 128.856 47.7063 128.725 47.9049C128.702 48.2133 128.784 48.5204 128.957 48.7783C129.04 48.8787 129.147 48.958 129.268 49.0094C129.389 49.0609 129.521 49.0831 129.652 49.0743C129.714 49.0652 129.775 49.0513 129.835 49.0328C129.937 49.0039 130.074 48.9606 130.252 48.901C130.315 48.8601 130.376 48.8155 130.434 48.7675C130.505 48.7097 130.589 48.6412 130.681 48.5618L130.916 49.1032C130.812 49.1934 130.708 49.2836 130.602 49.3829C130.496 49.4822 130.392 49.5724 130.283 49.6626C130.169 49.7597 130.041 49.8394 129.903 49.899C129.783 49.9499 129.654 49.9769 129.523 49.9784C129.459 49.9784 129.36 49.9784 129.227 49.9586C129.127 49.9464 129.026 49.9391 128.926 49.9369C128.818 49.9386 128.711 49.9151 128.614 49.8684C128.517 49.8216 128.432 49.753 128.367 49.668C128.196 49.43 128.089 49.1531 128.056 48.8631C128.05 48.8305 128.039 48.7989 128.023 48.7693C128.004 48.7337 127.978 48.7014 127.948 48.6737C127.895 48.7242 127.835 48.7874 127.766 48.8541C127.696 48.9209 127.611 49.0075 127.51 49.0996L127.289 48.5527ZM130.166 43.8732L130.124 43.8479C129.928 44.0282 129.757 44.2326 129.614 44.4561C129.507 44.6219 129.448 44.8135 129.442 45.0101C129.437 45.059 129.424 45.1066 129.402 45.1509C129.377 45.2159 129.338 45.3007 129.285 45.4053C129.232 45.51 129.154 45.6634 129.086 45.8096C129.01 46.0334 128.951 46.2139 128.904 46.351C128.872 46.4475 128.851 46.5475 128.843 46.6488L128.88 46.6957C128.916 46.6957 128.96 46.656 129.013 46.5892C129.081 46.4944 129.142 46.3949 129.196 46.2915C129.236 46.2045 129.282 46.1207 129.335 46.0406C129.395 45.945 129.463 45.8313 129.539 45.7013C129.663 45.4865 129.766 45.2605 129.846 45.0264C129.944 44.8033 130.021 44.5719 130.076 44.3352C130.08 44.2561 130.091 44.1776 130.109 44.1006C130.131 44.0248 130.149 43.9472 130.166 43.8732Z" fill="black"/>
    <path d="M130.692 48.5528L130.716 48.504L130.809 48.3849L130.944 48.2189C131.252 47.9318 131.532 47.617 131.78 47.2786C132.077 46.8756 132.346 46.4536 132.586 46.0154C132.626 45.9577 132.662 45.8974 132.694 45.8349C132.734 45.7645 132.779 45.6743 132.827 45.5678C132.828 45.558 132.827 45.5481 132.824 45.5388C132.821 45.5294 132.816 45.5209 132.809 45.5137C132.801 45.5066 132.791 45.5013 132.781 45.4982C132.77 45.4951 132.759 45.4942 132.748 45.4956C132.709 45.4983 132.669 45.5055 132.632 45.5173C132.591 45.528 132.549 45.5347 132.507 45.5371H131.753H131.594H131.433L131.322 45.4866C131.287 45.474 131.254 45.4577 131.222 45.4433C131.18 45.4302 131.142 45.4086 131.11 45.3801C131.098 45.3682 131.088 45.3539 131.081 45.338C131.075 45.3222 131.071 45.3052 131.072 45.2881C131.064 45.09 131.091 44.8921 131.152 44.7033C131.166 44.6472 131.199 44.5972 131.244 44.5607C131.29 44.5243 131.346 44.5034 131.404 44.5012C131.51 44.5003 131.615 44.5052 131.72 44.5157C131.819 44.5247 131.903 44.5391 131.983 44.5536L132.153 44.5193C132.261 44.5193 132.354 44.5193 132.431 44.5301C132.492 44.5351 132.553 44.5454 132.613 44.5608C132.664 44.5475 132.716 44.5367 132.767 44.5283L132.933 44.494L133.132 44.5536C133.273 44.5391 133.422 44.3442 133.581 43.9706C133.74 43.5971 133.912 43.4094 134.093 43.4094C134.134 43.4071 134.176 43.4139 134.214 43.4296C134.253 43.4452 134.287 43.4691 134.315 43.4996C134.373 43.5744 134.401 43.6675 134.394 43.7613C134.387 43.8853 134.359 44.0072 134.312 44.1222C134.268 44.2308 134.236 44.344 134.219 44.4597C134.228 44.4776 134.239 44.4946 134.252 44.5102C134.27 44.5329 134.291 44.5535 134.314 44.5716C134.34 44.5919 134.358 44.6207 134.365 44.6528C134.375 44.699 134.38 44.7463 134.379 44.7936C134.382 44.9746 134.371 45.1556 134.347 45.335C134.325 45.4649 134.288 45.5317 134.241 45.5353L133.831 45.6183C133.831 45.658 133.813 45.7068 133.802 45.7645C133.791 45.8223 133.773 45.889 133.753 45.9648C133.685 46.1633 133.609 46.416 133.523 46.721C133.437 47.026 133.34 47.3887 133.24 47.8038C133.174 48.1383 133.125 48.409 133.092 48.6159C133.065 48.7536 133.047 48.8929 133.039 49.0328C133.036 49.0822 133.047 49.1316 133.07 49.1754C133.079 49.1909 133.092 49.2038 133.108 49.2124C133.123 49.221 133.141 49.225 133.159 49.2241C133.256 49.1784 133.345 49.1175 133.422 49.0436C133.573 48.9233 133.783 48.7525 134.052 48.5311L134.288 49.0725C134.235 49.1269 134.179 49.1781 134.12 49.2259C134.037 49.2944 133.951 49.3583 133.861 49.4172C133.821 49.4605 133.769 49.5093 133.709 49.5634C133.649 49.6175 133.583 49.6807 133.51 49.7439C133.437 49.807 133.366 49.9027 133.296 49.9821C133.227 50.0615 133.154 50.1391 133.083 50.2149C133.002 50.3058 132.906 50.3816 132.798 50.4387C132.718 50.481 132.629 50.5045 132.538 50.5072C132.465 50.5128 132.391 50.5018 132.323 50.4749C132.255 50.448 132.193 50.406 132.144 50.352C132.047 50.2147 132.001 50.0481 132.014 49.881C132.014 49.6518 132.014 49.4515 132.038 49.2819C132.048 49.1434 132.075 49.0065 132.116 48.874C132.13 48.8469 132.142 48.8192 132.153 48.791C132.154 48.7364 132.16 48.6821 132.171 48.6286C132.182 48.5618 132.197 48.4824 132.213 48.3903C132.237 48.2351 132.263 48.0817 132.292 47.9265C132.336 47.8309 132.383 47.7298 132.431 47.6215C132.431 47.6017 132.414 47.5836 132.383 47.5674L132.323 47.6035C132.253 47.7104 132.174 47.8112 132.087 47.9049C131.979 48.0216 131.864 48.1318 131.742 48.2351C131.538 48.43 131.327 48.6268 131.116 48.8253C131.095 48.8569 131.073 48.8871 131.048 48.9155C131.017 48.9552 130.98 49.0057 130.94 49.0653C130.92 49.0166 130.895 48.957 130.865 48.8848C130.836 48.8126 130.803 48.726 130.77 48.6304C130.763 48.6078 130.753 48.586 130.741 48.5654C130.725 48.5589 130.709 48.5547 130.692 48.5528Z" fill="black"/>
    <path d="M134.226 48.2892L134.774 47.9283C134.794 47.9084 134.818 47.8813 134.847 47.8489C134.883 47.8025 134.915 47.7536 134.944 47.7027C134.97 47.6511 135.009 47.6061 135.055 47.5709C135.104 47.5333 135.158 47.5012 135.214 47.4753C135.247 47.4356 135.293 47.3869 135.353 47.3273C135.413 47.2677 135.49 47.1974 135.583 47.118C135.627 47.0945 135.683 47.0584 135.751 47.0133C135.831 46.9597 135.905 46.8993 135.974 46.8328C136.27 46.5475 136.592 46.2901 136.936 46.064C137.141 45.9182 137.382 45.8297 137.634 45.8077C137.717 45.8012 137.799 45.8242 137.866 45.8727C137.891 45.8957 137.91 45.9238 137.923 45.9549C137.936 45.986 137.942 46.0196 137.941 46.0532C137.943 46.1288 137.928 46.2039 137.897 46.2734C137.865 46.3384 137.816 46.3938 137.755 46.434C137.654 46.5062 137.545 46.5856 137.43 46.6722C137.357 46.7652 137.278 46.8538 137.194 46.9375C137.093 47.0385 136.983 47.1315 136.867 47.2154L136.765 47.3526C136.745 47.3724 136.706 47.4085 136.65 47.459C136.579 47.5236 136.505 47.5839 136.427 47.6395C136.358 47.7649 136.269 47.8793 136.166 47.9788C136.031 48.1178 135.85 48.2856 135.618 48.4787C135.563 48.5393 135.513 48.6032 135.466 48.67L135.183 49.0634L135.225 49.1176C135.324 49.0838 135.418 49.0357 135.503 48.975C135.616 48.8932 135.723 48.8033 135.822 48.7061L136.158 48.4047C136.216 48.3501 136.277 48.2995 136.341 48.2531L136.427 48.2044C136.46 48.1868 136.492 48.1669 136.522 48.1448C136.671 47.9603 136.846 47.797 137.041 47.6594C137.171 47.5652 137.327 47.5107 137.488 47.5024C137.526 47.5007 137.564 47.5089 137.598 47.5259C137.632 47.543 137.661 47.5685 137.682 47.5998C137.732 47.6904 137.759 47.7922 137.76 47.8958C137.76 48.0943 137.747 48.2856 137.747 48.4679C137.742 48.5907 137.78 48.7117 137.853 48.8108C137.885 48.8581 137.929 48.8968 137.98 48.9233C138.031 48.9498 138.088 48.9632 138.146 48.9623C138.183 48.9617 138.22 48.9511 138.251 48.9317C138.289 48.9095 138.325 48.8835 138.357 48.8541L138.438 48.753L138.52 48.6574C138.544 48.645 138.567 48.6311 138.589 48.6158C138.62 48.5946 138.65 48.5711 138.677 48.5455C138.734 48.6646 138.779 48.7692 138.818 48.8577C138.851 48.9348 138.881 49.0137 138.905 49.0941C138.814 49.1771 138.723 49.2637 138.631 49.3522C138.541 49.4422 138.445 49.5271 138.345 49.6066C138.237 49.6893 138.119 49.7584 137.994 49.8124C137.887 49.8568 137.772 49.8801 137.656 49.8809C137.545 49.888 137.435 49.8718 137.331 49.8336C137.227 49.7953 137.132 49.7358 137.053 49.659C136.896 49.4709 136.809 49.2352 136.807 48.9912C136.806 48.954 136.801 48.9169 136.79 48.8811C136.778 48.8388 136.757 48.7994 136.728 48.7656C136.708 48.7855 136.686 48.8071 136.661 48.8288C136.635 48.8505 136.61 48.8793 136.577 48.9154L136.381 49.0634L136.105 49.2782C135.965 49.4207 135.846 49.538 135.751 49.6391L135.545 49.8358C135.456 49.9092 135.363 49.9767 135.265 50.0379C135.157 50.1065 135.039 50.1751 134.9 50.2473C134.816 50.2906 134.743 50.3249 134.683 50.352C134.641 50.3724 134.596 50.3852 134.549 50.3899C134.472 50.3958 134.395 50.3866 134.321 50.3628C134.248 50.3389 134.18 50.3009 134.122 50.2509C134.02 50.1302 133.97 49.9746 133.983 49.8178C133.983 49.7117 134.007 49.607 134.052 49.511C134.104 49.4051 134.175 49.3092 134.261 49.2276C134.268 49.1864 134.272 49.1448 134.273 49.1031C134.273 49.0811 134.267 49.0595 134.257 49.04C134.246 49.0144 134.233 48.9897 134.219 48.966C134.195 48.91 134.168 48.8469 134.136 48.7855C134.105 48.7241 134.073 48.6411 134.038 48.5617C134.063 48.532 134.086 48.5007 134.107 48.4679C134.149 48.4137 134.186 48.3578 134.226 48.2892Z" fill="black"/>
    <path d="M138.673 48.5527C138.692 48.5199 138.714 48.4885 138.737 48.4589L138.83 48.338C138.871 48.3055 138.924 48.2604 138.987 48.2008C139.051 48.1413 139.124 48.0709 139.205 47.9915L139.47 47.6973L139.85 47.2696C139.913 47.2028 139.996 47.1162 140.091 47.0115L140.436 46.6325C140.535 46.5108 140.66 46.4111 140.801 46.3402C140.929 46.277 141.069 46.2443 141.212 46.2445C141.272 46.2399 141.333 46.2497 141.389 46.2733C141.444 46.2969 141.493 46.3335 141.532 46.3799C141.607 46.4956 141.643 46.6323 141.634 46.7697C141.618 46.9477 141.584 47.1237 141.532 47.2949C141.462 47.5523 141.356 47.894 141.212 48.3199L141.108 48.5455C141.087 48.5893 141.071 48.6353 141.06 48.6827C141.054 48.7124 141.05 48.7426 141.048 48.7729C141.052 48.806 141.067 48.837 141.09 48.8614C141.112 48.849 141.131 48.8331 141.148 48.8144L141.212 48.7422C141.252 48.6756 141.301 48.6148 141.358 48.5618C141.426 48.4968 141.504 48.4246 141.597 48.3452C141.637 48.273 141.684 48.2057 141.74 48.1449C141.799 48.0785 141.864 48.018 141.935 47.9644C141.959 47.9403 141.98 47.9144 141.999 47.8868C142.028 47.848 142.059 47.8106 142.092 47.7749C142.15 47.717 142.211 47.6628 142.275 47.6125C142.348 47.5584 142.432 47.5006 142.529 47.4411C142.624 47.3915 142.721 47.3475 142.821 47.3093C142.893 47.2804 142.97 47.2646 143.048 47.2624C143.165 47.2601 143.28 47.2908 143.38 47.3508C143.486 47.4208 143.571 47.5173 143.627 47.6305C143.707 47.8778 143.784 48.107 143.857 48.3163C143.887 48.4165 143.938 48.5097 144.005 48.5906C144.027 48.618 144.054 48.6402 144.086 48.6558C144.117 48.6714 144.152 48.68 144.187 48.6809C144.237 48.6814 144.285 48.6709 144.33 48.6502C144.374 48.6289 144.414 48.5988 144.447 48.5618L144.69 49.1032C144.62 49.1573 144.551 49.2151 144.478 49.2746L144.266 49.4551C144.19 49.529 144.102 49.59 144.007 49.6356C143.93 49.6678 143.848 49.685 143.765 49.6861C143.674 49.6864 143.583 49.666 143.501 49.6265C143.414 49.5849 143.34 49.5229 143.283 49.4461C143.235 49.3916 143.194 49.3308 143.163 49.2656C143.113 49.1808 143.059 49.0743 142.993 48.9462C142.927 48.8819 142.866 48.8132 142.81 48.7404C142.744 48.6556 142.666 48.56 142.578 48.4409L142.523 48.4228C142.444 48.4482 142.367 48.484 142.297 48.5293C142.214 48.5837 142.134 48.644 142.06 48.7098C141.94 48.823 141.808 48.9229 141.667 49.0075C141.6 49.0362 141.543 49.084 141.504 49.1447C141.421 49.2771 141.324 49.4011 141.216 49.5147C141.079 49.6644 140.909 49.8431 140.704 50.0561L140.547 50.2077C140.494 50.2582 140.443 50.3069 140.39 50.3538C140.337 50.3973 140.275 50.4288 140.208 50.4459C140.135 50.4645 140.061 50.4736 139.987 50.4729C139.826 50.4729 139.738 50.4188 139.725 50.3087C139.713 50.1986 139.698 50.0904 139.685 49.9785C139.745 49.8106 139.813 49.6031 139.89 49.3522C139.966 49.1014 140.054 48.8108 140.155 48.4751C140.157 48.4478 140.164 48.4209 140.175 48.3957C140.189 48.3615 140.206 48.3163 140.226 48.2622C140.244 48.2183 140.258 48.173 140.268 48.1268C140.274 48.0947 140.278 48.0621 140.279 48.0294C140.28 48.0168 140.277 48.0041 140.272 47.9925C140.267 47.9809 140.259 47.9706 140.25 47.9626C140.22 47.9452 140.187 47.937 140.153 47.9392C140.093 47.947 140.037 47.9721 139.992 48.0113C139.905 48.0784 139.826 48.154 139.755 48.2369C139.641 48.356 139.552 48.4499 139.482 48.5185C139.441 48.5636 139.395 48.6036 139.344 48.6376C139.293 48.673 139.246 48.7128 139.203 48.7567L139.02 48.9371L138.984 49.0075C138.963 49.047 138.936 49.0834 138.905 49.1158C138.883 49.0398 138.855 48.9656 138.821 48.8938C138.79 48.7928 138.737 48.6827 138.673 48.5527Z" fill="black"/>
    <path d="M144.441 48.5528C144.475 48.5193 144.504 48.4824 144.529 48.4427C144.56 48.3958 144.595 48.3453 144.635 48.2893L145.108 47.9717C145.189 47.8802 145.275 47.794 145.367 47.7136C145.484 47.6071 145.629 47.479 145.802 47.3292C145.829 47.2739 145.862 47.2224 145.903 47.1758C145.952 47.1144 146.007 47.0577 146.067 47.0062C146.123 46.9556 146.18 46.9069 146.237 46.86C146.293 46.8149 146.345 46.7698 146.394 46.7264C146.443 46.6831 146.511 46.6073 146.566 46.546C146.62 46.4846 146.675 46.4287 146.732 46.3655C146.791 46.3125 146.858 46.2681 146.931 46.2338C147.001 46.2023 147.077 46.1863 147.154 46.1868C147.223 46.1836 147.292 46.1947 147.356 46.2193C147.376 46.2264 147.394 46.2387 147.407 46.255C147.42 46.2712 147.428 46.2907 147.431 46.3114C147.391 46.4034 147.349 46.4918 147.305 46.5857L147.34 46.6398C147.523 46.5712 147.656 46.5225 147.756 46.49C147.819 46.4677 147.884 46.452 147.95 46.4431C148.073 46.4343 148.197 46.4536 148.312 46.4996C148.426 46.5456 148.529 46.6171 148.611 46.7084C148.775 46.943 148.852 47.2257 148.83 47.5097C148.83 47.5896 148.822 47.6693 148.807 47.7479C148.788 47.8495 148.762 47.9497 148.728 48.0475C148.695 48.1509 148.652 48.2507 148.598 48.3453C148.565 48.409 148.521 48.4668 148.469 48.5167C148.479 48.5573 148.498 48.5954 148.523 48.6286C148.533 48.6394 148.546 48.6479 148.559 48.6535C148.573 48.6591 148.587 48.6617 148.602 48.6611C148.637 48.6605 148.671 48.6498 148.701 48.6304C148.745 48.6046 148.786 48.575 148.825 48.542C148.865 48.6286 148.905 48.7224 148.944 48.8127C148.982 48.9029 149.02 48.9932 149.06 49.0906L148.849 49.2711C148.781 49.3306 148.708 49.3884 148.631 49.4516C148.553 49.5188 148.465 49.5741 148.37 49.6158C148.292 49.6478 148.209 49.665 148.125 49.6663C148.043 49.6703 147.962 49.6468 147.895 49.5995C147.832 49.5527 147.782 49.4905 147.751 49.4191C147.646 49.5547 147.523 49.676 147.386 49.78C147.241 49.8907 147.082 49.9817 146.913 50.0507C146.824 50.0943 146.733 50.1311 146.639 50.1608C146.566 50.1858 146.489 50.1992 146.412 50.2005C146.372 50.2038 146.332 50.2117 146.293 50.224C146.248 50.238 146.2 50.2459 146.153 50.2474C146.035 50.2452 145.918 50.2187 145.811 50.1696C145.704 50.1206 145.608 50.0499 145.53 49.9623C145.443 49.8792 145.374 49.78 145.326 49.6703C145.279 49.5607 145.254 49.4428 145.252 49.3234C145.259 49.1948 145.281 49.0674 145.32 48.9444C145.349 48.8542 145.371 48.7618 145.386 48.6683C145.386 48.6556 145.384 48.6429 145.379 48.6311C145.375 48.6193 145.367 48.6086 145.358 48.5997C145.348 48.5903 145.337 48.583 145.324 48.5784C145.311 48.5737 145.297 48.5718 145.283 48.5727C145.229 48.5915 145.18 48.6217 145.139 48.6611L144.812 48.9192C144.797 48.9417 144.783 48.9652 144.77 48.9895C144.749 49.029 144.723 49.0654 144.692 49.0978C144.661 49.0058 144.624 48.9174 144.584 48.8199C144.541 48.7283 144.494 48.6391 144.441 48.5528V48.5528ZM147.344 47.461C147.309 47.4744 147.279 47.4961 147.256 47.5241C147.214 47.567 147.177 47.6142 147.145 47.6649C147.088 47.7551 147.024 47.8544 146.951 47.9627C146.91 48.0066 146.863 48.0437 146.81 48.0728C146.756 48.0997 146.698 48.1186 146.639 48.1287C146.598 48.1287 146.555 48.172 146.511 48.246C146.455 48.3467 146.411 48.4532 146.379 48.5636C146.341 48.6669 146.308 48.7723 146.282 48.8795C146.264 48.9522 146.254 49.0266 146.251 49.1014C146.248 49.1464 146.254 49.1915 146.268 49.2342C146.283 49.277 146.306 49.3165 146.335 49.3505C146.371 49.3809 146.412 49.404 146.456 49.4186C146.501 49.4332 146.548 49.4388 146.595 49.4353C146.777 49.4367 146.955 49.3832 147.106 49.2819C147.28 49.1598 147.428 49.0053 147.543 48.8271L147.725 48.6124C147.763 48.5817 147.79 48.5409 147.804 48.4951C147.828 48.4301 147.848 48.3638 147.864 48.2965L147.974 47.9554C147.945 47.8588 147.911 47.7642 147.87 47.6721C147.852 47.6209 147.819 47.5762 147.775 47.544C147.732 47.5265 147.687 47.5138 147.641 47.5061C147.572 47.4916 147.482 47.4772 147.344 47.461Z" fill="black"/>
    <path d="M148.805 48.5528C148.837 48.4949 148.874 48.44 148.916 48.3885C148.994 48.2878 149.078 48.1914 149.166 48.0998C149.267 48.0015 149.36 47.8966 149.446 47.7858C149.509 47.7061 149.563 47.6196 149.606 47.5277C149.654 47.4357 149.712 47.3202 149.778 47.1812C149.844 47.0422 149.919 46.8816 149.999 46.6975C150.079 46.6252 150.166 46.5606 150.258 46.5044C150.347 46.4309 150.45 46.3751 150.56 46.3402C150.611 46.3402 150.651 46.3781 150.677 46.4503C150.709 46.5599 150.722 46.6739 150.717 46.7878C150.717 47.0098 150.717 47.1956 150.717 47.3454C150.713 47.4669 150.698 47.5878 150.671 47.7064C150.671 47.7262 150.688 47.7497 150.695 47.7768C150.702 47.8038 150.713 47.8363 150.726 47.8724C150.739 47.9085 150.708 47.9536 150.695 47.9969C150.688 48.3509 150.706 48.7049 150.75 49.0563C150.786 49.2891 150.834 49.4046 150.894 49.4046C150.954 49.4046 151.077 49.3053 151.221 49.1032C151.412 48.8145 151.583 48.513 151.732 48.2009C151.933 47.8056 152.087 47.479 152.191 47.2317C152.275 47.0496 152.336 46.8581 152.373 46.6614C152.395 46.482 152.457 46.3098 152.556 46.1579C152.593 46.1041 152.643 46.0603 152.701 46.0306C152.76 46.0009 152.825 45.9864 152.89 45.9883C152.906 45.9867 152.922 45.9888 152.937 45.9945C152.952 46.0001 152.965 46.0091 152.976 46.0208C152.994 46.0509 153.002 46.0854 153 46.12C152.999 46.2838 152.978 46.4469 152.936 46.6055C152.891 46.7763 152.826 46.9412 152.741 47.0964C152.737 47.2202 152.711 47.3424 152.664 47.4573C152.603 47.6145 152.526 47.7646 152.432 47.9049C152.396 48.0081 152.368 48.1136 152.348 48.2207C152.274 48.4091 152.182 48.5903 152.074 48.7621C151.976 48.9507 151.864 49.1317 151.738 49.3035C151.727 49.4283 151.678 49.547 151.599 49.6446C151.476 49.8133 151.332 49.9667 151.172 50.1012C151.132 50.1535 151.09 50.2023 151.044 50.251C150.998 50.2997 150.958 50.3466 150.918 50.3936C150.878 50.4462 150.828 50.4898 150.77 50.5217C150.714 50.5519 150.651 50.5674 150.587 50.5668C150.49 50.5717 150.394 50.5517 150.307 50.5087C150.22 50.4657 150.146 50.4011 150.092 50.3214C149.965 50.0985 149.907 49.8439 149.924 49.5887C149.935 49.5291 149.944 49.4768 149.948 49.4335C149.924 49.3748 149.904 49.3145 149.888 49.253C149.866 49.1677 149.852 49.0808 149.846 48.9931C149.846 48.8668 149.846 48.7639 149.846 48.6845C149.847 48.6297 149.84 48.575 149.826 48.5221L149.868 48.3849L149.807 48.3506C149.725 48.409 149.649 48.4768 149.583 48.5528C149.462 48.6755 149.292 48.856 149.071 49.0942C149.042 49.0043 149.007 48.9163 148.967 48.8307C148.903 48.7513 148.856 48.6556 148.805 48.5528Z" fill="black"/>
    <path d="M52.2236 53.7645C51.9756 53.765 51.73 53.717 51.5008 53.6234C51.2716 53.5298 51.0635 53.3923 50.8883 53.2188L37.2766 39.7691L35.9426 40.6926C32.3944 43.1585 28.1609 44.4794 23.823 44.4739C12.1441 44.4739 2.64307 35.086 2.64307 23.5461C2.64307 12.0062 12.1454 2.61951 23.8243 2.61951C35.5031 2.61951 45.0042 12.0074 45.0042 23.5473C45.0126 27.9651 43.5933 32.2701 40.953 35.8353L39.9756 37.1611L53.5575 50.5814C53.8212 50.8422 54.0007 51.1744 54.0735 51.536C54.1462 51.8976 54.1088 52.2724 53.966 52.613C53.8233 52.9536 53.5816 53.2448 53.2715 53.4497C52.9613 53.6547 52.5967 53.7642 52.2236 53.7645V53.7645ZM23.8243 6.3483C14.2312 6.3483 6.41936 14.0633 6.41936 23.5473C6.41936 33.0314 14.2273 40.7464 23.8243 40.7464C33.4212 40.7464 41.2304 33.0301 41.2304 23.5473C41.2304 14.0646 33.4225 6.3483 23.8243 6.3483Z" fill="#35E000"/>
    <path d="M68.3452 20.0236C68.2172 19.9106 68.057 19.8393 67.8866 19.8194C67.7161 19.7994 67.5436 19.8318 67.3924 19.9121C66.2835 20.496 65.045 20.7979 63.7885 20.7909C59.53 20.7909 56.4731 17.6539 56.4731 13.7368C56.4731 9.85939 59.5688 6.68396 63.8287 6.68396C68.0885 6.68396 71.144 9.82096 71.144 13.7368C71.146 14.9028 70.8504 16.0504 70.2845 17.0736C70.1888 17.2411 70.1549 17.4364 70.1888 17.6258C70.2226 17.8153 70.322 17.9873 70.4699 18.1124L70.6851 18.293C70.7705 18.3645 70.8405 18.4521 70.8909 18.5508C70.9413 18.6494 70.9712 18.7571 70.9787 18.8674C70.9862 18.9776 70.9712 19.0883 70.9346 19.1927C70.8979 19.2972 70.8404 19.3933 70.7655 19.4753L69.9669 20.3528C69.8937 20.4335 69.8051 20.4991 69.7061 20.546C69.6072 20.5928 69.4998 20.62 69.3903 20.6258C69.2807 20.6316 69.171 20.616 69.0676 20.58C68.9641 20.5439 68.8689 20.488 68.7873 20.4155L68.3452 20.0236ZM64.998 17.112L64.04 16.3114C63.9553 16.24 63.8858 16.1527 63.8357 16.0544C63.7856 15.9561 63.7559 15.849 63.7483 15.7392C63.7407 15.6294 63.7553 15.5192 63.7914 15.4151C63.8275 15.311 63.8842 15.2151 63.9583 15.133L64.7621 14.2363C64.8355 14.155 64.9245 14.0888 65.0239 14.0416C65.1233 13.9944 65.2311 13.9671 65.3413 13.9613C65.4514 13.9555 65.5616 13.9712 65.6656 14.0076C65.7695 14.0441 65.8651 14.1005 65.9469 14.1736L67.0462 15.156C67.1092 15.2118 67.186 15.2501 67.2687 15.2673C67.3514 15.2845 67.4373 15.2799 67.5177 15.2539C67.598 15.228 67.6701 15.1816 67.7266 15.1194C67.7831 15.0573 67.8221 14.9816 67.8396 14.8998C67.9275 14.5153 67.971 14.1221 67.9693 13.7278C67.9693 11.3901 66.2347 9.4418 63.7885 9.4418C61.3423 9.4418 59.6479 11.3517 59.6479 13.7278C59.6479 16.0668 61.3837 18.0151 63.8287 18.0151C64.1546 18.0159 64.4796 17.9824 64.7984 17.9152C64.8819 17.8945 64.9582 17.8518 65.019 17.7915C65.0797 17.7312 65.1227 17.6557 65.1433 17.5731C65.1638 17.4904 65.1611 17.4038 65.1355 17.3226C65.1099 17.2413 65.0624 17.1685 64.998 17.112V17.112Z" fill="#0017FC"/>
    <path d="M96.6019 37.0292C96.474 36.9159 96.3138 36.8444 96.1433 36.8244C95.9727 36.8045 95.8001 36.8371 95.649 36.9178C94.539 37.5022 93.2991 37.8043 92.0413 37.7965C87.7814 37.7965 84.7246 34.6595 84.7246 30.7424C84.7246 26.865 87.8203 23.6896 92.0802 23.6896C96.34 23.6896 99.3955 26.8266 99.3955 30.7424C99.3982 31.9085 99.1026 33.0563 98.536 34.0792C98.4408 34.2469 98.4072 34.442 98.441 34.6313C98.4748 34.8207 98.5739 34.9927 98.7214 35.118L98.9366 35.2987C99.0219 35.37 99.0918 35.4575 99.1422 35.556C99.1927 35.6545 99.2226 35.762 99.2302 35.8721C99.2378 35.9822 99.223 36.0928 99.1866 36.1971C99.1502 36.3015 99.0929 36.3976 99.0183 36.4797L98.2184 37.3584C98.1453 37.4391 98.0568 37.5047 97.9579 37.5515C97.8591 37.5984 97.7519 37.6255 97.6424 37.6313C97.5329 37.6371 97.4234 37.6216 97.32 37.5855C97.2167 37.5495 97.1215 37.4936 97.04 37.4212L96.6019 37.0292ZM93.2547 34.1176L92.3005 33.3171C92.2156 33.2459 92.1459 33.1586 92.0956 33.0603C92.0452 32.9621 92.0153 32.8549 92.0076 32.7451C91.9999 32.6353 92.0145 32.525 92.0505 32.4209C92.0866 32.3167 92.1434 32.2207 92.2176 32.1386L93.0213 31.2419C93.0947 31.1606 93.1837 31.0945 93.2831 31.0472C93.3825 31 93.4904 30.9727 93.6005 30.9669C93.7107 30.9611 93.8209 30.9768 93.9248 31.0133C94.0288 31.0497 94.1244 31.1061 94.2062 31.1792L95.3055 32.1617C95.3685 32.2174 95.4452 32.2557 95.528 32.2729C95.6107 32.2901 95.6966 32.2855 95.7769 32.2595C95.8573 32.2336 95.9293 32.1872 95.9858 32.1251C96.0423 32.0629 96.0813 31.9872 96.0989 31.9055C96.1868 31.5209 96.2303 31.1277 96.2285 30.7334C96.2285 28.3957 94.494 26.4474 92.049 26.4474C89.6041 26.4474 87.9046 28.3663 87.9046 30.7424C87.9046 33.0814 89.6404 35.0297 92.0853 35.0297C92.4117 35.0304 92.7372 34.9969 93.0563 34.9298C93.142 34.9105 93.2206 34.868 93.2831 34.807C93.3457 34.746 93.3898 34.6689 93.4104 34.5845C93.431 34.5001 93.4274 34.4116 93.3998 34.3291C93.3723 34.2467 93.322 34.1734 93.2547 34.1176V34.1176Z" fill="#0017FC"/>
    <path d="M73.5034 14.7115V7.74319C73.5032 7.63465 73.5248 7.52714 73.5667 7.42682C73.6087 7.32651 73.6703 7.23536 73.7479 7.15861C73.8256 7.08185 73.9179 7.021 74.0194 6.97954C74.1209 6.93808 74.2297 6.91682 74.3396 6.91699H75.7072C75.9286 6.91699 76.141 7.0039 76.2976 7.15861C76.4541 7.31331 76.5421 7.52313 76.5421 7.74191V14.632C76.5421 16.8532 77.666 18.0035 79.5237 18.0035C81.3814 18.0035 82.5053 16.8929 82.5053 14.7294V7.74319C82.505 7.52551 82.5917 7.31652 82.7466 7.16176C82.9016 7.007 83.1121 6.91902 83.3324 6.91699H84.6975C84.8072 6.91682 84.9159 6.93804 85.0174 6.97942C85.1188 7.0208 85.211 7.08154 85.2886 7.15815C85.3663 7.23477 85.4279 7.32577 85.4699 7.42593C85.512 7.5261 85.5336 7.63347 85.5336 7.74191V14.6128C85.5336 18.7438 83.1859 20.7703 79.4796 20.7703C75.7733 20.7703 73.5034 18.7259 73.5034 14.7115Z" fill="#0017FC"/>
    <path d="M89.5886 6.91703H98.3287C98.4391 6.91601 98.5486 6.93664 98.6508 6.97772C98.7531 7.0188 98.8461 7.07952 98.9245 7.15636C99.0028 7.2332 99.065 7.32463 99.1074 7.42537C99.1497 7.5261 99.1715 7.63414 99.1713 7.74323V8.76797C99.1713 8.87641 99.1497 8.98379 99.1076 9.08395C99.0656 9.18412 99.004 9.27512 98.9263 9.35173C98.8486 9.42835 98.7565 9.48909 98.655 9.53047C98.5536 9.57185 98.4449 9.59306 98.3351 9.59289H92.6052C92.4955 9.59289 92.3868 9.61427 92.2854 9.65581C92.1841 9.69734 92.092 9.75822 92.0144 9.83496C91.9369 9.9117 91.8754 10.0028 91.8335 10.103C91.7917 10.2032 91.7702 10.3107 91.7704 10.4191V11.5284C91.7704 11.7472 91.8583 11.957 92.0149 12.1117C92.1715 12.2664 92.3838 12.3533 92.6052 12.3533H97.4419C97.5517 12.3533 97.6604 12.3747 97.7617 12.4162C97.8631 12.4578 97.9552 12.5186 98.0327 12.5954C98.1103 12.6721 98.1717 12.7632 98.2136 12.8634C98.2555 12.9637 98.277 13.0711 98.2768 13.1795V14.2042C98.2768 14.3126 98.2552 14.4198 98.2133 14.5199C98.1713 14.62 98.1098 14.7109 98.0323 14.7876C97.9548 14.8642 97.8627 14.9249 97.7614 14.9664C97.6601 15.0078 97.5516 15.0292 97.4419 15.0292H92.6052C92.4955 15.0292 92.3868 15.0505 92.2854 15.0921C92.1841 15.1336 92.092 15.1945 92.0144 15.2712C91.9369 15.348 91.8754 15.4391 91.8335 15.5393C91.7917 15.6395 91.7702 15.7469 91.7704 15.8554V17.0684C91.7702 17.1768 91.7917 17.2843 91.8335 17.3845C91.8754 17.4847 91.9369 17.5758 92.0144 17.6525C92.092 17.7293 92.1841 17.7902 92.2854 17.8317C92.3868 17.8732 92.4955 17.8946 92.6052 17.8946H98.4272C98.5369 17.8944 98.6456 17.9157 98.7471 17.957C98.8485 17.9984 98.9407 18.0591 99.0184 18.1358C99.096 18.2124 99.1576 18.3034 99.1997 18.4035C99.2417 18.5037 99.2633 18.6111 99.2633 18.7195V19.7263C99.2633 19.8348 99.2417 19.9421 99.1997 20.0423C99.1576 20.1425 99.096 20.2335 99.0184 20.3101C98.9407 20.3867 98.8485 20.4475 98.7471 20.4888C98.6456 20.5302 98.5369 20.5514 98.4272 20.5513H89.5886C89.4789 20.5514 89.3701 20.5302 89.2687 20.4888C89.1673 20.4475 89.0751 20.3867 88.9974 20.3101C88.9198 20.2335 88.8581 20.1425 88.8161 20.0423C88.7741 19.9421 88.7524 19.8348 88.7524 19.7263V7.74323C88.7523 7.63468 88.7738 7.52717 88.8157 7.42686C88.8577 7.32654 88.9193 7.23539 88.997 7.15864C89.0746 7.08189 89.1669 7.02104 89.2684 6.97958C89.3699 6.93811 89.4787 6.91686 89.5886 6.91703V6.91703Z" fill="#0017FC"/>
    <path d="M102.059 17.924L102.796 17.053C102.929 16.8941 103.119 16.7906 103.326 16.7633C103.533 16.736 103.743 16.7869 103.915 16.9057C104.978 17.6499 106.107 18.1021 107.43 18.1021C108.672 18.1021 109.422 17.6153 109.422 16.7763C109.422 16.0167 108.948 15.6235 106.641 15.0432C103.861 14.3464 102.066 13.5778 102.066 10.8341C102.066 8.35933 104.078 6.7223 106.897 6.7223C108.46 6.70123 109.996 7.12934 111.317 7.95455C111.412 8.01407 111.494 8.09196 111.558 8.18357C111.622 8.27518 111.667 8.37862 111.69 8.4877C111.712 8.59677 111.712 8.70924 111.69 8.81836C111.668 8.92748 111.623 9.03102 111.559 9.12276L110.911 10.0591C110.792 10.2309 110.611 10.3515 110.405 10.3967C110.199 10.4419 109.983 10.4082 109.801 10.3025C108.803 9.71455 107.819 9.37254 106.864 9.37254C105.697 9.37254 105.089 9.89901 105.089 10.5997C105.089 11.4963 105.68 11.7884 108.071 12.393C110.871 13.1141 112.447 14.1069 112.447 16.524C112.447 19.2319 110.357 20.7511 107.38 20.7511C105.532 20.7554 103.73 20.1869 102.227 19.1256C102.132 19.0602 102.053 18.9763 101.993 18.8791C101.933 18.782 101.894 18.6736 101.878 18.5608C101.862 18.4481 101.87 18.3333 101.901 18.2237C101.933 18.1142 101.987 18.0121 102.059 17.924V17.924Z" fill="#0017FC"/>
    <path d="M117.039 9.68508H114.511C114.401 9.68508 114.292 9.66371 114.191 9.62219C114.09 9.58067 113.997 9.51982 113.92 9.4431C113.842 9.36638 113.78 9.2753 113.738 9.17506C113.696 9.07482 113.675 8.96738 113.675 8.85888V7.74319C113.675 7.63465 113.696 7.52714 113.738 7.42682C113.78 7.32651 113.842 7.23536 113.919 7.15861C113.997 7.08185 114.089 7.021 114.191 6.97954C114.292 6.93808 114.401 6.91682 114.511 6.91699H124.276C124.386 6.91682 124.495 6.93804 124.596 6.97942C124.698 7.0208 124.79 7.08154 124.868 7.15815C124.945 7.23477 125.007 7.32577 125.049 7.42593C125.091 7.5261 125.113 7.63347 125.113 7.74191V8.8576C125.113 9.07673 125.024 9.28687 124.868 9.44181C124.711 9.59676 124.498 9.6838 124.276 9.6838H121.747C121.526 9.6838 121.313 9.77071 121.157 9.92542C121 10.0801 120.912 10.2899 120.912 10.5087V19.7314C120.912 19.8399 120.891 19.9472 120.849 20.0474C120.807 20.1476 120.745 20.2386 120.667 20.3152C120.59 20.3918 120.498 20.4525 120.396 20.4939C120.295 20.5353 120.186 20.5565 120.076 20.5563H118.711C118.601 20.5565 118.493 20.5353 118.391 20.4939C118.29 20.4525 118.198 20.3918 118.12 20.3152C118.042 20.2386 117.981 20.1476 117.939 20.0474C117.897 19.9472 117.875 19.8399 117.875 19.7314V10.5087C117.875 10.4004 117.853 10.2932 117.811 10.1931C117.769 10.0931 117.707 10.0023 117.63 9.92579C117.552 9.84931 117.46 9.78869 117.358 9.74739C117.257 9.70609 117.148 9.68492 117.039 9.68508V9.68508Z" fill="#0017FC"/>
    <path d="M57.8735 24.7643C57.8735 24.6558 57.8952 24.5484 57.9372 24.4483C57.9792 24.3481 58.0409 24.2571 58.1185 24.1805C58.1962 24.1039 58.2884 24.0431 58.3898 24.0018C58.4912 23.9604 58.5999 23.9392 58.7097 23.9393H64.1842C65.9382 23.9393 67.2955 24.4261 68.2029 25.3215C68.9716 26.0823 69.3852 27.1532 69.3852 28.4789C69.3852 30.3132 68.5503 31.5801 67.2566 32.3217C67.1566 32.3784 67.0695 32.4549 67.0009 32.5464C66.9322 32.6379 66.8833 32.7424 66.8574 32.8534C66.8315 32.9643 66.829 33.0794 66.8502 33.1914C66.8714 33.3033 66.9157 33.4098 66.9804 33.504L68.9055 36.2849C68.9915 36.4089 69.0416 36.5537 69.0503 36.7038C69.059 36.8538 69.0261 37.0033 68.9552 37.1362C68.8842 37.2691 68.7778 37.3804 68.6475 37.4579C68.5172 37.5354 68.368 37.5763 68.2159 37.5761H66.6965C66.5603 37.5762 66.4261 37.5433 66.3056 37.4804C66.1852 37.4174 66.0822 37.3262 66.0056 37.2149L63.5062 33.5745C63.4296 33.4628 63.3264 33.3714 63.2057 33.3082C63.085 33.245 62.9505 33.212 62.814 33.212H61.7458C61.636 33.212 61.5273 33.2334 61.426 33.2749C61.3246 33.3164 61.2325 33.3773 61.155 33.4541C61.0774 33.5308 61.016 33.6219 60.9741 33.7221C60.9322 33.8223 60.9107 33.9298 60.9109 34.0382V36.7512C60.9109 36.8596 60.8893 36.967 60.8472 37.0672C60.8052 37.1673 60.7436 37.2583 60.6659 37.335C60.5883 37.4116 60.4961 37.4723 60.3946 37.5137C60.2932 37.5551 60.1845 37.5763 60.0747 37.5761H58.7097C58.5999 37.5763 58.4912 37.5551 58.3898 37.5137C58.2884 37.4723 58.1962 37.4116 58.1185 37.335C58.0409 37.2583 57.9792 37.1673 57.9372 37.0672C57.8952 36.967 57.8735 36.8596 57.8735 36.7512V24.7643ZM63.9872 30.563C65.465 30.563 66.3128 29.7842 66.3128 28.5955C66.3128 27.3146 65.4054 26.6472 63.9275 26.6472H61.7458C61.636 26.6472 61.5273 26.6686 61.426 26.7101C61.3246 26.7517 61.2325 26.8125 61.155 26.8893C61.0774 26.966 61.016 27.0571 60.9741 27.1573C60.9322 27.2576 60.9107 27.365 60.9109 27.4734V29.7381C60.9109 29.9569 60.9989 30.1667 61.1554 30.3214C61.312 30.4761 61.5243 30.563 61.7458 30.563H63.9872Z" fill="#0017FC"/>
    <path d="M72.9655 23.9393H81.7056C81.8153 23.9392 81.924 23.9604 82.0255 24.0018C82.1269 24.0431 82.2191 24.1039 82.2968 24.1805C82.3744 24.2571 82.436 24.3481 82.4781 24.4483C82.5201 24.5484 82.5417 24.6558 82.5417 24.7643V25.7826C82.5417 25.891 82.5201 25.9984 82.4781 26.0986C82.436 26.1987 82.3744 26.2897 82.2968 26.3664C82.2191 26.443 82.1269 26.5037 82.0255 26.5451C81.924 26.5865 81.8153 26.6077 81.7056 26.6075H75.9822C75.8724 26.6075 75.7638 26.6289 75.6624 26.6704C75.561 26.712 75.4689 26.7728 75.3914 26.8496C75.3138 26.9263 75.2524 27.0174 75.2105 27.1176C75.1686 27.2179 75.1471 27.3253 75.1473 27.4337V28.5494C75.1473 28.7682 75.2353 28.978 75.3918 29.1327C75.5484 29.2874 75.7608 29.3743 75.9822 29.3743H80.8189C81.0406 29.3743 81.2533 29.4614 81.4101 29.6163C81.5669 29.7713 81.655 29.9814 81.655 30.2005V31.2189C81.655 31.3273 81.6334 31.4347 81.5914 31.5348C81.5493 31.635 81.4877 31.726 81.4101 31.8026C81.3324 31.8792 81.2402 31.94 81.1388 31.9814C81.0373 32.0227 80.9286 32.0439 80.8189 32.0438H75.9822C75.8724 32.0438 75.7638 32.0652 75.6624 32.1067C75.561 32.1482 75.4689 32.2091 75.3914 32.2858C75.3138 32.3626 75.2524 32.4537 75.2105 32.5539C75.1686 32.6541 75.1471 32.7615 75.1473 32.87V34.083C75.1473 34.3018 75.2353 34.5116 75.3918 34.6663C75.5484 34.821 75.7608 34.9079 75.9822 34.9079H81.8002C81.91 34.9079 82.0188 34.9293 82.1202 34.9708C82.2217 35.0124 82.3138 35.0732 82.3915 35.1499C82.4691 35.2266 82.5307 35.3177 82.5727 35.418C82.6148 35.5182 82.6364 35.6256 82.6364 35.7341V36.7525C82.6364 36.8609 82.6147 36.9683 82.5727 37.0685C82.5307 37.1686 82.4691 37.2596 82.3914 37.3362C82.3137 37.4129 82.2215 37.4736 82.1201 37.515C82.0187 37.5564 81.91 37.5776 81.8002 37.5774H72.9655C72.8558 37.5776 72.7471 37.5564 72.6457 37.515C72.5442 37.4736 72.452 37.4129 72.3744 37.3362C72.2967 37.2596 72.2351 37.1686 72.1931 37.0685C72.151 36.9683 72.1294 36.8609 72.1294 36.7525V24.7643C72.1294 24.6558 72.151 24.5484 72.1931 24.4483C72.2351 24.3481 72.2967 24.2571 72.3744 24.1805C72.452 24.1039 72.5442 24.0431 72.6457 24.0018C72.7471 23.9604 72.8558 23.9392 72.9655 23.9393Z" fill="#0017FC"/>
    <path d="M101.886 31.7325V24.7643C101.886 24.5455 101.974 24.3356 102.13 24.1809C102.287 24.0262 102.499 23.9393 102.721 23.9393H104.086C104.195 23.9392 104.304 23.9604 104.406 24.0018C104.507 24.0431 104.599 24.1039 104.677 24.1805C104.754 24.2571 104.816 24.3481 104.858 24.4483C104.9 24.5484 104.922 24.6558 104.922 24.7643V31.6544C104.922 33.8755 106.046 35.0258 107.903 35.0258C109.761 35.0258 110.885 33.9152 110.885 31.7517V24.7643C110.885 24.6558 110.907 24.5484 110.949 24.4483C110.991 24.3481 111.052 24.2571 111.13 24.1805C111.208 24.1039 111.3 24.0431 111.401 24.0018C111.503 23.9604 111.611 23.9392 111.721 23.9393H113.086C113.196 23.9392 113.305 23.9604 113.406 24.0018C113.508 24.0431 113.6 24.1039 113.677 24.1805C113.755 24.2571 113.817 24.3481 113.859 24.4483C113.901 24.5484 113.922 24.6558 113.922 24.7643V31.639C113.922 35.77 111.575 37.7964 107.868 37.7964C104.162 37.7964 101.886 35.7469 101.886 31.7325Z" fill="#0017FC"/>
    <path d="M117.845 23.9393H126.585C126.695 23.9392 126.804 23.9604 126.905 24.0018C127.007 24.0431 127.099 24.1039 127.177 24.1805C127.254 24.2571 127.316 24.3481 127.358 24.4483C127.4 24.5484 127.422 24.6558 127.422 24.7643V25.7826C127.422 25.891 127.4 25.9984 127.358 26.0986C127.316 26.1987 127.254 26.2897 127.177 26.3664C127.099 26.443 127.007 26.5037 126.905 26.5451C126.804 26.5865 126.695 26.6077 126.585 26.6075H120.862C120.752 26.6075 120.644 26.6289 120.542 26.6704C120.441 26.712 120.349 26.7728 120.271 26.8496C120.194 26.9263 120.132 27.0174 120.09 27.1176C120.048 27.2179 120.027 27.3253 120.027 27.4337V28.5494C120.027 28.6577 120.049 28.765 120.091 28.8651C120.133 28.9652 120.194 29.0561 120.272 29.1327C120.349 29.2093 120.441 29.2701 120.543 29.3115C120.644 29.353 120.752 29.3743 120.862 29.3743H125.699C125.808 29.3743 125.917 29.3957 126.019 29.4372C126.12 29.4788 126.212 29.5396 126.29 29.6164C126.367 29.6931 126.429 29.7842 126.47 29.8844C126.512 29.9847 126.534 30.0921 126.534 30.2005V31.2189C126.534 31.4376 126.446 31.6475 126.289 31.8022C126.133 31.9569 125.92 32.0438 125.699 32.0438H120.862C120.752 32.0438 120.644 32.0652 120.542 32.1067C120.441 32.1482 120.349 32.2091 120.271 32.2858C120.194 32.3626 120.132 32.4537 120.09 32.5539C120.048 32.6541 120.027 32.7615 120.027 32.87V34.083C120.027 34.1913 120.049 34.2986 120.091 34.3987C120.133 34.4988 120.194 34.5897 120.272 34.6663C120.349 34.7429 120.441 34.8037 120.543 34.8451C120.644 34.8866 120.752 34.9079 120.862 34.9079H126.684C126.906 34.9079 127.118 34.995 127.275 35.1499C127.432 35.3049 127.52 35.515 127.52 35.7341V36.7525C127.52 36.8609 127.498 36.9683 127.456 37.0685C127.414 37.1686 127.353 37.2596 127.275 37.3362C127.197 37.4129 127.105 37.4736 127.004 37.515C126.902 37.5564 126.794 37.5776 126.684 37.5774H117.845C117.736 37.5776 117.627 37.5564 117.526 37.515C117.424 37.4736 117.332 37.4129 117.254 37.3362C117.177 37.2596 117.115 37.1686 117.073 37.0685C117.031 36.9683 117.009 36.8609 117.009 36.7525V24.7643C117.009 24.6558 117.031 24.5484 117.073 24.4483C117.115 24.3481 117.177 24.2571 117.254 24.1805C117.332 24.1039 117.424 24.0431 117.526 24.0018C117.627 23.9604 117.736 23.9392 117.845 23.9393V23.9393Z" fill="#0017FC"/>
    <path d="M129.821 34.9451L130.556 34.074C130.69 33.915 130.88 33.8115 131.087 33.7842C131.295 33.7569 131.505 33.8078 131.676 33.9267C132.738 34.6709 133.867 35.1231 135.191 35.1231C136.433 35.1231 137.182 34.6351 137.182 33.7973C137.182 33.0377 136.709 32.6445 134.403 32.0642C131.622 31.3623 129.828 30.6027 129.828 27.8551C129.828 25.3803 131.838 23.7433 134.658 23.7433C136.221 23.7221 137.756 24.1502 139.077 24.9756C139.172 25.0351 139.254 25.113 139.319 25.2045C139.383 25.2961 139.427 25.3995 139.45 25.5085C139.473 25.6176 139.473 25.73 139.451 25.8391C139.429 25.9483 139.385 26.0519 139.321 26.1438L138.673 27.0801C138.553 27.252 138.372 27.3727 138.166 27.4178C137.96 27.463 137.744 27.4293 137.562 27.3235C136.564 26.7356 135.581 26.3936 134.624 26.3936C133.457 26.3936 132.849 26.92 132.849 27.6207C132.849 28.5173 133.441 28.8094 135.831 29.414C138.631 30.1352 140.209 31.1279 140.209 33.545C140.209 36.2529 138.118 37.7721 135.14 37.7721C133.293 37.7764 131.49 37.2079 129.987 36.1466C129.893 36.0811 129.813 35.9971 129.753 35.8999C129.694 35.8027 129.655 35.6943 129.639 35.5816C129.623 35.4688 129.632 35.3541 129.663 35.2445C129.694 35.135 129.748 35.0331 129.821 34.9451Z" fill="#0017FC"/>
    <path d="M144.923 26.7061H142.396C142.286 26.7058 142.177 26.684 142.075 26.642C141.974 26.6 141.882 26.5387 141.804 26.4614C141.727 26.3842 141.665 26.2926 141.624 26.192C141.582 26.0913 141.561 25.9835 141.562 25.8748V24.7591C141.562 24.6507 141.584 24.5433 141.626 24.4431C141.668 24.343 141.729 24.252 141.807 24.1754C141.885 24.0987 141.977 24.038 142.078 23.9966C142.18 23.9552 142.288 23.934 142.398 23.9342H152.164C152.273 23.934 152.382 23.9552 152.484 23.9966C152.585 24.038 152.677 24.0987 152.755 24.1754C152.832 24.252 152.894 24.343 152.936 24.4431C152.978 24.5433 153 24.6507 153 24.7591V25.8748C153 26.0939 152.912 26.3041 152.755 26.459C152.598 26.614 152.385 26.701 152.164 26.701H149.634C149.413 26.701 149.201 26.7879 149.044 26.9426C148.888 27.0973 148.8 27.3071 148.8 27.5259V36.7486C148.8 36.8571 148.778 36.9644 148.736 37.0646C148.694 37.1648 148.632 37.2558 148.555 37.3324C148.477 37.409 148.385 37.4697 148.283 37.5111C148.182 37.5525 148.073 37.5737 147.963 37.5735H146.598C146.489 37.5737 146.38 37.5525 146.278 37.5111C146.177 37.4697 146.085 37.409 146.007 37.3324C145.93 37.2558 145.868 37.1648 145.826 37.0646C145.784 36.9644 145.762 36.8571 145.762 36.7486V27.5259C145.761 27.3074 145.672 27.0983 145.514 26.9446C145.357 26.7909 145.145 26.7051 144.923 26.7061V26.7061Z" fill="#0017FC"/>
    <path d="M50.9132 47.9619L37.3351 34.5416L38.3113 33.2158C40.9519 29.6507 42.3716 25.3457 42.3637 20.9279C42.3598 9.38794 32.8588 0 21.1799 0C9.50101 0 0 9.38794 0 20.9279C0 32.4678 9.50101 41.8557 21.1799 41.8557C25.5179 41.8611 29.7513 40.5403 33.2995 38.0744L34.6335 37.147L48.2453 50.5968C48.6004 50.941 49.0787 51.1328 49.5761 51.1304C50.0736 51.128 50.5499 50.9317 50.9017 50.5842C51.2535 50.2366 51.4521 49.7659 51.4545 49.2743C51.4569 48.7828 51.2628 48.3102 50.9145 47.9593L50.9132 47.9619ZM34.7333 31.9759L26.9642 24.0469L28.2425 22.6917C29.1311 21.752 29.7223 20.5761 29.9434 19.3086C30.1646 18.0412 30.0059 16.7376 29.487 15.5581C28.9682 14.3786 28.1117 13.3747 27.0229 12.6699C25.9342 11.9651 24.6607 11.5901 23.3591 11.5911H17.3958C16.3692 11.5922 15.3848 11.9956 14.6589 12.7129C13.9329 13.4302 13.5246 14.4028 13.5236 15.4173V28.3957C13.517 28.6446 13.5609 28.8924 13.6528 29.1243C13.7446 29.3562 13.8826 29.5675 14.0584 29.7459C14.2343 29.9243 14.4445 30.0661 14.6767 30.1629C14.9089 30.2597 15.1584 30.3096 15.4105 30.3096C15.6625 30.3096 15.912 30.2597 16.1442 30.1629C16.3764 30.0661 16.5866 29.9243 16.7625 29.7459C16.9384 29.5675 17.0763 29.3562 17.1681 29.1243C17.26 28.8924 17.3039 28.6446 17.2973 28.3957V15.3199H23.3591C24.1225 15.3121 24.8584 15.6013 25.4079 16.1251C25.9574 16.6488 26.2763 17.3651 26.2959 18.1192C26.3155 18.8734 26.0341 19.6049 25.5125 20.1558C24.9909 20.7067 24.271 21.0327 23.5082 21.0636C23.4176 21.0499 23.3262 21.0426 23.2346 21.0419H20.9232C20.6713 21.0353 20.4206 21.0787 20.1859 21.1695C19.9512 21.2602 19.7372 21.3965 19.5567 21.5703C19.3762 21.7441 19.2327 21.9518 19.1347 22.1813C19.0367 22.4107 18.9863 22.6572 18.9863 22.9062C18.9863 23.1553 19.0367 23.4018 19.1347 23.6312C19.2327 23.8607 19.3762 24.0684 19.5567 24.2422C19.7372 24.416 19.9512 24.5523 20.1859 24.643C20.4206 24.7338 20.6713 24.7772 20.9232 24.7706H21.9214C22.3635 24.7706 22.7381 25.1549 22.7381 25.1549L32.0382 34.5851L29.8447 35.834C27.2091 37.3338 24.2213 38.1239 21.1799 38.1256C11.5868 38.1256 3.7737 30.4093 3.7737 20.9266C3.7737 11.4438 11.583 3.72879 21.1799 3.72879C30.7768 3.72879 38.5861 11.4438 38.5861 20.9279C38.5873 24.0963 37.6997 27.2032 36.0219 29.9033L34.7333 31.9759Z" fill="#0017FC"/>
</svg>
