<svg width="16" height="16" viewBox="0 0 16 16" fill="none" xmlns="http://www.w3.org/2000/svg">
<path d="M8.00016 8.66667L7.57006 9.28109C7.82831 9.46186 8.17202 9.46186 8.43026 9.28109L8.00016 8.66667ZM2.66683 3.41663H13.3335V1.91663H2.66683V3.41663ZM13.3335 3.41663C13.6526 3.41663 13.9168 3.68084 13.9168 3.99996H15.4168C15.4168 2.85241 14.481 1.91663 13.3335 1.91663V3.41663ZM13.9168 3.99996V12H15.4168V3.99996H13.9168ZM13.9168 12C13.9168 12.3191 13.6526 12.5833 13.3335 12.5833V14.0833C14.481 14.0833 15.4168 13.1475 15.4168 12H13.9168ZM13.3335 12.5833H2.66683V14.0833H13.3335V12.5833ZM2.66683 12.5833C2.34771 12.5833 2.0835 12.3191 2.0835 12H0.583496C0.583496 13.1475 1.51928 14.0833 2.66683 14.0833V12.5833ZM2.0835 12V3.99996H0.583496V12H2.0835ZM2.0835 3.99996C2.0835 3.68084 2.34771 3.41663 2.66683 3.41663V1.91663C1.51928 1.91663 0.583496 2.85241 0.583496 3.99996H2.0835ZM14.2367 3.38554L7.57006 8.05224L8.43026 9.28109L15.0969 4.61438L14.2367 3.38554ZM8.43026 8.05224L1.7636 3.38554L0.903397 4.61438L7.57006 9.28109L8.43026 8.05224Z" fill="#75C75A"/>
<path d="M8.00016 8.66667L7.57006 9.28109C7.82831 9.46186 8.17202 9.46186 8.43026 9.28109L8.00016 8.66667ZM2.66683 3.41663H13.3335V1.91663H2.66683V3.41663ZM13.3335 3.41663C13.6526 3.41663 13.9168 3.68084 13.9168 3.99996H15.4168C15.4168 2.85241 14.481 1.91663 13.3335 1.91663V3.41663ZM13.9168 3.99996V12H15.4168V3.99996H13.9168ZM13.9168 12C13.9168 12.3191 13.6526 12.5833 13.3335 12.5833V14.0833C14.481 14.0833 15.4168 13.1475 15.4168 12H13.9168ZM13.3335 12.5833H2.66683V14.0833H13.3335V12.5833ZM2.66683 12.5833C2.34771 12.5833 2.0835 12.3191 2.0835 12H0.583496C0.583496 13.1475 1.51928 14.0833 2.66683 14.0833V12.5833ZM2.0835 12V3.99996H0.583496V12H2.0835ZM2.0835 3.99996C2.0835 3.68084 2.34771 3.41663 2.66683 3.41663V1.91663C1.51928 1.91663 0.583496 2.85241 0.583496 3.99996H2.0835ZM14.2367 3.38554L7.57006 8.05224L8.43026 9.28109L15.0969 4.61438L14.2367 3.38554ZM8.43026 8.05224L1.7636 3.38554L0.903397 4.61438L7.57006 9.28109L8.43026 8.05224Z" fill="#0FCC2D"/>
</svg>
