<svg width="20" height="20" viewBox="0 0 20 20" fill="none" xmlns="http://www.w3.org/2000/svg">
<path d="M11.473 8.52688L11.1194 8.88043L11.1194 8.88043L11.473 8.52688ZM11.473 11.4732L11.1194 11.1196L11.1194 11.1196L11.473 11.4732ZM8.5267 11.4732L8.88025 11.1196L8.88025 11.1196L8.5267 11.4732ZM8.5267 8.52688L8.88025 8.88043L8.88025 8.88043L8.5267 8.52688ZM5.95444 8.40176C6.22234 8.33478 6.38522 8.06332 6.31824 7.79542C6.25127 7.52752 5.9798 7.36464 5.7119 7.43162L5.95444 8.40176ZM5.7119 12.5684C5.9798 12.6354 6.25127 12.4725 6.31824 12.2046C6.38522 11.9367 6.22234 11.6653 5.95444 11.5983L5.7119 12.5684ZM14.2881 7.43162C14.0202 7.36464 13.7487 7.52752 13.6818 7.79542C13.6148 8.06332 13.7777 8.33478 14.0456 8.40176L14.2881 7.43162ZM14.0456 11.5983C13.7777 11.6653 13.6148 11.9367 13.6818 12.2046C13.7487 12.4725 14.0202 12.6354 14.2881 12.5684L14.0456 11.5983ZM11.1194 8.88043C11.7377 9.49876 11.7377 10.5013 11.1194 11.1196L11.8265 11.8267C12.8354 10.8179 12.8354 9.18218 11.8265 8.17333L11.1194 8.88043ZM11.1194 11.1196C10.5011 11.7379 9.49858 11.7379 8.88025 11.1196L8.17314 11.8267C9.182 12.8356 10.8177 12.8356 11.8265 11.8267L11.1194 11.1196ZM8.88025 11.1196C8.26192 10.5013 8.26192 9.49876 8.88025 8.88043L8.17314 8.17333C7.16429 9.18218 7.16429 10.8179 8.17314 11.8267L8.88025 11.1196ZM8.88025 8.88043C9.49858 8.2621 10.5011 8.2621 11.1194 8.88043L11.8265 8.17333C10.8177 7.16447 9.182 7.16447 8.17314 8.17333L8.88025 8.88043ZM5.83317 7.91669C5.7119 7.43162 5.71167 7.43167 5.71144 7.43173C5.71135 7.43175 5.71111 7.43182 5.71093 7.43186C5.71058 7.43195 5.71021 7.43204 5.7098 7.43214C5.709 7.43235 5.70809 7.43258 5.70708 7.43284C5.70506 7.43336 5.70263 7.434 5.6998 7.43475C5.69414 7.43626 5.68689 7.43823 5.67815 7.44071C5.66068 7.44566 5.63719 7.45262 5.60855 7.46183C5.55137 7.48021 5.473 7.50773 5.38045 7.54629C5.19665 7.62287 4.94957 7.74606 4.69984 7.93335C4.19218 8.3141 3.6665 8.97026 3.6665 10H4.6665C4.6665 9.36312 4.97416 8.97761 5.29984 8.73335C5.46678 8.60815 5.63635 8.523 5.76506 8.46937C5.82875 8.44283 5.8806 8.42478 5.91456 8.41386C5.93149 8.40842 5.94381 8.4048 5.95075 8.40284C5.95422 8.40185 5.95633 8.40129 5.95698 8.40112C5.9573 8.40103 5.95726 8.40104 5.95684 8.40115C5.95663 8.4012 5.95633 8.40128 5.95593 8.40138C5.95573 8.40143 5.95551 8.40149 5.95526 8.40155C5.95513 8.40158 5.95493 8.40164 5.95487 8.40165C5.95466 8.4017 5.95444 8.40176 5.83317 7.91669ZM3.6665 10C3.6665 11.0298 4.19218 11.6859 4.69984 12.0667C4.94957 12.254 5.19665 12.3772 5.38045 12.4537C5.473 12.4923 5.55137 12.5198 5.60855 12.5382C5.63719 12.5474 5.66068 12.5544 5.67815 12.5593C5.68689 12.5618 5.69414 12.5638 5.6998 12.5653C5.70263 12.566 5.70506 12.5667 5.70708 12.5672C5.70809 12.5675 5.709 12.5677 5.7098 12.5679C5.71021 12.568 5.71058 12.5681 5.71093 12.5682C5.71111 12.5682 5.71135 12.5683 5.71144 12.5683C5.71167 12.5684 5.7119 12.5684 5.83317 12.0834C5.95444 11.5983 5.95466 11.5983 5.95487 11.5984C5.95493 11.5984 5.95513 11.5985 5.95526 11.5985C5.95551 11.5986 5.95573 11.5986 5.95593 11.5987C5.95633 11.5988 5.95663 11.5988 5.95684 11.5989C5.95726 11.599 5.9573 11.599 5.95698 11.5989C5.95633 11.5988 5.95422 11.5982 5.95075 11.5972C5.94381 11.5952 5.93149 11.5916 5.91456 11.5862C5.8806 11.5753 5.82875 11.5572 5.76506 11.5307C5.63635 11.477 5.46678 11.3919 5.29984 11.2667C4.97416 11.0224 4.6665 10.6369 4.6665 10H3.6665ZM14.1668 7.91669C14.0456 8.40176 14.0453 8.4017 14.0451 8.40165C14.0451 8.40164 14.0449 8.40158 14.0447 8.40155C14.0445 8.40149 14.0443 8.40143 14.0441 8.40138C14.0437 8.40128 14.0434 8.4012 14.0432 8.40115C14.0427 8.40104 14.0427 8.40103 14.043 8.40112C14.0437 8.40129 14.0458 8.40185 14.0492 8.40284C14.0562 8.4048 14.0685 8.40842 14.0854 8.41386C14.1194 8.42478 14.1712 8.44283 14.2349 8.46937C14.3636 8.523 14.5332 8.60815 14.7002 8.73335C15.0258 8.97761 15.3335 9.36312 15.3335 10H16.3335C16.3335 8.97026 15.8078 8.3141 15.3002 7.93335C15.0504 7.74606 14.8033 7.62287 14.6196 7.54629C14.527 7.50773 14.4486 7.48021 14.3914 7.46183C14.3628 7.45262 14.3393 7.44566 14.3218 7.44071C14.3131 7.43823 14.3059 7.43626 14.3002 7.43475C14.2974 7.434 14.2949 7.43336 14.2929 7.43284C14.2919 7.43258 14.291 7.43235 14.2902 7.43214C14.2898 7.43204 14.2894 7.43195 14.2891 7.43186C14.2889 7.43182 14.2886 7.43175 14.2886 7.43173C14.2883 7.43167 14.2881 7.43162 14.1668 7.91669ZM15.3335 10C15.3335 10.6369 15.0258 11.0224 14.7002 11.2667C14.5332 11.3919 14.3636 11.477 14.2349 11.5307C14.1712 11.5572 14.1194 11.5753 14.0854 11.5862C14.0685 11.5916 14.0562 11.5952 14.0492 11.5972C14.0458 11.5982 14.0437 11.5988 14.043 11.5989C14.0427 11.599 14.0427 11.599 14.0432 11.5989C14.0434 11.5988 14.0437 11.5988 14.0441 11.5987C14.0443 11.5986 14.0445 11.5986 14.0447 11.5985C14.0449 11.5985 14.0451 11.5984 14.0451 11.5984C14.0453 11.5983 14.0456 11.5983 14.1668 12.0834C14.2881 12.5684 14.2883 12.5684 14.2886 12.5683C14.2886 12.5683 14.2889 12.5682 14.2891 12.5682C14.2894 12.5681 14.2898 12.568 14.2902 12.5679C14.291 12.5677 14.2919 12.5675 14.2929 12.5672C14.2949 12.5667 14.2974 12.566 14.3002 12.5653C14.3059 12.5638 14.3131 12.5618 14.3218 12.5593C14.3393 12.5544 14.3628 12.5474 14.3914 12.5382C14.4486 12.5198 14.527 12.4923 14.6196 12.4537C14.8033 12.3772 15.0504 12.254 15.3002 12.0667C15.8078 11.6859 16.3335 11.0298 16.3335 10H15.3335ZM16.6665 15.0558H3.33317V16.0558H16.6665V15.0558ZM3.33317 15.0558C2.68848 15.0558 2.1665 14.5338 2.1665 13.8892H1.1665C1.1665 15.0861 2.1362 16.0558 3.33317 16.0558V15.0558ZM2.1665 13.8892V6.11082H1.1665V13.8892H2.1665ZM2.1665 6.11082C2.1665 5.46613 2.68848 4.94415 3.33317 4.94415V3.94415C2.13619 3.94415 1.1665 4.91384 1.1665 6.11082H2.1665ZM3.33317 4.94415H16.6665V3.94415H3.33317V4.94415ZM16.6665 4.94415C17.3112 4.94415 17.8332 5.46613 17.8332 6.11082H18.8332C18.8332 4.91384 17.8635 3.94415 16.6665 3.94415V4.94415ZM17.8332 6.11082V13.8883H18.8332V6.11082H17.8332ZM17.8332 13.8883C17.8332 14.5333 17.3109 15.0558 16.6665 15.0558V16.0558C17.8638 16.0558 18.8332 15.085 18.8332 13.8883H17.8332Z" fill="#B8B9BD"/>
</svg>
