<svg width="24" height="25" viewBox="0 0 24 25" fill="none" xmlns="http://www.w3.org/2000/svg">
<path d="M18.25 15.556C18.25 15.9702 18.5858 16.306 19 16.306C19.4142 16.306 19.75 15.9702 19.75 15.556H18.25ZM18.414 6.65185L17.8741 7.17244L18.414 6.65185ZM15.586 3.71904L16.1259 3.19845L15.586 3.71904ZM13 22.5284C13.4142 22.5284 13.75 22.1926 13.75 21.7784C13.75 21.3642 13.4142 21.0284 13 21.0284V22.5284ZM20.5318 18.1383C20.2397 17.8446 19.7648 17.8433 19.4711 18.1354C19.1774 18.4275 19.1761 18.9024 19.4682 19.1961L20.5318 18.1383ZM22 20.6781L22.5476 21.1906C22.8235 20.8958 22.8165 20.4355 22.5318 20.1493L22 20.6781ZM19.4524 22.303C19.1694 22.6054 19.1851 23.08 19.4875 23.3631C19.79 23.6461 20.2646 23.6303 20.5476 23.3279L19.4524 22.303ZM22 21.3982C22.4142 21.3982 22.75 21.0624 22.75 20.6482C22.75 20.2339 22.4142 19.8982 22 19.8982V21.3982ZM16 19.8982C15.5858 19.8982 15.25 20.2339 15.25 20.6482C15.25 21.0624 15.5858 21.3982 16 21.3982V19.8982ZM8 10.6578C7.58579 10.6578 7.25 10.9936 7.25 11.4078C7.25 11.822 7.58579 12.1578 8 12.1578V10.6578ZM14 12.1578C14.4142 12.1578 14.75 11.822 14.75 11.4078C14.75 10.9936 14.4142 10.6578 14 10.6578V12.1578ZM8 13.769C7.58579 13.769 7.25 14.1048 7.25 14.519C7.25 14.9332 7.58579 15.269 8 15.269V13.769ZM14 15.269C14.4142 15.269 14.75 14.9332 14.75 14.519C14.75 14.1048 14.4142 13.769 14 13.769V15.269ZM8 16.8803C7.58579 16.8803 7.25 17.216 7.25 17.6303C7.25 18.0445 7.58579 18.3803 8 18.3803V16.8803ZM12.33 18.3803C12.7442 18.3803 13.08 18.0445 13.08 17.6303C13.08 17.216 12.7442 16.8803 12.33 16.8803V18.3803ZM19 9.04662C19.4142 9.04662 19.75 8.71083 19.75 8.29662C19.75 7.88241 19.4142 7.54662 19 7.54662V9.04662ZM14.75 3.11133C14.75 2.69711 14.4142 2.36133 14 2.36133C13.5858 2.36133 13.25 2.69711 13.25 3.11133H14.75ZM19.75 15.556V8.11825H18.25V15.556H19.75ZM19.75 8.11825C19.75 7.3781 19.4662 6.66256 18.9539 6.13125L17.8741 7.17244C18.1118 7.41892 18.25 7.75911 18.25 8.11825H19.75ZM18.9539 6.13125L16.1259 3.19845L15.0461 4.23964L17.8741 7.17244L18.9539 6.13125ZM16.1259 3.19845C15.6127 2.66622 14.9101 2.36133 14.172 2.36133V3.86133C14.4939 3.86133 14.8093 3.99408 15.0461 4.23964L16.1259 3.19845ZM14.172 2.36133H7V3.86133H14.172V2.36133ZM7 2.36133C5.4553 2.36133 4.25 3.65124 4.25 5.18544H5.75C5.75 4.42775 6.3347 3.86133 7 3.86133V2.36133ZM4.25 5.18544V19.7043H5.75V5.18544H4.25ZM4.25 19.7043C4.25 21.2385 5.4553 22.5284 7 22.5284V21.0284C6.3347 21.0284 5.75 20.462 5.75 19.7043H4.25ZM7 22.5284H13V21.0284H7V22.5284ZM19.4682 19.1961L21.4682 21.207L22.5318 20.1493L20.5318 18.1383L19.4682 19.1961ZM21.4524 20.1657L19.4524 22.303L20.5476 23.3279L22.5476 21.1906L21.4524 20.1657ZM22 19.8982H16V21.3982H22V19.8982ZM8 12.1578H14V10.6578H8V12.1578ZM8 15.269H14V13.769H8V15.269ZM8 18.3803H12.33V16.8803H8V18.3803ZM19 7.54662H15V9.04662H19V7.54662ZM15 7.54662C14.8877 7.54662 14.75 7.44376 14.75 7.25956H13.25C13.25 8.22027 14.0083 9.04662 15 9.04662V7.54662ZM14.75 7.25956V3.11133H13.25V7.25956H14.75Z" fill="#75C75A"/>
<path d="M18.25 15.556C18.25 15.9702 18.5858 16.306 19 16.306C19.4142 16.306 19.75 15.9702 19.75 15.556H18.25ZM18.414 6.65185L17.8741 7.17244L18.414 6.65185ZM15.586 3.71904L16.1259 3.19845L15.586 3.71904ZM13 22.5284C13.4142 22.5284 13.75 22.1926 13.75 21.7784C13.75 21.3642 13.4142 21.0284 13 21.0284V22.5284ZM20.5318 18.1383C20.2397 17.8446 19.7648 17.8433 19.4711 18.1354C19.1774 18.4275 19.1761 18.9024 19.4682 19.1961L20.5318 18.1383ZM22 20.6781L22.5476 21.1906C22.8235 20.8958 22.8165 20.4355 22.5318 20.1493L22 20.6781ZM19.4524 22.303C19.1694 22.6054 19.1851 23.08 19.4875 23.3631C19.79 23.6461 20.2646 23.6303 20.5476 23.3279L19.4524 22.303ZM22 21.3982C22.4142 21.3982 22.75 21.0624 22.75 20.6482C22.75 20.2339 22.4142 19.8982 22 19.8982V21.3982ZM16 19.8982C15.5858 19.8982 15.25 20.2339 15.25 20.6482C15.25 21.0624 15.5858 21.3982 16 21.3982V19.8982ZM8 10.6578C7.58579 10.6578 7.25 10.9936 7.25 11.4078C7.25 11.822 7.58579 12.1578 8 12.1578V10.6578ZM14 12.1578C14.4142 12.1578 14.75 11.822 14.75 11.4078C14.75 10.9936 14.4142 10.6578 14 10.6578V12.1578ZM8 13.769C7.58579 13.769 7.25 14.1048 7.25 14.519C7.25 14.9332 7.58579 15.269 8 15.269V13.769ZM14 15.269C14.4142 15.269 14.75 14.9332 14.75 14.519C14.75 14.1048 14.4142 13.769 14 13.769V15.269ZM8 16.8803C7.58579 16.8803 7.25 17.216 7.25 17.6303C7.25 18.0445 7.58579 18.3803 8 18.3803V16.8803ZM12.33 18.3803C12.7442 18.3803 13.08 18.0445 13.08 17.6303C13.08 17.216 12.7442 16.8803 12.33 16.8803V18.3803ZM19 9.04662C19.4142 9.04662 19.75 8.71083 19.75 8.29662C19.75 7.88241 19.4142 7.54662 19 7.54662V9.04662ZM14.75 3.11133C14.75 2.69711 14.4142 2.36133 14 2.36133C13.5858 2.36133 13.25 2.69711 13.25 3.11133H14.75ZM19.75 15.556V8.11825H18.25V15.556H19.75ZM19.75 8.11825C19.75 7.3781 19.4662 6.66256 18.9539 6.13125L17.8741 7.17244C18.1118 7.41892 18.25 7.75911 18.25 8.11825H19.75ZM18.9539 6.13125L16.1259 3.19845L15.0461 4.23964L17.8741 7.17244L18.9539 6.13125ZM16.1259 3.19845C15.6127 2.66622 14.9101 2.36133 14.172 2.36133V3.86133C14.4939 3.86133 14.8093 3.99408 15.0461 4.23964L16.1259 3.19845ZM14.172 2.36133H7V3.86133H14.172V2.36133ZM7 2.36133C5.4553 2.36133 4.25 3.65124 4.25 5.18544H5.75C5.75 4.42775 6.3347 3.86133 7 3.86133V2.36133ZM4.25 5.18544V19.7043H5.75V5.18544H4.25ZM4.25 19.7043C4.25 21.2385 5.4553 22.5284 7 22.5284V21.0284C6.3347 21.0284 5.75 20.462 5.75 19.7043H4.25ZM7 22.5284H13V21.0284H7V22.5284ZM19.4682 19.1961L21.4682 21.207L22.5318 20.1493L20.5318 18.1383L19.4682 19.1961ZM21.4524 20.1657L19.4524 22.303L20.5476 23.3279L22.5476 21.1906L21.4524 20.1657ZM22 19.8982H16V21.3982H22V19.8982ZM8 12.1578H14V10.6578H8V12.1578ZM8 15.269H14V13.769H8V15.269ZM8 18.3803H12.33V16.8803H8V18.3803ZM19 7.54662H15V9.04662H19V7.54662ZM15 7.54662C14.8877 7.54662 14.75 7.44376 14.75 7.25956H13.25C13.25 8.22027 14.0083 9.04662 15 9.04662V7.54662ZM14.75 7.25956V3.11133H13.25V7.25956H14.75Z" fill="#0FCC2D"/>
</svg>
