<svg width="20" height="20" viewBox="0 0 20 20" fill="none" xmlns="http://www.w3.org/2000/svg">
<path d="M7.33333 3.41667V5.91667C7.33333 6.02717 7.28943 6.13315 7.21129 6.21129C7.13315 6.28943 7.02717 6.33333 6.91667 6.33333H4.41667C4.30616 6.33333 4.20018 6.28943 4.12204 6.21129C4.0439 6.13315 4 6.02717 4 5.91667V3.41667C4 3.30616 4.0439 3.20018 4.12204 3.12204C4.20018 3.0439 4.30616 3 4.41667 3H6.91667C7.02717 3 7.13315 3.0439 7.21129 3.12204C7.28943 3.20018 7.33333 3.30616 7.33333 3.41667ZM11.9167 3H9.41667C9.30616 3 9.20018 3.0439 9.12204 3.12204C9.0439 3.20018 9 3.30616 9 3.41667V5.91667C9 6.02717 9.0439 6.13315 9.12204 6.21129C9.20018 6.28943 9.30616 6.33333 9.41667 6.33333H11.9167C12.0272 6.33333 12.1332 6.28943 12.2113 6.21129C12.2894 6.13315 12.3333 6.02717 12.3333 5.91667V3.41667C12.3333 3.30616 12.2894 3.20018 12.2113 3.12204C12.1332 3.0439 12.0272 3 11.9167 3ZM16.9167 3H14.4167C14.3062 3 14.2002 3.0439 14.122 3.12204C14.0439 3.20018 14 3.30616 14 3.41667V5.91667C14 6.02717 14.0439 6.13315 14.122 6.21129C14.2002 6.28943 14.3062 6.33333 14.4167 6.33333H16.9167C17.0272 6.33333 17.1332 6.28943 17.2113 6.21129C17.2894 6.13315 17.3333 6.02717 17.3333 5.91667V3.41667C17.3333 3.30616 17.2894 3.20018 17.2113 3.12204C17.1332 3.0439 17.0272 3 16.9167 3ZM6.91667 8H4.41667C4.30616 8 4.20018 8.0439 4.12204 8.12204C4.0439 8.20018 4 8.30616 4 8.41667V10.9167C4 11.0272 4.0439 11.1332 4.12204 11.2113C4.20018 11.2894 4.30616 11.3333 4.41667 11.3333H6.91667C7.02717 11.3333 7.13315 11.2894 7.21129 11.2113C7.28943 11.1332 7.33333 11.0272 7.33333 10.9167V8.41667C7.33333 8.30616 7.28943 8.20018 7.21129 8.12204C7.13315 8.0439 7.02717 8 6.91667 8ZM11.9167 8H9.41667C9.30616 8 9.20018 8.0439 9.12204 8.12204C9.0439 8.20018 9 8.30616 9 8.41667V10.9167C9 11.0272 9.0439 11.1332 9.12204 11.2113C9.20018 11.2894 9.30616 11.3333 9.41667 11.3333H11.9167C12.0272 11.3333 12.1332 11.2894 12.2113 11.2113C12.2894 11.1332 12.3333 11.0272 12.3333 10.9167V8.41667C12.3333 8.30616 12.2894 8.20018 12.2113 8.12204C12.1332 8.0439 12.0272 8 11.9167 8ZM16.9167 8H14.4167C14.3062 8 14.2002 8.0439 14.122 8.12204C14.0439 8.20018 14 8.30616 14 8.41667V10.9167C14 11.0272 14.0439 11.1332 14.122 11.2113C14.2002 11.2894 14.3062 11.3333 14.4167 11.3333H16.9167C17.0272 11.3333 17.1332 11.2894 17.2113 11.2113C17.2894 11.1332 17.3333 11.0272 17.3333 10.9167V8.41667C17.3333 8.30616 17.2894 8.20018 17.2113 8.12204C17.1332 8.0439 17.0272 8 16.9167 8ZM6.91667 13H4.41667C4.30616 13 4.20018 13.0439 4.12204 13.122C4.0439 13.2002 4 13.3062 4 13.4167V15.9167C4 16.0272 4.0439 16.1332 4.12204 16.2113C4.20018 16.2894 4.30616 16.3333 4.41667 16.3333H6.91667C7.02717 16.3333 7.13315 16.2894 7.21129 16.2113C7.28943 16.1332 7.33333 16.0272 7.33333 15.9167V13.4167C7.33333 13.3062 7.28943 13.2002 7.21129 13.122C7.13315 13.0439 7.02717 13 6.91667 13ZM11.9167 13H9.41667C9.30616 13 9.20018 13.0439 9.12204 13.122C9.0439 13.2002 9 13.3062 9 13.4167V15.9167C9 16.0272 9.0439 16.1332 9.12204 16.2113C9.20018 16.2894 9.30616 16.3333 9.41667 16.3333H11.9167C12.0272 16.3333 12.1332 16.2894 12.2113 16.2113C12.2894 16.1332 12.3333 16.0272 12.3333 15.9167V13.4167C12.3333 13.3062 12.2894 13.2002 12.2113 13.122C12.1332 13.0439 12.0272 13 11.9167 13ZM16.9167 13H14.4167C14.3062 13 14.2002 13.0439 14.122 13.122C14.0439 13.2002 14 13.3062 14 13.4167V15.9167C14 16.0272 14.0439 16.1332 14.122 16.2113C14.2002 16.2894 14.3062 16.3333 14.4167 16.3333H16.9167C17.0272 16.3333 17.1332 16.2894 17.2113 16.2113C17.2894 16.1332 17.3333 16.0272 17.3333 15.9167V13.4167C17.3333 13.3062 17.2894 13.2002 17.2113 13.122C17.1332 13.0439 17.0272 13 16.9167 13Z" fill="#939499"/>
<path d="M7.33333 3.41667V5.91667C7.33333 6.02717 7.28943 6.13315 7.21129 6.21129C7.13315 6.28943 7.02717 6.33333 6.91667 6.33333H4.41667C4.30616 6.33333 4.20018 6.28943 4.12204 6.21129C4.0439 6.13315 4 6.02717 4 5.91667V3.41667C4 3.30616 4.0439 3.20018 4.12204 3.12204C4.20018 3.0439 4.30616 3 4.41667 3H6.91667C7.02717 3 7.13315 3.0439 7.21129 3.12204C7.28943 3.20018 7.33333 3.30616 7.33333 3.41667ZM11.9167 3H9.41667C9.30616 3 9.20018 3.0439 9.12204 3.12204C9.0439 3.20018 9 3.30616 9 3.41667V5.91667C9 6.02717 9.0439 6.13315 9.12204 6.21129C9.20018 6.28943 9.30616 6.33333 9.41667 6.33333H11.9167C12.0272 6.33333 12.1332 6.28943 12.2113 6.21129C12.2894 6.13315 12.3333 6.02717 12.3333 5.91667V3.41667C12.3333 3.30616 12.2894 3.20018 12.2113 3.12204C12.1332 3.0439 12.0272 3 11.9167 3ZM16.9167 3H14.4167C14.3062 3 14.2002 3.0439 14.122 3.12204C14.0439 3.20018 14 3.30616 14 3.41667V5.91667C14 6.02717 14.0439 6.13315 14.122 6.21129C14.2002 6.28943 14.3062 6.33333 14.4167 6.33333H16.9167C17.0272 6.33333 17.1332 6.28943 17.2113 6.21129C17.2894 6.13315 17.3333 6.02717 17.3333 5.91667V3.41667C17.3333 3.30616 17.2894 3.20018 17.2113 3.12204C17.1332 3.0439 17.0272 3 16.9167 3ZM6.91667 8H4.41667C4.30616 8 4.20018 8.0439 4.12204 8.12204C4.0439 8.20018 4 8.30616 4 8.41667V10.9167C4 11.0272 4.0439 11.1332 4.12204 11.2113C4.20018 11.2894 4.30616 11.3333 4.41667 11.3333H6.91667C7.02717 11.3333 7.13315 11.2894 7.21129 11.2113C7.28943 11.1332 7.33333 11.0272 7.33333 10.9167V8.41667C7.33333 8.30616 7.28943 8.20018 7.21129 8.12204C7.13315 8.0439 7.02717 8 6.91667 8ZM11.9167 8H9.41667C9.30616 8 9.20018 8.0439 9.12204 8.12204C9.0439 8.20018 9 8.30616 9 8.41667V10.9167C9 11.0272 9.0439 11.1332 9.12204 11.2113C9.20018 11.2894 9.30616 11.3333 9.41667 11.3333H11.9167C12.0272 11.3333 12.1332 11.2894 12.2113 11.2113C12.2894 11.1332 12.3333 11.0272 12.3333 10.9167V8.41667C12.3333 8.30616 12.2894 8.20018 12.2113 8.12204C12.1332 8.0439 12.0272 8 11.9167 8ZM16.9167 8H14.4167C14.3062 8 14.2002 8.0439 14.122 8.12204C14.0439 8.20018 14 8.30616 14 8.41667V10.9167C14 11.0272 14.0439 11.1332 14.122 11.2113C14.2002 11.2894 14.3062 11.3333 14.4167 11.3333H16.9167C17.0272 11.3333 17.1332 11.2894 17.2113 11.2113C17.2894 11.1332 17.3333 11.0272 17.3333 10.9167V8.41667C17.3333 8.30616 17.2894 8.20018 17.2113 8.12204C17.1332 8.0439 17.0272 8 16.9167 8ZM6.91667 13H4.41667C4.30616 13 4.20018 13.0439 4.12204 13.122C4.0439 13.2002 4 13.3062 4 13.4167V15.9167C4 16.0272 4.0439 16.1332 4.12204 16.2113C4.20018 16.2894 4.30616 16.3333 4.41667 16.3333H6.91667C7.02717 16.3333 7.13315 16.2894 7.21129 16.2113C7.28943 16.1332 7.33333 16.0272 7.33333 15.9167V13.4167C7.33333 13.3062 7.28943 13.2002 7.21129 13.122C7.13315 13.0439 7.02717 13 6.91667 13ZM11.9167 13H9.41667C9.30616 13 9.20018 13.0439 9.12204 13.122C9.0439 13.2002 9 13.3062 9 13.4167V15.9167C9 16.0272 9.0439 16.1332 9.12204 16.2113C9.20018 16.2894 9.30616 16.3333 9.41667 16.3333H11.9167C12.0272 16.3333 12.1332 16.2894 12.2113 16.2113C12.2894 16.1332 12.3333 16.0272 12.3333 15.9167V13.4167C12.3333 13.3062 12.2894 13.2002 12.2113 13.122C12.1332 13.0439 12.0272 13 11.9167 13ZM16.9167 13H14.4167C14.3062 13 14.2002 13.0439 14.122 13.122C14.0439 13.2002 14 13.3062 14 13.4167V15.9167C14 16.0272 14.0439 16.1332 14.122 16.2113C14.2002 16.2894 14.3062 16.3333 14.4167 16.3333H16.9167C17.0272 16.3333 17.1332 16.2894 17.2113 16.2113C17.2894 16.1332 17.3333 16.0272 17.3333 15.9167V13.4167C17.3333 13.3062 17.2894 13.2002 17.2113 13.122C17.1332 13.0439 17.0272 13 16.9167 13Z" fill="#939499"/>
</svg>
