<svg width="16" height="16" viewBox="0 0 16 16" fill="none" xmlns="http://www.w3.org/2000/svg">
<path fill-rule="evenodd" clip-rule="evenodd" d="M8 14C11.3137 14 14 11.3137 14 8C14 4.68629 11.3137 2 8 2C4.68629 2 2 4.68629 2 8C2 11.3137 4.68629 14 8 14ZM8 15C11.866 15 15 11.866 15 8C15 4.13401 11.866 1 8 1C4.13401 1 1 4.13401 1 8C1 11.866 4.13401 15 8 15Z" fill="#808080"/>
<path d="M8 10C4.5 10 3.5 13 3.5 13C3.5 13 4.62132 13.6095 5.5 14C6.37868 14.3905 8 14.5 8 14.5C8 14.5 9.62132 14.3905 10.5 14C11.3787 13.6095 12.5 13 12.5 13C12.5 13 11.5 10 8 10Z" fill="#808080"/>
<path d="M8.00014 4.5C7.38389 4.5 6.8267 4.73094 6.43076 5.15063C6.03482 5.57031 5.83701 6.15062 5.8817 6.77344C5.97232 8 6.92264 9 8.00014 9C9.07764 9 10.0261 8 10.1186 6.77375C10.1648 6.15687 9.96857 5.58188 9.56607 5.15438C9.16857 4.7325 8.61232 4.5 8.00014 4.5Z" fill="#808080"/>
</svg>
