<svg width="16" height="16" viewBox="0 0 16 16" fill="none" xmlns="http://www.w3.org/2000/svg">
<path d="M7.3335 3.41667C7.74771 3.41667 8.0835 3.08088 8.0835 2.66667C8.0835 2.25245 7.74771 1.91667 7.3335 1.91667V3.41667ZM2.66683 2.66667L2.66683 1.91667L2.66683 2.66667ZM1.3335 4H0.583496H1.3335ZM1.3335 13.3333H0.583496H1.3335ZM14.0835 8.66667C14.0835 8.25245 13.7477 7.91667 13.3335 7.91667C12.9193 7.91667 12.5835 8.25245 12.5835 8.66667H14.0835ZM12.3335 1.66666L12.8638 2.19699L12.8638 2.19699L12.3335 1.66666ZM13.3335 1.25244L13.3335 0.502441L13.3335 1.25244ZM14.3335 3.66666L13.8032 3.13633L14.3335 3.66666ZM8.00016 9.99999L8.18206 10.7276C8.31394 10.6946 8.43437 10.6264 8.53049 10.5303L8.00016 9.99999ZM5.3335 10.6667L4.60589 10.4848C4.54199 10.7403 4.61688 11.0107 4.80317 11.197C4.98945 11.3833 5.25982 11.4582 5.5154 11.3943L5.3335 10.6667ZM6.00016 7.99999L5.46983 7.46966C5.37371 7.56578 5.30552 7.68621 5.27256 7.81809L6.00016 7.99999ZM7.3335 1.91667H2.66683V3.41667H7.3335V1.91667ZM2.66683 1.91667C2.1143 1.91667 1.58439 2.13616 1.19369 2.52686L2.25435 3.58752C2.36375 3.47812 2.51212 3.41667 2.66683 3.41667L2.66683 1.91667ZM1.19369 2.52686C0.802989 2.91756 0.583496 3.44747 0.583496 4L2.0835 4C2.0835 3.84529 2.14495 3.69692 2.25435 3.58752L1.19369 2.52686ZM0.583496 4V13.3333H2.0835V4H0.583496ZM0.583496 13.3333C0.583496 13.8859 0.80299 14.4158 1.19369 14.8065L2.25435 13.7458C2.14495 13.6364 2.0835 13.488 2.0835 13.3333H0.583496ZM1.19369 14.8065C1.58439 15.1972 2.11429 15.4167 2.66683 15.4167V13.9167C2.51212 13.9167 2.36375 13.8552 2.25435 13.7458L1.19369 14.8065ZM2.66683 15.4167H12.0002V13.9167H2.66683V15.4167ZM12.0002 15.4167C12.5527 15.4167 13.0826 15.1972 13.4733 14.8065L12.4126 13.7458C12.3032 13.8552 12.1549 13.9167 12.0002 13.9167V15.4167ZM13.4733 14.8065C13.864 14.4158 14.0835 13.8859 14.0835 13.3333H12.5835C12.5835 13.488 12.522 13.6364 12.4126 13.7458L13.4733 14.8065ZM14.0835 13.3333V8.66667H12.5835V13.3333H14.0835ZM12.8638 2.19699C12.9884 2.07242 13.1573 2.00244 13.3335 2.00244L13.3335 0.502441C12.7595 0.502441 12.209 0.730456 11.8032 1.13632L12.8638 2.19699ZM13.3335 2.00244C13.5097 2.00244 13.6786 2.07242 13.8032 2.19699L14.8638 1.13632C14.458 0.730457 13.9075 0.502441 13.3335 0.502441L13.3335 2.00244ZM13.8032 2.19699C13.9277 2.32155 13.9977 2.4905 13.9977 2.66665L15.4977 2.66665C15.4977 2.09267 15.2697 1.54219 14.8638 1.13632L13.8032 2.19699ZM13.9977 2.66665C13.9977 2.84281 13.9277 3.01176 13.8032 3.13633L14.8638 4.19699C15.2697 3.79112 15.4977 3.24064 15.4977 2.66665L13.9977 2.66665ZM13.8032 3.13633L7.46983 9.46966L8.53049 10.5303L14.8638 4.19699L13.8032 3.13633ZM7.81826 9.27238L5.15159 9.93905L5.5154 11.3943L8.18206 10.7276L7.81826 9.27238ZM6.0611 10.8486L6.72777 8.18189L5.27256 7.81809L4.60589 10.4848L6.0611 10.8486ZM6.53049 8.53032L12.8638 2.19699L11.8032 1.13632L5.46983 7.46966L6.53049 8.53032Z" fill="#75C75A"/>
<path d="M7.3335 3.41667C7.74771 3.41667 8.0835 3.08088 8.0835 2.66667C8.0835 2.25245 7.74771 1.91667 7.3335 1.91667V3.41667ZM2.66683 2.66667L2.66683 1.91667L2.66683 2.66667ZM1.3335 4H0.583496H1.3335ZM1.3335 13.3333H0.583496H1.3335ZM14.0835 8.66667C14.0835 8.25245 13.7477 7.91667 13.3335 7.91667C12.9193 7.91667 12.5835 8.25245 12.5835 8.66667H14.0835ZM12.3335 1.66666L12.8638 2.19699L12.8638 2.19699L12.3335 1.66666ZM13.3335 1.25244L13.3335 0.502441L13.3335 1.25244ZM14.3335 3.66666L13.8032 3.13633L14.3335 3.66666ZM8.00016 9.99999L8.18206 10.7276C8.31394 10.6946 8.43437 10.6264 8.53049 10.5303L8.00016 9.99999ZM5.3335 10.6667L4.60589 10.4848C4.54199 10.7403 4.61688 11.0107 4.80317 11.197C4.98945 11.3833 5.25982 11.4582 5.5154 11.3943L5.3335 10.6667ZM6.00016 7.99999L5.46983 7.46966C5.37371 7.56578 5.30552 7.68621 5.27256 7.81809L6.00016 7.99999ZM7.3335 1.91667H2.66683V3.41667H7.3335V1.91667ZM2.66683 1.91667C2.1143 1.91667 1.58439 2.13616 1.19369 2.52686L2.25435 3.58752C2.36375 3.47812 2.51212 3.41667 2.66683 3.41667L2.66683 1.91667ZM1.19369 2.52686C0.802989 2.91756 0.583496 3.44747 0.583496 4L2.0835 4C2.0835 3.84529 2.14495 3.69692 2.25435 3.58752L1.19369 2.52686ZM0.583496 4V13.3333H2.0835V4H0.583496ZM0.583496 13.3333C0.583496 13.8859 0.80299 14.4158 1.19369 14.8065L2.25435 13.7458C2.14495 13.6364 2.0835 13.488 2.0835 13.3333H0.583496ZM1.19369 14.8065C1.58439 15.1972 2.11429 15.4167 2.66683 15.4167V13.9167C2.51212 13.9167 2.36375 13.8552 2.25435 13.7458L1.19369 14.8065ZM2.66683 15.4167H12.0002V13.9167H2.66683V15.4167ZM12.0002 15.4167C12.5527 15.4167 13.0826 15.1972 13.4733 14.8065L12.4126 13.7458C12.3032 13.8552 12.1549 13.9167 12.0002 13.9167V15.4167ZM13.4733 14.8065C13.864 14.4158 14.0835 13.8859 14.0835 13.3333H12.5835C12.5835 13.488 12.522 13.6364 12.4126 13.7458L13.4733 14.8065ZM14.0835 13.3333V8.66667H12.5835V13.3333H14.0835ZM12.8638 2.19699C12.9884 2.07242 13.1573 2.00244 13.3335 2.00244L13.3335 0.502441C12.7595 0.502441 12.209 0.730456 11.8032 1.13632L12.8638 2.19699ZM13.3335 2.00244C13.5097 2.00244 13.6786 2.07242 13.8032 2.19699L14.8638 1.13632C14.458 0.730457 13.9075 0.502441 13.3335 0.502441L13.3335 2.00244ZM13.8032 2.19699C13.9277 2.32155 13.9977 2.4905 13.9977 2.66665L15.4977 2.66665C15.4977 2.09267 15.2697 1.54219 14.8638 1.13632L13.8032 2.19699ZM13.9977 2.66665C13.9977 2.84281 13.9277 3.01176 13.8032 3.13633L14.8638 4.19699C15.2697 3.79112 15.4977 3.24064 15.4977 2.66665L13.9977 2.66665ZM13.8032 3.13633L7.46983 9.46966L8.53049 10.5303L14.8638 4.19699L13.8032 3.13633ZM7.81826 9.27238L5.15159 9.93905L5.5154 11.3943L8.18206 10.7276L7.81826 9.27238ZM6.0611 10.8486L6.72777 8.18189L5.27256 7.81809L4.60589 10.4848L6.0611 10.8486ZM6.53049 8.53032L12.8638 2.19699L11.8032 1.13632L5.46983 7.46966L6.53049 8.53032Z" fill="#0FCC2D"/>
</svg>
