<svg width="15" height="15" viewBox="0 0 15 15" fill="none" xmlns="http://www.w3.org/2000/svg">
<path d="M2.11092 10.4079L2.63984 10.9397L2.64125 10.9382L2.11092 10.4079ZM10.4081 2.11076L10.9384 2.64109L10.9384 2.64109L10.4081 2.11076ZM11.5434 2.11076L11.0131 2.64109L11.0131 2.64109L11.5434 2.11076ZM12.8901 3.45746L13.4205 2.92713L13.4205 2.92713L12.8901 3.45746ZM12.8901 4.59284L13.4204 5.12322L13.4205 5.12317L12.8901 4.59284ZM4.59219 12.8892L4.06191 12.3588L4.06045 12.3603L4.59219 12.8892ZM1.87549 13.1246H1.12549C1.12549 13.5388 1.46127 13.8746 1.87549 13.8746L1.87549 13.1246ZM9.43663 3.08058C9.14373 2.78768 8.66886 2.78768 8.37597 3.08058C8.08307 3.37347 8.08307 3.84834 8.37597 4.14124L9.43663 3.08058ZM10.8588 6.62411C11.1517 6.91701 11.6266 6.91701 11.9195 6.62411C12.2124 6.33122 12.2124 5.85635 11.9195 5.56345L10.8588 6.62411ZM2.64125 10.9382L10.9384 2.64109L9.87774 1.58043L1.58059 9.87758L2.64125 10.9382ZM10.9384 2.64109C10.9589 2.62061 10.9926 2.62061 11.0131 2.64109L12.0738 1.58043C11.4675 0.974166 10.484 0.974166 9.87774 1.58043L10.9384 2.64109ZM11.0131 2.64109L12.3598 3.98779L13.4205 2.92713L12.0738 1.58043L11.0131 2.64109ZM12.3598 3.98779C12.3803 4.00827 12.3803 4.04203 12.3598 4.06251L13.4205 5.12317C14.0267 4.5169 14.0267 3.5334 13.4205 2.92713L12.3598 3.98779ZM12.3599 4.06246L4.06191 12.3588L5.12247 13.4196L13.4204 5.12322L12.3599 4.06246ZM4.06045 12.3603C4.05173 12.369 4.03934 12.3746 4.02491 12.3746V13.8746C4.43634 13.8746 4.83213 13.7115 5.12393 13.4181L4.06045 12.3603ZM4.02491 12.3746H1.87549V13.8746H4.02491V12.3746ZM2.62549 13.1246V10.9752H1.12549V13.1246H2.62549ZM2.62549 10.9752C2.62549 10.9608 2.63107 10.9484 2.63983 10.9397L1.58201 9.87617C1.28865 10.168 1.12549 10.5638 1.12549 10.9752H2.62549ZM8.37597 4.14124L10.8588 6.62411L11.9195 5.56345L9.43663 3.08058L8.37597 4.14124Z" fill="#0017FC"/>
</svg>
