<svg width="24" height="24" viewBox="0 0 24 24" fill="none" xmlns="http://www.w3.org/2000/svg">
<path d="M8.21815 9.33499L8.9044 9.0324L8.90431 9.0322L8.21815 9.33499ZM8.38415 8.50799L7.85414 7.97734L7.85382 7.97766L8.38415 8.50799ZM9.20315 7.68999L9.73315 8.22065L9.73348 8.22032L9.20315 7.68999ZM9.28815 5.48399L9.81848 4.95366L9.81848 4.95366L9.28815 5.48399ZM8.11415 4.30999L7.58382 4.84032L7.58382 4.84032L8.11415 4.30999ZM5.28615 4.30999L4.75582 3.77966L4.75582 3.77966L5.28615 4.30999ZM4.63415 4.96199L5.16448 5.49232L5.16448 5.49232L4.63415 4.96199ZM3.78415 7.83199L3.04715 7.97105L3.0472 7.97132L3.78415 7.83199ZM16.1681 20.216L16.0288 20.9529L16.0291 20.953L16.1681 20.216ZM16.3951 14.714L16.9258 15.244L16.9259 15.2439L16.3951 14.714ZM15.4921 15.618L16.0225 16.1483L16.0228 16.148L15.4921 15.618ZM14.6651 15.784L14.3621 16.4701L14.3624 16.4702L14.6651 15.784ZM11.3865 12.6137C10.2806 11.5078 9.45213 10.2746 8.9044 9.0324L7.5319 9.63758C8.15616 11.0534 9.09167 12.4402 10.3258 13.6743L11.3865 12.6137ZM8.90431 9.0322C8.90628 9.03668 8.90735 9.04122 8.9077 9.04484C8.90803 9.04821 8.90766 9.04972 8.90774 9.04934C8.90783 9.0489 8.90826 9.04727 8.9095 9.04496C8.91071 9.04272 8.91236 9.04044 8.91448 9.03832L7.85382 7.97766C7.43437 8.39711 7.27384 9.05279 7.53198 9.63778L8.90431 9.0322ZM8.91415 9.03865L9.73315 8.22065L8.67314 7.15934L7.85414 7.97734L8.91415 9.03865ZM9.73348 8.22032C10.6701 7.28372 10.7239 5.85913 9.81848 4.95366L8.75782 6.01432C9.02435 6.28086 9.07822 6.75426 8.67282 7.15966L9.73348 8.22032ZM9.81848 4.95366L8.64448 3.77966L7.58382 4.84032L8.75782 6.01432L9.81848 4.95366ZM8.64448 3.77966C7.57058 2.70577 5.82971 2.70577 4.75582 3.77966L5.81648 4.84032C6.30458 4.35222 7.09571 4.35222 7.58382 4.84032L8.64448 3.77966ZM4.75582 3.77966L4.10382 4.43166L5.16448 5.49232L5.81648 4.84032L4.75582 3.77966ZM4.10382 4.43166C3.17705 5.35843 2.80402 6.68244 3.04715 7.97105L4.52114 7.69294C4.36428 6.86155 4.60924 6.04756 5.16448 5.49232L4.10382 4.43166ZM3.0472 7.97132C3.57299 10.7525 5.17458 13.7451 7.71482 16.2853L8.77548 15.2247C6.41771 12.8669 4.9833 10.1375 4.52109 7.69267L3.0472 7.97132ZM7.71482 16.2853C10.2551 18.8256 13.2477 20.4272 16.0288 20.9529L16.3075 19.479C13.8626 19.0168 11.1332 17.5824 8.77548 15.2247L7.71482 16.2853ZM16.0291 20.953C17.3177 21.1961 18.6417 20.8231 19.5685 19.8963L18.5078 18.8357C17.9526 19.3909 17.1386 19.6359 16.3072 19.479L16.0291 20.953ZM19.5685 19.8963L20.2195 19.2453L19.1588 18.1847L18.5078 18.8357L19.5685 19.8963ZM20.2195 19.2453C21.2934 18.1714 21.2934 16.4306 20.2195 15.3567L19.1588 16.4173C19.6469 16.9054 19.6469 17.6966 19.1588 18.1847L20.2195 19.2453ZM20.2195 15.3567L19.0465 14.1837L17.9858 15.2443L19.1588 16.4173L20.2195 15.3567ZM19.0465 14.1837C18.1678 13.305 16.7426 13.3044 15.8644 14.1841L16.9259 15.2439C17.2177 14.9516 17.6925 14.951 17.9858 15.2443L19.0465 14.1837ZM15.8645 14.184L14.9615 15.088L16.0228 16.148L16.9258 15.244L15.8645 14.184ZM14.9618 15.0877C14.9597 15.0898 14.9574 15.0914 14.9552 15.0926C14.9529 15.0939 14.9512 15.0943 14.9508 15.0944C14.9504 15.0945 14.9519 15.0941 14.9553 15.0944C14.9589 15.0948 14.9635 15.0959 14.9679 15.0978L14.3624 16.4702C14.9473 16.7283 15.603 16.5678 16.0225 16.1483L14.9618 15.0877ZM14.9682 15.0979C13.7259 14.5492 12.4925 13.7197 11.3865 12.6137L10.3258 13.6743C11.5598 14.9083 12.9464 15.8448 14.3621 16.4701L14.9682 15.0979Z" fill="#404040"/>
</svg>
