<svg xmlns="http://www.w3.org/2000/svg" width="33" height="32" viewBox="0 0 33 32" fill="none"><path d="M15.125.307c-1.743.118-3.238.432-4.704.987-3.767 1.427-6.782 4.16-8.551 7.753C1.036 10.74.597 12.2.322 14.19c-.108.787-.093 2.998.028 3.822.28 1.925.84 3.685 1.682 5.288 1.536 2.925 4.021 5.348 6.955 6.783 1.665.814 3.116 1.252 5.038 1.522.981.137 3.804.137 4.785 0a17.264 17.264 0 0 0 3.63-.897c1.303-.48 3.095-1.498 4.208-2.389 2.839-2.272 4.821-5.442 5.585-8.932.287-1.311.349-1.915.349-3.382 0-1.392-.056-1.986-.301-3.186-.647-3.168-2.406-6.259-4.781-8.403C25.032 2.187 22.099.83 18.837.409c-.581-.076-3.085-.144-3.712-.102m3.324 12.754c2.86 1.602 5.201 2.926 5.201 2.943 0 .026-10.322 5.828-10.455 5.877-.03.011-.05-2.356-.05-5.876 0-3.629.02-5.887.051-5.876.029.01 2.392 1.329 5.253 2.932" fill="#FF3A1F" fill-rule="evenodd"/></svg>