<svg width="15" height="15" viewBox="0 0 15 15" fill="none" xmlns="http://www.w3.org/2000/svg">
<path d="M8.25 1.25C8.25 0.835786 7.91421 0.5 7.5 0.5C7.08579 0.5 6.75 0.835786 6.75 1.25H8.25ZM6.75 6.875C6.75 7.28921 7.08579 7.625 7.5 7.625C7.91421 7.625 8.25 7.28921 8.25 6.875H6.75ZM12.0078 2.99219C11.7149 2.6993 11.24 2.6993 10.9471 2.99219C10.6543 3.28509 10.6543 3.75996 10.9471 4.05285L12.0078 2.99219ZM4.05285 4.05285C4.34575 3.75996 4.34575 3.28509 4.05285 2.99219C3.75996 2.6993 3.28509 2.6993 2.99219 2.99219L4.05285 4.05285ZM6.75 1.25V6.875H8.25V1.25H6.75ZM10.9471 4.05285C12.851 5.95666 12.851 9.04334 10.9471 10.9471L12.0078 12.0078C14.4974 9.51821 14.4974 5.48179 12.0078 2.99219L10.9471 4.05285ZM10.9471 10.9471C9.04334 12.851 5.95666 12.851 4.05285 10.9471L2.99219 12.0078C5.48179 14.4974 9.51821 14.4974 12.0078 12.0078L10.9471 10.9471ZM4.05285 10.9471C2.14905 9.04334 2.14905 5.95666 4.05285 4.05285L2.99219 2.99219C0.502602 5.48179 0.502602 9.51821 2.99219 12.0078L4.05285 10.9471Z" fill="#0017FC"/>
</svg>
