<svg xmlns="http://www.w3.org/2000/svg" viewBox="0 0 29 29" width="29" height="29" fill="none">
    <path d="M12.736 1.094A15.644 15.644 0 0 0 7.54 2.632c-1.48.744-2.584 1.54-3.748 2.706-1.2 1.202-2.052 2.426-2.702 3.88-1.08 2.416-1.356 4.978-.82 7.596.386 1.89 1.387 3.971 2.693 5.601.41.511 1.278 1.403 1.774 1.822.605.511 3.2 2.432 3.397 2.514.093.039.949.181 1.902.314.953.134 1.94.275 2.192.314 4.514.691 9.269-.724 12.523-3.727 1.319-1.217 2.186-2.368 2.944-3.908.637-1.292.965-2.329 1.193-3.77.119-.755.12-2.635.001-3.407-.558-3.618-2.522-6.702-5.665-8.899-1.771-1.237-4.049-2.137-6.283-2.48-1.219-.188-2.98-.227-4.205-.094m3.523 2.023c2.443.324 4.664 1.251 6.53 2.726.494.39 1.383 1.269 1.789 1.769 1.253 1.544 2.073 3.411 2.32 5.283.093.703.092 2.025-.001 2.735-.303 2.314-1.363 4.412-3.117 6.17-1.922 1.927-4.393 3.146-7.298 3.601-.682.107-2.523.148-3.27.074a22.73 22.73 0 0 1-1.129-.148c-.305-.05-1.149-.172-1.875-.272l-1.32-.18-1.314-.983c-1.539-1.151-2.091-1.624-2.653-2.272-1.489-1.717-2.391-3.552-2.773-5.646-.106-.582-.148-2.222-.073-2.881.386-3.402 2.515-6.486 5.764-8.351 1.679-.964 3.554-1.519 5.791-1.716.444-.04 2.073.017 2.629.091m-2.42 5c-.718.114-1.306.403-1.858.913-.703.65-1.055 1.408-1.093 2.353-.02.49-.012.548.094.746.158.293.433.438.836.438.721 0 .98-.266 1.062-1.087a1.537 1.537 0 0 1 .842-1.245c.336-.165.951-.155 1.289.021.256.134.544.418.669.659.102.197.166.652.125.879-.061.331-.181.468-.846.964-.828.619-1.311 1.245-1.506 1.953-.095.349-.137 1.217-.07 1.462.117.431.439.644.974.646.419.001.704-.138.857-.418.086-.157.119-.322.149-.735.049-.673.124-.796.77-1.274.808-.598 1.209-1.04 1.457-1.608.458-1.046.254-2.419-.501-3.37-.45-.565-1.181-1.049-1.84-1.216-.363-.092-1.08-.133-1.41-.081m.195 10.247c-.512.122-.897.643-.897 1.211 0 .49.251.875.711 1.093.778.369 1.711-.213 1.714-1.069.001-.408-.081-.603-.378-.9-.227-.227-.316-.281-.529-.327-.284-.06-.397-.061-.621-.008" />
</svg>