<svg width="36" height="36" viewBox="0 0 36 36" fill="none" xmlns="http://www.w3.org/2000/svg">
<path d="M12 3V2C11.4477 2 11 2.44772 11 3H12ZM24 3H25C25 2.44772 24.5523 2 24 2V3ZM24 10V11C24.5523 11 25 10.5523 25 10H24ZM12 10H11C11 10.5523 11.4477 11 12 11V10ZM24 5C23.4477 5 23 5.44772 23 6C23 6.55228 23.4477 7 24 7V5ZM7.2 6V7V6ZM12 7C12.5523 7 13 6.55228 13 6C13 5.44772 12.5523 5 12 5V7ZM13 24C12.4477 24 12 24.4477 12 25C12 25.5523 12.4477 26 13 26V24ZM23 26C23.5523 26 24 25.5523 24 25C24 24.4477 23.5523 24 23 24V26ZM13 18C12.4477 18 12 18.4477 12 19C12 19.5523 12.4477 20 13 20V18ZM23 20C23.5523 20 24 19.5523 24 19C24 18.4477 23.5523 18 23 18V20ZM12 4H24V2H12V4ZM23 3V10H25V3H23ZM24 9H12V11H24V9ZM13 10V3H11V10H13ZM24 7H28.8V5H24V7ZM28.8 7C28.86 7 28.9133 7.02354 28.9492 7.05867L30.3478 5.629C29.9336 5.22382 29.3765 5 28.8 5V7ZM28.9492 7.05867C28.9844 7.09306 29 7.13497 29 7.17391H31C31 6.59018 30.7628 6.03491 30.3478 5.629L28.9492 7.05867ZM29 7.17391V31.8261H31V7.17391H29ZM29 31.8261C29 31.865 28.9844 31.9069 28.9492 31.9413L30.3478 33.371C30.7628 32.9651 31 32.4098 31 31.8261H29ZM28.9492 31.9413C28.9133 31.9765 28.86 32 28.8 32V34C29.3765 34 29.9336 33.7762 30.3478 33.371L28.9492 31.9413ZM28.8 32H7.2V34H28.8V32ZM7.2 32C7.13995 32 7.08667 31.9765 7.05077 31.9413L5.65218 33.371C6.06636 33.7762 6.62353 34 7.2 34V32ZM7.05077 31.9413C7.01561 31.9069 7 31.865 7 31.8261H5C5 32.4098 5.23725 32.9651 5.65218 33.371L7.05077 31.9413ZM7 31.8261V7.17391H5V31.8261H7ZM7 7.17391C7 7.13497 7.01561 7.09306 7.05077 7.05867L5.65218 5.629C5.23725 6.03491 5 6.59017 5 7.17391H7ZM7.05077 7.05867C7.08667 7.02354 7.13995 7 7.2 7L7.2 5C6.62353 5 6.06636 5.22382 5.65218 5.629L7.05077 7.05867ZM7.2 7H12V5H7.2V7ZM13 26H23V24H13V26ZM13 20H23V18H13V20Z" fill="#0017FC"/>
</svg>
