<svg width="16" height="16" viewBox="0 0 16 16" fill="none" xmlns="http://www.w3.org/2000/svg">
<path d="M13.3325 1.33337V5.33337H9.33252" stroke="#75C75A" stroke-width="1.5" stroke-linecap="round" stroke-linejoin="round"/>
<path d="M13.3325 1.33337V5.33337H9.33252" stroke="#0FCC2D" stroke-width="1.5" stroke-linecap="round" stroke-linejoin="round"/>
<path d="M12.9925 10C12.5603 11.2269 11.741 12.2801 10.6581 13.0009C9.5752 13.7217 8.2874 14.0711 6.98871 13.9963C5.69002 13.9216 4.4508 13.4268 3.45777 12.5865C2.46474 11.7462 1.77168 10.606 1.48304 9.33758C1.19439 8.06917 1.32579 6.74131 1.85744 5.55407C2.38908 4.36684 3.29217 3.38454 4.43063 2.75518C5.56909 2.12583 6.88125 1.88352 8.1694 2.06475C9.45755 2.24599 10.6519 2.84095 11.5725 3.76001L13.3335 5.33337" stroke="#75C75A" stroke-width="1.5" stroke-linecap="round" stroke-linejoin="round"/>
<path d="M12.9925 10C12.5603 11.2269 11.741 12.2801 10.6581 13.0009C9.5752 13.7217 8.2874 14.0711 6.98871 13.9963C5.69002 13.9216 4.4508 13.4268 3.45777 12.5865C2.46474 11.7462 1.77168 10.606 1.48304 9.33758C1.19439 8.06917 1.32579 6.74131 1.85744 5.55407C2.38908 4.36684 3.29217 3.38454 4.43063 2.75518C5.56909 2.12583 6.88125 1.88352 8.1694 2.06475C9.45755 2.24599 10.6519 2.84095 11.5725 3.76001L13.3335 5.33337" stroke="#0FCC2D" stroke-width="1.5" stroke-linecap="round" stroke-linejoin="round"/>
</svg>
