<svg width="16" height="16" viewBox="0 0 16 16" fill="none" xmlns="http://www.w3.org/2000/svg">
<path d="M14.0826 1.33337C14.0826 0.91916 13.7468 0.583374 13.3326 0.583374C12.9183 0.583374 12.5826 0.91916 12.5826 1.33337H14.0826ZM13.3326 5.33337V6.08337C13.7468 6.08337 14.0826 5.74759 14.0826 5.33337H13.3326ZM9.33255 4.58337C8.91834 4.58337 8.58255 4.91916 8.58255 5.33337C8.58255 5.74759 8.91834 6.08337 9.33255 6.08337V4.58337ZM13.6999 10.2492C13.8376 9.85855 13.6324 9.43027 13.2418 9.29263C12.8511 9.15498 12.4228 9.36011 12.2852 9.75079L13.6999 10.2492ZM11.5726 3.76001L11.0427 4.29078C11.0524 4.30052 11.0624 4.30998 11.0727 4.31915L11.5726 3.76001ZM12.5826 1.33337V5.33337H14.0826V1.33337H12.5826ZM13.3326 4.58337H9.33255V6.08337H13.3326V4.58337ZM12.2852 9.75079C11.9069 10.8243 11.1901 11.7459 10.2425 12.3766L11.0737 13.6253C12.2919 12.8144 13.2136 11.6295 13.6999 10.2492L12.2852 9.75079ZM10.2425 12.3766C9.29502 13.0073 8.16819 13.313 7.03184 13.2476L6.94565 14.7451C8.40667 14.8292 9.85545 14.4362 11.0737 13.6253L10.2425 12.3766ZM7.03184 13.2476C5.89548 13.1822 4.81117 12.7492 3.94226 12.014L2.97334 13.159C4.0905 14.1044 5.48462 14.661 6.94565 14.7451L7.03184 13.2476ZM3.94226 12.014C3.07336 11.2787 2.46694 10.281 2.21438 9.17116L0.751768 9.504C1.07649 10.931 1.85618 12.2137 2.97334 13.159L3.94226 12.014ZM2.21438 9.17116C1.96181 8.0613 2.07679 6.89943 2.54197 5.86059L1.17297 5.24755C0.574867 6.5832 0.427043 8.07704 0.751768 9.504L2.21438 9.17116ZM2.54197 5.86059C3.00716 4.82176 3.79736 3.96225 4.79352 3.41156L4.06781 2.0988C2.78704 2.80682 1.77107 3.91191 1.17297 5.24755L2.54197 5.86059ZM4.79352 3.41156C5.78967 2.86088 6.93781 2.64885 8.06494 2.80744L8.27393 1.32207C6.82476 1.11818 5.34858 1.39078 4.06781 2.0988L4.79352 3.41156ZM8.06494 2.80744C9.19207 2.96602 10.2371 3.48661 11.0427 4.29078L12.1024 3.22923C11.0667 2.19529 9.72309 1.52596 8.27393 1.32207L8.06494 2.80744ZM11.0727 4.31915L12.8327 5.89252L13.8324 4.77423L12.0724 3.20086L11.0727 4.31915Z" fill="#75C75A"/>
<path d="M14.0826 1.33337C14.0826 0.91916 13.7468 0.583374 13.3326 0.583374C12.9183 0.583374 12.5826 0.91916 12.5826 1.33337H14.0826ZM13.3326 5.33337V6.08337C13.7468 6.08337 14.0826 5.74759 14.0826 5.33337H13.3326ZM9.33255 4.58337C8.91834 4.58337 8.58255 4.91916 8.58255 5.33337C8.58255 5.74759 8.91834 6.08337 9.33255 6.08337V4.58337ZM13.6999 10.2492C13.8376 9.85855 13.6324 9.43027 13.2418 9.29263C12.8511 9.15498 12.4228 9.36011 12.2852 9.75079L13.6999 10.2492ZM11.5726 3.76001L11.0427 4.29078C11.0524 4.30052 11.0624 4.30998 11.0727 4.31915L11.5726 3.76001ZM12.5826 1.33337V5.33337H14.0826V1.33337H12.5826ZM13.3326 4.58337H9.33255V6.08337H13.3326V4.58337ZM12.2852 9.75079C11.9069 10.8243 11.1901 11.7459 10.2425 12.3766L11.0737 13.6253C12.2919 12.8144 13.2136 11.6295 13.6999 10.2492L12.2852 9.75079ZM10.2425 12.3766C9.29502 13.0073 8.16819 13.313 7.03184 13.2476L6.94565 14.7451C8.40667 14.8292 9.85545 14.4362 11.0737 13.6253L10.2425 12.3766ZM7.03184 13.2476C5.89548 13.1822 4.81117 12.7492 3.94226 12.014L2.97334 13.159C4.0905 14.1044 5.48462 14.661 6.94565 14.7451L7.03184 13.2476ZM3.94226 12.014C3.07336 11.2787 2.46694 10.281 2.21438 9.17116L0.751768 9.504C1.07649 10.931 1.85618 12.2137 2.97334 13.159L3.94226 12.014ZM2.21438 9.17116C1.96181 8.0613 2.07679 6.89943 2.54197 5.86059L1.17297 5.24755C0.574867 6.5832 0.427043 8.07704 0.751768 9.504L2.21438 9.17116ZM2.54197 5.86059C3.00716 4.82176 3.79736 3.96225 4.79352 3.41156L4.06781 2.0988C2.78704 2.80682 1.77107 3.91191 1.17297 5.24755L2.54197 5.86059ZM4.79352 3.41156C5.78967 2.86088 6.93781 2.64885 8.06494 2.80744L8.27393 1.32207C6.82476 1.11818 5.34858 1.39078 4.06781 2.0988L4.79352 3.41156ZM8.06494 2.80744C9.19207 2.96602 10.2371 3.48661 11.0427 4.29078L12.1024 3.22923C11.0667 2.19529 9.72309 1.52596 8.27393 1.32207L8.06494 2.80744ZM11.0727 4.31915L12.8327 5.89252L13.8324 4.77423L12.0724 3.20086L11.0727 4.31915Z" fill="#0FCC2D"/>
</svg>
