<svg width="36" height="36" fill="none" viewBox="0 0 36 36"
    xmlns="http://www.w3.org/2000/svg">
    <path d="M9.75 3.566c-1.654.305-2.971 1.686-3.208 3.364-.049.346-.063 3.516-.05 11.37.017 10.115.026 10.914.122 11.234.423 1.405 1.499 2.47 2.879 2.852.344.095.815.104 5.398.104 4.977 0 5.022-.001 5.186-.124.329-.245.413-.421.413-.866s-.084-.62-.413-.866c-.163-.122-.233-.124-5.126-.154l-4.961-.03-.33-.157a1.996 1.996 0 0 1-.953-.953l-.157-.33V6.99l.157-.33c.199-.42.533-.754.953-.953l.33-.157 4.995-.016 4.995-.016v2.506c.001 1.378.026 2.663.058 2.855a2.546 2.546 0 0 0 2.072 2.081c.198.033 1.487.059 2.864.06h2.503l.017 4.946c.016 4.888.017 4.947.14 5.111.246.329.421.413.866.413s.621-.084.866-.413c.123-.165.124-.2.124-6.086V11.07l-.14-.45c-.295-.948-.347-1.012-3.153-3.817-2.784-2.784-2.851-2.84-3.787-3.153l-.42-.14-5.91-.01c-4.605-.009-6.003.006-6.33.066m15.031 4.653c1.304 1.304 2.419 2.459 2.478 2.566l.108.195h-5.052l-.148-.147-.147-.148V5.633l.195.108c.107.059 1.262 1.174 2.566 2.478m-13.18 7.326a.98.98 0 0 0-.369.26c-.466.531-.23 1.483.41 1.656.153.041 1.844.056 5 .045 4.71-.016 4.771-.018 4.935-.14.329-.246.413-.421.413-.866s-.084-.62-.413-.866c-.164-.123-.219-.124-4.976-.134-2.801-.006-4.89.013-5 .045m0 4.5a.98.98 0 0 0-.369.26c-.466.531-.23 1.483.41 1.656.153.041 1.844.056 5 .045 4.71-.016 4.771-.018 4.935-.14.329-.246.413-.421.413-.866s-.084-.62-.413-.866c-.164-.123-.219-.124-4.976-.134-2.801-.006-4.89.013-5 .045m0 4.5a.98.98 0 0 0-.369.26c-.467.532-.23 1.483.412 1.656.153.041 1.434.057 3.729.046 3.247-.016 3.511-.025 3.697-.126.559-.305.559-1.457 0-1.762-.186-.101-.444-.11-3.74-.12-2.035-.006-3.62.014-3.729.046m19.599 1.47c-.129.055-.976.855-2.204 2.081l-1.994 1.992-1.276-1.267c-1.432-1.422-1.536-1.49-1.997-1.314-.307.118-.645.468-.746.775-.142.43-.073.523 1.788 2.393 1.884 1.893 2.006 1.985 2.449 1.844.182-.057.749-.59 2.706-2.54 2.688-2.681 2.741-2.745 2.594-3.189-.098-.297-.397-.625-.689-.758-.29-.132-.36-.134-.631-.017" fill="#000"/>
</svg>