<svg width="36" height="36" viewBox="0 0 36 36" fill="none" xmlns="http://www.w3.org/2000/svg">
<g clip-path="url(#clip0_20_3263)">
<path d="M4.27351 8.54693C5.11605 8.54693 5.90172 8.30083 6.5644 7.87822L8.41408 9.72789C8.59552 9.90933 8.83326 10 9.071 10C9.30874 10 9.54657 9.90933 9.72791 9.72789C10.0907 9.36511 10.0907 8.77686 9.72791 8.41399L7.87822 6.56432C8.30093 5.90165 8.54703 5.11599 8.54703 4.27346C8.54703 1.91711 6.62989 0 4.27351 0C1.91714 0 0 1.91711 0 4.27346C0 6.62982 1.91714 8.54693 4.27351 8.54693ZM4.27351 1.85803C5.60536 1.85803 6.68898 2.94163 6.68898 4.27346C6.68898 5.6053 5.60536 6.6889 4.27351 6.6889C2.94166 6.6889 1.85805 5.6053 1.85805 4.27346C1.85805 2.94163 2.94166 1.85803 4.27351 1.85803Z" fill="#384BF8"/>
<path d="M31.7265 27.4531C30.884 27.4531 30.0983 27.6991 29.4357 28.1218L27.586 26.2721C27.2232 25.9093 26.635 25.9093 26.2721 26.2721C25.9093 26.6349 25.9093 27.2231 26.2721 27.586L28.1218 29.4357C27.6991 30.0983 27.4531 30.884 27.4531 31.7265C27.4531 34.0829 29.3702 36 31.7265 36C34.0829 36 36 34.0829 36 31.7265C36 29.3702 34.0829 27.4531 31.7265 27.4531ZM31.7265 34.142C30.3947 34.142 29.3111 33.0584 29.3111 31.7265C29.3111 30.3947 30.3947 29.3111 31.7265 29.3111C33.0584 29.3111 34.142 30.3947 34.142 31.7265C34.142 33.0584 33.0584 34.142 31.7265 34.142Z" fill="#384BF8"/>
<path d="M26.929 10C27.1667 10 27.4046 9.90933 27.5859 9.72789L29.4356 7.87822C30.0983 8.30083 30.884 8.54693 31.7265 8.54693C34.0829 8.54693 36 6.62982 36 4.27346C36 1.91711 34.0829 0 31.7265 0C29.3702 0 27.4531 1.91711 27.4531 4.27346C27.4531 5.11599 27.6991 5.90165 28.1218 6.56432L26.2721 8.41399C25.9093 8.77677 25.9093 9.36502 26.2721 9.72789C26.4535 9.90933 26.6913 10 26.929 10ZM31.7265 1.85803C33.0584 1.85803 34.142 2.94163 34.142 4.27346C34.142 5.6053 33.0584 6.6889 31.7265 6.6889C30.3947 6.6889 29.3111 5.6053 29.3111 4.27346C29.3111 2.94163 30.3947 1.85803 31.7265 1.85803Z" fill="#384BF8"/>
<path d="M8.41401 26.2721L6.56434 28.1218C5.90167 27.6991 5.116 27.4531 4.27347 27.4531C1.91712 27.4531 0 29.3702 0 31.7265C0 34.0829 1.91712 36 4.27347 36C6.62983 36 8.54695 34.0829 8.54695 31.7265C8.54695 30.884 8.30085 30.0983 7.87824 29.4357L9.72791 27.586C10.0907 27.2232 10.0907 26.635 9.72791 26.2721C9.36513 25.9093 8.77688 25.9093 8.41401 26.2721ZM4.27347 34.142C2.94164 34.142 1.85803 33.0584 1.85803 31.7265C1.85803 30.3947 2.94164 29.3111 4.27347 29.3111C5.60531 29.3111 6.68892 30.3947 6.68892 31.7265C6.68892 33.0584 5.60531 34.142 4.27347 34.142Z" fill="#384BF8"/>
<path d="M22.8338 25.2798C23.0381 25.7929 23.6197 26.0433 24.1328 25.839C24.6459 25.6347 24.8962 25.0531 24.6919 24.54L22.8338 25.2798ZM23.4129 24.0309L22.4834 24.3998L22.4838 24.4008L23.4129 24.0309ZM22.6089 22.8589L23.2883 22.1252L23.2867 22.1237L22.6089 22.8589ZM22.5449 22.7999L21.8647 23.533L21.8671 23.5351L22.5449 22.7999ZM13.4539 22.7989L12.7751 22.0645L12.7699 22.0694L13.4539 22.7989ZM13.3899 22.8589L14.0694 23.5926L14.0738 23.5884L13.3899 22.8589ZM12.5859 24.0309L11.6571 23.6602L11.6568 23.661L12.5859 24.0309ZM11.3068 24.54C11.1025 25.0531 11.3528 25.6347 11.8659 25.839C12.379 26.0433 12.9606 25.7929 13.1649 25.2798L11.3068 24.54ZM24.3639 11.636L23.6568 12.3431L23.6568 12.3431L24.3639 11.636ZM24.3639 24.3639L23.6568 23.6568L23.6568 23.6568L24.3639 24.3639ZM11.636 24.3639L12.3431 23.6568L12.3431 23.6568L11.636 24.3639ZM11.636 11.636L12.3431 12.3431L12.3431 12.3431L11.636 11.636ZM24.6919 24.54L24.3419 23.661L22.4838 24.4008L22.8338 25.2798L24.6919 24.54ZM24.3423 23.662C24.1099 23.0763 23.7491 22.5519 23.2883 22.1252L21.9294 23.5926C22.1726 23.8179 22.3618 24.0935 22.4834 24.3998L24.3423 23.662ZM23.2867 22.1237L23.2227 22.0647L21.8671 23.5351L21.9311 23.5941L23.2867 22.1237ZM23.225 22.0668C22.4862 21.3814 21.5153 20.9999 20.5069 20.9999V22.9999C21.0104 22.9999 21.4955 23.1904 21.8647 23.533L23.225 22.0668ZM20.5069 20.9999H15.4929V22.9999H20.5069V20.9999ZM15.4929 20.9999C14.4843 20.9999 13.5142 21.3814 12.7751 22.0646L14.1326 23.5332C14.5035 23.1904 14.9894 22.9999 15.4929 22.9999V20.9999ZM12.7699 22.0694L12.7059 22.1294L14.0738 23.5884L14.1378 23.5284L12.7699 22.0694ZM12.7104 22.1252C12.2487 22.5528 11.8899 23.077 11.6571 23.6602L13.5146 24.4016C13.6379 24.0928 13.827 23.817 14.0693 23.5926L12.7104 22.1252ZM11.6568 23.661L11.3068 24.54L13.1649 25.2798L13.5149 24.4008L11.6568 23.661ZM19.7677 14.1543C20.744 15.1306 20.744 16.7135 19.7677 17.6898L21.1819 19.104C22.9393 17.3466 22.9393 14.4974 21.1819 12.74L19.7677 14.1543ZM19.7677 17.6898C18.7914 18.6661 17.2085 18.6661 16.2322 17.6898L14.8179 19.104C16.5753 20.8614 19.4245 20.8614 21.1819 19.104L19.7677 17.6898ZM16.2322 17.6898C15.2558 16.7135 15.2558 15.1306 16.2322 14.1543L14.8179 12.74C13.0606 14.4974 13.0606 17.3466 14.8179 19.104L16.2322 17.6898ZM16.2322 14.1543C17.2085 13.1779 18.7914 13.1779 19.7677 14.1543L21.1819 12.74C19.4245 10.9827 16.5753 10.9827 14.8179 12.74L16.2322 14.1543ZM23.6568 12.3431C26.781 15.4673 26.781 20.5327 23.6568 23.6568L25.071 25.071C28.9763 21.1658 28.9763 14.8342 25.071 10.9289L23.6568 12.3431ZM23.6568 23.6568C20.5326 26.781 15.4673 26.781 12.3431 23.6568L10.9289 25.071C14.8342 28.9763 21.1658 28.9763 25.071 25.071L23.6568 23.6568ZM12.3431 23.6568C9.21895 20.5326 9.21895 15.4673 12.3431 12.3431L10.9289 10.9289C7.02369 14.8342 7.02369 21.1658 10.9289 25.071L12.3431 23.6568ZM12.3431 12.3431C15.4673 9.21895 20.5327 9.21895 23.6568 12.3431L25.071 10.9289C21.1658 7.02369 14.8342 7.02369 10.9289 10.9289L12.3431 12.3431Z" fill="#0017FC"/>
</g>
<defs>
<clipPath id="clip0_20_3263">
<rect width="36" height="36" fill="white"/>
</clipPath>
</defs>
</svg>
