<svg xmlns="http://www.w3.org/2000/svg" xmlns:xlink="http://www.w3.org/1999/xlink" version="1.1" id="Слой_1" x="0px" y="0px" viewBox="0 0 20 20" style="enable-background:new 0 0 20 20;" xml:space="preserve">
<style type="text/css">
	.st0{fill:#939499;}
</style>
<path class="st0" d="M13.2,17c-0.1,0-0.2,0-0.3-0.1l-3.5-3.2c-0.2-0.2-0.2-0.5,0-0.7c0.2-0.2,0.5-0.2,0.7,0l3.1,2.9l2.9-2.9  c0.2-0.2,0.5-0.2,0.7,0c0.2,0.2,0.2,0.5,0,0.7l-3.3,3.2C13.5,16.9,13.4,17,13.2,17z"/>
<path class="st0" d="M13.3,17c-0.3,0-0.5-0.2-0.5-0.5v-13C12.8,3.2,13,3,13.3,3s0.5,0.2,0.5,0.5v13C13.8,16.8,13.5,17,13.3,17z"/>
<path class="st0" d="M10.2,7.3c-0.1,0-0.2,0-0.3-0.1L6.8,4.2L3.9,7.1c-0.2,0.2-0.5,0.2-0.7,0C3,6.9,3,6.6,3.1,6.4l3.3-3.2  C6.6,3,6.9,3,7.1,3.1l3.5,3.2c0.2,0.2,0.2,0.5,0,0.7C10.5,7.2,10.4,7.3,10.2,7.3z"/>
<path class="st0" d="M10.2,7.3c-0.1,0-0.2,0-0.3-0.1L6.4,3.9c-0.2-0.2-0.2-0.5,0-0.7C6.6,3,6.9,3,7.1,3.1l3.5,3.2  c0.2,0.2,0.2,0.5,0,0.7C10.5,7.2,10.4,7.3,10.2,7.3z"/>
<path class="st0" d="M6.7,17c-0.3,0-0.5-0.2-0.5-0.5v-13C6.2,3.2,6.5,3,6.7,3s0.5,0.2,0.5,0.5v13C7.2,16.8,7,17,6.7,17z"/>
</svg>