<svg width="36" height="36" viewBox="0 0 36 36" fill="none" xmlns="http://www.w3.org/2000/svg">
<path d="M20.1838 20.9487C20.7077 21.1233 21.274 20.8402 21.4487 20.3162C21.6233 19.7923 21.3402 19.226 20.8162 19.0513L20.1838 20.9487ZM19.0032 31C19.5554 31 20.0032 30.5523 20.0032 30C20.0032 29.4477 19.5554 29 19.0032 29V31ZM25.506 18L25.5049 19L25.5053 19L25.506 18ZM26.5 22.5C26.5 21.9477 26.0523 21.5 25.5 21.5C24.9477 21.5 24.5 21.9477 24.5 22.5H26.5ZM24.5 28.5C24.5 29.0523 24.9477 29.5 25.5 29.5C26.0523 29.5 26.5 29.0523 26.5 28.5H24.5ZM28.5 26.5C29.0523 26.5 29.5 26.0523 29.5 25.5C29.5 24.9477 29.0523 24.5 28.5 24.5V26.5ZM22.5 24.5C21.9477 24.5 21.5 24.9477 21.5 25.5C21.5 26.0523 21.9477 26.5 22.5 26.5V24.5ZM18.5355 5.46447C20.4882 7.41709 20.4882 10.5829 18.5355 12.5355L19.9497 13.9497C22.6834 11.2161 22.6834 6.78392 19.9497 4.05025L18.5355 5.46447ZM18.5355 12.5355C16.5829 14.4882 13.4171 14.4882 11.4645 12.5355L10.0503 13.9497C12.7839 16.6834 17.2161 16.6834 19.9497 13.9497L18.5355 12.5355ZM11.4645 12.5355C9.51184 10.5829 9.51184 7.41709 11.4645 5.46447L10.0503 4.05025C7.31658 6.78392 7.31658 11.2161 10.0503 13.9497L11.4645 12.5355ZM11.4645 5.46447C13.4171 3.51184 16.5829 3.51184 18.5355 5.46447L19.9497 4.05025C17.2161 1.31658 12.7839 1.31658 10.0503 4.05025L11.4645 5.46447ZM20.8162 19.0513C19.2473 18.5283 17.8836 18.2659 16.9061 18.134C16.417 18.068 16.0234 18.0345 15.7477 18.0175C15.6098 18.009 15.5013 18.0046 15.4249 18.0024C15.3867 18.0013 15.3565 18.0007 15.3347 18.0003C15.3238 18.0002 15.315 18.0001 15.3083 18.0001C15.305 18 15.3022 18 15.2999 18C15.2988 18 15.2978 18 15.2969 18C15.2965 18 15.2961 18 15.2957 18C15.2956 18 15.2953 18 15.2952 18C15.295 18 15.2948 18 15.2948 19C15.2948 20 15.2945 20 15.2943 20C15.2943 20 15.2941 20 15.294 20C15.2937 20 15.2935 20 15.2934 20C15.2931 20 15.2929 20 15.2928 20C15.2927 20 15.2931 20 15.294 20C15.2959 20 15.2998 20.0001 15.3058 20.0001C15.3178 20.0003 15.3379 20.0007 15.3659 20.0015C15.4218 20.0032 15.509 20.0066 15.6247 20.0137C15.8562 20.028 16.2014 20.057 16.6386 20.116C17.5138 20.2341 18.7527 20.4717 20.1838 20.9487L20.8162 19.0513ZM15.2948 18C12.0349 18 8.77793 18.8077 6.30246 20.2832C3.8325 21.7553 2 23.994 2 26.8535H4C4 24.954 5.20431 23.266 7.32643 22.0011C9.44305 20.7396 12.3335 20 15.2948 20V18ZM2 26.8535V28.4268H4V26.8535H2ZM2 28.4268C2 29.8253 3.11429 31 4.53684 31V29C4.26272 29 4 28.7651 4 28.4268H2ZM4.53684 31H19.0032V29H4.53684V31ZM25.5 32C21.9107 32 19 29.0906 19 25.5H17C17 30.1954 20.8063 34 25.5 34V32ZM19 25.5C19 21.9963 22.002 18.9961 25.5049 19L25.5071 17C20.898 16.9949 17 20.8917 17 25.5H19ZM25.5053 19C29.0932 19.0026 32 21.9119 32 25.5H34C34 20.8081 30.1988 17.0034 25.5067 17L25.5053 19ZM32 25.5C32 29.0893 29.0906 32 25.5 32V34C30.1954 34 34 30.1937 34 25.5H32ZM24.5 22.5V28.5H26.5V22.5H24.5ZM28.5 24.5H22.5V26.5H28.5V24.5Z" fill="#0017FC"/>
</svg>
