<svg xmlns="http://www.w3.org/2000/svg" width="20" height="20" viewBox="0 0 20 20">
    <path d="M.77 2.581c-.06.044-.146.13-.19.191-.181.245-.18.226-.18 3.049 0 2.538.002 2.615.067 2.79a.928.928 0 0 0 .464.502c.132.061.228.072.725.081l.573.011.023.106c.067.321.435.764.76.917.134.063.212.072.597.072h.443l.573-.475.574-.475V8.9c0-.605-.085-.875-.376-1.19-.314-.341-.652-.488-1.123-.488-.262 0-.355.015-.54.087a1.673 1.673 0 0 0-.931.874l-.103.219-.505-.009-.504-.01-.009-2.591L1.1 3.2h7.817l-.01 1.2-.009 1.2H10.6v.6h2.404l-.02.458c-.01.252-.026.55-.035.662l-.016.203.392.144.433.159c.033.011.042-.195.041-.964 0-.882-.007-.992-.062-1.112-.121-.26-.401-.45-.664-.45h-.13l-.296-.574c-.505-.975-.867-1.465-1.21-1.634-.144-.07-.203-.076-.906-.086l-.753-.01-.068-.141a1.463 1.463 0 0 0-.159-.248l-.09-.107H.88l-.11.081m10.583 1.524c.259.249.355.396.594.903l.184.392H9.8V3.9h1.339l.214.205M6.007 6.35c-.204.089-.207.117-.207 1.73v1.45l-.226.118c-1.181.621-1.533 2.086-.741 3.082l.143.18.065-.172c.039-.105.136-.251.244-.368l.18-.194-.124-.242c-.115-.225-.124-.264-.124-.53 0-.241.014-.318.088-.477.19-.403.578-.682 1-.717a.659.659 0 0 0 .403-.149 3.29 3.29 0 0 1 .4-.227l.209-.096-.134-.056a2.892 2.892 0 0 0-.358-.111L6.6 9.517V7.2h2.225l.152.769c.083.423.176.807.207.853.112.171.174.178 1.598.178H12.1v.529l.403.011.402.01-.011-.574-.011-.575-.09-.09c-.076-.076-.127-.093-.302-.104-.189-.013-.216-.023-.264-.108-.154-.267-.591-.251-.697.026-.026.07-.048.075-.329.075H10.9v-.195c0-.176.008-.198.085-.233.087-.04.213-.268.214-.389.001-.114-.128-.285-.256-.338-.111-.047-.143-.046-.341.004-.33.084-.367.106-.436.259-.049.109-.065.218-.065.467L10.1 8.1h-.323l-.082-.496-.083-.497.159-.015c.197-.019.315-.094.387-.245.05-.104.051-.131.007-.256a.43.43 0 0 0-.162-.215L9.89 6.3l-1.887.001c-1.559.001-1.905.01-1.996.049M3.983 8.063c.169.078.363.273.45.453.235.486-.168 1.083-.733 1.083a.798.798 0 0 1-.564-1.363c.228-.228.574-.299.847-.173m3.423 2.072a1.916 1.916 0 0 0-.68.324c-.302.23-.375.38-.66 1.347-.191.649-.274.884-.32.909-.222.118-.319.201-.383.325-.068.135-.07.175-.065 1.266.004.87.016 1.162.053 1.285.073.243.268.474.497.592l.197.1.831.017.831.017.057.15c.204.536.688.916 1.28 1.006a1.68 1.68 0 0 0 1.741-.919l.125-.254h2.046c1.919 0 2.047.004 2.065.058.01.032.065.154.122.27.292.598 1.022.96 1.7.844a1.713 1.713 0 0 0 1.24-.914l.124-.251.471-.012c.403-.011.494-.024.622-.087a.989.989 0 0 0 .49-.467c.091-.186.094-.208.104-.824.012-.742-.028-1.001-.214-1.379-.208-.424-.577-.743-1.076-.933-.209-.08-.264-.085-1.017-.098l-.797-.013-.603-.504a29.15 29.15 0 0 1-.849-.73 4.39 4.39 0 0 0-2.021-1.07c-.29-.067-.396-.069-3.034-.077-1.503-.004-2.798.006-2.877.022m4.648 1.615c.134.458.245.837.245.842.001.004-1.26.008-2.801.008H6.696l.023-.075c.014-.041.105-.337.204-.658.224-.728.258-.797.445-.892l.147-.075 2.147.008 2.146.009.246.833m1.314-.748c.591.164 1.113.504 1.832 1.195l.417.4-1.263-.007-1.262-.007-.246-.833a66.642 66.642 0 0 1-.245-.846c-.002-.034.544.037.767.098m5.123 2.411c.251.116.478.346.603.613.085.182.09.219.1.813.014.795.037.761-.51.761h-.383l-.02-.092a1.631 1.631 0 0 0-1.144-1.23c-.254-.077-.82-.077-1.074 0a1.631 1.631 0 0 0-1.144 1.23l-.02.092h-3.998l-.02-.092a1.631 1.631 0 0 0-1.144-1.23c-.254-.077-.82-.077-1.074 0a1.631 1.631 0 0 0-1.144 1.23l-.02.092h-.683c-.638 0-.687-.004-.749-.067C6.003 15.47 6 15.422 6 14.45c0-.974.003-1.019.067-1.084.067-.066.095-.067 6.142-.058l6.074.009.208.096m-8.983 1.643c.464.181.71.708.536 1.152-.134.344-.482.592-.831.592-.342 0-.713-.205-.847-.469-.083-.161-.089-.52-.012-.744.068-.2.324-.462.519-.531.193-.068.461-.068.635 0m7.3 0a.87.87 0 0 1 .49.451c.229.457.058.96-.405 1.191-.724.362-1.503-.336-1.239-1.111.068-.2.324-.462.519-.531.193-.068.461-.068.635 0" />
</svg>