<svg width="30" height="18" viewBox="0 0 30 18" fill="none" xmlns="http://www.w3.org/2000/svg">
<path d="M15.48 6C15.35 6.004 15.225 6.058 15.133 6.152L12.495 8.782L10.87 7.162C10.415 6.688 9.68 7.42 10.155 7.874L12.138 9.852C12.335 10.049 12.655 10.049 12.853 9.852L15.848 6.865C16.178 6.545 15.935 6 15.481 6H15.48ZM0.5 10H3.5C3.777 10 4 10.223 4 10.5C4 10.777 3.777 11 3.5 11H0.5C0.223 11 0 10.777 0 10.5C0 10.223 0.223 10 0.5 10ZM0.5 6H3.5C3.777 6 4 6.223 4 6.5C4 6.777 3.777 7 3.5 7H0.5C0.223 7 0 6.777 0 6.5C0 6.223 0.223 6 0.5 6ZM0.5 2H3.5C3.777 2 4 2.223 4 2.5C4 2.777 3.777 3 3.5 3H0.5C0.223 3 0 2.777 0 2.5C0 2.223 0.223 2 0.5 2ZM24.5 13C23.125 13 22 14.125 22 15.5C22 16.875 23.125 18 24.5 18C25.875 18 27 16.875 27 15.5C27 14.125 25.875 13 24.5 13ZM24.5 14C25.334 14 26 14.666 26 15.5C26 16.334 25.334 17 24.5 17C23.666 17 23 16.334 23 15.5C23 14.666 23.666 14 24.5 14ZM11.5 13C10.125 13 9 14.125 9 15.5C9 16.875 10.125 18 11.5 18C12.875 18 14 16.875 14 15.5C14 14.125 12.875 13 11.5 13ZM11.5 14C12.334 14 13 14.666 13 15.5C13 16.334 12.334 17 11.5 17C10.666 17 10 16.334 10 15.5C10 14.666 10.666 14 11.5 14ZM6.5 0C5.678 0 5 0.678 5 1.5V12.5C5 13.322 5.678 14 6.5 14H8.5C9.176 14.01 9.176 12.99 8.5 13H6.5C6.214 13 6 12.786 6 12.5V1.5C6 1.214 6.214 1 6.5 1H19.5C19.786 1 20 1.214 20 1.5V13H14.5C13.84 13 13.852 14.01 14.5 14H21.5C22.16 14 22.154 13 21.5 13H21V4H25.227L29 9.896V12.5C29 12.786 28.786 13 28.5 13H27.5C26.846 13 26.846 14 27.5 14H28.5C29.322 14 30 13.322 30 12.5V9.75C30 9.655 29.973 9.56 29.922 9.48L25.922 3.23C25.83 3.087 25.672 3 25.5 3H21V1.5C21 0.678 20.322 0 19.5 0H6.5Z" fill="#808080"/>
</svg>
