<svg width="17" height="17" viewBox="0 0 17 17" fill="none" xmlns="http://www.w3.org/2000/svg">
<path d="M12.4629 4.98575C12.2683 5.13082 12.2548 5.39947 12.4032 5.58748C13.6378 7.06707 13.9151 9.06944 13.0958 10.6982C12.0813 12.7148 9.69822 13.6218 7.46018 12.9982L7.94703 12.7895C8.17016 12.6911 8.25945 12.4446 8.14438 12.2246C8.0293 12.0047 7.76698 11.9052 7.54384 12.0035L6.11015 12.6107C6.08985 12.6166 6.08332 12.6296 6.06291 12.6355C6.03608 12.6544 6.00919 12.6732 5.98235 12.6921C5.95551 12.7111 5.94254 12.7369 5.93601 12.7498C5.92952 12.7627 5.90269 12.7817 5.8962 12.7946L5.87016 12.8463C5.86367 12.8592 5.87096 12.8792 5.86447 12.892C5.86527 12.9249 5.8523 12.9507 5.8532 12.9835C5.854 13.0164 5.86143 13.0363 5.86876 13.0561C5.86956 13.089 5.89081 13.1158 5.89161 13.1486C5.89894 13.1685 5.89894 13.1685 5.90632 13.1885L6.72958 14.6231C6.85119 14.8301 7.13393 14.9237 7.34313 14.8183C7.43103 14.7815 7.48396 14.711 7.52297 14.6334C7.58148 14.5171 7.58462 14.3729 7.49892 14.2325L7.26962 13.8257C9.893 14.546 12.6954 13.4612 13.8854 11.0955C14.8479 9.18231 14.5336 6.80498 13.0804 5.06966C12.9319 4.88165 12.6574 4.84069 12.4629 4.98575Z" fill="#0017FC"/>
<path d="M9.85775 2.05534C9.64854 2.16071 9.56653 2.42725 9.68814 2.63418L9.93127 3.04801C7.29402 2.32078 4.49814 3.39261 3.3016 5.77121C2.32616 7.71029 2.66821 10.1015 4.16294 11.8578C4.32516 12.0528 4.6063 12.0808 4.80075 11.9357C4.9953 11.7906 5.00887 11.522 4.8466 11.327C3.57775 9.84636 3.29307 7.82423 4.12547 6.1695C5.13344 4.16576 7.50273 3.25185 9.74072 3.87551L9.27416 4.07819C9.05104 4.17657 8.96174 4.42316 9.07682 4.64309C9.19189 4.86301 9.45422 4.96254 9.67735 4.86417L11.0639 4.28202L11.1111 4.25719C11.1314 4.25125 11.1379 4.23826 11.1379 4.23826C11.1648 4.21934 11.1917 4.20055 11.2185 4.18162C11.2518 4.14979 11.2648 4.12392 11.2983 4.09214L11.3373 4.01459C11.3438 4.0017 11.343 3.96886 11.3494 3.95597C11.3625 3.93009 11.3551 3.91024 11.3542 3.87736C11.3534 3.84453 11.3525 3.81174 11.3379 3.77196C11.3305 3.75212 11.3232 3.73213 11.3296 3.71923C11.3223 3.69939 11.3149 3.6794 11.3076 3.65956L10.4843 2.22489C10.3562 2.03071 10.0735 1.93712 9.85775 2.05534Z" fill="#0017FC"/>
<path d="M12.4629 4.98575L12.3732 4.8655L12.3732 4.8655L12.4629 4.98575ZM12.4032 5.58748L12.2854 5.68046L12.288 5.68358L12.4032 5.58748ZM13.0958 10.6982L13.2298 10.7656L13.2298 10.7656L13.0958 10.6982ZM7.46018 12.9982L7.40109 12.8603L7.00925 13.0282L7.41991 13.1427L7.46018 12.9982ZM7.94703 12.7895L8.00612 12.9274L8.00755 12.9268L7.94703 12.7895ZM8.14438 12.2246L8.27728 12.1551L8.27728 12.1551L8.14438 12.2246ZM7.54384 12.0035L7.60234 12.1417L7.60435 12.1408L7.54384 12.0035ZM6.11015 12.6107L6.15229 12.7546L6.16064 12.7522L6.16865 12.7488L6.11015 12.6107ZM6.06291 12.6355L6.02128 12.4914L5.99706 12.4984L5.97646 12.5129L6.06291 12.6355ZM5.93601 12.7498L6.07001 12.8173L5.93601 12.7498ZM5.8962 12.7946L6.0302 12.862L6.0302 12.862L5.8962 12.7946ZM5.87016 12.8463L5.73616 12.7789L5.73616 12.7789L5.87016 12.8463ZM5.86447 12.892L5.73047 12.8246L5.7136 12.8582L5.71452 12.8957L5.86447 12.892ZM5.8532 12.9835L6.00315 12.9799L6.00314 12.9795L5.8532 12.9835ZM5.86876 13.0561L6.01871 13.0525L6.01811 13.0275L6.00946 13.0041L5.86876 13.0561ZM5.89161 13.1486L5.74165 13.1523L5.74226 13.1772L5.7509 13.2006L5.89161 13.1486ZM5.90632 13.1885L5.76562 13.2404L5.76997 13.2522L5.77622 13.2631L5.90632 13.1885ZM6.72958 14.6231L6.59947 14.6978L6.60026 14.6991L6.72958 14.6231ZM7.34313 14.8183L7.28506 14.6796L7.27566 14.6844L7.34313 14.8183ZM7.52297 14.6334L7.38896 14.566L7.52297 14.6334ZM7.49892 14.2325L7.36817 14.3062L7.37089 14.3107L7.49892 14.2325ZM7.26962 13.8257L7.30934 13.681L6.96219 13.5857L7.13894 13.8993L7.26962 13.8257ZM13.8854 11.0955L13.7514 11.0281L13.8854 11.0955ZM13.0804 5.06966L12.9626 5.16265L12.9654 5.16596L13.0804 5.06966ZM9.85775 2.05534L9.92527 2.18939L9.92982 2.18689L9.85775 2.05534ZM9.68814 2.63418L9.81747 2.5582L9.81746 2.55818L9.68814 2.63418ZM9.93127 3.04801L9.8914 3.19261L10.248 3.29094L10.0606 2.97202L9.93127 3.04801ZM3.3016 5.77121L3.4356 5.83862L3.3016 5.77121ZM4.16294 11.8578L4.27828 11.7618L4.27717 11.7605L4.16294 11.8578ZM4.80075 11.9357L4.71109 11.8154L4.71104 11.8155L4.80075 11.9357ZM4.8466 11.327L4.96191 11.231L4.9605 11.2294L4.8466 11.327ZM4.12547 6.1695L3.99147 6.10209L4.12547 6.1695ZM9.74072 3.87551L9.80049 4.01309L10.1884 3.84455L9.78099 3.73101L9.74072 3.87551ZM9.27416 4.07819L9.21439 3.94061L9.21365 3.94094L9.27416 4.07819ZM9.67735 4.86417L9.61928 4.72584L9.61685 4.72691L9.67735 4.86417ZM11.0639 4.28202L11.1221 4.42084L11.1336 4.4148L11.0639 4.28202ZM11.1111 4.25719L11.069 4.11323L11.0546 4.11744L11.0413 4.12441L11.1111 4.25719ZM11.1379 4.23826L11.0515 4.11569L11.0208 4.13732L11.0039 4.17086L11.1379 4.23826ZM11.2185 4.18162L11.3049 4.3042L11.314 4.29778L11.3221 4.2901L11.2185 4.18162ZM11.2983 4.09214L11.4016 4.20085L11.4205 4.18287L11.4323 4.15955L11.2983 4.09214ZM11.3373 4.01459L11.4713 4.082L11.4713 4.082L11.3373 4.01459ZM11.3494 3.95597L11.2154 3.88856L11.2154 3.88856L11.3494 3.95597ZM11.3542 3.87736L11.2043 3.88102L11.2043 3.88145L11.3542 3.87736ZM11.3379 3.77196L11.4787 3.72022L11.4786 3.71998L11.3379 3.77196ZM11.3296 3.71923L11.4636 3.78664L11.4929 3.7284L11.4703 3.66725L11.3296 3.71923ZM11.3076 3.65956L11.4483 3.60757L11.4439 3.59579L11.4377 3.5849L11.3076 3.65956ZM10.4843 2.22489L10.6147 2.15009L10.6095 2.14227L10.4843 2.22489ZM12.3732 4.8655C12.1004 5.06892 12.0932 5.43693 12.2855 5.68043L12.5209 5.49452C12.4163 5.36201 12.4362 5.19272 12.5525 5.106L12.3732 4.8655ZM12.288 5.68358C13.4876 7.12118 13.7521 9.0598 12.9618 10.6308L13.2298 10.7656C14.0782 9.07907 13.788 7.01296 12.5184 5.49137L12.288 5.68358ZM12.9618 10.6308C11.9836 12.5752 9.67862 13.4607 7.50044 12.8537L7.41991 13.1427C9.71782 13.783 12.179 12.8544 13.2298 10.7656L12.9618 10.6308ZM7.51926 13.136L8.00612 12.9274L7.88795 12.6516L7.40109 12.8603L7.51926 13.136ZM8.00755 12.9268C8.30933 12.7937 8.43297 12.4526 8.27728 12.1551L8.01147 12.2942C8.08593 12.4365 8.03099 12.5886 7.88652 12.6523L8.00755 12.9268ZM8.27728 12.1551C8.12804 11.8699 7.78343 11.734 7.48333 11.8663L7.60435 12.1408C7.75053 12.0764 7.93056 12.1395 8.01147 12.2942L8.27728 12.1551ZM7.48535 11.8654L6.05166 12.4725L6.16865 12.7488L7.60233 12.1417L7.48535 11.8654ZM6.06802 12.4667C6.03173 12.4773 6.00719 12.4955 6.00029 12.5004C5.99411 12.5047 6.00522 12.496 6.02128 12.4914L6.10455 12.7796C6.14101 12.7691 6.16559 12.7509 6.17285 12.7458C6.17939 12.7412 6.16827 12.75 6.15229 12.7546L6.06802 12.4667ZM5.97646 12.5129C5.9632 12.5223 5.9499 12.5316 5.93644 12.5411C5.92304 12.5505 5.90947 12.56 5.8959 12.5696L6.06881 12.8147C6.08207 12.8054 6.09537 12.796 6.10882 12.7866C6.12223 12.7772 6.1358 12.7676 6.14937 12.7581L5.97646 12.5129ZM5.8959 12.5696C5.83612 12.6117 5.80934 12.6679 5.80201 12.6824L6.07001 12.8173C6.07303 12.8113 6.07358 12.8105 6.07385 12.8101C6.07392 12.81 6.07239 12.8122 6.06881 12.8147L5.8959 12.5696ZM5.80201 12.6824C5.80686 12.6728 5.81166 12.6663 5.81382 12.6635C5.81622 12.6603 5.81795 12.6585 5.8182 12.6582C5.81824 12.6582 5.81745 12.659 5.81251 12.6637C5.80912 12.667 5.80158 12.6741 5.79448 12.6817C5.7907 12.6858 5.78576 12.6913 5.78063 12.698C5.77573 12.7044 5.76867 12.7143 5.7622 12.7272L6.0302 12.862C6.02535 12.8716 6.02054 12.8781 6.01838 12.8809C6.01599 12.8841 6.01426 12.8859 6.01401 12.8862C6.01397 12.8862 6.01475 12.8854 6.0197 12.8807C6.02309 12.8774 6.03063 12.8703 6.03773 12.8627C6.04151 12.8586 6.04645 12.8531 6.05158 12.8464C6.05648 12.8401 6.06354 12.8301 6.07001 12.8173L5.80201 12.6824ZM5.73616 12.7789C5.72272 12.8056 5.71919 12.8302 5.71799 12.8444C5.71684 12.8579 5.7173 12.8704 5.71736 12.8728C5.7175 12.8786 5.71724 12.8743 5.71773 12.8686C5.71827 12.8622 5.72027 12.8449 5.73047 12.8246L5.99847 12.9595C6.01192 12.9327 6.01544 12.9081 6.01665 12.894C6.0178 12.8805 6.01733 12.8679 6.01727 12.8655C6.01713 12.8597 6.0174 12.8641 6.01691 12.8698C6.01637 12.8762 6.01436 12.8934 6.00416 12.9137L5.73616 12.7789ZM5.71452 12.8957C5.71444 12.8924 5.71532 12.8909 5.71191 12.9074C5.70921 12.9205 5.70226 12.9514 5.70325 12.9876L6.00314 12.9795C6.00323 12.9829 6.00233 12.9844 6.00569 12.9681C6.00834 12.9553 6.01531 12.9245 6.01443 12.8884L5.71452 12.8957ZM5.70324 12.9872C5.70467 13.0458 5.71946 13.0848 5.72805 13.1081L6.00946 13.0041C6.00549 12.9934 6.00468 12.9909 6.0041 12.9885C6.00382 12.9874 6.00328 12.9851 6.00315 12.9799L5.70324 12.9872ZM5.7188 13.0598C5.71991 13.1051 5.73531 13.1431 5.73948 13.1544C5.74633 13.1729 5.74196 13.1648 5.74165 13.1523L6.04156 13.145C6.04046 13.0997 6.02506 13.0617 6.02089 13.0504C6.01403 13.0318 6.01841 13.04 6.01871 13.0525L5.7188 13.0598ZM5.7509 13.2006C5.75457 13.2105 5.7564 13.2155 5.75824 13.2205C5.76008 13.2255 5.76192 13.2304 5.76562 13.2404L6.04703 13.1365C6.04333 13.1265 6.04149 13.1215 6.03965 13.1165C6.03781 13.1115 6.03598 13.1066 6.03231 13.0966L5.7509 13.2006ZM5.77622 13.2631L6.59948 14.6978L6.85968 14.5485L6.03642 13.1138L5.77622 13.2631ZM6.60026 14.6991C6.75837 14.9682 7.12467 15.0963 7.41061 14.9523L7.27566 14.6844C7.14318 14.7511 6.944 14.6919 6.8589 14.5471L6.60026 14.6991ZM7.40106 14.9567C7.53617 14.9001 7.6105 14.7932 7.65697 14.7008L7.38896 14.566C7.35741 14.6288 7.32589 14.6629 7.28521 14.68L7.40106 14.9567ZM7.65697 14.7008C7.7385 14.5388 7.73997 14.3395 7.62695 14.1544L7.37089 14.3107C7.42927 14.4063 7.42447 14.4954 7.38896 14.566L7.65697 14.7008ZM7.6296 14.1589L7.40029 13.752L7.13894 13.8993L7.36825 14.3062L7.6296 14.1589ZM7.2299 13.9703C9.91367 14.7073 12.7935 13.6 14.0194 11.1629L13.7514 11.0281C12.5973 13.3224 9.87233 14.3848 7.30934 13.681L7.2299 13.9703ZM14.0194 11.1629C15.0106 9.19268 14.6844 6.75143 13.1954 4.97335L12.9654 5.16596C14.3828 6.85854 14.6852 9.17194 13.7514 11.0281L14.0194 11.1629ZM13.1981 4.9767C13.0007 4.72675 12.6347 4.67052 12.3732 4.8655L12.5525 5.10601C12.6801 5.01086 12.8631 5.03655 12.9626 5.16261L13.1981 4.9767ZM9.79028 1.92137C9.50441 2.06536 9.39288 2.42782 9.55882 2.71019L9.81746 2.55818C9.74018 2.42668 9.79267 2.25607 9.92523 2.18931L9.79028 1.92137ZM9.55881 2.71017L9.80194 3.12399L10.0606 2.97202L9.81747 2.5582L9.55881 2.71017ZM9.97115 2.9034C7.27387 2.15963 4.40027 3.25338 3.1676 5.7038L3.4356 5.83862C4.59601 3.53184 7.31417 2.48194 9.8914 3.19261L9.97115 2.9034ZM3.1676 5.7038C2.16278 7.70127 2.5183 10.1568 4.04872 11.955L4.27717 11.7605C2.81812 10.0462 2.48953 7.7193 3.4356 5.83862L3.1676 5.7038ZM4.04762 11.9537C4.26142 12.2107 4.6328 12.2482 4.89047 12.0559L4.71104 11.8155C4.57981 11.9134 4.38891 11.8949 4.27827 11.7618L4.04762 11.9537ZM4.89042 12.0559C5.16535 11.8509 5.16959 11.4806 4.9619 11.231L4.73131 11.423C4.84815 11.5633 4.82525 11.7303 4.71109 11.8154L4.89042 12.0559ZM4.9605 11.2294C3.72816 9.79136 3.45617 7.8338 4.25947 6.23691L3.99147 6.10209C3.12998 7.81465 3.42734 9.90137 4.73271 11.4246L4.9605 11.2294ZM4.25947 6.23691C5.23131 4.305 7.52274 3.41314 9.70046 4.02L9.78099 3.73101C7.48272 3.09056 5.03557 4.02653 3.99147 6.10209L4.25947 6.23691ZM9.68096 3.73793L9.21439 3.94062L9.33393 4.21577L9.80049 4.01309L9.68096 3.73793ZM9.21365 3.94094C8.91187 4.07399 8.78822 4.41508 8.94391 4.71263L9.20972 4.57354C9.13526 4.43124 9.1902 4.27914 9.33467 4.21545L9.21365 3.94094ZM8.94391 4.71263C9.09315 4.99786 9.43777 5.13372 9.73786 5.00142L9.61685 4.72691C9.47066 4.79136 9.29063 4.72817 9.20972 4.57354L8.94391 4.71263ZM9.73542 5.00247L11.1219 4.42032L11.0058 4.14371L9.61928 4.72586L9.73542 5.00247ZM11.1336 4.4148L11.1809 4.38998L11.0413 4.12441L10.9941 4.14923L11.1336 4.4148ZM11.1532 4.40115C11.1885 4.39083 11.2159 4.37296 11.2358 4.3539C11.2455 4.34463 11.2531 4.33541 11.2589 4.32719C11.2618 4.32307 11.2644 4.31916 11.2665 4.31556C11.2676 4.31376 11.2686 4.31203 11.2695 4.31038C11.2699 4.30955 11.2703 4.30875 11.2708 4.30796C11.271 4.30757 11.2712 4.30718 11.2714 4.3068C11.2715 4.30661 11.2715 4.30642 11.2716 4.30623C11.2717 4.30614 11.2717 4.30605 11.2718 4.30595C11.2718 4.30591 11.2718 4.30584 11.2719 4.30581C11.2719 4.30574 11.2719 4.30567 11.1379 4.23826C11.0039 4.17086 11.004 4.17079 11.004 4.17072C11.004 4.17069 11.004 4.17062 11.0041 4.17058C11.0041 4.17049 11.0042 4.17039 11.0042 4.1703C11.0043 4.17011 11.0044 4.16993 11.0045 4.16975C11.0047 4.16938 11.0049 4.16901 11.0051 4.16864C11.0055 4.1679 11.0058 4.16717 11.0062 4.16644C11.007 4.16499 11.0079 4.16354 11.0087 4.16211C11.0104 4.15924 11.0123 4.15639 11.0143 4.15359C11.0182 4.14798 11.0229 4.14239 11.0284 4.1371C11.04 4.12602 11.054 4.11761 11.069 4.11323L11.1532 4.40115ZM11.2244 4.36084C11.2376 4.35149 11.2509 4.34215 11.2644 4.33271C11.2778 4.32329 11.2914 4.31377 11.3049 4.3042L11.132 4.05904C11.1188 4.06839 11.1055 4.07773 11.092 4.08717C11.0786 4.09659 11.065 4.10611 11.0515 4.11569L11.2244 4.36084ZM11.3221 4.2901C11.3466 4.26665 11.3637 4.24521 11.3752 4.23087C11.3868 4.21653 11.3929 4.20915 11.4016 4.20085L11.1949 3.98343C11.1702 4.00691 11.1531 4.02836 11.1415 4.04285C11.1298 4.05735 11.1237 4.06476 11.1149 4.07314L11.3221 4.2901ZM11.4713 4.082C11.4777 4.06913 11.4815 4.05754 11.4837 4.04982C11.486 4.04172 11.4875 4.03445 11.4885 4.02899C11.4904 4.01875 11.4916 4.00844 11.4922 4.00379C11.493 3.99701 11.4932 3.99589 11.4932 3.99594C11.4932 3.9963 11.4927 3.9988 11.4916 4.00258C11.4907 4.00599 11.4883 4.01373 11.4834 4.02338L11.2154 3.88856C11.209 3.90143 11.2052 3.91302 11.203 3.92074C11.2007 3.92884 11.1992 3.93612 11.1982 3.94157C11.1963 3.95181 11.1951 3.96212 11.1945 3.96677C11.1937 3.97356 11.1935 3.97467 11.1935 3.97462C11.1935 3.97426 11.194 3.97176 11.1951 3.96798C11.196 3.96457 11.1984 3.95683 11.2033 3.94718L11.4713 4.082ZM11.4834 4.02338C11.504 3.98244 11.5078 3.94484 11.507 3.91542C11.5067 3.90353 11.5056 3.89182 11.5051 3.88665C11.5045 3.87998 11.5043 3.87653 11.5042 3.87327L11.2043 3.88145C11.2046 3.89464 11.2056 3.906 11.2063 3.91311C11.2066 3.91709 11.2068 3.91918 11.207 3.92121C11.2071 3.92302 11.2071 3.92347 11.2071 3.92316C11.2071 3.92235 11.207 3.91713 11.2084 3.90971C11.2099 3.90182 11.2124 3.89455 11.2154 3.88856L11.4834 4.02338ZM11.5042 3.87371C11.5034 3.83984 11.5025 3.7852 11.4787 3.72022L11.1971 3.8237C11.2024 3.83829 11.2035 3.84923 11.2043 3.88102L11.5042 3.87371ZM11.4786 3.71998C11.4766 3.71459 11.4756 3.71191 11.4749 3.70973C11.4742 3.70761 11.4746 3.70859 11.4752 3.71151C11.4758 3.71415 11.4774 3.72235 11.4771 3.73408C11.4768 3.74619 11.4743 3.76544 11.4636 3.78664L11.1956 3.65183C11.1688 3.70518 11.1779 3.75582 11.1819 3.77448C11.1866 3.79609 11.1945 3.81669 11.1972 3.82394L11.4786 3.71998ZM11.4703 3.66725C11.4667 3.65733 11.463 3.64737 11.4593 3.63741C11.4556 3.62745 11.452 3.6175 11.4483 3.60757L11.1669 3.71154C11.1706 3.72146 11.1742 3.73142 11.1779 3.74138C11.1816 3.75134 11.1853 3.76129 11.1889 3.77122L11.4703 3.66725ZM11.4377 3.5849L10.6144 2.15024L10.3542 2.29955L11.1775 3.73421L11.4377 3.5849ZM10.6095 2.14227C10.4443 1.89187 10.079 1.76312 9.78568 1.92379L9.92982 2.18689C10.0681 2.11112 10.2681 2.16956 10.3591 2.30751L10.6095 2.14227ZM5.7622 12.7272L5.73616 12.7789L6.00416 12.9137L6.0302 12.862L5.7622 12.7272ZM11.4323 4.15955L11.4713 4.082L11.2033 3.94718L11.1643 4.02473L11.4323 4.15955Z" fill="#0017FC"/>
</svg>
