<?xml version="1.0" encoding="utf-8"?>
<!-- Generator: Adobe Illustrator 25.2.3, SVG Export Plug-In . SVG Version: 6.00 Build 0)  -->
<svg version="1.1" id="Слой_1" xmlns="http://www.w3.org/2000/svg" xmlns:xlink="http://www.w3.org/1999/xlink" x="0px" y="0px"
	 viewBox="0 0 16 16" style="enable-background:new 0 0 16 16;" xml:space="preserve">
<style type="text/css">
	.st0{fill:#35E000;}
</style>
<path class="st0" d="M8,9.5c-0.4,0-0.8-0.3-0.8-0.8V6.3c0-0.4,0.3-0.8,0.8-0.8s0.8,0.3,0.8,0.8v2.5C8.8,9.2,8.4,9.5,8,9.5z"/>
<path class="st0" d="M8,11.8c-0.5,0-0.9-0.4-0.9-0.9c0-0.2,0.1-0.5,0.3-0.6C7.5,10.1,7.8,10,8,10c0.5,0,0.9,0.4,0.9,0.9
	S8.5,11.8,8,11.8z"/>
<path class="st0" d="M13.1,14.8H2.9c-0.8,0-1.6-0.4-2-1.2c-0.4-0.7-0.4-1.6,0-2.3L6,2.4c0.4-0.7,1.2-1.2,2-1.2s1.6,0.4,2,1.2
	l5.1,8.9c0.4,0.7,0.4,1.6,0,2.3C14.7,14.3,13.9,14.8,13.1,14.8z M8,2.7c-0.1,0-0.5,0-0.7,0.4l-5.1,8.9c-0.2,0.4-0.1,0.7,0,0.8
	s0.3,0.4,0.7,0.4h10.2c0.4,0,0.6-0.3,0.7-0.4s0.2-0.4,0-0.8L8.7,3.1c0,0,0,0,0,0C8.5,2.8,8.1,2.7,8,2.7z"/>
</svg>
