<?xml version="1.0" encoding="utf-8"?>
<!-- Generator: Adobe Illustrator 23.0.3, SVG Export Plug-In . SVG Version: 6.00 Build 0)  -->
<svg version="1.1" id="Слой_1" xmlns="http://www.w3.org/2000/svg" xmlns:xlink="http://www.w3.org/1999/xlink" x="0px" y="0px"
	 width="1257.2px" height="1257.2px" viewBox="0 0 1257.2 1257.2" style="enable-background:new 0 0 1257.2 1257.2;"
	 xml:space="preserve">
<style type="text/css">
	.st0{fill:#82AAFF;}
	.st1{fill:#00DE00;}
</style>
<g>
	<path class="st0" d="M1196.1,0H61.1C27.3,0,0,27.3,0,61.1v855c0,33.7,27.3,61.1,61.1,61.1h236.8v254c0,14.4,11.7,26.1,26.1,26.1
		h128.1c14.4,0,26.1-11.7,26.1-26.1v-227.9c0-14.4,11.7-26.1,26.1-26.1h107.2c14.4,0,26.1,11.7,26.1,26.1v227.9
		c0,14.4,11.7,26.1,26.1,26.1h113.2c14.4,0,26.1-11.7,26.1-26.1v-227.9c0-14.4,11.7-26.1,26.1-26.1H1030c14.4,0,26.1,11.7,26.1,26.1
		v227.9c0,14.4,11.7,26.1,26.1,26.1h114c33.7,0,61.1-27.3,61.1-61.1V61.1C1257.2,27.3,1229.8,0,1196.1,0z M617.8,111
		c46.9,0,84.9,38,84.9,84.9s-38,84.9-84.9,84.9c-46.9,0-84.9-38-84.9-84.9S570.9,111,617.8,111z M1056.8,595.5
		c0,7.6-6.1,13.7-13.7,13.7H214c-7.6,0-13.7-6.1-13.7-13.7v-39.7c0-7.6,6.1-13.7,13.7-13.7h829.1c7.6,0,13.7,6.1,13.7,13.7V595.5z
		 M1056.8,501.7c0,7.6-6.1,13.7-13.7,13.7H214c-7.6,0-13.7-6.1-13.7-13.7V462c0-7.6,6.1-13.7,13.7-13.7h829.1
		c7.6,0,13.7,6.1,13.7,13.7V501.7z M1056.8,407.9c0,7.6-6.1,13.7-13.7,13.7H214c-7.6,0-13.7-6.1-13.7-13.7v-39.7
		c0-7.6,6.1-13.7,13.7-13.7h829.1c7.6,0,13.7,6.1,13.7,13.7V407.9z"/>
	<circle class="st1" cx="1626.2" cy="926.5" r="274.1"/>
	<g>
		<path d="M1680.2,847.1v255.4h-54.9V916.2l-53.1,14.7v-46.3c14.3-4.2,27.8-9.5,40.4-16c12.7-6.5,24.1-13.6,34.3-21.4H1680.2z"/>
	</g>
</g>
</svg>
