<?xml version="1.0" encoding="utf-8"?>
<!-- Generator: Adobe Illustrator 23.0.3, SVG Export Plug-In . SVG Version: 6.00 Build 0)  -->
<svg version="1.1" id="Слой_1" xmlns="http://www.w3.org/2000/svg" xmlns:xlink="http://www.w3.org/1999/xlink" x="0px" y="0px"
	 width="2000px" height="2000px" viewBox="0 0 2000 2000" style="enable-background:new 0 0 2000 2000;" xml:space="preserve">
<style type="text/css">
	.st0{fill:#82AAFF;}
</style>
<path class="st0" d="M1829.2,305.6l-217,139.9c-5.7-6-11.5-12-17.4-17.9c-76.5-76.5-165.6-136.6-264.9-178.6
	c-102.8-43.5-212-65.6-324.5-65.6S783.9,205.6,681,249.1c-99.3,42-188.4,102.1-264.9,178.6c-40.2,40.2-75.9,84-106.8,130.8
	L556,645.3C663.1,516,824.9,433.5,1005.5,433.5c147.8,0,283,55.3,385.9,146.2l-236.2,143.5c0,0,391.7,203,685.4,452.2
	C1886.8,821.2,1829.2,305.6,1829.2,305.6z"/>
<path class="st0" d="M248,1735.8l217-139.9c5.7,6,11.5,12,17.4,17.9c76.5,76.5,165.6,136.6,264.9,178.6
	c102.8,43.5,212,65.6,324.5,65.6s221.6-22.1,324.5-65.6c99.3-42,188.4-102.1,264.9-178.6c40.2-40.2,75.9-84,106.8-130.8l-246.8-86.8
	C1414,1525.5,1252.3,1608,1071.6,1608c-147.8,0-283-55.3-385.9-146.2l236.2-143.5c0,0-524.8-296.9-685.4-452.2
	C190.4,1220.3,248,1735.8,248,1735.8z"/>
</svg>
