<?xml version="1.0" encoding="utf-8"?>
<!-- Generator: Adobe Illustrator 23.0.3, SVG Export Plug-In . SVG Version: 6.00 Build 0)  -->
<svg version="1.1" id="Слой_1" xmlns="http://www.w3.org/2000/svg" xmlns:xlink="http://www.w3.org/1999/xlink" x="0px" y="0px"
	 width="2000px" height="2000px" viewBox="0 0 2000 2000" style="enable-background:new 0 0 2000 2000;" xml:space="preserve">
<style type="text/css">
	.st0{fill:#82AAFF;}
</style>
<path class="st0" d="M1436.9,294.9v451.3c0,1.3,0.4,2.5,1.2,3.5c64.3,85.5,104.6,190.3,110.5,304.1
	c17.7,338-247.6,602.7-585.6,584.1c-292.4-16-524.5-258.2-524.5-554.6c0-131.9,46-253,122.7-348.2c0.8-1,1.3-2.3,1.3-3.7v-443
	c0-4.4-4.8-7.3-8.7-5.1C257.2,446.9,61.2,770.7,82.7,1138c26,445.5,414.8,832.6,860.3,856.8c527.3,28.7,963.9-390.4,963.9-911.5
	c0-339.9-185.7-636.3-461.2-793.5C1441.8,287.6,1436.9,290.4,1436.9,294.9z"/>
<path class="st0" d="M1104.2,922.2H895.8c-48.1,0-87.2-39-87.2-87.2V102.2c0-48.1,39-87.2,87.2-87.2h208.4c48.1,0,87.2,39,87.2,87.2
	V835C1191.4,883.2,1152.3,922.2,1104.2,922.2z"/>
</svg>
