<?xml version="1.0" encoding="utf-8"?>
<!-- Generator: Adobe Illustrator 23.0.3, SVG Export Plug-In . SVG Version: 6.00 Build 0)  -->
<svg version="1.1" id="Слой_1" xmlns="http://www.w3.org/2000/svg" xmlns:xlink="http://www.w3.org/1999/xlink" x="0px" y="0px"
	 width="900px" height="900px" viewBox="0 0 900 900" style="enable-background:new 0 0 900 900;" xml:space="preserve">
<style type="text/css">
	.st0{fill:#82AAFF;}
</style>
<g transform="translate(0.000000,900.000000) scale(0.100000,-0.100000)">
	<path class="st0" d="M1320,8989c-297-38-589-169-805-361c-256-228-412-497-487-838L5,7685V4505c0-3011,1-3185,18-3267
		c29-146,65-256,121-372C351,430,727,134,1210,28l105-23h3180c3011,0,3185,1,3267,18c325,66,567,195,794,421
		c217,218,344,449,411,747l28,124l3,3120c2,2190,0,3148-8,3215c-30,262-103,465-243,678c-217,330-543,550-952,644l-100,23l-3155,1
		C2805,8997,1356,8994,1320,8989z M7669,8230c237-57,431-221,522-443c63-153,59,83,59-3289c0-3324,3-3131-52-3268
		c-93-234-287-402-531-460c-84-20-106-20-3198-18c-3005,3-3116,4-3169,22c-266,90-450,275-527,531c-17,57-18,207-21,3160
		c-2,2215,0,3118,8,3164c42,246,215,462,451,562c144,61-78,57,3284,58C7556,8250,7586,8250,7669,8230z"/>
	<path class="st0" d="M3123,7249c-45-13-62-32-346-372c-137-163-252-297-256-297c-5,0-33,11-62,24c-84,36-156,50-254,50
		c-125-1-242-35-352-104c-19-12-25-11-57,18c-20,17-50,39-66,47c-33,17-102,22-141,10c-42-13-91-56-110-99c-37-83-19-150,66-236
		l54-55l-21-65c-27-84-29-236-4-330c31-118,83-207,171-296c137-138,277-198,465-198c185,0,328,60,461,193c130,130,193,277,193,451
		c1,103-13,175-50,259c-13,29-21,57-18,62s124,152,270,326c146,175,275,336,286,357c40,78,6,193-72,239
		C3244,7255,3166,7263,3123,7249z M2310,6457c102-24,102-19-6-147c-53-63-100-117-105-118c-9-4-210,181-217,199c-4,10,51,39,118,60
		C2166,6472,2235,6474,2310,6457z M2668,6079c16-67,15-111-3-188c-21-87-59-155-126-222c-112-112-270-159-421-125
		c-98,22-164,57-232,124c-99,98-158,250-140,363c4,22,11,39,16,39c6,0,85-73,176-161c92-89,181-168,199-175c48-21,119-17,162,7
		c23,13,98,93,191,205c85,101,157,184,160,184C2654,6130,2662,6107,2668,6079z"/>
	<path class="st0" d="M3758,6346c-146-60-230-186-230-346c0-161,96-298,246-350c55-20,87-20,1679-18l1622,3l67,33
		c77,38,134,97,175,181c25,49,28,68,28,151c0,82-4,103-27,152c-35,76-104,148-175,184l-58,29l-1635,2l-1635,3L3758,6346z"/>
	<path class="st0" d="M2128,5150c-219-29-407-166-503-365c-54-114-69-176-68-295c5-491,540-801,973-563c38,22,98,69,146,117
		c65,65,89,98,123,168c92,189,92,386,1,576c-79,162-249,302-420,346C2305,5153,2197,5160,2128,5150z M2302,4959
		c245-51,411-289,370-531c-34-201-188-355-388-389c-249-43-498,142-536,399C1702,4747,1996,5023,2302,4959z"/>
	<path class="st0" d="M3842,4870c-157-23-290-157-311-315c-29-210,111-395,320-425c89-13,3084-13,3173,0c130,19,233,96,293,219
		c25,49,28,68,28,151c0,82-4,103-26,150c-56,118-163,199-289,219C6954,4882,3927,4882,3842,4870z"/>
	<path class="st0" d="M2115,3649c-138-21-261-85-366-190c-63-62-85-93-122-170c-55-114-70-178-70-289s15-175,70-290
		c38-78,59-109,122-171c86-85,150-125,266-165c69-24,95-28,195-27c97,0,128,4,195,26c104,34,190,87,268,164c110,109,169,231,189,386
		c10,82,9,109-4,187c-43,241-226,447-459,518C2319,3653,2196,3662,2115,3649z M2368,3439c207-68,341-293,304-511
		c-43-257-284-433-535-390c-248,43-425,281-389,524c16,105,67,201,145,275C2026,3461,2192,3497,2368,3439z"/>
	<path class="st0" d="M3768,3351c-149-59-240-191-240-351c0-128,49-223,154-302c97-73-27-68,1774-66l1619,3l67,33
		c77,38,134,97,175,181c25,49,28,68,28,151c0,87-3,101-32,161c-39,79-102,140-181,177l-57,27l-1630,2C3880,3369,3813,3368,3768,3351
		z"/>
</g>
</svg>
