<?xml version="1.0" encoding="utf-8"?>
<!-- Generator: Adobe Illustrator 23.0.3, SVG Export Plug-In . SVG Version: 6.00 Build 0)  -->
<svg version="1.1" id="Слой_1" xmlns="http://www.w3.org/2000/svg" xmlns:xlink="http://www.w3.org/1999/xlink" x="0px" y="0px"
	 width="2000px" height="2000px" viewBox="0 0 2000 2000" style="enable-background:new 0 0 2000 2000;" xml:space="preserve">
<style type="text/css">
	.st0{fill:#82AAFF;}
</style>
<g>
	<path class="st0" d="M1634.4,71.7v473.6c0,126.6-102.7,229.3-229.3,229.3H579.6c-126.6,0-229.3-102.7-229.3-229.3V73
		c-114,13.3-202.5,110.1-202.5,227.7V1707c0,126.6,102.7,229.3,229.3,229.3h1245.8c126.6,0,229.3-102.7,229.3-229.3V300.7
		C1852.2,177.9,1755.7,77.6,1634.4,71.7z M1634.4,1619.1c0,126.6-102.7,229.3-229.3,229.3H579.6c-126.6,0-229.3-102.7-229.3-229.3
		v-332.5c0-126.6,102.7-229.3,229.3-229.3H1405c126.6,0,229.3,102.7,229.3,229.3L1634.4,1619.1L1634.4,1619.1z"/>
	<path class="st0" d="M1340.1,568.2h99.4c23.2,0,42-18.8,42-42V105.8c0-23.2-18.8-42-42-42h-99.4c-23.2,0-42,18.8-42,42v420.4
		C1298.1,549.3,1316.9,568.2,1340.1,568.2z"/>
	<path class="st0" d="M1455.7,1317.2H544.3c-33.2,0-60.2,26.9-60.2,60.2v63.1c0,33.2,26.9,60.2,60.2,60.2h911.4
		c33.2,0,60.2-26.9,60.2-60.2v-63.1C1515.9,1344.1,1489,1317.2,1455.7,1317.2z"/>
</g>
</svg>
