<?xml version="1.0" encoding="utf-8"?>
<!-- Generator: Adobe Illustrator 23.0.3, SVG Export Plug-In . SVG Version: 6.00 Build 0)  -->
<svg version="1.1" id="Слой_1" xmlns="http://www.w3.org/2000/svg" xmlns:xlink="http://www.w3.org/1999/xlink" x="0px" y="0px"
	 width="2000px" height="2000px" viewBox="0 0 2000 2000" style="enable-background:new 0 0 2000 2000;" xml:space="preserve">
<style type="text/css">
	.st0{fill:#82AAFF;}
</style>
<g>
	<ellipse class="st0" cx="1000" cy="1040.5" rx="386.8" ry="358.7"/>
	<path class="st0" d="M1003.5,1427.3c-321.2,0-654,174.6-654,372.7c0,62.4,43.7,121.1,110.3,172.2c11,8.4,24.4,13,38.3,13h1005.6
		c14,0,27.6-4.7,38.6-13.3c65.4-51,108.3-109.6,108.3-171.9C1650.5,1602,1317.6,1427.3,1003.5,1427.3z"/>
	<path class="st0" d="M996.2,326.9c86.1,0,156.1-70,156.1-156.1s-70-156.1-156.1-156.1s-156.1,70-156.1,156.1
		S910.1,326.9,996.2,326.9z M996.2,83.1c48.4,0,87.7,39.3,87.7,87.7c0,48.4-39.3,87.7-87.7,87.7c-48.4,0-87.7-39.3-87.7-87.7
		C908.5,122.5,947.8,83.1,996.2,83.1z"/>
	<path class="st0" d="M219.1,537.5C133,537.5,63,607.5,63,693.6s70,156.1,156.1,156.1s156.1-70,156.1-156.1S305.2,537.5,219.1,537.5
		z M219.1,781.3c-48.4,0-87.7-39.3-87.7-87.7c0-48.4,39.3-87.7,87.7-87.7s87.7,39.3,87.7,87.7C306.8,742,267.5,781.3,219.1,781.3z"
		/>
	<path class="st0" d="M1780.9,537.5c-86.1,0-156.1,70-156.1,156.1s70,156.1,156.1,156.1c86.1,0,156.1-70,156.1-156.1
		S1867,537.5,1780.9,537.5z M1780.9,781.3c-48.4,0-87.7-39.3-87.7-87.7c0-48.4,39.3-87.7,87.7-87.7c48.4,0,87.7,39.3,87.7,87.7
		C1868.6,742,1829.3,781.3,1780.9,781.3z"/>
	<path class="st0" d="M392.9,596.6c20.4,0,36.9-16.5,36.9-36.9c0-20.4-16.5-36.9-36.9-36.9s-36.9,16.5-36.9,36.9
		C355.9,580.1,372.5,596.6,392.9,596.6z"/>
	<path class="st0" d="M478.1,543.9c20.4,0,36.9-16.5,36.9-36.9c0-20.4-16.5-36.9-36.9-36.9s-36.9,16.5-36.9,36.9
		C441.2,527.3,457.7,543.9,478.1,543.9z"/>
	<path class="st0" d="M563.4,491.1c20.4,0,36.9-16.5,36.9-36.9s-16.5-36.9-36.9-36.9c-20.4,0-36.9,16.5-36.9,36.9
		S543,491.1,563.4,491.1z"/>
	<path class="st0" d="M648.7,438.4c20.4,0,36.9-16.5,36.9-36.9c0-20.4-16.5-36.9-36.9-36.9c-20.4,0-36.9,16.5-36.9,36.9
		C611.7,421.8,628.3,438.4,648.7,438.4z"/>
	<circle class="st0" cx="733.9" cy="348.7" r="36.9"/>
	<path class="st0" d="M819.2,332.9c20.4,0,36.9-16.5,36.9-36.9S839.6,259,819.2,259c-20.4,0-36.9,16.5-36.9,36.9
		S798.8,332.9,819.2,332.9z"/>
	<path class="st0" d="M1601.6,596.6c20.4,0,36.9-16.5,36.9-36.9c0-20.4-16.5-36.9-36.9-36.9s-36.9,16.5-36.9,36.9
		C1564.7,580.1,1581.2,596.6,1601.6,596.6z"/>
	<path class="st0" d="M1516.3,543.9c20.4,0,36.9-16.5,36.9-36.9c0-20.4-16.5-36.9-36.9-36.9c-20.4,0-36.9,16.5-36.9,36.9
		C1479.4,527.3,1495.9,543.9,1516.3,543.9z"/>
	<path class="st0" d="M1431,491.1c20.4,0,36.9-16.5,36.9-36.9s-16.5-36.9-36.9-36.9s-36.9,16.5-36.9,36.9S1410.6,491.1,1431,491.1z"
		/>
	<path class="st0" d="M1345.8,438.4c20.4,0,36.9-16.5,36.9-36.9c0-20.4-16.5-36.9-36.9-36.9c-20.4,0-36.9,16.5-36.9,36.9
		C1308.8,421.8,1325.4,438.4,1345.8,438.4z"/>
	<path class="st0" d="M1260.5,385.6c20.4,0,36.9-16.5,36.9-36.9s-16.5-36.9-36.9-36.9c-20.4,0-36.9,16.5-36.9,36.9
		S1240.1,385.6,1260.5,385.6z"/>
	<path class="st0" d="M1138.3,296c0,20.4,16.5,36.9,36.9,36.9s36.9-16.5,36.9-36.9s-16.5-36.9-36.9-36.9S1138.3,275.6,1138.3,296z"
		/>
	<path class="st0" d="M1431,964.9c20.4,0,36.9-16.5,36.9-36.9c0-20.4-16.5-36.9-36.9-36.9s-36.9,16.5-36.9,36.9
		C1394.1,948.4,1410.6,964.9,1431,964.9z"/>
	<path class="st0" d="M1516.3,912.2c20.4,0,36.9-16.5,36.9-36.9c0-20.4-16.5-36.9-36.9-36.9c-20.4,0-36.9,16.5-36.9,36.9
		C1479.4,895.7,1495.9,912.2,1516.3,912.2z"/>
	<path class="st0" d="M1601.6,859.4c20.4,0,36.9-16.5,36.9-36.9c0-20.4-16.5-36.9-36.9-36.9s-36.9,16.5-36.9,36.9
		C1564.7,842.9,1581.2,859.4,1601.6,859.4z"/>
	<path class="st0" d="M979.8,434.2c17.3,10.8,40.1,5.5,50.9-11.9c10.8-17.3,5.5-40.1-11.9-50.8c-17.3-10.8-40.1-5.5-50.9,11.9
		C957.2,400.7,962.5,423.5,979.8,434.2z"/>
	<path class="st0" d="M979.6,534.5c17.3,10.8,40.1,5.5,50.8-11.9c10.8-17.3,5.5-40.1-11.9-50.8c-17.3-10.8-40.1-5.5-50.8,11.9
		C956.9,501,962.3,523.7,979.6,534.5z"/>
	<path class="st0" d="M979.3,634.7c17.3,10.8,40.1,5.5,50.8-11.9c10.8-17.3,5.5-40.1-11.9-50.9s-40.1-5.5-50.8,11.9
		C956.7,601.2,962,624,979.3,634.7z"/>
	<path class="st0" d="M562.2,970.2c20.4,0,36.9-16.5,36.9-36.9s-16.5-36.9-36.9-36.9c-20.4,0-36.9,16.5-36.9,36.9
		S541.8,970.2,562.2,970.2z"/>
	<path class="st0" d="M477,917.5c20.4,0,36.9-16.5,36.9-36.9s-16.5-36.9-36.9-36.9c-20.4,0-36.9,16.5-36.9,36.9
		S456.6,917.5,477,917.5z"/>
	<path class="st0" d="M391.7,790.9c-20.4,0-36.9,16.5-36.9,36.9c0,20.4,16.5,36.9,36.9,36.9c20.4,0,36.9-16.5,36.9-36.9
		C428.6,807.4,412.1,790.9,391.7,790.9z"/>
</g>
</svg>
