<?xml version="1.0" encoding="utf-8"?>
<!-- Generator: Adobe Illustrator 23.0.3, SVG Export Plug-In . SVG Version: 6.00 Build 0)  -->
<svg version="1.1" id="Слой_1" xmlns="http://www.w3.org/2000/svg" xmlns:xlink="http://www.w3.org/1999/xlink" x="0px" y="0px"
	 width="2000px" height="2000px" viewBox="0 0 2000 2000" style="enable-background:new 0 0 2000 2000;" xml:space="preserve">
<style type="text/css">
	.st0{fill:#82AAFF;}
</style>
<g>
	
		<ellipse transform="matrix(0.7071 -0.7071 0.7071 0.7071 -216.9861 777.6962)" class="st0" cx="830.3" cy="650.8" rx="545.8" ry="545.8"/>
	<path class="st0" d="M1286.6,1035.7c58.4,42.8,130.3,68.1,208.3,68.1c194.8,0,352.7-157.9,352.7-352.7
		c0-194.8-157.9-352.7-352.7-352.7c-40.2,0-78.7,6.8-114.7,19.2c30.5,71.7,47.5,150.6,47.5,233.3
		C1427.6,797.3,1374.5,931.6,1286.6,1035.7z"/>
	<path class="st0" d="M1764.7,1305.5c-88.3,0-158.4,52.1-170.8,120.1c-7.4-66.8-82.5-120.1-170.8-120.1c-95,0-172,77-172,172
		c0,186.9,342.8,417.1,342.8,417.1s342.8-233.9,342.8-417.1C1936.7,1382.5,1859.7,1305.5,1764.7,1305.5z"/>
	<path class="st0" d="M1275.1,1310.2c0,0-32.6-48.6-127.3-48.6c-146.7,0-139.2,52-315.6,52c-176.4,0-200.5-52-332.3-52
		c-152.2,0-436.3,212.6-436.3,475.3h1267c-71.3-78.4-131-170.5-131-259.3C1199.5,1411,1228.8,1351.2,1275.1,1310.2z"/>
	<path class="st0" d="M1682.4,1123.6c-78,0-72.4,28.5-174.5,28.5c-109.5,0-104-28.5-200.5-28.5c-61.3,0-117.9,88.3-117.9,88.3
		s79.4,7,132.1,68.2c11.1-7.4,52.1-26.2,101.5-26.2c55.7,0,107.5,17.4,147.1,46c14.6,10.6,34,10.5,48.6-0.2
		c39.3-28.8,90.4-45.8,145.9-45.8c43.5,0,84.1,12.5,118.5,34.1C1860.8,1181.3,1734.8,1123.6,1682.4,1123.6z"/>
</g>
</svg>
