<?xml version="1.0" encoding="utf-8"?>
<!-- Generator: Adobe Illustrator 23.0.3, SVG Export Plug-In . SVG Version: 6.00 Build 0)  -->
<svg version="1.1" id="Слой_1" xmlns="http://www.w3.org/2000/svg" xmlns:xlink="http://www.w3.org/1999/xlink" x="0px" y="0px"
	 width="2000px" height="2000px" viewBox="0 0 2000 2000" style="enable-background:new 0 0 2000 2000;" xml:space="preserve">
<style type="text/css">
	.st0{fill:#82AAFF;}
</style>
<g>
	<rect x="587.9" y="1276.5" class="st0" width="708.5" height="80"/>
</g>
<g>
	<path class="st0" d="M182.6,1356.5c-12.5,0-55.7-2.4-88.5-33.9c-16.3-15.6-35.8-44.4-35.8-92.5v-264l0.2-1.9
		c0.4-4,4.4-40.6,27.4-77.7c14.3-23,32.8-41.5,55-54.8c27.2-16.3,59.4-24.6,95.6-24.6h225.4l292.3-292.3h875.5l243,243v471l-1,4.4
		c-0.8,3.4-8.2,33.7-34,63.4c-23.7,27.3-67.9,59.9-144,59.9h-66.2v-80h66.2c35.5,0,62.9-10.1,81.5-30c10.3-11.1,15.4-22.6,17.5-28.2
		V790.9l-196.2-196.2H787.3L495,887.1H236.5c-38.3,0-65.3,13.6-82.6,41.5c-11.4,18.3-14.8,36.9-15.6,41.9v259.6
		c0,16,3.7,27.7,11.1,34.8c12.1,11.6,32.7,11.7,32.9,11.7h1.7h52.6v80h-52C184,1356.5,183.3,1356.5,182.6,1356.5z"/>
</g>
<g>
	<circle class="st0" cx="412.2" cy="1290.6" r="69.1"/>
</g>
<g>
	<path class="st0" d="M412.2,1503.4c-117.3,0-212.8-95.5-212.8-212.8s95.5-212.8,212.8-212.8S625,1173.3,625,1290.6
		C625,1407.9,529.5,1503.4,412.2,1503.4z M412.2,1157.8c-73.2,0-132.8,59.6-132.8,132.8c0,73.2,59.6,132.8,132.8,132.8
		S545,1363.8,545,1290.6C545,1217.4,485.4,1157.8,412.2,1157.8z"/>
</g>
<g>
	<circle class="st0" cx="1469.2" cy="1290.6" r="69.1"/>
</g>
<g>
	<path class="st0" d="M1469.2,1503.4c-117.3,0-212.8-95.5-212.8-212.8s95.5-212.8,212.8-212.8s212.8,95.5,212.8,212.8
		S1586.5,1503.4,1469.2,1503.4z M1469.2,1157.8c-73.2,0-132.8,59.6-132.8,132.8c0,73.2,59.6,132.8,132.8,132.8
		s132.8-59.6,132.8-132.8S1542.4,1157.8,1469.2,1157.8z"/>
</g>
<g>
	<path class="st0" d="M1129,901.5H719.3c-29.3,0-55.7-18.6-67.1-47.3c-12-30-5.3-63.1,17-84.3l170.6-161.6H1129V901.5z M731.1,821.5
		H1049V688.4H871.7L731.1,821.5z"/>
</g>
<g>
	<path class="st0" d="M1620.9,901.5h-410.6V609.8H1507l166.5,162.1c22.1,21.5,28.9,53.9,17.3,82.5S1651.8,901.5,1620.9,901.5z
		 M1290.3,821.5h319.5l-135.3-131.7h-184.2V821.5z"/>
</g>
<g>
	<rect x="1833.5" y="826.9" class="st0" width="99.4" height="276.5"/>
</g>
</svg>
