<?xml version="1.0" encoding="utf-8"?>
<!-- Generator: Adobe Illustrator 23.0.3, SVG Export Plug-In . SVG Version: 6.00 Build 0)  -->
<svg version="1.1" id="Слой_1" xmlns="http://www.w3.org/2000/svg" xmlns:xlink="http://www.w3.org/1999/xlink" x="0px" y="0px"
	 width="2000px" height="2000px" viewBox="0 0 2000 2000" style="enable-background:new 0 0 2000 2000;" xml:space="preserve">
<style type="text/css">
	.st0{fill:#82AAFF;}
</style>
<path class="st0" d="M1000,185.6c-474,0-858.2,339.1-858.2,757.4c0,206.7,93.9,394.1,246,530.8c-8,90.8-51.5,239.3-237.4,330.3
	c0,0,281.5,63.7,639.7-126.5c67.2,14.9,137.5,22.8,209.9,22.8c474,0,858.2-339.1,858.2-757.4S1474,185.6,1000,185.6z M998.6,566.6
	c50.9,0,92.2,41.3,92.2,92.2s-41.3,92.2-92.2,92.2c-50.9,0-92.2-41.3-92.2-92.2S947.7,566.6,998.6,566.6z M1093.6,1370.1H912.2
	V845.9h181.4V1370.1z"/>
</svg>
