<?xml version="1.0" encoding="utf-8"?>
<!-- Generator: Adobe Illustrator 23.0.3, SVG Export Plug-In . SVG Version: 6.00 Build 0)  -->
<svg version="1.1" id="Слой_1" xmlns="http://www.w3.org/2000/svg" xmlns:xlink="http://www.w3.org/1999/xlink" x="0px" y="0px"
	 width="2000px" height="2000px" viewBox="0 0 2000 2000" style="enable-background:new 0 0 2000 2000;" xml:space="preserve">
<style type="text/css">
	.st0{fill:#82AAFF;}
</style>
<g>
	<path class="st0" d="M1502.3,1182.8l-353.5-158.6v-57.3c0-19.4,8.1-37.9,22.4-51c63.9-58.4,104.9-148.9,104.9-250.3
		c0-176.2-123.6-319.1-276.2-319.1s-276.1,142.8-276.1,319c0,101.5,41,191.9,104.9,250.3c14.3,13.1,22.4,31.6,22.4,51v57.3
		l-353.7,159.8c-40.6,18.3-66.6,58.7-66.6,103.2v354.6c0,6.5,5.3,11.8,11.8,11.8h1114.7c6.5,0,11.8-5.3,11.8-11.8v-355.6
		C1569.2,1241.5,1543,1201,1502.3,1182.8z"/>
	<g>
		<path class="st0" d="M684,959.4c0.1-0.3,0.2-0.6,0.3-0.9c7.4-20.1,5.3-42.5-5.6-61c-39.8-68.1-61.5-148.3-61.5-231.9
			c0-69.6,15-136.9,43.2-197.1c-34.4-22-74-34.6-116.2-34.6C411.6,433.9,304,558.2,304,711.4c0,88.3,35.7,166.9,91.2,217.7
			c12.4,11.4,19.5,27.5,19.5,44.3v49.8L103.4,1164c-32.9,14.9-54.1,47.6-54.1,83.7v311.1c0,6.5,5.3,11.8,11.8,11.8h251.3
			c6.5,0,11.8-5.3,11.8-11.8v-309.2c0-63.6,37.3-121.3,95.2-147.5l226.9-102.5C663.9,991.9,677.4,977.3,684,959.4z"/>
		<path class="st0" d="M1896.4,1163l-311.3-139.7v-49.8c0-16.9,7.1-32.9,19.5-44.3c55.6-50.8,91.2-129.5,91.2-217.7
			c0-153.3-107.5-277.5-240.2-277.5c-42.1,0-81.7,12.6-116.2,34.6c28.2,60.2,43.2,127.4,43.2,197.1c0,83.6-21.7,163.8-61.6,232
			c-10.8,18.4-12.9,40.7-5.5,60.7c0.1,0.3,0.2,0.6,0.3,0.9c6.6,17.8,20.1,32.2,37.4,40l226.7,101.7c58.2,26.1,95.6,83.9,95.6,147.6
			v310.3c0,6.5,5.3,11.8,11.8,11.8h251.3c6.5,0,11.8-5.3,11.8-11.8v-312C1950.7,1210.6,1929.4,1177.8,1896.4,1163z"/>
	</g>
</g>
</svg>
