<?xml version="1.0" encoding="utf-8"?>
<!-- Generator: Adobe Illustrator 23.0.3, SVG Export Plug-In . SVG Version: 6.00 Build 0)  -->
<svg version="1.1" id="Слой_1" xmlns="http://www.w3.org/2000/svg" xmlns:xlink="http://www.w3.org/1999/xlink" x="0px" y="0px"
	 width="2000px" height="2000px" viewBox="0 0 2000 2000" style="enable-background:new 0 0 2000 2000;" xml:space="preserve">
<style type="text/css">
	.st0{fill:none;stroke:#82AAFF;stroke-width:5.0952;stroke-miterlimit:10;}
	.st1{fill:#82AAFF;stroke:#82AAFF;stroke-miterlimit:10;}
</style>
<g>
	<circle class="st0" cx="1000" cy="1000" r="951.2"/>
	<g>
		<path class="st1" d="M566.6,797v359.5h-46.9V836h-119v108.8c0,77.9-3.2,164.8-53.9,199c-13.3,8.5-34.1,17.1-54.9,17.1l-5.9-37.3
			c14.4-2.7,29.3-11.2,37.9-19.2c28.8-28.3,31.5-98.2,31.5-155.8V797H566.6z"/>
		<path class="st1" d="M994.4,973.1c0,123.8-75.2,189.4-167,189.4c-95,0-161.6-73.6-161.6-182.4c0-114.2,70.9-188.8,167-188.8
			C930.9,791.2,994.4,866.4,994.4,973.1z M715.4,978.9c0,76.8,41.6,145.6,114.7,145.6c73.6,0,115.2-67.7,115.2-149.4
			c0-71.5-37.3-146.2-114.7-146.2C753.8,829,715.4,900,715.4,978.9z"/>
		<path class="st1" d="M1285.6,797v39H1141v320.6h-46.4V797H1285.6z"/>
		<path class="st1" d="M1654.3,973.1c0,123.8-75.2,189.4-167,189.4c-95,0-161.6-73.6-161.6-182.4c0-114.2,70.9-188.8,167-188.8
			C1590.8,791.2,1654.3,866.4,1654.3,973.1z M1375.3,978.9c0,76.8,41.6,145.6,114.7,145.6c73.6,0,115.2-67.7,115.2-149.4
			c0-71.5-37.3-146.2-114.7-146.2C1413.7,829,1375.3,900,1375.3,978.9z"/>
	</g>
</g>
</svg>
