<svg width="382" height="353" viewBox="0 0 382 353" fill="none" xmlns="http://www.w3.org/2000/svg">
<path d="M231.013 184.92H218.694V197.561H231.013V184.92ZM242.316 148.952H249.618V132.923H251.523V128.166H213.36V132.923H242.316V148.952ZM251.587 246.626L238.569 251.969L251.587 257.312V246.626ZM166.687 240.24H150.05V250.601H166.687V240.24ZM160.083 266.043V267.738H161.734C164.465 267.738 166.751 265.457 166.751 262.59V260.896H165.1C162.306 260.896 160.083 263.176 160.083 266.043ZM227.139 99.8868H215.328V104.513H227.139V99.8868ZM214.439 18.4375H206.375V31.6649H214.439V18.4375ZM230.759 317.128L236.22 311.525C236.664 311.069 236.664 310.352 236.22 309.961L224.155 297.515C223.71 297.059 223.012 297.059 222.631 297.515L217.17 303.119C216.725 303.575 216.725 304.292 217.17 304.683L229.298 317.128C229.679 317.519 230.378 317.519 230.759 317.128ZM301.371 313.349V323.579L310.769 320.061C308.927 316.477 305.435 313.936 301.371 313.349ZM155.067 267.738H156.718V266.043C156.718 263.242 154.495 260.896 151.701 260.896H150.05V262.59C150.05 265.392 152.273 267.738 155.067 267.738ZM287.147 326.12C287.147 332.636 291.846 338.045 298.005 338.892H299.529V338.566C306.26 336.872 313.436 330.291 311.975 323.384L299.529 328.075V313.349C291.846 314.196 287.147 319.605 287.147 326.12ZM338.963 329.183C340.36 327.88 342.074 326.902 344.043 326.511V314.978H338.963V329.183ZM239.268 37.1383L237.172 43.5239C237.045 43.9149 237.109 44.4362 237.299 44.8271C237.49 45.2181 237.871 45.4787 238.315 45.5439L244.729 46.9122L246.062 53.5585C246.126 54.0146 246.443 54.4056 246.761 54.601C247.142 54.7965 247.586 54.8617 248.031 54.7313L254.254 52.5811L258.635 57.6635C258.953 57.9893 259.334 58.1848 259.778 58.1848C260.223 58.1848 260.604 57.9893 260.921 57.6635L265.303 52.5811L271.526 54.7313C271.97 54.8617 272.415 54.7965 272.796 54.601C273.177 54.4056 273.431 54.0146 273.494 53.5585L274.828 46.9774L281.241 45.609C281.686 45.5439 282.067 45.2181 282.257 44.8923C282.448 44.5013 282.511 44.0452 282.384 43.5891L280.289 37.2035L285.242 32.7075C285.559 32.3817 285.75 31.9907 285.75 31.5346C285.75 31.0785 285.559 30.6875 285.242 30.3617L280.289 25.8657L282.384 19.4801C282.511 19.0891 282.448 18.5678 282.257 18.1769C282.067 17.7859 281.686 17.5253 281.241 17.4601L274.828 16.0918L273.494 9.44553C273.431 8.98941 273.113 8.59845 272.796 8.40298C272.415 8.2075 271.97 8.14234 271.526 8.27266L265.303 10.4229L260.921 5.34048C260.604 5.01468 260.223 4.81921 259.778 4.81921C259.334 4.81921 258.953 5.01468 258.635 5.34048L254.254 10.4229L248.031 8.27266C247.586 8.14234 247.142 8.2075 246.761 8.40298C246.38 8.59845 246.126 8.98941 246.062 9.44553L244.729 16.0266L238.315 17.395C237.871 17.4601 237.49 17.7859 237.299 18.1117C237.109 18.5027 237.045 18.9588 237.172 19.4149L239.268 25.8006L234.315 30.2966C233.997 30.6223 233.807 31.0133 233.807 31.4694C233.807 31.9255 233.997 32.3165 234.315 32.6423L239.268 37.1383ZM297.878 194.889C288.607 194.889 281.114 202.578 281.114 212.091C281.114 221.605 288.607 229.294 297.878 229.294C307.149 229.294 314.642 221.605 314.642 212.091C314.579 202.578 307.086 194.889 297.878 194.889ZM297.878 223.95C291.465 223.95 286.258 218.607 286.258 212.026C286.258 205.445 291.465 200.102 297.878 200.102C304.292 200.102 309.499 205.445 309.499 212.026C309.499 218.607 304.292 223.95 297.878 223.95ZM261.429 253.468H267.398V250.47H261.429V253.468ZM277.368 134.812H270.827V153.513H272.542L294.767 176.319L299.402 171.562L277.304 148.887V134.812H277.368ZM140.144 344.495C139.382 341.954 137.16 340.13 134.429 340.13C132.27 340.13 130.365 341.303 129.286 343.192C129.349 343.583 129.476 344.039 129.54 344.495H140.144ZM87.6299 110.052V84.0531H69.8499L65.7859 90.1781H71.4374V110.052H87.6299ZM48.4504 264.349H11.4299L14.2239 280.118L44.0054 281.486L48.4504 264.349ZM100.266 39.484H79.7559V59.3577H100.266V39.484ZM38.5444 8.33782H14.0334V26.5173H38.5444V8.33782ZM351.282 314.978H347.408V326.316C348.551 326.446 349.694 326.772 350.71 327.293L354.012 323.253L351.282 314.978ZM67.7544 248.385H69.9769V232.356H67.7544V248.385ZM18.1609 150.907H30.7339C31.1784 150.907 31.6864 151.102 31.9404 151.493L36.7029 156.967V152.601C36.7029 151.689 37.4649 150.907 38.3539 150.907C42.4179 150.907 45.7199 147.518 45.7199 143.348C45.7199 138.201 42.1004 135.334 38.3539 135.334H18.1609C14.3509 135.334 10.7949 138.331 10.7949 143.348C10.7949 147.518 14.0969 150.907 18.1609 150.907ZM23.4949 337.067C26.6064 337.067 26.1619 339.283 26.8604 342.215H36.1949V332.441H17.5894C15.8749 332.441 14.4144 333.353 13.5889 334.721L12.8269 335.764V342.215H17.0179C17.7799 339.283 20.3834 337.067 23.4949 337.067ZM113.474 194.368H73.5964V198.017C73.5964 200.037 75.1839 201.666 77.1524 201.666H113.411C115.379 201.666 116.967 200.037 116.967 198.017C116.967 195.997 115.443 194.368 113.474 194.368ZM114.427 233.529C114.427 233.594 114.427 233.594 114.427 233.529V248.32H116.649V232.226H114.427V233.529ZM73.5964 187.526H112.268C114.871 187.526 116.967 185.376 116.967 182.705V174.364C116.967 171.693 114.871 169.542 112.268 169.542H107.061V179.707L73.5964 180.554V187.526ZM108.712 301.946V298.297C107.823 298.949 106.68 299.535 105.41 300.057C101.727 301.555 96.9009 302.402 91.7574 302.402C86.6139 302.402 81.7879 301.555 78.1049 300.057C76.8349 299.535 75.6919 298.949 74.8029 298.297V301.946C74.8029 303.119 76.5174 304.618 79.1844 305.726C82.4864 307.094 86.9949 307.811 91.7574 307.811C96.5199 307.811 100.965 307.094 104.33 305.726C106.934 304.618 108.712 303.184 108.712 301.946ZM103.949 343.192C102.87 341.303 100.965 340.13 98.8059 340.13C96.1389 340.13 93.8529 341.954 93.0909 344.495H103.695C103.759 344.039 103.886 343.583 103.949 343.192ZM76.1364 156.119H67.8179V164.134H76.1364V156.119ZM359.092 75.1914C363.664 75.1914 367.411 71.4122 367.411 66.6555C367.411 61.8989 363.728 58.1196 359.092 58.1196C354.457 58.1196 350.774 61.8989 350.774 66.6555C350.774 71.4122 354.52 75.1914 359.092 75.1914ZM332.549 229.294L335.28 231.444C336.931 232.551 338.836 233.464 340.868 234.18C342.836 234.897 344.805 235.288 346.773 235.484L350.202 235.549C350.901 235.484 351.599 235.419 352.234 235.288L356.743 221.8C356.298 221.279 355.79 220.823 355.282 220.302L352.552 218.216C350.901 217.174 349.059 216.262 347.091 215.545C345.122 214.828 343.027 214.372 341.058 214.242L337.629 214.177C336.994 214.242 336.359 214.307 335.724 214.437L331.216 227.925C331.597 228.381 332.105 228.837 332.549 229.294ZM141.541 86.073C141.351 85.5518 140.843 85.1608 140.271 85.1608H137.033C136.271 85.1608 135.636 85.8124 135.636 86.5943V93.4361C135.636 94.218 136.271 94.8696 137.033 94.8696H142.938C143.954 94.8696 144.589 93.827 144.208 92.9148L141.541 86.073ZM185.039 96.9547C184.785 96.4985 184.34 96.2379 183.832 96.2379H176.276C175.514 96.2379 174.879 96.8895 174.879 97.6714V100.147C174.879 100.929 175.514 101.581 176.276 101.581H185.293C186.372 101.581 187.071 100.343 186.499 99.4307L185.039 96.9547ZM150.177 154.23H169.608V149.213H150.177V154.23ZM58.2294 332.506H39.5604V342.28H45.7834C46.5454 339.348 49.1489 337.132 52.2604 337.132C55.3719 337.132 55.9434 339.348 56.7054 342.28H62.9919V338.175L62.2299 334.721C61.3409 333.353 59.8804 332.506 58.2294 332.506ZM116.649 336.35C111.887 336.35 108.013 339.869 107.188 344.495H126.111C125.285 339.869 121.348 336.35 116.649 336.35ZM285.496 110.638H315.912V76.234H285.496V110.638ZM294.64 86.5292H303.212V95.3257H294.64V86.5292ZM363.791 131.554V123.67H346.9V128.166H354.647C355.092 128.166 355.473 128.362 355.79 128.622L361.569 135.334C361.886 135.659 362.077 136.116 362.077 136.637L362.394 160.355H373.697V133.314H365.379C364.553 133.248 363.791 132.467 363.791 131.554ZM189.23 323.579V344.495H194.881V323.579L192.087 319.214L189.23 323.579Z" fill="#35E000" fill-opacity="0.03"/>
<path d="M374.65 292.498H371.157V280.574C371.157 279.597 370.395 278.815 369.443 278.815H361.696C360.743 278.815 359.981 279.597 359.981 280.574V292.498H356.171V273.537C356.171 272.559 355.409 271.777 354.457 271.777H346.71C345.757 271.777 344.995 272.559 344.995 273.537V292.498H341.185V278.684C341.185 277.707 340.423 276.925 339.471 276.925H331.724C330.771 276.925 330.009 277.707 330.009 278.684V292.498H326.517C325.564 292.498 324.802 293.28 324.802 294.257C324.802 295.235 325.564 296.017 326.517 296.017H374.65C375.602 296.017 376.364 295.235 376.364 294.257C376.364 293.28 375.602 292.498 374.65 292.498ZM337.566 292.498H333.311V280.444H337.566V292.498ZM352.615 292.498H348.361V275.296H352.615V292.498ZM367.665 292.498H363.41V282.398H367.665V292.498ZM343.344 183.877L347.916 181.727C348.678 181.336 348.869 180.815 348.869 180.489C348.869 180.294 348.805 180.033 348.742 179.837C348.678 179.512 348.488 179.316 348.234 179.186C347.853 178.925 347.472 178.86 346.837 179.121L342.646 181.01C340.614 181.923 339.026 183.226 338.01 184.724C336.994 186.288 336.423 188.048 336.423 190.002V192.609C336.423 193.847 336.74 194.954 337.312 195.932C337.883 196.909 338.645 197.626 339.661 198.212C340.677 198.734 341.757 198.994 343.027 198.994C344.233 198.994 345.376 198.734 346.329 198.212C347.281 197.691 348.043 196.909 348.615 195.932C349.186 194.954 349.44 193.847 349.44 192.609C349.44 191.371 349.186 190.263 348.678 189.351C348.17 188.373 347.472 187.657 346.583 187.07C345.694 186.549 344.678 186.288 343.535 186.288C342.392 186.288 341.376 186.549 340.487 187.07C340.169 187.266 339.852 187.461 339.598 187.722C340.106 186.093 341.376 184.855 343.344 183.877ZM339.852 190.849C340.169 190.328 340.55 189.937 341.122 189.611C341.693 189.286 342.265 189.155 342.963 189.155C343.979 189.155 344.741 189.481 345.376 190.133C346.011 190.784 346.329 191.566 346.329 192.609C346.329 193.651 346.011 194.433 345.376 195.085C344.741 195.736 343.979 196.062 342.963 196.062C342.265 196.062 341.63 195.932 341.122 195.606C340.55 195.28 340.169 194.889 339.852 194.368C339.534 193.847 339.407 193.26 339.407 192.609C339.407 191.957 339.534 191.371 339.852 190.849ZM337.883 151.754C337.883 152.731 338.645 153.513 339.598 153.513H355.727C356.679 153.513 357.441 152.731 357.441 151.754C357.441 150.776 356.679 149.994 355.727 149.994H339.598C338.645 149.994 337.883 150.776 337.883 151.754ZM97.2184 277.837C97.4089 277.837 97.5994 277.837 97.7899 277.837C98.1074 277.837 98.4249 277.837 98.6789 277.837C98.9329 277.837 99.2504 277.837 99.5044 277.837C101.155 277.837 102.362 277.707 103.124 276.925C103.568 276.469 103.759 275.882 103.759 275.296C103.759 274.644 103.505 274.058 103.124 273.667C102.171 272.69 100.711 272.755 98.6789 272.755C98.1074 272.755 97.4724 272.755 96.9009 272.755C94.8689 272.755 93.4084 272.69 92.4559 273.667C92.0114 274.123 91.8209 274.71 91.8209 275.296C91.8209 275.882 92.0749 276.469 92.4559 276.86C93.3449 277.837 94.9324 277.837 97.2184 277.837ZM355.727 156.836H339.598C338.645 156.836 337.883 157.618 337.883 158.595C337.883 159.573 338.645 160.355 339.598 160.355H355.727C356.679 160.355 357.441 159.573 357.441 158.595C357.441 157.618 356.679 156.836 355.727 156.836ZM71.6279 226.948H64.1349C63.1824 226.948 62.4839 227.73 62.4839 228.642V248.19C62.4839 249.167 63.2459 249.884 64.1349 249.884H71.6279C72.5804 249.884 73.2789 249.102 73.2789 248.19V247.994C75.5014 248.125 77.5969 249.037 79.2479 250.535L84.1374 255.097C85.0264 256.009 86.1694 256.465 87.3759 256.465C88.5824 256.465 89.7889 256.009 90.7414 255.031C91.3764 254.38 91.8209 253.533 92.0114 252.686C92.0749 252.686 92.1384 252.686 92.2019 252.686C93.4719 252.686 94.6149 252.164 95.5039 251.317C96.2659 250.535 96.7739 249.493 96.8374 248.385C97.7264 248.32 98.6154 247.929 99.3139 247.343L102.489 248.45C103.124 248.646 103.759 248.776 104.394 248.776C105.854 248.776 107.251 248.255 108.458 247.147L109.156 246.365V248.19C109.156 249.167 109.918 249.884 110.807 249.884H118.3C119.253 249.884 119.951 249.102 119.951 248.19V228.642C119.951 227.664 119.189 226.948 118.3 226.948H110.807C109.855 226.948 109.156 227.73 109.156 228.642V229.098L99.3139 224.993C97.7264 224.341 95.9484 224.407 94.3609 225.188L88.2649 228.316L87.7569 227.795C86.0424 226.035 83.5024 225.514 81.2799 226.426L73.2789 229.815V228.642C73.3424 227.73 72.5804 226.948 71.6279 226.948ZM69.9769 246.496H65.8494V230.401H69.9769V246.496ZM112.522 230.336H116.649V246.43H112.522V230.336ZM87.8839 232.942C87.9474 232.551 88.2014 232.226 88.5189 232.03L95.9484 228.251C96.6469 227.925 97.4089 227.86 98.1074 228.186L109.22 232.812V241.348L106.172 244.606C105.473 245.192 104.521 245.388 103.632 245.127L101.092 244.215C101.282 242.781 100.901 241.218 99.8219 240.11L95.0594 235.223L97.6629 233.855C98.4884 233.399 98.8059 232.421 98.4249 231.509C97.9804 230.662 97.0279 230.336 96.1389 230.727L89.5349 234.18C89.0904 234.441 88.5189 234.311 88.2014 233.985C87.9474 233.659 87.8204 233.333 87.8839 232.942ZM82.6134 229.619C83.5659 229.228 84.7089 229.489 85.4074 230.206L85.4709 230.271C85.0264 230.857 84.7089 231.574 84.5819 232.356C84.3279 233.855 84.8359 235.353 85.8519 236.396C86.7409 237.308 87.8839 237.764 89.0269 237.764C89.7254 237.764 90.4239 237.569 91.0589 237.243L91.8844 236.852L97.4089 242.521C97.9169 243.042 97.9169 243.889 97.3454 244.476C96.8374 244.997 96.0119 244.997 95.5039 244.476L93.2814 242.195C93.0909 242 92.9004 241.869 92.7099 241.804C92.0749 241.543 91.3764 241.674 90.8684 242.195C90.2334 242.847 90.2334 243.954 90.8684 244.606L93.0909 246.887C93.3449 247.147 93.4719 247.473 93.4719 247.799C93.4719 248.125 93.3449 248.515 93.0909 248.711C92.5829 249.232 91.7574 249.232 91.2494 248.711L88.5189 245.909C88.0109 245.388 87.3124 245.258 86.6774 245.518C86.4869 245.583 86.2964 245.714 86.1059 245.909C85.4709 246.561 85.4709 247.668 86.1059 248.32L88.3284 250.601C88.5189 250.861 88.6459 251.187 88.6459 251.513C88.6459 251.839 88.5189 252.23 88.2649 252.49C87.7569 253.012 86.9314 253.012 86.4234 252.49L81.4704 247.864C79.1844 245.779 76.3269 244.541 73.2789 244.41V233.464L82.6134 229.619ZM363.347 193C363.601 192.739 363.791 192.348 363.791 191.957C363.791 190.654 363.537 189.546 363.093 188.569C362.585 187.591 361.886 186.744 360.997 186.223C360.108 185.637 359.029 185.376 357.822 185.376C356.616 185.376 355.473 185.702 354.457 186.223C353.504 186.809 352.679 187.657 352.171 188.699C351.599 189.742 351.345 190.915 351.345 192.218C351.345 193.521 351.663 194.694 352.234 195.736C352.806 196.779 353.631 197.561 354.647 198.147C355.663 198.734 356.87 198.994 358.14 198.994C358.902 198.994 359.664 198.864 360.426 198.603C361.251 198.343 361.886 197.952 362.458 197.496C362.775 197.235 362.966 196.844 362.966 196.453C362.966 196.192 362.839 195.736 362.394 195.345C361.886 194.889 360.997 194.889 360.426 195.345C360.172 195.541 359.791 195.736 359.346 195.932C358.902 196.062 358.457 196.192 358.076 196.192C357.06 196.192 356.171 195.932 355.473 195.28C354.901 194.759 354.52 194.173 354.33 193.456H362.331C362.712 193.391 363.093 193.26 363.347 193ZM354.33 190.719C354.52 190.002 354.901 189.481 355.346 189.025C355.981 188.504 356.743 188.243 357.759 188.243C358.648 188.243 359.346 188.504 359.854 189.025C360.299 189.481 360.616 190.067 360.743 190.719H354.33ZM339.598 146.606H350.075C351.028 146.606 351.79 145.824 351.79 144.847C351.79 143.869 351.028 143.088 350.075 143.088H339.598C338.645 143.088 337.883 143.869 337.883 144.847C337.883 145.824 338.645 146.606 339.598 146.606ZM364.553 168.044V161.853H373.697C374.65 161.853 375.412 161.072 375.412 160.094V129.6C375.412 129.143 375.221 128.687 374.904 128.296L364.871 118.653C364.553 118.327 364.109 118.197 363.728 118.197H343.471C342.519 118.197 341.757 118.979 341.757 119.956V126.146H332.613C331.66 126.146 330.898 126.928 330.898 127.905V168.044C330.898 169.021 331.66 169.803 332.613 169.803H362.902C363.791 169.803 364.553 169.021 364.553 168.044ZM365.315 123.996L369.316 127.905H365.315V123.996ZM361.124 166.284H334.2V129.6H351.091V137.484C351.091 138.461 351.853 139.243 352.806 139.243H361.124V166.284ZM354.52 135.79V131.88L358.521 135.79H354.52ZM353.949 126.667C353.631 126.342 353.187 126.211 352.806 126.211H345.059V121.715H361.95V129.6C361.95 130.577 362.712 131.359 363.664 131.359H371.983V158.4H364.553V137.614C364.553 137.158 364.363 136.702 364.045 136.311L353.949 126.667ZM327.025 244.28H327.977C327.977 244.41 327.977 244.606 327.977 244.736C327.977 247.603 330.263 250.014 333.121 250.014C335.534 250.014 337.566 248.32 338.074 246.039C338.645 248.32 340.614 250.014 343.027 250.014C345.821 250.014 348.17 247.668 348.17 244.736C348.17 244.606 348.17 244.41 348.17 244.28H362.331C362.331 244.41 362.331 244.606 362.331 244.736C362.331 247.603 364.617 250.014 367.474 250.014C370.268 250.014 372.618 247.668 372.618 244.736C372.618 244.606 372.618 244.41 372.618 244.28C374.142 244.085 375.348 242.716 375.348 241.152V228.772C375.348 228.446 375.285 228.121 375.094 227.86L369.57 219.129C368.998 218.216 368.046 217.695 366.966 217.695H359.41C358.775 217.695 358.14 217.891 357.632 218.282C357.187 217.5 353.441 213.134 346.265 210.593C342.138 209.159 337.439 208.508 333.121 209.355C332.041 209.55 331.152 210.397 330.771 211.44L326.199 225.123C325.818 226.231 326.072 227.404 326.834 228.251C328.739 230.466 331.279 232.421 334.137 233.92H328.549C326.834 233.92 325.437 235.353 325.437 237.113V242.781C325.437 243.498 326.136 244.28 327.025 244.28ZM367.411 246.626C366.395 246.626 365.569 245.779 365.569 244.736C365.569 243.694 366.395 242.847 367.411 242.847C368.427 242.847 369.252 243.694 369.252 244.736C369.252 245.779 368.427 246.626 367.411 246.626ZM369.633 225.514L370.586 227.013H364.934V225.514H369.633ZM366.712 220.888L367.538 222.191H363.283C362.394 222.191 361.632 222.908 361.632 223.885V228.707C361.632 229.619 362.331 230.401 363.283 230.401H371.919V240.957H370.903C369.951 240.045 368.744 239.524 367.347 239.524C366.014 239.524 364.744 240.045 363.791 240.957H359.473V220.888H366.712ZM333.121 246.626C332.105 246.626 331.279 245.779 331.279 244.736C331.279 243.694 332.105 242.847 333.121 242.847C334.137 242.847 334.962 243.694 334.962 244.736C334.962 245.779 334.137 246.626 333.121 246.626ZM343.027 246.626C342.011 246.626 341.185 245.779 341.185 244.736C341.185 243.694 342.011 242.847 343.027 242.847C344.043 242.847 344.868 243.694 344.868 244.736C344.868 245.779 344.043 246.626 343.027 246.626ZM356.298 233.789H353.631L356.298 225.905V233.789ZM333.438 229.489L330.708 227.339C330.2 226.883 329.755 226.426 329.374 225.97L333.883 212.482C334.518 212.352 335.153 212.287 335.788 212.222L339.217 212.287C341.185 212.482 343.281 212.938 345.249 213.59C347.218 214.307 349.059 215.219 350.71 216.262L353.441 218.347C353.949 218.803 354.457 219.324 354.901 219.845L350.393 233.333C349.758 233.464 349.059 233.529 348.361 233.594L344.932 233.529C342.963 233.333 340.995 232.877 339.026 232.226C336.931 231.509 335.089 230.597 333.438 229.489ZM356.298 237.113V240.957H346.583C345.63 240.045 344.36 239.524 343.027 239.524C341.693 239.524 340.423 240.045 339.471 240.957H336.613C335.724 240.045 334.454 239.524 333.057 239.524C331.724 239.524 330.454 240.045 329.501 240.957H328.612V237.113H356.298ZM227.774 98.3881H215.328C214.503 98.3881 213.804 99.1049 213.804 99.952V103.145H210.693V106.338H232.41V103.21H229.298V100.017C229.298 99.1049 228.6 98.3881 227.774 98.3881ZM226.187 103.145H216.852V101.581H226.187V103.145ZM168.846 38.6369H157.416L153.098 34.2061C151.511 32.5771 149.352 31.6648 147.129 31.6648H135.001C134.048 31.6648 133.286 32.4468 133.286 33.4241V47.3031C133.286 48.2805 134.048 49.0624 135.001 49.0624H136.525C137.414 49.0624 138.239 49.3231 139.001 49.714C153.479 62.2898 152.59 61.573 152.844 61.7034C154.178 62.4853 155.638 62.9414 157.226 62.9414H175.641C178.435 62.9414 180.721 60.5956 180.721 57.7286C180.721 55.3177 179.133 53.2978 176.974 52.7113C177.228 52.1249 177.355 51.4733 177.355 50.8217C177.355 48.4108 175.768 46.3909 173.609 45.8044C173.863 45.218 173.99 44.5664 173.99 43.9148C173.926 40.9826 171.64 38.6369 168.846 38.6369ZM168.846 42.0904C169.799 42.0904 170.561 42.8723 170.561 43.8497C170.561 44.8271 169.799 45.609 168.846 45.609H163.512C163.258 44.8922 162.877 44.2406 162.306 43.6542L160.845 42.1555H168.846V42.0904ZM177.292 57.7286C177.292 58.706 176.53 59.4879 175.577 59.4879H157.162C156.273 59.4879 155.448 59.2273 154.686 58.8363C140.208 46.2606 141.097 46.9773 140.843 46.847C139.573 46.0651 138.112 45.6741 136.652 45.609V35.1834H147.066C148.399 35.1834 149.669 35.7047 150.685 36.6821L159.829 46.0651C160.147 46.3909 160.337 46.847 160.337 47.3031C160.337 47.7592 160.147 48.2153 159.829 48.5411C159.194 49.1927 158.115 49.1927 157.416 48.5411L151.638 42.6116C151.003 41.96 149.923 41.96 149.225 42.6116C148.59 43.2632 148.59 44.3709 149.225 45.0877L158.369 54.4706C159.321 55.448 160.591 55.9693 161.925 55.9693H175.45C176.53 55.9693 177.292 56.7512 177.292 57.7286ZM173.926 50.7566C173.926 51.734 173.164 52.5159 172.212 52.5159H162.052C161.607 52.5159 161.163 52.3204 160.845 51.9946C161.353 51.734 161.861 51.4082 162.242 50.952C162.814 50.3656 163.195 49.714 163.449 48.9973H172.212C173.164 49.0624 173.926 49.8443 173.926 50.7566ZM220.853 332.441C219.011 332.441 217.551 333.94 217.551 335.829C217.551 337.719 219.011 339.217 220.853 339.217C222.694 339.217 224.155 337.719 224.155 335.829C224.155 334.005 222.694 332.441 220.853 332.441ZM242.824 338.631L254.444 345.733C255.079 346.124 255.905 345.994 256.476 345.473L261.175 340.651C261.683 340.13 261.81 339.217 261.429 338.566L254.508 326.642C254.19 326.12 253.682 325.795 253.111 325.795H249.11L244.538 321.103L245.046 320.582C249.555 321.82 254.444 320.517 257.81 317.063C261.366 313.414 262.636 307.811 260.921 302.924C260.54 301.751 259.08 301.425 258.191 302.272L251.46 309.179L247.586 308.397L246.824 304.422L253.555 297.515C254.381 296.668 254.063 295.17 252.92 294.714C248.158 292.954 242.76 294.192 239.141 297.906C236.791 300.317 235.458 303.575 235.331 306.833L224.218 295.43C222.313 293.476 219.138 293.476 217.233 295.43L212.534 300.252C210.629 302.207 210.629 305.465 212.534 307.42L225.933 321.168L221.551 325.664C221.361 325.664 221.17 325.664 220.98 325.664C215.519 325.664 211.074 330.225 211.074 335.829C211.074 341.433 215.519 345.994 220.98 345.994C226.441 345.994 230.886 341.433 230.886 335.829C230.886 335.634 230.886 335.438 230.886 335.243L237.617 328.336L242.189 333.027V337.132C241.998 337.784 242.316 338.37 242.824 338.631ZM214.693 305.139C214.058 304.487 214.058 303.38 214.693 302.728L219.392 297.906C220.027 297.255 221.107 297.255 221.742 297.906C235.775 312.307 234.886 311.46 235.14 311.59L232.791 314.001L220.345 301.295C219.71 300.643 218.63 300.643 217.995 301.295C217.36 301.946 217.36 303.054 217.995 303.706L230.378 316.412L228.028 318.823L214.693 305.139ZM227.838 333.483C227.457 333.874 227.33 334.396 227.393 334.917C227.457 335.308 227.52 335.569 227.52 335.829C227.52 339.543 224.536 342.606 220.916 342.606C217.297 342.606 214.312 339.543 214.312 335.829C214.312 332.115 217.297 329.053 220.916 329.053C221.107 329.053 221.361 329.118 221.678 329.118C222.313 329.183 222.821 329.118 223.266 328.662L238.76 312.763C239.204 312.307 239.331 311.59 239.141 311.003C237.871 307.354 238.76 303.184 241.49 300.382C243.522 298.297 246.253 297.255 249.047 297.45L243.84 302.793C243.459 303.184 243.268 303.771 243.395 304.292L244.538 310.287C244.665 310.938 245.173 311.46 245.808 311.59L251.65 312.763C252.222 312.893 252.73 312.698 253.111 312.307L258.318 306.964C258.445 309.831 257.429 312.632 255.46 314.718C252.793 317.454 248.729 318.432 245.11 317.128C244.538 316.933 243.84 317.063 243.395 317.519L227.838 333.483ZM239.776 325.99L242.125 323.579L247.205 328.792C247.523 329.118 247.904 329.313 248.348 329.313H252.095L257.873 339.283L255.016 342.215L245.3 336.285V332.441C245.3 331.985 245.11 331.529 244.792 331.268L239.776 325.99ZM319.722 43.98C319.532 43.3935 319.024 42.9374 318.389 42.8071L311.404 41.7645L308.292 35.2486C308.038 34.6622 307.403 34.2712 306.768 34.2712C306.133 34.2712 305.562 34.6622 305.244 35.2486L302.133 41.7645L295.148 42.8071C294.513 42.8723 294.005 43.3284 293.814 43.98C293.624 44.5664 293.751 45.2832 294.259 45.7393L299.339 50.8217L298.132 57.9893C298.005 58.6409 298.259 59.2924 298.767 59.6834C299.275 60.0744 299.974 60.1395 300.545 59.8137L306.832 56.4254L313.118 59.8137C313.372 59.944 313.626 60.0092 313.88 60.0092C314.198 60.0092 314.579 59.8789 314.833 59.6834C315.341 59.2924 315.595 58.6409 315.468 57.9893L314.261 50.8217L319.341 45.7393C319.722 45.2832 319.913 44.5664 319.722 43.98ZM311.277 48.9973C310.896 49.3882 310.705 49.9746 310.769 50.4959L311.531 55.1222L307.467 52.9068C306.959 52.6462 306.387 52.6462 305.943 52.9068L301.879 55.1222L302.641 50.4959C302.704 49.9095 302.577 49.3882 302.133 48.9973L298.831 45.7393L303.339 45.0877C303.911 45.0225 304.355 44.6316 304.609 44.1755L306.641 39.9401L308.673 44.1755C308.927 44.6967 309.372 45.0225 309.943 45.0877L314.452 45.7393L311.277 48.9973ZM319.595 154.751C319.595 153.448 319.087 152.145 318.135 151.167L298.577 131.098C297.624 130.121 296.418 129.6 295.084 129.6H281.241C279.082 129.6 277.241 131.033 276.542 132.988H274.574C271.843 132.988 269.621 135.268 269.621 138.07V152.275C269.621 153.643 270.129 154.947 271.081 155.859L290.639 175.928C291.592 176.905 292.798 177.427 294.132 177.427C295.465 177.427 296.735 176.905 297.624 175.928L299.593 173.908C299.974 173.973 300.355 174.038 300.736 174.038C302.069 174.038 303.339 173.517 304.228 172.54L318.071 158.335C319.151 157.357 319.595 156.054 319.595 154.751ZM295.338 173.517C295.021 173.843 294.64 174.038 294.195 174.038C293.751 174.038 293.306 173.843 293.052 173.517L273.494 153.448C273.177 153.122 272.986 152.731 272.986 152.275V138.07C272.986 137.158 273.748 136.376 274.637 136.376H276.288V148.822C276.288 150.19 276.796 151.493 277.749 152.405L296.799 171.953L295.338 173.517ZM315.785 155.924L301.942 170.129C301.625 170.454 301.244 170.65 300.799 170.65C300.355 170.65 299.91 170.454 299.656 170.129L280.098 150.06C279.781 149.734 279.59 149.343 279.59 148.887V134.682C279.59 133.77 280.352 132.988 281.241 132.988H295.084C295.529 132.988 295.973 133.183 296.227 133.509L315.785 153.578C316.484 154.165 316.484 155.272 315.785 155.924ZM306.578 151.363C305.435 151.363 304.482 152.34 304.482 153.513C304.482 154.686 305.435 155.663 306.578 155.663C307.721 155.663 308.673 154.686 308.673 153.513C308.673 152.275 307.721 151.363 306.578 151.363ZM165.925 305.53V313.675L161.417 320.647V346.059H196.405V320.647L191.897 313.675V305.53H165.925ZM169.291 308.983H188.468V312.437H169.291V308.983ZM183.959 342.541H164.782V322.862H183.959V342.541ZM184.721 319.409H166.243L168.529 315.956H187.007L184.721 319.409ZM192.976 321.69V342.606H187.325V321.69L190.119 317.324L192.976 321.69ZM299.847 144C298.894 144 298.196 144.782 298.196 145.694V161.202C298.196 162.179 298.958 162.896 299.847 162.896C300.799 162.896 301.498 162.114 301.498 161.202V145.694C301.561 144.782 300.799 144 299.847 144ZM134.81 171.693C132.969 171.693 131.445 173.061 131.445 174.82V198.278C131.445 199.972 132.969 201.405 134.81 201.405H185.166C186.055 201.405 186.817 200.688 186.817 199.711V174.82C186.817 173.126 185.293 171.693 183.451 171.693H182.753L164.592 163.678C164.655 163.287 164.719 162.831 164.719 162.44C164.719 159.833 163.004 157.618 160.718 156.901V154.425H170.815C171.704 154.425 172.466 153.709 172.466 152.731V146.085C172.466 145.173 171.767 144.391 170.815 144.391H147.32C146.431 144.391 145.669 145.107 145.669 146.085V152.731C145.669 153.643 146.367 154.425 147.32 154.425H157.543V156.901C155.257 157.618 153.543 159.833 153.543 162.44C153.543 162.896 153.606 163.287 153.67 163.678L135.636 171.693H134.81ZM183.515 175.016V198.017C183.388 198.017 134.747 198.017 134.683 198.017V175.016H183.515ZM148.844 151.102V147.779H169.1V151.102H148.844ZM159.004 159.964C160.337 159.964 161.353 161.072 161.353 162.375C161.353 163.743 160.274 164.786 159.004 164.786C157.67 164.786 156.654 163.678 156.654 162.375C156.654 161.072 157.734 159.964 159.004 159.964ZM155.194 166.61C156.21 167.587 157.543 168.174 159.067 168.174C160.591 168.174 161.925 167.587 162.941 166.545L174.498 171.627H143.764L155.194 166.61ZM292.862 141.459C292.862 138.657 290.639 136.376 287.909 136.376C285.178 136.376 282.956 138.657 282.956 141.459C282.956 144.26 285.178 146.541 287.909 146.541C290.639 146.541 292.862 144.26 292.862 141.459ZM287.909 143.153C287.02 143.153 286.258 142.371 286.258 141.459C286.258 140.546 287.02 139.764 287.909 139.764C288.798 139.764 289.56 140.546 289.56 141.459C289.56 142.371 288.798 143.153 287.909 143.153ZM293.116 151.363C291.973 151.363 291.02 152.34 291.02 153.513C291.02 154.686 291.973 155.663 293.116 155.663C294.259 155.663 295.211 154.686 295.211 153.513C295.211 152.275 294.322 151.363 293.116 151.363ZM150.177 194.629C151.066 194.629 151.828 193.912 151.828 192.934V179.903C151.828 178.99 151.13 178.208 150.177 178.208C149.225 178.208 148.526 178.925 148.526 179.903V192.934C148.59 193.847 149.288 194.629 150.177 194.629ZM71.6279 304.227C72.7709 305.269 74.3584 306.182 76.3269 306.964C80.2004 308.462 85.3439 309.309 90.7414 309.309C96.1389 309.309 101.282 308.462 105.156 306.964C107.124 306.182 108.712 305.269 109.855 304.227C111.569 302.663 111.95 301.034 111.95 299.991V275.231C111.95 275.166 111.95 275.101 111.95 275.035C111.95 273.993 111.569 272.429 109.855 270.8C108.712 269.757 107.124 268.845 105.156 268.063C101.282 266.565 96.1389 265.718 90.7414 265.718C85.3439 265.718 80.2004 266.565 76.3269 268.063C74.3584 268.845 72.7709 269.757 71.6279 270.8C69.9134 272.364 69.5324 273.993 69.5324 275.035C69.5324 275.101 69.5324 275.166 69.5324 275.231V300.057C69.5324 301.099 69.9134 302.663 71.6279 304.227ZM77.5334 271.256C81.0259 269.888 85.7249 269.171 90.8049 269.171C95.8849 269.171 100.52 269.888 104.076 271.256C106.934 272.364 108.712 273.797 108.712 275.035C108.712 276.273 106.87 277.707 104.076 278.815C100.584 280.183 95.8849 280.9 90.8049 280.9C85.7249 280.9 81.0894 280.183 77.5334 278.815C74.6759 277.707 72.8979 276.273 72.8979 275.035C72.8979 273.797 74.6759 272.364 77.5334 271.256ZM72.8979 280.183C73.8504 280.835 75.0569 281.421 76.3904 281.942C80.2639 283.441 85.4074 284.288 90.8049 284.288C96.2024 284.288 101.346 283.441 105.219 281.942C106.553 281.421 107.759 280.835 108.712 280.183V281.812C108.712 282.985 106.87 284.484 104.076 285.591C100.584 286.96 95.8849 287.676 90.8049 287.676C85.7249 287.676 81.0894 286.96 77.5334 285.591C74.6759 284.484 72.8979 283.05 72.8979 281.812V280.183ZM72.8979 287.025C73.8504 287.676 75.0569 288.263 76.3904 288.784C80.2639 290.283 85.4074 291.13 90.8049 291.13C96.2024 291.13 101.346 290.283 105.219 288.784C106.553 288.263 107.759 287.676 108.712 287.025V293.28C108.712 294.453 106.87 295.952 104.076 297.059C100.584 298.428 95.8849 299.144 90.8049 299.144C85.7249 299.144 81.0894 298.428 77.5334 297.059C74.6759 295.952 72.8979 294.518 72.8979 293.28V287.025ZM72.8979 298.428C73.8504 299.079 75.0569 299.666 76.3904 300.187C80.2639 301.686 85.4074 302.533 90.8049 302.533C96.2024 302.533 101.346 301.686 105.219 300.187C106.553 299.666 107.759 299.079 108.712 298.428V300.057C108.712 301.23 106.87 302.728 104.076 303.836C100.584 305.204 95.8849 305.921 90.8049 305.921C85.7249 305.921 81.0894 305.204 77.5334 303.836C74.6759 302.728 72.8979 301.295 72.8979 300.057V298.428ZM373.951 191.892C374.205 191.696 374.459 191.501 374.65 191.306C375.094 190.784 375.348 190.133 375.348 189.351C375.348 188.634 375.094 187.917 374.65 187.331C374.205 186.744 373.57 186.288 372.808 185.897C371.284 185.246 369.316 185.181 367.538 185.897C366.649 186.288 365.95 186.744 365.442 187.331C365.125 187.657 364.934 188.048 364.934 188.504C364.934 189.025 365.188 189.286 365.315 189.416C365.95 189.937 366.839 189.872 367.474 189.22C367.792 188.895 368.173 188.699 368.617 188.504C369.125 188.308 369.633 188.243 370.205 188.243C370.903 188.243 371.411 188.373 371.792 188.634C372.11 188.829 372.237 189.09 372.237 189.481C372.237 189.872 372.173 190.133 371.983 190.393C371.792 190.589 371.538 190.719 371.221 190.719H369.951C369.506 190.719 369.189 190.849 368.871 191.045C368.554 191.305 368.363 191.631 368.363 192.022C368.363 192.413 368.554 192.739 368.871 193C369.189 193.26 369.57 193.391 369.951 193.391H371.221C371.665 193.391 371.983 193.521 372.3 193.782C372.554 193.977 372.681 194.303 372.681 194.629C372.681 195.085 372.491 195.411 372.11 195.671C371.665 195.997 371.094 196.127 370.395 196.127C369.189 196.127 368.236 195.802 367.474 195.085C367.157 194.759 366.776 194.629 366.268 194.629C365.887 194.629 365.569 194.759 365.252 194.954C364.871 195.28 364.744 195.606 364.744 196.062C364.744 196.453 364.934 196.844 365.252 197.17C365.887 197.756 366.585 198.147 367.474 198.538C368.363 198.864 369.316 199.059 370.395 199.059C371.348 199.059 372.237 198.864 373.062 198.538C373.888 198.147 374.523 197.626 374.967 196.974C375.475 196.323 375.666 195.541 375.666 194.759C375.666 193.912 375.412 193.195 374.84 192.609C374.65 192.283 374.332 192.087 373.951 191.892ZM316.928 312.567L321.754 307.615C322.389 306.964 322.389 305.856 321.754 305.139L316.928 300.187C316.293 299.535 315.214 299.535 314.515 300.187L309.816 305.009C306.768 302.989 303.212 301.686 299.402 301.425V301.295C302.323 300.513 304.482 297.776 304.482 294.583C304.482 290.739 301.434 287.611 297.688 287.611C293.941 287.611 290.893 290.739 290.893 294.583C290.893 297.841 293.052 300.578 295.973 301.295V301.425C292.163 301.751 288.607 302.989 285.559 305.009L280.86 300.187C280.225 299.535 279.146 299.535 278.447 300.187L273.621 305.139C272.986 305.791 272.986 306.898 273.621 307.615L278.447 312.567C269.748 327.684 280.352 346.971 297.561 346.971C315.023 346.971 325.628 327.684 316.928 312.567ZM315.722 303.901L318.135 306.377L314.96 309.635C314.261 308.723 313.436 307.876 312.61 307.094L315.722 303.901ZM294.386 294.518C294.386 292.628 295.91 291.065 297.751 291.065C299.593 291.065 301.117 292.628 301.117 294.518C301.117 295.821 300.418 296.929 299.402 297.515V296.343C299.402 295.365 298.64 294.583 297.688 294.583C296.735 294.583 295.973 295.365 295.973 296.343V297.515C295.084 296.929 294.386 295.821 294.386 294.518ZM277.431 306.377L279.844 303.901L283.019 307.159C282.194 307.941 281.368 308.788 280.67 309.7L277.431 306.377ZM278.955 324.166C278.955 313.479 287.401 304.813 297.815 304.813C308.229 304.813 316.674 313.479 316.674 324.166C316.674 334.852 308.229 343.518 297.815 343.518C287.401 343.518 278.955 334.852 278.955 324.166ZM313.69 324.166C313.69 315.174 306.514 307.811 297.751 307.811C288.988 307.811 281.813 315.174 281.813 324.166C281.813 333.158 288.988 340.521 297.751 340.521C306.578 340.521 313.69 333.158 313.69 324.166ZM299.466 311.394C303.53 311.981 307.022 314.522 308.864 318.106L299.466 321.624V311.394ZM285.242 324.166C285.242 317.65 289.941 312.241 296.1 311.394V326.511L310.07 321.364C311.658 328.792 306.387 335.634 299.529 336.872C297.878 337.198 296.164 336.872 296.164 336.872C290.004 336.09 285.242 330.682 285.242 324.166ZM176.911 194.433C177.8 194.433 178.562 193.716 178.562 192.739V179.707C178.562 178.795 177.863 178.013 176.911 178.013C175.958 178.013 175.26 178.73 175.26 179.707V192.739C175.26 193.651 176.022 194.433 176.911 194.433ZM168.021 194.498C168.91 194.498 169.672 193.782 169.672 192.804V179.772C169.672 178.86 168.973 178.078 168.021 178.078C167.068 178.078 166.37 178.795 166.37 179.772V192.804C166.37 193.782 167.068 194.498 168.021 194.498ZM141.859 344.3C141.859 340.781 140.017 337.719 137.287 336.09C138.366 334.917 139.001 333.353 139.001 331.594C139.001 327.945 136.08 324.948 132.524 324.948C128.968 324.948 126.047 327.945 126.047 331.594C126.047 333.353 126.682 334.917 127.762 336.09C127.063 336.481 126.492 337.002 125.92 337.589C124.65 335.308 122.682 333.483 120.396 332.311C122.301 330.682 123.507 328.206 123.507 325.469C123.507 320.517 119.57 316.477 114.744 316.477C109.918 316.477 105.981 320.517 105.981 325.469C105.981 328.206 107.188 330.682 109.093 332.311C106.807 333.483 104.838 335.308 103.568 337.589C102.997 337.002 102.362 336.546 101.727 336.09C102.806 334.917 103.441 333.353 103.441 331.594C103.441 327.945 100.52 324.948 96.9644 324.948C93.4084 324.948 90.4874 327.945 90.4874 331.594C90.4874 333.353 91.1224 334.917 92.2019 336.09C89.4714 337.784 87.6299 340.846 87.6299 344.3V346.059C103.378 346.059 115.824 346.059 141.922 346.059V344.3H141.859ZM96.9009 328.401C98.6154 328.401 99.9489 329.835 99.9489 331.529C99.9489 333.223 98.5519 334.656 96.9009 334.656C95.2499 334.656 93.8529 333.223 93.8529 331.529C93.8529 329.835 95.2499 328.401 96.9009 328.401ZM101.854 342.541H91.2494C92.0114 339.999 94.2339 338.175 96.9644 338.175C99.1234 338.175 101.028 339.348 102.108 341.237C101.981 341.628 101.917 342.084 101.854 342.541ZM114.744 319.93C117.729 319.93 120.142 322.406 120.142 325.469C120.142 328.531 117.729 331.007 114.744 331.007C111.76 331.007 109.347 328.531 109.347 325.469C109.347 322.406 111.76 319.93 114.744 319.93ZM105.283 342.541C106.108 337.979 109.982 334.396 114.744 334.396C119.507 334.396 123.38 337.914 124.206 342.541H105.283ZM132.524 328.401C134.239 328.401 135.572 329.835 135.572 331.529C135.572 333.223 134.175 334.656 132.524 334.656C130.873 334.656 129.476 333.223 129.476 331.529C129.476 329.835 130.873 328.401 132.524 328.401ZM127.635 342.541C127.571 342.15 127.508 341.628 127.381 341.237C128.46 339.348 130.365 338.175 132.524 338.175C135.191 338.175 137.477 339.999 138.239 342.541H127.635ZM159.067 194.303C159.956 194.303 160.718 193.586 160.718 192.609V179.577C160.718 178.665 160.02 177.883 159.067 177.883C158.115 177.883 157.416 178.599 157.416 179.577V192.609C157.48 193.586 158.178 194.303 159.067 194.303ZM141.287 194.629C142.176 194.629 142.938 193.912 142.938 192.934V179.903C142.938 178.99 142.24 178.208 141.287 178.208C140.335 178.208 139.636 178.925 139.636 179.903V192.934C139.636 193.912 140.398 194.629 141.287 194.629ZM6.22289 259.527C5.90539 259.918 5.77839 260.44 5.84189 260.961L9.27089 280.183C9.39789 280.965 10.0964 281.551 10.8584 281.617L41.2114 283.05L40.1954 286.894H14.3509C13.3984 286.894 12.6364 287.676 12.6364 288.654C12.6364 289.631 13.3984 290.413 14.3509 290.413H41.5289C42.2909 290.413 42.9894 289.892 43.1799 289.11L51.9429 255.488H58.5469C59.4994 255.488 60.2614 254.706 60.2614 253.728C60.2614 252.751 59.4994 251.969 58.5469 251.969H50.6094C49.8474 251.969 49.1489 252.49 48.9584 253.272L47.4979 258.941H7.55639C7.04839 258.941 6.54039 259.136 6.22289 259.527ZM46.6089 262.394L42.1639 279.531L12.3824 278.163L9.58839 262.394H46.6089ZM314.769 16.0266C315.785 15.5705 316.293 14.3324 315.849 13.2899C315.404 12.2473 314.198 11.726 313.182 12.1822C312.166 12.6383 311.658 13.8763 312.102 14.9189C312.547 15.9614 313.69 16.4175 314.769 16.0266ZM324.104 16.1569C325.247 16.1569 326.136 15.2447 326.136 14.0718C326.136 12.8989 325.247 11.9867 324.104 11.9867C322.961 11.9867 322.072 12.8989 322.072 14.0718C322.008 15.2447 322.961 16.1569 324.104 16.1569ZM303.847 25.2141H315.722L322.897 33.4893C323.913 34.6622 325.818 33.9454 325.818 32.3816V25.0837C330.898 24.2367 334.835 19.7407 334.835 14.2673C334.772 7.16488 329.565 2.86436 324.104 2.86436H303.847C298.005 2.86436 293.179 7.75132 293.179 13.8111C293.243 20.9135 298.45 25.2141 303.847 25.2141ZM303.847 6.31781H324.104C327.914 6.31781 331.47 9.31514 331.47 14.3324C331.47 18.5026 328.168 21.8909 324.104 21.8909C323.215 21.8909 322.453 22.6728 322.453 23.5851V27.9507L317.69 22.4774C317.373 22.0864 316.928 21.8909 316.484 21.8909H303.911C300.101 21.8909 296.545 18.8936 296.545 13.8763C296.545 9.64094 299.783 6.31781 303.847 6.31781ZM343.979 105.881H370.522C373.253 105.881 375.475 103.601 375.475 100.799V47.1076C375.475 44.3058 373.253 42.0252 370.522 42.0252H343.979C341.249 42.0252 339.026 44.3058 339.026 47.1076V100.799C338.963 103.601 341.185 105.881 343.979 105.881ZM342.265 47.1076C342.265 46.1954 343.027 45.4135 343.916 45.4135H370.459C371.348 45.4135 372.11 46.1954 372.11 47.1076V100.799C372.11 101.711 371.348 102.493 370.459 102.493H343.916C343.027 102.493 342.265 101.711 342.265 100.799V47.1076ZM262.509 35.2486C262.636 35.9654 263.207 36.5518 263.969 36.617C264.731 36.6821 265.366 36.226 265.62 35.5092L266.192 33.9454L266.763 35.5092C267.017 36.1608 267.589 36.617 268.287 36.617C268.351 36.617 268.414 36.617 268.414 36.617C269.176 36.5518 269.748 35.9654 269.875 35.2486L271.272 26.3218C271.399 25.4095 270.827 24.5625 269.938 24.4321C269.049 24.3018 268.224 24.8883 268.097 25.8005L267.716 28.4069C267.462 27.8204 266.89 27.4295 266.255 27.4295C265.62 27.4295 265.049 27.8204 264.795 28.4069L264.35 25.7353C264.223 24.8231 263.334 24.2367 262.509 24.367C261.62 24.4973 261.048 25.4095 261.175 26.2566L262.509 35.2486ZM303.911 16.1569C305.054 16.1569 305.943 15.2447 305.943 14.0718C305.943 12.8989 305.054 11.9867 303.911 11.9867C302.768 11.9867 301.879 12.8989 301.879 14.0718C301.879 15.2447 302.768 16.1569 303.911 16.1569ZM40.3224 197.496C40.3224 196.649 39.6239 195.932 38.7984 195.932C38.2269 195.932 37.7824 196.127 37.4014 196.518C37.0204 196.909 36.8299 197.365 36.8299 197.952V198.994L12.3824 209.485C11.4934 209.811 11.0489 210.462 11.0489 211.375C11.0489 212.222 11.4934 212.873 12.3824 213.264L36.8299 223.755V224.928C36.8299 225.514 37.0204 225.97 37.4014 226.361C37.7824 226.752 38.2269 226.948 38.7984 226.948C39.6239 226.948 40.3224 226.231 40.3224 225.384V197.496ZM36.8934 219.715L16.7639 211.375L36.8934 202.904V219.715ZM16.7639 174.169C17.0814 173.778 17.2719 173.321 17.2719 172.8C17.2719 172.344 17.0814 171.888 16.7639 171.497C16.4464 171.106 16.0019 170.911 15.5574 170.911C15.2399 170.911 14.9859 170.976 14.7319 171.041C14.4779 171.171 14.2874 171.367 14.0334 171.627C12.8904 173.061 12.0649 174.494 11.5569 175.928C11.0489 177.361 10.7949 179.056 10.7949 180.945C10.7949 183.682 11.4299 186.158 12.7634 188.438C14.0969 190.719 15.8749 192.478 18.1609 193.782C20.4469 195.085 22.9234 195.736 25.6539 195.736C28.4479 195.736 30.9244 195.085 33.2104 193.782C35.4964 192.478 37.2744 190.719 38.6079 188.438C39.9414 186.158 40.5764 183.682 40.5764 180.945C40.5764 177.427 39.4969 174.299 37.3379 171.562C36.9569 171.171 36.4489 170.976 35.9409 170.976C35.3694 170.976 34.9249 171.106 34.6074 171.432C34.2899 171.758 34.0994 172.149 34.0994 172.67C34.0994 173.061 34.2264 173.517 34.5439 173.908C36.1949 176.123 37.0204 178.534 37.0204 180.945C37.0204 182.965 36.5124 184.79 35.4964 186.419C34.4804 188.113 33.0834 189.416 31.3689 190.393C29.6544 191.371 27.6859 191.892 25.5904 191.892C23.4949 191.892 21.5899 191.371 19.8754 190.393C18.0974 189.416 16.7639 188.113 15.6844 186.419C14.6684 184.724 14.1604 182.9 14.1604 180.945C14.1604 179.381 14.3509 178.078 14.7319 177.101C15.3034 176.189 15.9384 175.211 16.7639 174.169ZM17.7164 276.404C18.6689 276.404 19.4309 275.622 19.4309 274.644V267.672C19.4309 266.695 18.6689 265.913 17.7164 265.913C16.7639 265.913 16.0019 266.695 16.0019 267.672V274.644C16.0654 275.622 16.8274 276.404 17.7164 276.404ZM38.1634 276.404C39.1159 276.404 39.8779 275.622 39.8779 274.644V267.672C39.8779 266.695 39.1159 265.913 38.1634 265.913C37.2109 265.913 36.4489 266.695 36.4489 267.672V274.644C36.4489 275.622 37.2109 276.404 38.1634 276.404ZM27.9399 276.404C28.8924 276.404 29.6544 275.622 29.6544 274.644V267.672C29.6544 266.695 28.8924 265.913 27.9399 265.913C26.9874 265.913 26.2254 266.695 26.2254 267.672V274.644C26.2254 275.622 26.9874 276.404 27.9399 276.404ZM39.8144 234.115C40.1954 233.724 40.3859 233.268 40.3859 232.682C40.3859 232.095 40.1954 231.639 39.8144 231.313C39.4334 230.922 38.9889 230.727 38.4174 230.727H13.1444C12.5729 230.727 12.1284 230.922 11.7474 231.313C11.3664 231.704 11.1759 232.16 11.1759 232.682C11.1759 233.268 11.3664 233.724 11.7474 234.115C12.1284 234.506 12.5729 234.702 13.1444 234.702H23.8759V240.892H13.1444C12.5729 240.892 12.1284 241.087 11.7474 241.478C11.3664 241.869 11.1759 242.325 11.1759 242.912C11.1759 243.498 11.3664 243.954 11.7474 244.345C12.1284 244.736 12.5729 244.932 13.1444 244.932H38.4174C38.9889 244.932 39.4334 244.736 39.8144 244.345C40.1954 243.954 40.3859 243.498 40.3859 242.912C40.3859 242.325 40.1954 241.869 39.8144 241.478C39.4334 241.087 38.9889 240.892 38.4174 240.892H27.3049V234.702H38.4174C38.9254 234.702 39.4334 234.506 39.8144 234.115ZM365.506 82.7499C365.506 81.8376 364.744 81.0557 363.855 81.0557C362.966 81.0557 362.204 81.8376 362.204 82.7499C362.204 83.6621 362.966 84.444 363.855 84.444C364.744 84.444 365.506 83.6621 365.506 82.7499ZM342.328 28.1462H372.491C373.316 28.1462 374.015 27.4295 374.015 26.5824V19.871C374.015 19.0239 373.316 18.3071 372.491 18.3071H372.173C371.411 18.3071 370.776 17.7207 370.649 16.9388C370.014 12.8989 367.347 9.51062 363.664 8.01195C363.093 7.75132 362.712 7.23004 362.712 6.57845C362.712 5.73137 362.013 5.01462 361.188 5.01462H353.568C352.742 5.01462 352.044 5.73137 352.044 6.57845C352.044 7.23004 351.663 7.81648 351.091 8.01195C347.408 9.51062 344.741 12.8989 344.106 16.9388C343.979 17.7207 343.344 18.3071 342.582 18.3071H342.265C341.439 18.3071 340.741 19.0239 340.741 19.871V26.5824C340.804 27.4295 341.503 28.1462 342.328 28.1462ZM362.712 11.726C362.712 11.4654 362.966 11.2699 363.22 11.4002C365.569 12.6383 367.22 15.0492 367.538 17.851C367.538 18.0465 367.411 18.242 367.157 18.242H363.283C362.839 18.242 362.648 18.1117 362.648 17.851V11.726H362.712ZM355.282 8.72871C355.282 8.46807 355.473 8.27259 355.727 8.27259H359.092C359.346 8.27259 359.537 8.46807 359.537 8.72871V17.851C359.537 18.1117 359.346 18.3071 359.092 18.3071H355.727C355.473 18.3071 355.282 18.1117 355.282 17.851V8.72871ZM351.663 11.3351C351.853 11.2699 352.044 11.4002 352.044 11.5957V17.9814C352.044 18.1117 351.917 18.242 351.79 18.242H347.535C347.345 18.242 347.218 18.1117 347.281 17.9162C347.535 15.1143 349.25 12.6383 351.663 11.3351ZM343.979 22.0212C343.979 21.7606 344.17 21.5651 344.424 21.5651H370.395C370.649 21.5651 370.84 21.7606 370.84 22.0212V24.4321C370.84 24.6928 370.649 24.8883 370.395 24.8883H344.424C344.17 24.8883 343.979 24.6928 343.979 24.4321V22.0212ZM357.251 76.69C363.664 76.69 368.871 71.347 368.871 64.7658C368.871 58.1847 363.664 52.8417 357.251 52.8417C350.837 52.8417 345.63 58.1847 345.63 64.7658C345.63 71.2818 350.837 76.69 357.251 76.69ZM357.251 73.2366C355.727 73.2366 354.33 72.8456 353.123 72.1289C354.012 70.7605 355.6 69.8483 357.251 69.8483C358.965 69.8483 360.489 70.6954 361.378 72.1289C360.172 72.8456 358.711 73.2366 357.251 73.2366ZM355.536 64.7658C355.536 63.8536 356.298 63.0717 357.187 63.0717C358.076 63.0717 358.838 63.8536 358.838 64.7658C358.838 65.6781 358.076 66.46 357.187 66.46C356.298 66.46 355.536 65.6781 355.536 64.7658ZM357.251 56.23C361.823 56.23 365.569 60.0744 365.569 64.7658C365.569 66.6555 364.934 68.4799 363.918 69.8483C363.22 68.936 362.394 68.1541 361.442 67.5677C361.95 66.7858 362.267 65.8084 362.267 64.7007C362.267 61.8988 360.045 59.6182 357.314 59.6182C354.584 59.6182 352.361 61.8988 352.361 64.7007C352.361 65.7432 352.679 66.7206 353.187 67.5677C352.234 68.1541 351.345 68.936 350.71 69.8483C349.694 68.4148 349.059 66.6555 349.059 64.7658C348.932 60.0744 352.679 56.23 357.251 56.23ZM358.902 82.7499C358.902 81.8376 358.14 81.0557 357.251 81.0557C356.362 81.0557 355.6 81.8376 355.6 82.7499C355.6 83.6621 356.362 84.444 357.251 84.444C358.14 84.444 358.902 83.6621 358.902 82.7499ZM363.855 95.1953H350.774C349.758 95.1953 348.869 96.0424 348.869 97.1501C348.869 98.2578 349.694 99.1049 350.774 99.1049H363.855C364.871 99.1049 365.76 98.2578 365.76 97.1501C365.76 96.0424 364.871 95.1953 363.855 95.1953ZM350.583 84.444C351.472 84.444 352.234 83.6621 352.234 82.7499C352.234 81.8376 351.472 81.0557 350.583 81.0557C349.694 81.0557 348.932 81.8376 348.932 82.7499C348.932 83.6621 349.694 84.444 350.583 84.444ZM117.729 119.5C117.729 120.542 118.554 121.455 119.634 121.455H141.033C142.049 121.455 142.938 120.607 142.938 119.5C142.938 118.392 142.113 117.545 141.033 117.545H119.634C118.618 117.545 117.729 118.457 117.729 119.5ZM168.783 100.669H168.211C167.449 100.669 166.814 101.32 166.814 102.102V102.689C166.814 103.471 167.449 104.122 168.211 104.122H168.783C169.545 104.122 170.18 103.471 170.18 102.689V102.102C170.18 101.255 169.545 100.669 168.783 100.669ZM148.78 100.669H148.209C147.447 100.669 146.812 101.32 146.812 102.102V102.689C146.812 103.471 147.447 104.122 148.209 104.122H148.78C149.542 104.122 150.177 103.471 150.177 102.689V102.102C150.177 101.255 149.542 100.669 148.78 100.669ZM155.448 100.669H154.876C154.114 100.669 153.479 101.32 153.479 102.102V102.689C153.479 103.471 154.114 104.122 154.876 104.122H155.448C156.21 104.122 156.845 103.471 156.845 102.689V102.102C156.845 101.255 156.21 100.669 155.448 100.669ZM162.115 100.669H161.544C160.782 100.669 160.147 101.32 160.147 102.102V102.689C160.147 103.471 160.782 104.122 161.544 104.122H162.115C162.877 104.122 163.512 103.471 163.512 102.689V102.102C163.512 101.255 162.877 100.669 162.115 100.669ZM253.555 36.617H258.318C259.207 36.617 259.969 35.9002 259.969 34.9228C259.969 34.0106 259.27 33.2287 258.318 33.2287H255.143V32.0558H256.032C256.921 32.0558 257.683 31.339 257.683 30.3616C257.683 29.4494 256.984 28.6675 256.032 28.6675H255.143V27.625H258.318C259.207 27.625 259.969 26.9082 259.969 25.9308C259.969 25.0186 259.27 24.2367 258.318 24.2367H253.555C252.666 24.2367 251.904 24.9534 251.904 25.9308V34.8577C251.968 35.9002 252.666 36.617 253.555 36.617ZM64.8334 128.948C64.8334 129.99 65.6589 130.903 66.7384 130.903H141.033C142.049 130.903 142.938 130.056 142.938 128.948C142.938 127.84 142.113 126.993 141.033 126.993H66.7384C65.7224 126.993 64.8334 127.905 64.8334 128.948ZM249.872 122.823H209.804C208.915 122.823 208.153 123.605 208.153 124.517V130.772H202.057C201.168 130.772 200.406 131.554 200.406 132.467V156.836C200.406 157.748 201.168 158.53 202.057 158.53H242.189C243.078 158.53 243.84 157.748 243.84 156.836V150.581H249.872C250.761 150.581 251.523 149.799 251.523 148.887V124.517C251.587 123.54 250.825 122.823 249.872 122.823ZM203.708 134.226H208.216C208.153 136.702 206.184 138.722 203.708 138.722V134.226ZM203.708 155.142V150.646C206.121 150.646 208.153 152.666 208.216 155.142H203.708ZM240.538 155.142H235.966C236.029 152.666 237.998 150.646 240.474 150.646H240.538V155.142ZM240.538 147.258C236.22 147.258 232.727 150.776 232.664 155.207H211.518C211.455 150.841 207.962 147.258 203.708 147.258V142.11C207.962 142.11 211.455 138.592 211.518 134.161H232.664C232.727 138.526 236.22 142.11 240.474 142.11H240.538V147.258ZM240.538 138.722C238.061 138.722 236.029 136.702 235.966 134.226H240.538V138.722ZM248.221 147.193H243.84V132.467C243.84 131.554 243.078 130.772 242.189 130.772H211.455V126.211H248.221V147.193ZM222.059 135.268C216.979 135.268 212.915 139.504 212.915 144.651C212.915 149.864 217.043 154.034 222.059 154.034C227.139 154.034 231.203 149.799 231.203 144.651C231.267 139.504 227.139 135.268 222.059 135.268ZM222.059 150.646C218.821 150.646 216.217 147.974 216.217 144.651C216.217 141.328 218.821 138.657 222.059 138.657C225.298 138.657 227.901 141.328 227.901 144.651C227.901 147.974 225.298 150.646 222.059 150.646ZM214.947 37.855C214.185 37.0731 213.042 37.0731 212.28 37.855L199.39 51.1475L186.499 37.0079C185.801 36.226 184.594 36.1608 183.832 36.9428C183.07 37.6595 183.007 38.8975 183.769 39.6795L196.786 53.9494C194.31 56.2951 191.262 58.5105 189.42 58.5105C187.198 58.5105 186.372 57.5331 186.309 57.5331L186.372 57.5983L183.324 59.8789C183.515 60.1395 185.229 62.4201 189.42 62.4201C194.5 62.4201 201.041 55.1874 201.93 54.1449L215.011 40.722C215.709 39.8749 215.709 38.6369 214.947 37.855ZM213.423 66.8509C212.661 66.069 211.518 66.069 210.756 66.8509C203.771 74.0185 199.898 83.5969 199.898 93.827C199.898 94.8695 200.723 95.7817 201.803 95.7817C202.882 95.7817 203.708 94.9347 203.708 93.827C203.708 84.7046 207.2 76.1036 213.487 69.5876C214.185 68.8709 214.185 67.6329 213.423 66.8509ZM172.212 93.827C171.64 93.827 171.132 93.5012 170.942 92.9147L163.322 74.0836C163.131 73.5624 162.623 73.1714 162.052 73.1714H154.94C154.178 73.1714 153.543 73.823 153.543 74.6049V92.3283C153.543 93.1102 152.908 93.7618 152.146 93.7618H147.447C146.875 93.7618 146.367 93.436 146.177 92.9147L142.494 84.3788C142.24 83.8576 141.795 83.5318 141.224 83.5318H135.699C134.937 83.5318 134.302 84.1834 134.302 84.9653V98.8442C134.302 105.491 139.573 110.899 146.05 110.899H152.146C152.908 110.899 153.543 111.55 153.543 112.332V130.056C153.543 130.838 154.178 131.489 154.94 131.489H162.052C162.623 131.489 163.131 131.163 163.322 130.577L170.942 111.746C171.132 111.225 171.64 110.834 172.212 110.834H189.674C190.436 110.834 191.071 110.182 191.071 109.4V105.816C191.071 99.17 185.801 93.7618 179.324 93.7618H172.212V93.827ZM156.845 78.0584C156.845 77.2765 157.48 76.6249 158.242 76.6249H159.829C160.401 76.6249 160.909 76.9507 161.099 77.5371L167.703 93.827H156.845V78.0584ZM137.541 88.4187C137.541 87.6368 138.176 86.9852 138.938 86.9852C139.509 86.9852 140.017 87.311 140.208 87.8323L141.922 91.807C142.303 92.7844 141.668 93.827 140.652 93.827H138.938C138.176 93.827 137.541 93.1754 137.541 92.3934V88.4187ZM161.036 127.189C160.845 127.71 160.337 128.101 159.766 128.101H158.178C157.416 128.101 156.781 127.449 156.781 126.667V110.899H167.64L161.036 127.189ZM187.769 104.057V107.51H146.113C141.414 107.51 137.604 103.601 137.604 98.7791V97.2804H173.545V102.689C173.545 103.471 174.18 104.122 174.942 104.122H187.769V104.057ZM183.769 97.932C185.102 98.5836 184.594 100.669 183.134 100.669H178.181C177.419 100.669 176.784 100.017 176.784 99.2352V98.6488C176.784 97.8669 177.419 97.2153 178.181 97.2153H180.721C181.8 97.2153 182.88 97.4759 183.769 97.932ZM12.6364 298.102C12.6364 300.969 14.9224 303.315 17.7164 303.315C20.5104 303.315 22.7964 300.969 22.7964 298.102C22.7964 295.235 20.5104 292.889 17.7164 292.889C14.9224 292.889 12.6364 295.235 12.6364 298.102ZM19.4309 298.102C19.4309 299.079 18.6689 299.861 17.7164 299.861C16.7639 299.861 16.0019 299.079 16.0019 298.102C16.0019 297.124 16.7639 296.343 17.7164 296.343C18.6689 296.343 19.4309 297.124 19.4309 298.102ZM38.1634 292.889C35.3694 292.889 33.0834 295.235 33.0834 298.102C33.0834 300.969 35.3694 303.315 38.1634 303.315C40.9574 303.315 43.2434 300.969 43.2434 298.102C43.2434 295.235 40.9574 292.889 38.1634 292.889ZM38.1634 299.861C37.2109 299.861 36.4489 299.079 36.4489 298.102C36.4489 297.124 37.2109 296.343 38.1634 296.343C39.1159 296.343 39.8779 297.124 39.8779 298.102C39.8779 299.079 39.0524 299.861 38.1634 299.861ZM62.4839 343.779C63.4364 343.779 64.1349 342.997 64.1349 342.084V335.503C64.1349 330.942 60.5154 327.163 56.0069 327.163H51.4984C49.9744 324.882 47.9424 322.993 45.5929 321.624C42.9894 320.126 40.0049 319.279 36.9569 319.279H35.6869C34.7344 319.279 34.0359 320.061 34.0359 320.973V327.163H15.3669C11.2394 327.163 7.87389 330.291 7.36589 334.331C7.36589 334.396 7.36589 334.396 7.36589 334.461C7.30239 334.787 7.30239 335.112 7.30239 335.503V342.084C7.30239 343.062 8.06439 343.779 8.95339 343.779H14.8589C15.6209 346.711 18.2244 348.926 21.3359 348.926C24.4474 348.926 27.1144 346.711 27.8129 343.779H43.6244C44.3864 346.711 46.9899 348.926 50.1014 348.926C53.2129 348.926 55.8799 346.711 56.5784 343.779H62.4839ZM21.3359 345.473C19.4944 345.473 17.9704 343.909 17.9704 342.019C17.9704 340.13 19.4944 338.566 21.3359 338.566C23.1774 338.566 24.7014 340.13 24.7014 342.019C24.7014 343.909 23.1774 345.473 21.3359 345.473ZM27.8129 340.325C27.0509 337.393 24.4474 335.178 21.3359 335.178C18.2244 335.178 15.5574 337.393 14.8589 340.325H10.6679V336.285H13.2714C14.2239 336.285 14.9224 335.503 14.9224 334.591C14.9224 333.679 14.1604 332.897 13.2714 332.897H11.4299C12.2554 331.529 13.7794 330.616 15.4304 330.616H34.0994V340.325H27.8129ZM37.4014 322.667C41.1479 322.797 44.6404 324.426 47.1804 327.098H37.4014V322.667ZM50.1014 345.473C48.2599 345.473 46.7359 343.909 46.7359 342.019C46.7359 340.13 48.2599 338.566 50.1014 338.566C51.9429 338.566 53.4669 340.13 53.4669 342.019C53.4669 343.909 51.9429 345.473 50.1014 345.473ZM50.1014 335.178C46.9899 335.178 44.3229 337.393 43.6244 340.325H37.4014V330.551H56.0704C57.7214 330.551 59.1819 331.398 60.0709 332.767H57.4674C56.5149 332.767 55.8164 333.549 55.8164 334.461C55.8164 335.438 56.5784 336.155 57.4674 336.155H60.8329V340.26H56.6419C55.8799 337.328 53.2764 335.178 50.1014 335.178ZM92.3924 169.803H86.0424V173.321H92.3924V169.803ZM102.235 169.803H95.8849V173.321H102.235V169.803ZM72.7074 169.803H66.3574V173.321H72.7074V169.803ZM76.1364 173.321H82.4864V169.803H76.1364V173.321ZM59.4359 151.493V176.905C59.4359 179.837 61.7219 182.183 64.5794 182.183H68.2624V198.017C68.2624 200.949 70.5484 203.295 73.4059 203.295H112.776C115.633 203.295 117.919 200.949 117.919 198.017V172.605C117.919 169.673 115.633 167.327 112.776 167.327H109.093V151.493C109.093 148.561 106.807 146.215 103.949 146.215H64.5794C61.7854 146.215 59.4359 148.561 59.4359 151.493ZM114.554 198.017C114.554 198.994 113.792 199.776 112.839 199.776H73.4694C72.5169 199.776 71.7549 198.994 71.7549 198.017V196.258H114.554V198.017ZM114.554 192.739H71.7549V189.22H114.554V192.739ZM109.093 176.905V170.845H112.776C113.728 170.845 114.49 171.627 114.49 172.605V185.702H71.6914V182.183H103.949C106.807 182.183 109.093 179.772 109.093 176.905ZM105.664 151.493V176.905C105.664 177.883 104.902 178.665 103.949 178.665H64.5794C63.6269 178.665 62.8649 177.883 62.8649 176.905V151.493C62.8649 150.516 63.6269 149.734 64.5794 149.734H103.949C104.902 149.734 105.664 150.516 105.664 151.493ZM77.8509 155.077H66.2939V165.633H77.8509V155.077ZM74.4219 162.049H69.7229V158.595H74.4219V162.049ZM296.989 259.332C296.037 259.332 295.275 260.114 295.275 261.091C295.275 262.069 296.037 262.851 296.989 262.851C297.942 262.851 298.704 262.069 298.704 261.091C298.704 260.114 297.942 259.332 296.989 259.332ZM307.086 262.785C308.038 262.785 308.8 262.004 308.8 261.026C308.8 260.049 308.038 259.267 307.086 259.267H305.244C305.054 258.159 304.609 257.117 304.038 256.204L305.371 254.836C306.006 254.184 306.006 253.077 305.371 252.36C304.736 251.708 303.657 251.708 302.958 252.36L301.625 253.728C300.736 253.142 299.72 252.686 298.64 252.49V250.47C298.64 249.493 297.878 248.711 296.926 248.711C295.973 248.711 295.211 249.493 295.211 250.47V252.49C294.132 252.686 293.116 253.142 292.227 253.728L290.893 252.36C290.258 251.708 289.179 251.708 288.48 252.36C287.845 253.012 287.845 254.119 288.48 254.836L289.814 256.204C289.242 257.117 288.798 258.159 288.607 259.267H286.639C285.686 259.267 284.924 260.049 284.924 261.026C284.924 262.004 285.686 262.785 286.639 262.785H288.607C288.798 263.893 289.242 264.936 289.814 265.848L288.48 267.216C287.845 267.868 287.845 268.976 288.48 269.692C289.115 270.344 290.195 270.344 290.893 269.692L292.227 268.324C293.116 268.91 294.132 269.367 295.211 269.562V271.452C295.211 272.429 295.973 273.211 296.926 273.211C297.878 273.211 298.64 272.429 298.64 271.452V269.562C299.72 269.367 300.736 268.91 301.625 268.324L302.958 269.692C303.593 270.344 304.673 270.344 305.371 269.692C306.006 269.041 306.006 267.933 305.371 267.216L304.038 265.848C304.609 264.936 305.054 263.893 305.244 262.785H307.086ZM296.989 266.239C294.195 266.239 291.909 263.893 291.909 261.026C291.909 258.159 294.195 255.813 296.989 255.813C299.783 255.813 302.069 258.159 302.069 261.026C302.069 263.893 299.783 266.239 296.989 266.239ZM316.801 210.918C316.801 199.516 307.784 190.328 296.735 190.328C285.623 190.328 276.669 199.581 276.669 210.918C276.669 222.256 285.686 231.509 296.735 231.509C307.784 231.509 316.801 222.256 316.801 210.918ZM296.735 228.055C287.464 228.055 279.971 220.367 279.971 210.853C279.971 201.34 287.464 193.651 296.735 193.651C306.006 193.651 313.499 201.34 313.499 210.853C313.436 220.367 306.006 228.055 296.735 228.055ZM296.735 197.17C289.369 197.17 283.337 203.295 283.337 210.918C283.337 218.542 289.306 224.667 296.735 224.667C304.101 224.667 310.134 218.542 310.134 210.918C310.134 203.295 304.101 197.17 296.735 197.17ZM298.386 200.754C300.736 201.145 302.895 202.448 304.419 204.337L299.974 207.009C299.529 206.618 298.958 206.292 298.386 206.097V200.754ZM295.084 200.754V206.032C294.513 206.227 293.941 206.553 293.497 206.944L289.052 204.272C290.512 202.448 292.671 201.145 295.084 200.754ZM286.702 210.918C286.702 209.68 286.893 208.508 287.337 207.335L291.782 210.006C291.655 210.658 291.655 211.244 291.782 211.896L287.337 214.567C286.893 213.329 286.702 212.157 286.702 210.918ZM295.084 221.083C292.735 220.692 290.576 219.389 289.052 217.5L293.497 214.828C293.941 215.219 294.513 215.545 295.084 215.74V221.083ZM296.735 212.613C295.783 212.613 295.084 211.831 295.084 210.918C295.084 209.941 295.846 209.224 296.735 209.224C297.688 209.224 298.386 210.006 298.386 210.918C298.386 211.831 297.688 212.613 296.735 212.613ZM298.386 221.083V215.805C298.958 215.61 299.529 215.284 299.974 214.893L304.419 217.565C302.958 219.389 300.799 220.627 298.386 221.083ZM306.133 214.502L301.688 211.831C301.815 211.179 301.815 210.593 301.688 209.941L306.133 207.27C306.578 208.442 306.768 209.615 306.768 210.853C306.768 212.157 306.578 213.329 306.133 214.502ZM146.494 252.099H166.497C167.386 252.099 168.148 251.317 168.148 250.405V236.591C168.148 235.679 167.386 234.897 166.497 234.897H146.494C145.605 234.897 144.843 235.679 144.843 236.591V250.405C144.843 251.383 145.605 252.099 146.494 252.099ZM148.209 238.351H164.846V248.711H148.209V238.351ZM180.975 235.418C180.657 235.093 180.276 234.897 179.768 234.897H174.752V233.203C174.752 230.401 172.529 228.055 169.735 228.055H143.065C140.335 228.055 138.049 230.336 138.049 233.203V276.339C136.08 277.055 134.747 278.945 134.747 281.16V284.679C134.747 285.591 135.509 286.373 136.398 286.373H176.339C177.228 286.373 177.99 285.591 177.99 284.679V281.16C177.99 278.945 176.593 277.055 174.688 276.339V260.7H176.339C177.228 260.7 177.99 261.482 177.99 262.394V270.93C177.99 273.732 180.213 276.078 183.007 276.078C185.737 276.078 188.023 273.797 188.023 270.93V243.498C188.023 243.042 187.833 242.586 187.515 242.26L180.975 235.418ZM141.541 233.203C141.541 232.291 142.303 231.509 143.192 231.509H169.862C170.751 231.509 171.513 232.291 171.513 233.203V276.013H158.178V269.171H159.829C164.401 269.171 168.148 265.327 168.148 260.635V257.247C168.148 256.335 167.386 255.553 166.497 255.553H163.195C160.464 255.553 158.051 256.921 156.527 258.941C155.003 256.856 152.59 255.553 149.86 255.553H146.558C145.669 255.553 144.907 256.335 144.907 257.247V260.635C144.907 265.327 148.653 269.171 153.225 269.171H154.876V276.013H141.541V233.203ZM158.178 265.783V264.089C158.178 261.287 160.401 258.941 163.195 258.941H164.846V260.635C164.846 263.437 162.623 265.783 159.829 265.783H158.178ZM154.813 264.089V265.783H153.162C150.431 265.783 148.145 263.502 148.145 260.635V258.941H149.796C152.59 258.941 154.813 261.287 154.813 264.089ZM174.815 282.985H138.176V281.16C138.176 280.248 138.938 279.466 139.827 279.466H173.101C173.99 279.466 174.752 280.248 174.752 281.16V282.985H174.815ZM184.785 270.93C184.785 271.843 184.023 272.625 183.134 272.625C182.245 272.625 181.483 271.843 181.483 270.93V262.394C181.483 259.593 179.26 257.247 176.466 257.247H174.815V238.351H178.117V247.017C178.117 249.819 180.34 252.164 183.134 252.164H184.785V270.93ZM184.785 248.711H183.134C182.245 248.711 181.483 247.929 181.483 247.017V240.762L184.785 244.15V248.711ZM141.033 211.44H176.911C177.927 211.44 178.816 210.593 178.816 209.485C178.816 208.377 177.99 207.53 176.911 207.53H141.033C140.017 207.53 139.128 208.377 139.128 209.485C139.128 210.593 140.017 211.44 141.033 211.44ZM183.07 123.018C180.34 123.018 178.117 125.299 178.117 128.101C178.117 130.903 180.34 133.183 183.07 133.183C185.801 133.183 188.023 130.903 188.023 128.101C188.023 125.299 185.801 123.018 183.07 123.018ZM183.07 129.795C182.181 129.795 181.419 129.013 181.419 128.101C181.419 127.189 182.181 126.407 183.07 126.407C183.959 126.407 184.721 127.189 184.721 128.101C184.721 129.013 183.959 129.795 183.07 129.795ZM151.574 305.921C151.574 303.119 149.352 300.839 146.621 300.839C143.891 300.839 141.668 303.119 141.668 305.921C141.668 308.723 143.891 311.003 146.621 311.003C149.352 311.003 151.574 308.723 151.574 305.921ZM146.621 307.615C145.732 307.615 144.97 306.833 144.97 305.921C144.97 305.009 145.732 304.227 146.621 304.227C147.51 304.227 148.272 305.009 148.272 305.921C148.272 306.833 147.51 307.615 146.621 307.615ZM263.207 189.09L254.254 182.183C253.936 181.988 253.619 181.857 253.238 181.857H232.473V181.271C232.473 180.294 231.711 179.512 230.759 179.512H230.187V174.103C230.187 173.126 229.425 172.344 228.473 172.344H217.233C216.281 172.344 215.519 173.126 215.519 174.103V179.512H214.947C213.995 179.512 213.233 180.294 213.233 181.271V181.857H207.962C207.01 181.857 206.248 182.639 206.248 183.552V195.085C206.248 196.062 207.01 196.844 207.962 196.844H213.233V197.43C213.233 198.408 213.995 199.19 214.947 199.19H215.519V221.083H214.947C212.153 221.083 209.867 223.429 209.867 226.296V227.795H199.136C198.12 227.795 197.231 228.642 197.231 229.75C197.231 230.857 198.056 231.704 199.136 231.704H247.015C248.031 231.704 248.92 230.857 248.92 229.75C248.92 228.642 248.094 227.795 247.015 227.795H235.839V226.296C235.839 223.429 233.553 221.083 230.759 221.083H230.187V199.19H230.759C231.711 199.19 232.473 198.408 232.473 197.43V196.844H256.032V204.794C256.032 204.989 255.905 205.25 255.778 205.25C253.555 206.162 252.349 208.508 252.73 210.984C253.111 213.069 254.762 214.763 256.794 215.154C257.111 215.219 257.365 215.219 257.683 215.219C258.889 215.219 260.032 214.828 260.921 213.981C262.064 213.004 262.699 211.57 262.699 210.006C262.699 209.029 261.937 208.247 260.985 208.247C260.032 208.247 259.27 209.029 259.27 210.006C259.27 210.528 259.08 210.984 258.699 211.309C258.318 211.635 257.81 211.766 257.302 211.7C256.667 211.57 256.095 210.984 255.968 210.332C255.778 209.355 256.349 208.638 256.984 208.377C258.381 207.791 259.334 206.357 259.334 204.728V196.779H262.128C263.08 196.779 263.842 195.997 263.842 195.02V190.393C263.906 189.937 263.652 189.416 263.207 189.09ZM213.423 193.325H209.804V185.311H213.423V193.325ZM219.011 175.863H226.885V179.577H219.011V175.863ZM216.789 182.965H229.108V195.606H216.789V182.965ZM220.154 214.242L226.822 209.224V219.324L220.154 214.242ZM223.393 220.953H219.011V217.63L223.393 220.953ZM219.011 210.853V200.754L225.679 205.771L219.011 210.853ZM222.44 199.125H226.822V202.448L222.44 199.125ZM230.759 224.407C231.711 224.407 232.473 225.188 232.473 226.101V227.599H213.423V226.101C213.423 225.123 214.185 224.407 215.138 224.407H230.759ZM232.473 185.311H236.283L232.473 190.198V185.311ZM234.315 193.325L239.776 186.288L245.237 193.325H234.315ZM248.221 191.696L243.268 185.311H250.761L248.221 191.696ZM260.54 193.325H251.269L254 186.288L260.54 191.306V193.325ZM268.859 245.062H256.159V248.32H253.111V239.524L233.553 247.603C232.6 247.994 231.965 248.972 231.965 250.079C231.965 251.187 232.6 252.099 233.553 252.555L234.759 253.077H211.201V264.545H217.614V269.106H211.201V280.574H253.111V272.559H259.524V261.091H253.111V251.773H256.159V255.031H268.859V245.062ZM249.745 244.671V255.422L236.728 250.079L249.745 244.671ZM240.22 260.961V256.4H243.141L249.682 259.071V260.896H240.22V260.961ZM243.268 264.48V269.041H233.807V264.48H243.268ZM227.393 256.465H236.855V261.026H227.393V256.465ZM230.441 264.48V269.041H220.98V264.48H230.441ZM214.566 260.961V256.4H224.028V260.961H214.566ZM224.028 277.055H214.566V272.494H224.028V277.055ZM236.855 277.055H227.393V272.494H236.855V277.055ZM249.745 277.055H240.284V272.494H249.745V277.055ZM256.159 264.48V269.041H246.697V264.48H256.159ZM265.493 251.578H259.524V248.516H265.493V251.578ZM67.7544 78.9706C67.1829 78.9706 66.6749 79.2312 66.3574 79.7525L59.6264 90.1129C59.3089 90.6341 59.2454 91.3509 59.5629 91.8722C59.8804 92.4586 60.4519 92.7844 61.0234 92.7844H66.1034V110.768C66.1034 111.746 66.8654 112.528 67.8179 112.528H108.458C109.41 112.528 110.172 111.746 110.172 110.768V92.7844H115.252C115.887 92.7844 116.459 92.4586 116.713 91.8722C117.03 91.2857 116.967 90.6341 116.649 90.1129L109.791 79.7525C109.474 79.2964 108.966 78.9706 108.394 78.9706H67.7544ZM64.1984 89.331L68.7069 82.4241H84.9629L80.4544 89.331H64.1984ZM86.4234 109.074H69.4689V92.7844H81.3434C81.9149 92.7844 82.4229 92.5238 82.7404 92.0025L86.3599 86.3988V109.074H86.4234ZM106.743 109.074H89.7889V86.3988L93.4084 92.0025C93.7259 92.4586 94.2339 92.7844 94.8054 92.7844H106.68V109.074H106.743ZM112.014 89.331H95.7579L91.2494 82.4241H107.505L112.014 89.331ZM355.219 319.995L351.853 309.57H333.756V335.569C334.01 341.368 338.645 345.994 344.297 345.994C348.805 345.994 352.615 343.127 354.139 339.022H360.807C360.807 342.866 363.855 345.994 367.601 345.994C371.348 345.994 374.396 342.866 374.396 339.022C374.396 337.263 373.761 335.699 372.681 334.461V325.273L367.474 319.93H364.236V309.505C364.236 306.638 361.95 304.292 359.156 304.292H357.441V307.745H359.156C360.108 307.745 360.87 308.527 360.87 309.505V319.93H355.219V319.995ZM337.058 313.023H342.138V324.491C340.169 324.882 338.455 325.86 337.058 327.163V313.023ZM344.233 342.541C340.296 342.541 337.058 339.217 337.058 335.178C337.058 331.138 340.296 327.815 344.233 327.815C348.17 327.815 351.409 331.138 351.409 335.178C351.409 339.217 348.234 342.541 344.233 342.541ZM348.805 325.404C347.789 324.882 346.71 324.557 345.503 324.426V313.023H349.377L352.044 321.299L348.805 325.404ZM370.903 339.087C370.903 340.977 369.379 342.541 367.538 342.541C365.696 342.541 364.172 340.977 364.172 339.087C364.172 337.198 365.696 335.634 367.538 335.634C369.379 335.634 370.903 337.198 370.903 339.087ZM365.95 323.449L368.49 326.055H364.109V329.509H369.189V332.311C368.617 332.18 368.109 332.05 367.474 332.05C364.998 332.05 362.775 333.418 361.632 335.503H354.774C354.774 335.373 354.774 335.243 354.774 335.047C354.774 331.985 353.504 329.248 351.536 327.228L354.711 323.319H365.95V323.449ZM328.993 88.1581C330.009 88.1581 330.898 87.311 330.898 86.2033C330.898 85.0956 330.073 84.2485 328.993 84.2485H317.309V72.5198C317.309 71.5424 316.547 70.8257 315.658 70.8257H281.94C280.987 70.8257 280.289 71.6076 280.289 72.5198V81.1209H274.32C272.161 81.1209 270.256 82.5544 269.557 84.6395L267.208 91.9373L262.953 94.0876C261.239 94.9998 260.159 96.7591 260.159 98.7139V110.377C260.159 111.355 260.921 112.072 261.81 112.072H267.144C267.843 114.092 269.684 115.525 271.907 115.525C274.066 115.525 275.971 114.092 276.669 112.072H300.799C301.498 114.092 303.339 115.525 305.562 115.525C307.784 115.525 309.626 114.092 310.324 112.072H315.785C316.738 112.072 317.436 111.29 317.436 110.377V96.1075H322.516C323.532 96.1075 324.421 95.2605 324.421 94.1528C324.421 93.0451 323.596 92.198 322.516 92.198H317.436V88.1581H328.993ZM271.843 112.137C270.891 112.137 270.192 111.355 270.192 110.443C270.192 109.465 270.954 108.748 271.843 108.748C272.732 108.748 273.494 109.53 273.494 110.443C273.558 111.355 272.796 112.137 271.843 112.137ZM276.606 108.683C275.907 106.663 274.066 105.23 271.843 105.23C269.684 105.23 267.779 106.663 267.081 108.683H263.461V105.23H265.112C266.065 105.23 266.763 104.448 266.763 103.536C266.763 102.623 266.001 101.842 265.112 101.842H263.461V98.7791C263.461 98.1275 263.842 97.5411 264.414 97.2153L268.922 94.9347H280.289V108.683H276.606ZM280.225 91.4812H270.827L272.669 85.7472C272.923 85.0304 273.558 84.5743 274.256 84.5743H280.225V91.4812ZM305.498 112.137C304.546 112.137 303.847 111.355 303.847 110.443C303.847 109.465 304.609 108.748 305.498 108.748C306.387 108.748 307.149 109.53 307.149 110.443C307.149 111.355 306.387 112.137 305.498 112.137ZM314.007 108.683H310.261C309.562 106.663 307.721 105.23 305.498 105.23C303.276 105.23 301.434 106.663 300.736 108.683H283.591V74.2791H314.007V108.683ZM134.874 27.8856H150.622C152.463 27.8856 154.178 27.5598 155.702 26.9082C157.289 26.2566 158.559 25.2792 159.448 23.976C160.401 22.6728 160.909 21.1742 160.909 19.5452C160.909 17.9162 160.401 16.4827 159.448 15.1795C158.559 14.0066 157.289 13.0944 155.702 12.4428C154.241 11.8564 152.527 11.5306 150.685 11.5306H136.842V6.77392H157.48C158.496 6.77392 159.385 5.92685 159.385 4.81914C159.385 3.71143 158.559 2.86436 157.48 2.86436H135.001C133.985 2.86436 133.096 3.71143 133.096 4.81914V25.9308C132.969 27.0385 133.858 27.8856 134.874 27.8856ZM150.622 15.4401C152.019 15.4401 153.225 15.6356 154.241 16.0917C155.194 16.4827 155.956 17.004 156.4 17.6556C156.845 18.242 157.035 18.8284 157.035 19.6103C157.035 20.3923 156.781 21.109 156.337 21.7606C155.829 22.4774 155.13 22.9986 154.178 23.3896C153.162 23.8457 151.892 24.0412 150.558 24.0412H136.715V15.4401H150.622ZM293.497 92.5889L292.798 96.6288C292.671 97.2804 292.925 97.932 293.497 98.323C294.005 98.7139 294.703 98.7791 295.275 98.4533L298.831 96.5637L302.387 98.4533C302.958 98.7791 303.657 98.7139 304.165 98.323C304.673 97.932 304.927 97.2804 304.863 96.6288L304.165 92.5889L307.022 89.7219C307.467 89.2658 307.657 88.5491 307.467 87.9626C307.276 87.311 306.768 86.8549 306.133 86.7897L302.196 86.2033L300.418 82.5544C300.164 81.9679 299.529 81.577 298.894 81.577C298.259 81.577 297.688 81.9679 297.37 82.5544L295.592 86.2033L291.655 86.7897C291.02 86.8549 290.512 87.311 290.322 87.9626C290.131 88.6142 290.258 89.2658 290.766 89.7219L293.497 92.5889ZM296.862 89.4613C297.434 89.3961 297.878 89.0052 298.132 88.549L298.767 87.1807L299.402 88.549C299.656 89.0703 300.101 89.3961 300.672 89.4613L302.133 89.6568L301.053 90.6993C300.672 91.0903 300.482 91.6767 300.545 92.198L300.799 93.6966L299.529 92.9799C299.275 92.8496 299.021 92.7844 298.767 92.7844C298.513 92.7844 298.259 92.8496 298.005 92.9799L296.735 93.6966L296.989 92.198C297.053 91.6115 296.926 91.0903 296.481 90.6993L295.402 89.6568L296.862 89.4613ZM115.887 60.335V68.1541C115.887 69.1967 116.713 70.1089 117.792 70.1089H125.412C126.428 70.1089 127.317 69.2618 127.317 68.1541V60.335C127.317 59.2924 126.492 58.3802 125.412 58.3802H117.792C116.713 58.4454 115.887 59.2924 115.887 60.335ZM119.634 62.2898H123.444V66.1993H119.634V62.2898ZM116.332 25.9308C116.205 26.9734 116.903 27.9507 117.919 28.1462C117.983 28.1462 118.11 28.1462 118.173 28.1462C119.062 28.1462 119.888 27.4295 120.015 26.5172C120.777 21.4348 119.507 16.3524 116.586 12.1822C115.951 11.3351 114.808 11.1396 113.982 11.7912C113.157 12.4428 112.966 13.6157 113.601 14.4627C115.951 17.7859 116.967 21.8909 116.332 25.9308ZM374.84 272.234L376.047 266.434C376.047 266.369 376.047 266.369 376.11 266.174C376.174 265.457 375.729 264.545 374.777 264.284L369.189 262.916C368.236 262.655 367.347 263.242 367.093 264.219C366.839 265.196 367.411 266.109 368.363 266.369L369.951 266.76L364.49 270.605L352.107 257.703C351.599 257.442 351.028 257.377 350.52 257.638L335.407 268.715L330.136 263.502C329.311 262.981 328.231 263.242 327.723 264.089C327.215 264.936 327.469 266.043 328.295 266.565L334.391 272.299C334.899 272.625 335.534 272.69 336.042 272.429L351.155 261.352L363.664 274.319C364.109 274.579 364.744 274.71 365.442 274.319L371.856 269.888L371.475 271.647C371.03 273.797 374.205 274.449 374.84 272.234ZM165.798 12.8338C165.544 13.4202 165.417 14.0718 165.417 14.7234C165.417 17.1343 167.005 19.1542 169.164 19.7407C168.91 20.3271 168.783 20.9787 168.783 21.6303C168.783 24.4973 171.069 26.843 173.863 26.843H185.293L189.611 31.2739C191.198 32.9029 193.357 33.8151 195.58 33.8151H214.312C215.265 33.8151 216.027 33.0332 216.027 32.0558V18.242C216.027 17.2646 215.265 16.4827 214.312 16.4827H212.788C205.994 16.4827 204.47 16.222 203.708 15.8311L190.119 4.42818C189.357 3.77659 187.452 3.05984 185.547 3.05984H167.132C164.211 3.05984 162.052 5.14494 162.052 7.94679C162.052 10.2925 163.576 12.2473 165.798 12.8338ZM168.783 14.7885C168.783 13.8111 169.545 13.0292 170.497 13.0292H180.657C181.102 13.0292 181.546 13.2247 181.864 13.5505C181.356 13.8111 180.848 14.1369 180.467 14.5931C179.895 15.1795 179.514 15.8311 179.26 16.5478H170.497C169.545 16.4827 168.783 15.7008 168.783 14.7885ZM173.863 23.4547C172.91 23.4547 172.148 22.6728 172.148 21.6954C172.148 20.718 172.91 19.9361 173.863 19.9361H179.197C179.451 20.6529 179.832 21.3045 180.403 21.8909L181.864 23.3896H173.863V23.4547ZM208.28 19.9361C209.486 20.0013 210.883 20.0013 212.598 20.0013V30.4268H208.28V19.9361ZM167.132 6.51329H185.547C186.436 6.51329 187.325 6.77392 188.087 7.16488C202.565 19.2845 201.676 18.5678 201.866 18.6981C202.501 19.0891 203.073 19.3497 204.533 19.6103V30.3616H195.58C194.246 30.3616 192.976 29.8404 191.96 28.863C190.881 27.7553 183.705 20.3923 182.816 19.48C182.181 18.8284 182.181 17.7207 182.816 17.004C183.451 16.3524 184.531 16.3524 185.229 17.004L191.008 22.9335C191.643 23.5851 192.722 23.5851 193.421 22.9335C194.056 22.2819 194.056 21.1742 193.421 20.4574L184.277 11.0744C183.324 10.0971 182.054 9.57578 180.721 9.57578C180.721 9.57578 168.973 9.57578 167.195 9.57578C166.243 9.57578 165.481 8.85903 165.481 7.94679C165.417 6.90424 166.306 6.51329 167.132 6.51329ZM66.7384 26.1263L76.2634 26.1914L83.9469 34.0757V34.1409H74.5489C74.5489 34.1409 74.4854 34.1409 74.4854 34.2061V60.9214C74.4854 60.9214 74.4854 60.9866 74.5489 60.9866H101.727C101.727 60.9866 101.79 60.9866 101.79 60.9214V34.1409C101.79 34.1409 101.79 34.0757 101.727 34.0757H92.3289C92.2654 34.0757 92.2654 34.0106 92.3289 34.0106L100.012 26.1263H109.474C109.474 26.1263 109.537 26.1263 109.537 26.0611V24.367C109.537 12.508 100.52 2.34308 88.9634 1.88696C76.8349 1.43085 66.8654 11.4002 66.8654 23.7805V26.1263H66.7384ZM81.0894 26.2566V26.1914H86.2964C86.2964 26.1914 86.3599 26.1914 86.3599 26.2566V31.5997C86.3599 31.6648 86.2964 31.6648 86.2964 31.5997L81.0894 26.2566ZM93.0909 45.6741L93.1544 37.6595C93.1544 37.6595 93.1544 37.5943 93.2179 37.5943H98.3614C98.3614 37.5943 98.4249 37.5943 98.4249 37.6595V57.468C98.4249 57.468 98.4249 57.5331 98.3614 57.5331H77.9144C77.9144 57.5331 77.8509 57.5331 77.8509 57.468V37.6595C77.8509 37.6595 77.8509 37.5943 77.9144 37.5943H83.0579C83.0579 37.5943 83.1214 37.5943 83.1214 37.6595V45.609C83.1214 45.609 83.1214 45.6741 83.1849 45.6741H93.0909ZM106.045 22.6728C105.981 22.6728 105.981 22.6728 106.045 22.6728L99.6949 22.738C99.6949 22.738 99.6949 22.738 99.6314 22.6728C99.5044 17.4601 98.4249 12.5731 96.5834 8.85903C96.2659 8.27259 95.9484 7.68616 95.6309 7.16488C101.473 9.90158 105.6 15.7659 106.045 22.6728ZM89.7889 5.99201C89.7889 5.99201 89.8524 5.99201 89.8524 5.92685C91.1859 6.64361 92.5194 8.20743 93.5989 10.4229C95.1864 13.6808 96.1389 18.0465 96.2659 22.6728C96.2659 22.6728 96.2659 22.6728 96.2024 22.738H89.7889C89.7889 22.738 89.7254 22.738 89.7254 22.6728V5.99201H89.7889ZM89.7889 26.1914H94.9959C94.9959 26.2566 94.9959 26.2566 94.9959 26.2566L89.7889 31.5997H89.7254L89.7889 26.1914ZM89.7254 37.5943L89.7889 42.1555C89.7889 42.1555 89.7889 42.2207 89.7254 42.2207H86.4234C86.4234 42.2207 86.3599 42.2207 86.3599 42.1555V37.6595C86.3599 37.6595 86.3599 37.5943 86.4234 37.5943H89.7254ZM86.3599 5.92685C86.3599 5.92685 86.4234 5.92685 86.4234 5.99201V22.6728C86.4234 22.6728 86.4234 22.738 86.3599 22.738H79.9464C79.9464 22.738 79.9464 22.738 79.8829 22.6728C80.0099 17.9814 80.9624 13.6808 82.5499 10.4229C83.6929 8.20743 84.9629 6.64361 86.3599 5.92685ZM80.5179 7.16488C80.2004 7.68616 79.8829 8.27259 79.5654 8.85903C77.7239 12.6383 76.6444 17.4601 76.5174 22.6728C76.5174 22.6728 76.5174 22.6728 76.4539 22.738H70.1674C70.1674 22.738 70.1674 22.738 70.1039 22.6728C70.6119 15.7659 74.7394 9.90158 80.5179 7.16488ZM243.459 36.617C244.348 36.617 245.11 35.9002 245.11 34.9228V32.0558L247.269 35.7699C247.586 36.2912 248.094 36.5518 248.666 36.5518C248.793 36.5518 248.983 36.5518 249.11 36.4866C249.809 36.2912 250.317 35.6396 250.317 34.8577V26.0611C250.317 25.1489 249.618 24.367 248.666 24.367C247.777 24.367 247.015 25.0837 247.015 26.0611V28.9281L244.856 25.2141C244.475 24.5625 243.713 24.2367 243.014 24.4321C242.316 24.6276 241.808 25.2792 241.808 26.0611V34.988C241.808 35.9002 242.57 36.617 243.459 36.617ZM228.092 33.1635L232.41 37.0731L230.568 42.7419C230.251 43.7193 230.378 44.7619 230.886 45.6741C231.394 46.5864 232.219 47.1728 233.235 47.4334L238.887 48.6063L240.03 54.4055C240.22 55.448 240.855 56.2951 241.744 56.8164C242.633 57.3377 243.649 57.468 244.602 57.1422L250.063 55.2526L253.873 59.6834C254.508 60.4653 255.524 60.9214 256.476 60.9214C257.492 60.9214 258.445 60.4653 259.08 59.6834L262.89 55.2526L268.351 57.1422C269.303 57.468 270.319 57.3377 271.208 56.8164C272.097 56.2951 272.669 55.448 272.923 54.4055L274.066 48.6063L279.717 47.4334C280.733 47.238 281.559 46.5864 282.067 45.6741C282.575 44.7619 282.702 43.7193 282.384 42.7419L280.543 37.0731L284.861 33.1635C285.623 32.5119 286.067 31.4694 286.067 30.492C286.067 29.4494 285.623 28.472 284.861 27.8204L280.543 23.9109L282.384 18.242C282.702 17.2646 282.575 16.222 282.067 15.3098C281.559 14.3976 280.733 13.8111 279.717 13.5505L274.066 12.3776L272.923 6.57845C272.732 5.60105 272.097 4.68882 271.208 4.16755C270.319 3.64627 269.303 3.51595 268.351 3.84175L262.89 5.73137L259.08 1.30053C258.445 0.518616 257.429 0.0625 256.476 0.0625C255.524 0.0625 254.508 0.518616 253.873 1.30053L250.063 5.73137L244.602 3.84175C243.649 3.51595 242.633 3.64627 241.744 4.16755C240.855 4.68882 240.284 5.53589 240.03 6.57845L238.887 12.3776L233.235 13.5505C232.219 13.746 231.394 14.3976 230.886 15.3098C230.378 16.222 230.251 17.2646 230.568 18.242L232.41 23.9109L228.092 27.8204C227.33 28.472 226.885 29.5146 226.885 30.492C226.885 31.4694 227.33 32.5119 228.092 33.1635ZM235.839 25.9308C236.41 25.4095 236.601 24.6276 236.347 23.8457L234.188 17.2646L240.792 15.8962C241.554 15.7659 242.125 15.1795 242.252 14.3976L243.586 7.621L249.999 9.83642C250.698 10.0971 251.523 9.83642 252.031 9.31514L256.476 4.10239L260.921 9.31514C261.429 9.90158 262.191 10.0971 262.953 9.83642L269.367 7.621L270.7 14.3976C270.827 15.1795 271.399 15.7659 272.161 15.8962L278.765 17.2646L276.606 23.8457C276.352 24.5625 276.606 25.4095 277.114 25.9308L282.194 30.492L277.114 35.0531C276.542 35.5744 276.352 36.3563 276.606 37.1382L278.765 43.7193L272.161 45.0877C271.399 45.218 270.827 45.8044 270.7 46.5864L269.367 53.3629L262.953 51.1475C262.255 50.8869 261.429 51.1475 260.921 51.6688L256.476 56.8815L252.031 51.6688C251.65 51.2778 251.142 51.0172 250.634 51.0172C250.444 51.0172 250.253 51.0172 250.063 51.1475L243.649 53.3629L242.316 46.5864C242.189 45.8044 241.617 45.218 240.855 45.0877L234.251 43.7193L236.41 37.1382C236.664 36.4215 236.41 35.5744 235.902 35.0531L230.822 30.492L235.839 25.9308ZM213.995 86.6594L222.758 95.6514C223.393 96.303 224.345 96.303 224.98 95.6514L228.282 92.2631C228.917 91.6115 228.917 90.6341 228.282 89.9826L227.901 89.5916C228.028 89.331 228.092 89.1355 228.219 88.8097L241.935 102.949C242.57 103.601 243.522 103.601 244.157 102.949L247.459 99.561C248.094 98.9094 248.094 97.932 247.459 97.2804L233.68 83.206C233.934 83.0757 234.188 82.9453 234.442 82.8802L234.823 83.2711C235.458 83.9227 236.41 83.9227 237.045 83.2711L240.347 79.8828C240.982 79.2312 240.982 78.2539 240.347 77.6023L231.584 68.6103C230.949 67.9587 229.997 67.9587 229.362 68.6103L226.06 71.9985C225.425 72.6501 225.425 73.6275 226.06 74.2791L226.441 74.6701C225.806 76.1687 224.98 77.6023 223.837 78.7751C222.694 79.8828 221.297 80.7951 219.837 81.4467L219.456 81.0557C218.821 80.4041 217.868 80.4041 217.233 81.0557L213.931 84.444C213.423 85.0304 213.423 86.0078 213.995 86.6594ZM244.157 98.4533L243.078 99.561L229.933 86.073C230.124 85.8775 230.251 85.682 230.441 85.4866C230.632 85.2911 230.822 85.0956 231.013 84.9653L244.157 98.4533ZM230.441 71.9985L237.045 78.7751L235.966 79.8828L229.362 73.1063L230.441 71.9985ZM226.06 80.9905C227.139 79.8177 228.092 78.4493 228.79 77.0158L232.156 80.4693C230.759 81.186 229.425 82.0983 228.282 83.2711C227.203 84.444 226.25 85.8123 225.552 87.2459L222.186 83.7924C223.647 83.0757 224.917 82.1634 226.06 80.9905ZM218.376 84.3788L224.98 91.1554L223.901 92.2631L217.297 85.4866L218.376 84.3788ZM58.2929 23.9109C59.3089 23.9109 60.1979 23.0638 60.1979 21.9561C60.1979 15.1795 62.7379 8.85903 67.4369 4.10239C68.1989 3.32047 68.1989 2.1476 67.4369 1.36569C66.6749 0.583776 65.5319 0.583776 64.7699 1.36569C59.4359 6.83908 56.4514 14.2021 56.4514 21.9561C56.3879 22.9986 57.2769 23.9109 58.2929 23.9109ZM12.5094 49.5837C12.2554 50.1701 12.1284 50.8869 12.1284 51.5385C12.1284 54.0145 13.7794 56.0996 16.0019 56.7512C15.7479 57.3377 15.6209 58.0544 15.6209 58.706C15.6209 61.7033 17.9704 64.1143 20.8914 64.1143H31.1149C33.7819 64.1143 36.5124 63.3975 39.4969 61.964C41.4654 60.9866 43.6244 60.5305 45.7834 60.5305H52.3874C53.3399 60.5305 54.1654 59.7486 54.1654 58.706V40.7872C54.1654 39.8098 53.4034 38.9627 52.3874 38.9627H46.8629C44.1324 38.9627 41.5924 37.855 39.6239 35.9002C37.0204 33.2287 33.5914 31.7952 29.9084 31.7952H29.5909V28.2114H38.3539C39.3064 28.2114 40.1319 27.4295 40.1319 26.3869V4.62366C40.1319 3.64627 39.3699 2.7992 38.3539 2.7992H10.4139C9.46139 2.7992 8.63589 3.58111 8.63589 4.62366V26.3869C8.63589 27.3643 9.39789 28.2114 10.4139 28.2114H19.1769V31.7952H13.9064C10.9854 31.7952 8.63589 34.2061 8.63589 37.2034C8.63589 38.5717 9.14389 39.8098 9.96939 40.7872C9.14389 41.7646 8.63589 43.0026 8.63589 44.3709C8.63589 46.847 10.2869 48.9321 12.5094 49.5837ZM24.3839 60.5305H20.8914C19.9389 60.5305 19.1134 59.7486 19.1134 58.706C19.1134 57.6635 19.8754 56.8815 20.8914 56.8815H24.3839C25.3364 56.8815 26.1619 57.6635 26.1619 58.706C26.1619 59.7486 25.3999 60.5305 24.3839 60.5305ZM29.9719 35.3789C32.7024 35.3789 35.2424 36.4866 37.2109 38.4414C39.8144 41.113 43.2434 42.5465 46.9264 42.5465H50.7364V56.8815H45.9104C43.2434 56.8815 40.5129 57.468 38.0999 58.6409C35.5599 59.8789 33.3374 60.4653 31.2419 60.4653H29.4639C29.6544 59.8789 29.7814 59.2924 29.7814 58.6409C29.7814 57.2725 29.2734 56.0345 28.4479 55.0571C29.2734 54.0797 29.7814 52.8417 29.7814 51.4733C29.7814 49.5837 28.8289 47.8895 27.3049 46.9122C27.4319 46.7818 27.5589 46.6515 27.6224 46.5212C29.6544 50.4959 33.7819 53.2326 38.4809 53.2326C39.4334 53.2326 40.2589 52.4507 40.2589 51.4082C40.2589 50.3656 39.3699 49.7792 38.4174 49.7792C33.5914 49.7792 29.6544 45.7393 29.6544 40.7872C29.6544 39.8098 28.8924 38.9627 27.8764 38.9627C26.9239 38.9627 26.0984 39.7446 26.0984 40.7872C26.0984 43.1329 24.6379 45.1528 22.6059 45.8696V35.3789H29.9719ZM22.6694 31.7952V28.2114H26.1619V31.7952H22.6694ZM12.1919 24.6276V6.38297H36.7029V24.5625H12.1919V24.6276ZM24.3839 49.7792C25.3364 49.7792 26.1619 50.5611 26.1619 51.6036C26.1619 52.6462 25.3999 53.4281 24.3839 53.4281H17.3989C16.4464 53.4281 15.6209 52.6462 15.6209 51.6036C15.6209 50.5611 16.3829 49.7792 17.3989 49.7792H24.3839ZM13.9064 35.3789H19.1769V38.9627H13.9064C12.9539 38.9627 12.1284 38.1808 12.1284 37.1382C12.1284 36.0957 12.9539 35.3789 13.9064 35.3789ZM13.9064 42.5465H19.1769V46.1302H13.9064C12.9539 46.1302 12.1284 45.3483 12.1284 44.3058C12.1284 43.2632 12.9539 42.5465 13.9064 42.5465ZM26.0984 117.089C30.2894 117.089 34.2899 115.786 37.6554 113.31L38.9254 112.397L51.9429 125.755C52.2604 126.081 52.7049 126.276 53.2129 126.276C53.7209 126.276 54.1654 126.081 54.4829 125.755C54.8004 125.429 54.9909 124.973 54.9909 124.452C54.9909 123.931 54.8004 123.475 54.4829 123.149L41.5289 109.856L42.4814 108.553C45.0214 104.969 46.3549 100.799 46.3549 96.3682C46.3549 84.9001 37.2744 75.5823 26.0984 75.5823C14.9224 75.5823 5.84189 84.9001 5.84189 96.3682C5.84189 107.771 14.9224 117.089 26.0984 117.089ZM26.0984 79.2964C35.2424 79.2964 42.7354 86.9201 42.7354 96.3682C42.7354 99.4958 41.9099 102.623 40.2589 105.295L39.0524 107.38L31.6229 99.4958L32.8294 98.1275C33.9089 96.8895 34.5439 95.3256 34.5439 93.6966C34.5439 90.1129 31.6864 87.1155 28.1304 87.1155H22.4154C20.3834 87.1155 18.7324 88.8097 18.7324 90.8948V103.796C18.7324 104.839 19.5579 105.621 20.5104 105.621C21.5264 105.621 22.2884 104.774 22.2884 103.796V90.8296H28.0669C29.5909 90.8296 30.8609 92.1328 30.8609 93.6966C30.8609 95.1953 29.7179 96.4333 28.1939 96.5637C28.1304 96.5637 28.0034 96.5637 27.9399 96.5637H25.7174C24.7014 96.5637 23.9394 97.4107 23.9394 98.3881C23.9394 99.4307 24.7649 100.213 25.7174 100.213H27.1144L36.3854 109.921L34.2899 111.159C31.7499 112.658 28.8924 113.44 26.0349 113.44C16.8909 113.44 9.39789 105.816 9.39789 96.3682C9.46139 86.9201 16.8909 79.2964 26.0984 79.2964ZM28.4479 10.6183L22.6694 16.5478L20.3834 14.2021C19.6849 13.4853 18.6054 13.4853 17.9069 14.2021C17.2084 14.9189 17.2084 16.0266 17.9069 16.7433L21.3994 20.3271C21.7169 20.6529 22.1614 20.8484 22.6059 20.8484C23.0504 20.8484 23.4949 20.6529 23.8124 20.3271L30.7974 13.1595C31.4959 12.4428 31.4959 11.3351 30.7974 10.6183C30.2259 9.96674 29.0829 9.96674 28.4479 10.6183ZM35.7504 143.153C36.7664 143.609 37.9729 143.088 38.4174 142.045C38.8619 141.002 38.3539 139.764 37.3379 139.308C36.3219 138.852 35.1154 139.373 34.6709 140.416C34.1629 141.459 34.6709 142.697 35.7504 143.153ZM16.2559 152.34H28.1304L35.3059 160.615C36.3219 161.788 38.2269 161.072 38.2269 159.508V152.275C43.3069 151.428 47.2439 146.932 47.2439 141.459C47.2439 134.421 42.1004 130.056 36.5759 130.056H16.2559C10.8584 130.056 5.58789 134.291 5.58789 141.459C5.65139 147.453 10.4139 152.34 16.2559 152.34ZM16.2559 133.444H36.5124C40.1954 133.444 43.8784 136.311 43.8784 141.459C43.8784 145.629 40.5764 149.017 36.5124 149.017C35.6234 149.017 34.8614 149.799 34.8614 150.711V155.077L30.0989 149.603C29.7814 149.212 29.3369 149.017 28.8924 149.017H16.2559C12.1919 149.017 8.88989 145.629 8.88989 141.459C8.95339 136.441 12.4459 133.444 16.2559 133.444ZM26.4159 143.283C27.5589 143.283 28.4479 142.371 28.4479 141.198C28.4479 140.025 27.5589 139.113 26.4159 139.113C25.2729 139.113 24.3839 140.025 24.3839 141.198C24.3839 142.371 25.2729 143.283 26.4159 143.283ZM16.6369 143.283C17.7799 143.088 18.5419 142.045 18.3514 140.872C18.1609 139.699 17.1449 138.917 16.0019 139.113C14.8589 139.308 14.0969 140.351 14.2874 141.524C14.4779 142.697 15.4939 143.478 16.6369 143.283Z" fill="#0018FD" fill-opacity="0.03"/>
</svg>
