<?xml version="1.0" encoding="utf-8"?><svg xmlns="http://www.w3.org/2000/svg" xmlns:xlink="http://www.w3.org/1999/xlink"><symbol fill="none" viewBox="0 0 48 48" id="bestPrice" xmlns="http://www.w3.org/2000/svg"><path d="M8 23.812v-7.63a6.003 6.003 0 013.88-5.614L28.586 4.26C31.204 3.274 34 5.206 34 8.004v6.7" stroke="#75C75A" stroke-width="2" stroke-linecap="round" stroke-linejoin="round"/><path d="M8 23.812v-7.63a6.003 6.003 0 013.88-5.614L28.586 4.26C31.204 3.274 34 5.206 34 8.004v6.7" stroke="#0FCC2D" stroke-width="2" stroke-linecap="round" stroke-linejoin="round"/><path d="M34.498 28.202a.501.501 0 00-.498.502.5.5 0 10.498-.502" stroke="#75C75A" stroke-width="2" stroke-linecap="round" stroke-linejoin="round"/><path d="M34.498 28.202a.501.501 0 00-.498.502.5.5 0 10.498-.502" stroke="#0FCC2D" stroke-width="2" stroke-linecap="round" stroke-linejoin="round"/><path d="M21.324 42H36c3.3 0 6-2.7 6-6V20.702a6 6 0 00-6-6H12c-2.21 0-4 1.79-4 4v5.812" stroke="#75C75A" stroke-width="2" stroke-linecap="round" stroke-linejoin="round"/><path d="M21.324 42H36c3.3 0 6-2.7 6-6V20.702a6 6 0 00-6-6H12c-2.21 0-4 1.79-4 4v5.812" stroke="#0FCC2D" stroke-width="2" stroke-linecap="round" stroke-linejoin="round"/><path d="M15 44C8.926 44 4 39.074 4 33s4.926-11 11-11c6.076 0 11 4.926 11 11s-4.924 11-11 11" stroke="#75C75A" stroke-width="2" stroke-linecap="round" stroke-linejoin="round"/><path d="M15 44C8.926 44 4 39.074 4 33s4.926-11 11-11c6.076 0 11 4.926 11 11s-4.924 11-11 11" stroke="#0FCC2D" stroke-width="2" stroke-linecap="round" stroke-linejoin="round"/><path d="M19.888 30.556l-6.112 6.112L10.112 33" stroke="#75C75A" stroke-width="2" stroke-linecap="round" stroke-linejoin="round"/><path d="M19.888 30.556l-6.112 6.112L10.112 33" stroke="#0FCC2D" stroke-width="2" stroke-linecap="round" stroke-linejoin="round"/></symbol><symbol fill="none" viewBox="0 0 48 48" id="clock" xmlns="http://www.w3.org/2000/svg"><path d="M12.75 24l-4.5 4.5-4.5-4.5" stroke="#75C75A" stroke-width="2" stroke-linecap="round" stroke-linejoin="round"/><path d="M12.75 24l-4.5 4.5-4.5-4.5" stroke="#0FCC2D" stroke-width="2" stroke-linecap="round" stroke-linejoin="round"/><path d="M8.25 24c0 1.388.172 2.732.47 4.03" stroke="#75C75A" stroke-width="2" stroke-linecap="round" stroke-linejoin="round"/><path d="M8.25 24c0 1.388.172 2.732.47 4.03" stroke="#0FCC2D" stroke-width="2" stroke-linecap="round" stroke-linejoin="round"/><path d="M44.25 24c0-9.942-8.058-18-18-18s-18 8.058-18 18" stroke="#75C75A" stroke-width="2" stroke-linecap="round" stroke-linejoin="round"/><path d="M44.25 24c0-9.942-8.058-18-18-18s-18 8.058-18 18" stroke="#0FCC2D" stroke-width="2" stroke-linecap="round" stroke-linejoin="round"/><path d="M26.25 42c9.942 0 18-8.058 18-18" stroke="#75C75A" stroke-width="2" stroke-linecap="round" stroke-linejoin="round"/><path d="M26.25 42c9.942 0 18-8.058 18-18" stroke="#0FCC2D" stroke-width="2" stroke-linecap="round" stroke-linejoin="round"/><path d="M11.508 34.31C14.762 38.956 20.146 42 26.25 42" stroke="#75C75A" stroke-width="2" stroke-linecap="round" stroke-linejoin="round"/><path d="M11.508 34.31C14.762 38.956 20.146 42 26.25 42" stroke="#0FCC2D" stroke-width="2" stroke-linecap="round" stroke-linejoin="round"/><path d="M32.992 29.742l-7.304-4.346V15.97" stroke="#75C75A" stroke-width="2" stroke-linecap="round" stroke-linejoin="round"/><path d="M32.992 29.742l-7.304-4.346V15.97" stroke="#0FCC2D" stroke-width="2" stroke-linecap="round" stroke-linejoin="round"/></symbol><symbol fill="none" viewBox="0 0 178 647" id="computerArrow" xmlns="http://www.w3.org/2000/svg"><path d="M169.793 646.707a.999.999 0 001.414 0l6.364-6.364a.999.999 0 10-1.414-1.414l-5.657 5.657-5.657-5.657a.999.999 0 10-1.414 1.414l6.364 6.364zM19.5 10h2.518V8H19.5v2zm7.554 0h5.035V8h-5.035v2zm10.071 0h5.036V8h-5.036v2zm10.071 0h5.036V8h-5.036v2zm10.072 0h5.036V8h-5.036v2zm10.071 0h5.036V8h-5.036v2zm10.072 0h5.035V8h-5.035v2zm10.071 0h5.036V8h-5.036v2zm10.072 0h5.035V8h-5.035v2zm10.071 0h5.036V8h-5.036v2zm10.071 0h5.036V8h-5.036v2zm10.072 0h5.036V8h-5.036v2zm10.071 0h5.036V8h-5.036v2zm10.072 0h5.035V8h-5.035v2zm10.071 0h2.518V8h-2.518v2zm2.518 0c.602 0 1.19.059 1.758.171l.388-1.962A11.057 11.057 0 00160.5 8v2zm5 1.515A9.063 9.063 0 01167.985 14l1.662-1.113a11.05 11.05 0 00-3.035-3.034l-1.112 1.662zm3.829 5.727c.112.568.171 1.156.171 1.758h2a11.1 11.1 0 00-.209-2.146l-1.962.388zM169.5 19v2.488h2V19h-2zm0 7.464v4.977h2v-4.977h-2zm0 9.953v4.976h2v-4.976h-2zm0 9.952v4.976h2V46.37h-2zm0 9.952v4.977h2V56.32h-2zm0 9.953v4.976h2v-4.976h-2zm0 9.952v4.976h2v-4.976h-2zm0 9.953v4.976h2v-4.976h-2zm0 9.952v4.976h2v-4.976h-2zm0 9.952v4.977h2v-4.977h-2zm0 9.953v4.976h2v-4.976h-2zm0 9.952v4.976h2v-4.976h-2zm0 9.952v4.977h2v-4.977h-2zm0 9.953v4.976h2v-4.976h-2zm0 9.952v4.976h2v-4.976h-2zm0 9.953v4.976h2v-4.976h-2zm0 9.952v4.976h2v-4.976h-2zm0 9.952v4.977h2v-4.977h-2zm0 9.953v4.976h2v-4.976h-2zm0 9.952v4.976h2v-4.976h-2zm0 9.953v4.976h2v-4.976h-2zm0 9.952v4.976h2v-4.976h-2zm0 9.952v4.977h2v-4.977h-2zm0 9.953v4.976h2v-4.976h-2zm0 9.952v4.976h2v-4.976h-2zm0 9.953v4.976h2v-4.976h-2zm0 9.952v4.976h2v-4.976h-2zm0 9.952v4.977h2v-4.977h-2zm0 9.953v4.976h2v-4.976h-2zm0 9.952v4.976h2v-4.976h-2zm0 9.952v4.977h2v-4.977h-2zm0 9.953v4.976h2v-4.976h-2zm0 9.952v4.976h2v-4.976h-2zm0 9.953v4.976h2v-4.976h-2zm0 9.952v4.976h2v-4.976h-2zm0 9.952v4.977h2v-4.977h-2zm0 9.953v4.976h2v-4.976h-2zm0 9.952v4.976h2v-4.976h-2zm0 9.953v4.976h2v-4.976h-2zm0 9.952v4.976h2v-4.976h-2zm0 9.952v4.977h2v-4.977h-2zm0 9.953v4.976h2v-4.976h-2zm0 9.952v4.976h2v-4.976h-2zm0 9.953v4.976h2v-4.976h-2zm0 9.952v4.976h2v-4.976h-2zm0 9.952v4.977h2v-4.977h-2zm0 9.953v4.976h2v-4.976h-2zm0 9.952v4.976h2v-4.976h-2zm0 9.953v4.976h2v-4.976h-2zm0 9.952v4.976h2v-4.976h-2zm0 9.952v4.977h2v-4.977h-2zm0 9.953v4.976h2v-4.976h-2zm0 9.952v4.976h2v-4.976h-2zm0 9.953v4.976h2v-4.976h-2zm0 9.952v4.976h2v-4.976h-2zm0 9.952v4.977h2v-4.977h-2zm0 9.953v4.976h2v-4.976h-2zm0 9.952v4.976h2v-4.976h-2zm0 9.952v4.977h2v-4.977h-2zm0 9.953v4.976h2v-4.976h-2zm0 9.952v4.976h2v-4.976h-2zm0 9.953v4.976h2v-4.976h-2zm0 9.952v4.976h2v-4.976h-2zm0 9.952V646h2v-2.488h-2z" fill="#939499"/><circle cx="10" cy="10" r="8.5" stroke="#0017FC" stroke-width="3"/><circle cx="10" cy="10" r="8.5" stroke="#384BF8" stroke-width="3"/></symbol><symbol fill="none" viewBox="0 0 86 591" id="computerArrowMobile" xmlns="http://www.w3.org/2000/svg"><path d="M67.506 589.607a1 1 0 001.102.887l8.947-.967a1 1 0 00-.215-1.989l-7.953.86-.86-7.953a1 1 0 00-1.989.215l.968 8.947zm15.284-17.861l.78.627-.78-.627zM19 10h2.333V8H19v2zm7 0h4.667V8H26v2zm9.333 0H40V8h-4.667v2zm9.334 0h4.666V8h-4.666v2zM54 10h4.667V8H54v2zm9.333 0H68V8h-4.667v2zm9.334 0H75V8h-2.333v2zM75 10c.602 0 1.19.059 1.758.171l.388-1.962A11.05 11.05 0 0075 8v2zm5 1.515A9.056 9.056 0 0182.485 14l1.662-1.113a11.056 11.056 0 00-3.035-3.034L80 11.515zm3.829 5.727A9.05 9.05 0 0184 19h2c0-.733-.072-1.45-.21-2.146l-1.961.388zM84 19v2.484h2V19h-2zm0 7.452v4.968h2v-4.968h-2zm0 9.936v4.968h2v-4.968h-2zm0 9.936v4.968h2v-4.968h-2zm0 9.936v4.968h2V56.26h-2zm0 9.936v4.968h2v-4.968h-2zm0 9.936V81.1h2v-4.968h-2zm0 9.935v4.968h2v-4.968h-2zm0 9.936v4.968h2v-4.968h-2zm0 9.936v4.968h2v-4.968h-2zm0 9.936v4.968h2v-4.968h-2zm0 9.936v4.968h2v-4.968h-2zm0 9.936v4.968h2v-4.968h-2zm0 9.936v4.968h2v-4.968h-2zm0 9.936v4.968h2v-4.968h-2zm0 9.936v4.968h2v-4.968h-2zm0 9.936v4.968h2v-4.968h-2zm0 9.936v4.968h2v-4.968h-2zm0 9.936v4.967h2v-4.967h-2zm0 9.935v4.968h2v-4.968h-2zm0 9.936v4.968h2v-4.968h-2zm0 9.936v4.968h2v-4.968h-2zm0 9.936v4.968h2v-4.968h-2zm0 9.936v4.968h2v-4.968h-2zm0 9.936v4.968h2v-4.968h-2zm0 9.936v4.968h2v-4.968h-2zm0 9.936v4.968h2v-4.968h-2zm0 9.936v4.968h2v-4.968h-2zm0 9.936v4.968h2v-4.968h-2zm0 9.936v4.967h2v-4.967h-2zm0 9.935v4.968h2v-4.968h-2zm0 9.936v4.968h2v-4.968h-2zm0 9.936v4.968h2v-4.968h-2zm0 9.936v4.968h2v-4.968h-2zm0 9.936v4.968h2v-4.968h-2zm0 9.936v4.968h2v-4.968h-2zm0 9.936v4.968h2v-4.968h-2zm0 9.936v4.968h2v-4.968h-2zm0 9.936v4.968h2v-4.968h-2zm0 9.936v4.968h2v-4.968h-2zm0 9.936v4.968h2v-4.968h-2zm0 9.936v4.967h2v-4.967h-2zm0 9.935v4.968h2v-4.968h-2zm0 9.936v4.968h2v-4.968h-2zm0 9.936v4.968h2v-4.968h-2zm0 9.936v4.968h2v-4.968h-2zm0 9.936v4.968h2v-4.968h-2zm0 9.936v4.968h2v-4.968h-2zm0 9.936v4.968h2v-4.968h-2zm0 9.936v4.968h2v-4.968h-2zm0 9.936v4.968h2v-4.968h-2zm0 9.936v4.968h2v-4.968h-2zm0 9.936v4.968h2v-4.968h-2zm0 9.936v4.967h2v-4.967h-2zm0 9.935v4.968h2v-4.968h-2zm0 9.936v2.485h2v-2.485h-2zm0 2.485a8.98 8.98 0 01-.129 1.517l1.972.337c.104-.609.157-1.229.157-1.854h-2zm-1.138 4.38c-.246.442-.53.864-.85 1.263l1.557 1.254c.392-.487.74-1.004 1.04-1.544l-1.747-.973zm-.85 1.263l-1.787 2.219 1.558 1.254 1.786-2.219-1.558-1.254zm-5.36 6.657l-3.572 4.439 1.558 1.254 3.572-4.438-1.558-1.255zm-7.145 8.878l-1.786 2.219 1.558 1.254 1.786-2.219-1.558-1.254z" fill="#939499"/><circle cx="10" cy="10" r="8.5" stroke="#0017FC" stroke-width="3"/><circle cx="10" cy="10" r="8.5" stroke="#384BF8" stroke-width="3"/></symbol><symbol fill="none" viewBox="0 0 236 716" id="computerArrowTablet" xmlns="http://www.w3.org/2000/svg"><path d="M.793 707.293a1 1 0 000 1.414l6.364 6.364a1 1 0 101.414-1.414L2.914 708l5.657-5.657a1 1 0 10-1.414-1.414l-6.364 6.364zM1.5 709h2.534v-2H1.5v2zm7.602 0h5.069v-2H9.102v2zm10.137 0h5.068v-2h-5.068v2zm10.136 0h5.068v-2h-5.068v2zm10.136 0h5.069v-2h-5.07v2zm10.137 0h5.068v-2h-5.068v2zm10.136 0h5.068v-2h-5.068v2zm10.137 0h5.068v-2H69.92v2zm10.136 0h5.068v-2h-5.068v2zm10.136 0h5.068v-2h-5.068v2zm10.137 0h5.068v-2h-5.068v2zm10.136 0h5.068v-2h-5.068v2zm10.136 0h5.068v-2h-5.068v2zm10.137 0h5.068v-2h-5.068v2zm10.136 0h5.068v-2h-5.068v2zm10.136 0h5.069v-2h-5.069v2zm10.137 0h5.068v-2h-5.068v2zm10.136 0h5.068v-2h-5.068v2zm10.136 0h5.069v-2h-5.069v2zm10.137 0h5.068v-2h-5.068v2zm10.136 0h5.068v-2h-5.068v2zm10.136 0h5.069v-2h-5.069v2zm10.137 0h2.534v-2h-2.534v2zm2.534 0c.733 0 1.451-.072 2.146-.209l-.388-1.962a9.082 9.082 0 01-1.758.171v2zm6.112-1.853a11.043 11.043 0 003.035-3.035L231.985 703a9.07 9.07 0 01-2.485 2.485l1.112 1.662zm4.679-7.001c.137-.695.209-1.413.209-2.146h-2c0 .602-.059 1.19-.171 1.758l1.962.388zM235.5 698v-2.496h-2V698h2zm0-7.489v-4.993h-2v4.993h2zm0-9.985v-4.993h-2v4.993h2zm0-9.986v-4.992h-2v4.992h2zm0-9.985v-4.993h-2v4.993h2zm0-9.985v-4.993h-2v4.993h2zm0-9.985v-4.993h-2v4.993h2zm0-9.986v-4.992h-2v4.992h2zm0-9.985v-4.993h-2v4.993h2zm0-9.985v-4.993h-2v4.993h2zm0-9.986v-4.992h-2v4.992h2zm0-9.985v-4.993h-2v4.993h2zm0-9.985v-4.993h-2v4.993h2zm0-9.985v-4.993h-2v4.993h2zm0-9.986v-4.992h-2v4.992h2zm0-9.985v-4.993h-2v4.993h2zm0-9.985v-4.993h-2v4.993h2zm0-9.986v-4.992h-2v4.992h2zm0-9.985v-4.993h-2v4.993h2zm0-9.985v-4.993h-2v4.993h2zm0-9.986v-4.992h-2v4.992h2zm0-9.985v-4.992h-2v4.992h2zm0-9.985v-4.993h-2v4.993h2zm0-9.985v-4.993h-2v4.993h2zm0-9.986v-4.992h-2v4.992h2zm0-9.985v-4.993h-2v4.993h2zm0-9.985v-4.993h-2v4.993h2zm0-9.986v-4.992h-2v4.992h2zm0-9.985v-4.992h-2v4.992h2zm0-9.985v-4.993h-2v4.993h2zm0-9.985v-4.993h-2v4.993h2zm0-9.986v-4.992h-2v4.992h2zm0-9.985v-4.993h-2v4.993h2zm0-9.985v-4.993h-2v4.993h2zm0-9.986v-4.992h-2v4.992h2zm0-9.985v-4.993h-2v4.993h2zm0-9.985v-4.993h-2v4.993h2zm0-9.985v-4.993h-2v4.993h2zm0-9.986v-4.992h-2v4.992h2zm0-9.985v-4.993h-2v4.993h2zm0-9.985v-4.993h-2v4.993h2zm0-9.986v-4.992h-2v4.992h2zm0-9.985v-4.993h-2v4.993h2zm0-9.985v-4.993h-2v4.993h2zm0-9.985v-4.993h-2v4.993h2zm0-9.986v-4.992h-2v4.992h2zm0-9.985v-4.993h-2v4.993h2zm0-9.985v-4.993h-2v4.993h2zm0-9.986v-4.992h-2v4.992h2zm0-9.985v-4.993h-2v4.993h2zm0-9.985v-4.993h-2v4.993h2zm0-9.986v-4.992h-2v4.992h2zm0-9.985v-4.993h-2v4.993h2zm0-9.985v-4.993h-2v4.993h2zm0-9.986v-4.992h-2v4.992h2zm0-9.985v-4.993h-2v4.993h2zm0-9.985v-4.993h-2v4.993h2zm0-9.986v-4.992h-2v4.992h2zm0-9.985v-4.993h-2v4.993h2zm0-9.985v-4.993h-2v4.993h2zm0-9.986v-4.992h-2v4.992h2zm0-9.985V86.4h-2v4.993h2zm0-9.985v-4.993h-2v4.993h2zm0-9.986V66.43h-2v4.992h2zm0-9.985v-4.993h-2v4.993h2zm0-9.985v-4.993h-2v4.993h2zm0-9.986v-4.992h-2v4.992h2zm0-9.985v-4.993h-2v4.993h2zm0-9.985V19h-2v2.496h2zm0-2.496a11.1 11.1 0 00-.209-2.146l-1.962.388c.112.568.171 1.156.171 1.758h2zm-1.853-6.113a11.05 11.05 0 00-3.035-3.034l-1.112 1.662A9.063 9.063 0 01231.985 14l1.662-1.113zm-7.001-4.678A11.057 11.057 0 00224.5 8v2c.602 0 1.19.059 1.758.171l.388-1.962zM224.5 8H222v2h2.5V8zM217 8h-5v2h5V8zm-10 0h-5v2h5V8zm-10 0h-5v2h5V8zm-10 0h-5v2h5V8zm-10 0h-5v2h5V8zm-10 0h-5v2h5V8zm-10 0h-5v2h5V8zm-10 0h-5v2h5V8zm-10 0h-5v2h5V8zm-10 0h-5v2h5V8zm-10 0h-5v2h5V8zm-10 0h-5v2h5V8zM97 8h-5v2h5V8zM87 8h-5v2h5V8zM77 8h-2.5v2H77V8z" fill="#939499"/><circle cx="65" cy="10" r="8.5" stroke="#0017FC" stroke-width="3"/><circle cx="65" cy="10" r="8.5" stroke="#384BF8" stroke-width="3"/></symbol><symbol fill="none" viewBox="0 0 10 12" id="fire" xmlns="http://www.w3.org/2000/svg"><path d="M9.474 7.026c-.137-1.79-.97-2.911-1.705-3.901C7.088 2.209 6.5 1.418 6.5.25a.25.25 0 00-.396-.203C5 .837 4.08 2.17 3.758 3.44c-.224.884-.253 1.879-.258 2.535-1.019-.217-1.25-1.742-1.252-1.759a.251.251 0 00-.357-.19c-.054.026-1.312.666-1.386 3.22C.5 7.33.5 7.415.5 7.5.5 9.98 2.519 12 5 12h.013A4.505 4.505 0 009.5 7.5c0-.125-.026-.474-.026-.474zM5 11.5c-.827 0-1.5-.717-1.5-1.598 0-.03 0-.06.002-.098.01-.371.08-.625.158-.793.145.311.404.597.825.597a.25.25 0 00.25-.25c0-.355.008-.766.096-1.137.08-.328.268-.678.506-.958.107.364.314.658.516.945.29.411.588.837.64 1.561.004.043.007.086.007.133 0 .88-.673 1.598-1.5 1.598z" fill="#fff"/></symbol><symbol fill="none" viewBox="0 0 66 66" id="freePlatform" xmlns="http://www.w3.org/2000/svg"><rect x="8.99" y="8.99" width="48.02" height="48.02" rx="5" stroke="#fff" stroke-width="3" stroke-linecap="round" stroke-linejoin="round"/><path clip-rule="evenodd" d="M41.003 33A8.003 8.003 0 0033 24.997v-8.004c8.84 0 16.007 7.167 16.007 16.007h-8.004z" stroke="#fff" stroke-width="3" stroke-linecap="round" stroke-linejoin="round"/><path d="M33 21.062c-.227 0-.438-.067-.667-.067-6.998 0-12.672 5.673-12.672 12.672 0 6.998 5.674 12.672 12.672 12.672 6.999 0 12.672-5.673 12.672-12.672 0-.23-.056-.443-.067-.667" stroke="#fff" stroke-width="3" stroke-linecap="round" stroke-linejoin="round"/><path d="M32.2 33.136a.667.667 0 10.005 1.334.667.667 0 00-.005-1.334" stroke="#fff" stroke-width="3" stroke-linecap="round" stroke-linejoin="round"/></symbol><symbol fill="none" viewBox="0 0 48 48" id="mail" xmlns="http://www.w3.org/2000/svg"><path d="M6.72 18.63v17.85a3.839 3.839 0 003.84 3.84h26.878a3.839 3.839 0 003.84-3.84V18.63" stroke="#75C75A" stroke-width="2" stroke-linecap="round" stroke-linejoin="round"/><path d="M6.72 18.63v17.85a3.839 3.839 0 003.84 3.84h26.878a3.839 3.839 0 003.84-3.84V18.63" stroke="#0FCC2D" stroke-width="2" stroke-linecap="round" stroke-linejoin="round"/><path d="M18.47 28.57L7.853 39.187" stroke="#75C75A" stroke-width="2" stroke-linecap="round" stroke-linejoin="round"/><path d="M18.47 28.57L7.853 39.187" stroke="#0FCC2D" stroke-width="2" stroke-linecap="round" stroke-linejoin="round"/><path d="M40.147 39.187L29.53 28.57" stroke="#75C75A" stroke-width="2" stroke-linecap="round" stroke-linejoin="round"/><path d="M40.147 39.187L29.53 28.57" stroke="#0FCC2D" stroke-width="2" stroke-linecap="round" stroke-linejoin="round"/><path d="M12.48 12.714l-4.059 2.73c-2.262 1.521-2.262 4.85 0 6.373L19.7 29.405a7.7 7.7 0 008.598 0l11.278-7.588c2.262-1.523 2.262-4.85 0-6.373l-4.055-2.73" stroke="#75C75A" stroke-width="2" stroke-linecap="round" stroke-linejoin="round"/><path d="M12.48 12.714l-4.059 2.73c-2.262 1.521-2.262 4.85 0 6.373L19.7 29.405a7.7 7.7 0 008.598 0l11.278-7.588c2.262-1.523 2.262-4.85 0-6.373l-4.055-2.73" stroke="#0FCC2D" stroke-width="2" stroke-linecap="round" stroke-linejoin="round"/><path d="M35.52 24.547V7.492c0-1.06-.86-1.92-1.92-1.92H14.4c-1.06 0-1.92.86-1.92 1.92v17.055" stroke="#75C75A" stroke-width="2" stroke-linecap="round" stroke-linejoin="round"/><path d="M35.52 24.547V7.492c0-1.06-.86-1.92-1.92-1.92H14.4c-1.06 0-1.92.86-1.92 1.92v17.055" stroke="#0FCC2D" stroke-width="2" stroke-linecap="round" stroke-linejoin="round"/><path d="M18.24 12.48h11.52" stroke="#75C75A" stroke-width="2" stroke-linecap="round" stroke-linejoin="round"/><path d="M18.24 12.48h11.52" stroke="#0FCC2D" stroke-width="2" stroke-linecap="round" stroke-linejoin="round"/><path d="M18.24 19.2h11.52" stroke="#75C75A" stroke-width="2" stroke-linecap="round" stroke-linejoin="round"/><path d="M18.24 19.2h11.52" stroke="#0FCC2D" stroke-width="2" stroke-linecap="round" stroke-linejoin="round"/></symbol><symbol fill="none" viewBox="0 0 48 48" id="noRollbacks" xmlns="http://www.w3.org/2000/svg"><path d="M15.668 24c0 1.842 3.73 3.333 8.334 3.333 4.603 0 8.333-1.491 8.333-3.333" stroke="#75C75A" stroke-width="2" stroke-linecap="round" stroke-linejoin="round"/><path d="M15.668 24c0 1.842 3.73 3.333 8.334 3.333 4.603 0 8.333-1.491 8.333-3.333" stroke="#0FCC2D" stroke-width="2" stroke-linecap="round" stroke-linejoin="round"/><path d="M15.668 17.333c0 1.842 3.73 3.334 8.334 3.334 4.603 0 8.333-1.492 8.333-3.334" stroke="#75C75A" stroke-width="2" stroke-linecap="round" stroke-linejoin="round"/><path d="M15.668 17.333c0 1.842 3.73 3.334 8.334 3.334 4.603 0 8.333-1.492 8.333-3.334" stroke="#0FCC2D" stroke-width="2" stroke-linecap="round" stroke-linejoin="round"/><path d="M24 14c-4.6 0-8.333 1.492-8.33 3.333" stroke="#75C75A" stroke-width="2" stroke-linecap="round" stroke-linejoin="round"/><path d="M24 14c-4.6 0-8.333 1.492-8.33 3.333" stroke="#0FCC2D" stroke-width="2" stroke-linecap="round" stroke-linejoin="round"/><path d="M15.668 17.333v13.334c0 1.841 3.73 3.333 8.334 3.333" stroke="#75C75A" stroke-width="2" stroke-linecap="round" stroke-linejoin="round"/><path d="M15.668 17.333v13.334c0 1.841 3.73 3.333 8.334 3.333" stroke="#0FCC2D" stroke-width="2" stroke-linecap="round" stroke-linejoin="round"/><path d="M24 14c4.6 0 8.334 1.492 8.33 3.333" stroke="#75C75A" stroke-width="2" stroke-linecap="round" stroke-linejoin="round"/><path d="M24 14c4.6 0 8.334 1.492 8.33 3.333" stroke="#0FCC2D" stroke-width="2" stroke-linecap="round" stroke-linejoin="round"/><path d="M32.334 17.333v13.334C32.334 32.508 28.604 34 24 34" stroke="#75C75A" stroke-width="2" stroke-linecap="round" stroke-linejoin="round"/><path d="M32.334 17.333v13.334C32.334 32.508 28.604 34 24 34" stroke="#0FCC2D" stroke-width="2" stroke-linecap="round" stroke-linejoin="round"/><path d="M6.528 9.074v6h6-6" stroke="#75C75A" stroke-width="2" stroke-linecap="round" stroke-linejoin="round"/><path d="M6.528 9.074v6h6-6" stroke="#0FCC2D" stroke-width="2" stroke-linecap="round" stroke-linejoin="round"/><path d="M7.604 15.074c3.166-5.802 9.32-9.74 16.396-9.74 10.31 0 18.666 8.358 18.666 18.666S34.31 42.666 24 42.666 5.334 34.308 5.334 24" stroke="#75C75A" stroke-width="2" stroke-linecap="round" stroke-linejoin="round"/><path d="M7.604 15.074c3.166-5.802 9.32-9.74 16.396-9.74 10.31 0 18.666 8.358 18.666 18.666S34.31 42.666 24 42.666 5.334 34.308 5.334 24" stroke="#0FCC2D" stroke-width="2" stroke-linecap="round" stroke-linejoin="round"/></symbol><symbol fill="none" viewBox="0 0 48 48" id="notepad" xmlns="http://www.w3.org/2000/svg"><path clip-rule="evenodd" d="M38.124 25.01a3.44 3.44 0 014.868 0v0a3.44 3.44 0 01-.002 4.868L31.442 41.416A1.997 1.997 0 0130.03 42H26v-4.03c0-.53.21-1.038.586-1.414L38.124 25.01v0z" stroke="#75C75A" stroke-width="2" stroke-linecap="round" stroke-linejoin="round"/><path clip-rule="evenodd" d="M38.124 25.01a3.44 3.44 0 014.868 0v0a3.44 3.44 0 01-.002 4.868L31.442 41.416A1.997 1.997 0 0130.03 42H26v-4.03c0-.53.21-1.038.586-1.414L38.124 25.01v0z" stroke="#0FCC2D" stroke-width="2" stroke-linecap="round" stroke-linejoin="round"/><path d="M14 18h16" stroke="#75C75A" stroke-width="2" stroke-linecap="round" stroke-linejoin="round"/><path d="M14 18h16" stroke="#0FCC2D" stroke-width="2" stroke-linecap="round" stroke-linejoin="round"/><path d="M14 26h10" stroke="#75C75A" stroke-width="2" stroke-linecap="round" stroke-linejoin="round"/><path d="M14 26h10" stroke="#0FCC2D" stroke-width="2" stroke-linecap="round" stroke-linejoin="round"/><path d="M14 34h6" stroke="#75C75A" stroke-width="2" stroke-linecap="round" stroke-linejoin="round"/><path d="M14 34h6" stroke="#0FCC2D" stroke-width="2" stroke-linecap="round" stroke-linejoin="round"/><path d="M40.44 32.44l-4.88-4.88" stroke="#75C75A" stroke-width="2" stroke-linecap="round" stroke-linejoin="round"/><path d="M40.44 32.44l-4.88-4.88" stroke="#0FCC2D" stroke-width="2" stroke-linecap="round" stroke-linejoin="round"/><path d="M38 18v-6c0-2.21-1.79-4-4-4H10c-2.21 0-4 1.79-4 4v26c0 2.21 1.79 4 4 4h8" stroke="#75C75A" stroke-width="2" stroke-linecap="round" stroke-linejoin="round"/><path d="M38 18v-6c0-2.21-1.79-4-4-4H10c-2.21 0-4 1.79-4 4v26c0 2.21 1.79 4 4 4h8" stroke="#0FCC2D" stroke-width="2" stroke-linecap="round" stroke-linejoin="round"/><path d="M30 6v4" stroke="#75C75A" stroke-width="2" stroke-linecap="round" stroke-linejoin="round"/><path d="M30 6v4" stroke="#0FCC2D" stroke-width="2" stroke-linecap="round" stroke-linejoin="round"/><path d="M22 6v4" stroke="#75C75A" stroke-width="2" stroke-linecap="round" stroke-linejoin="round"/><path d="M22 6v4" stroke="#0FCC2D" stroke-width="2" stroke-linecap="round" stroke-linejoin="round"/><path d="M14 6v4" stroke="#75C75A" stroke-width="2" stroke-linecap="round" stroke-linejoin="round"/><path d="M14 6v4" stroke="#0FCC2D" stroke-width="2" stroke-linecap="round" stroke-linejoin="round"/></symbol><symbol fill="none" viewBox="0 0 20 20" id="phone" xmlns="http://www.w3.org/2000/svg"><path clip-rule="evenodd" d="M8.856 11.144a12.634 12.634 0 01-2.638-3.809.749.749 0 01.166-.827l.819-.818c.67-.671.67-1.62.085-2.206L6.114 2.31a2 2 0 00-2.828 0l-.652.652c-.741.741-1.05 1.81-.85 2.87.494 2.613 2.012 5.474 4.46 7.923 2.45 2.449 5.31 3.967 7.924 4.461 1.06.2 2.129-.109 2.87-.85l.65-.651a2 2 0 000-2.828l-1.172-1.173a1.5 1.5 0 00-2.121 0l-.903.904a.749.749 0 01-.827.166 12.66 12.66 0 01-3.81-2.64z" stroke="#75C75A" stroke-width="1.5" stroke-linecap="round" stroke-linejoin="round"/><path clip-rule="evenodd" d="M8.856 11.144a12.634 12.634 0 01-2.638-3.809.749.749 0 01.166-.827l.819-.818c.67-.671.67-1.62.085-2.206L6.114 2.31a2 2 0 00-2.828 0l-.652.652c-.741.741-1.05 1.81-.85 2.87.494 2.613 2.012 5.474 4.46 7.923 2.45 2.449 5.31 3.967 7.924 4.461 1.06.2 2.129-.109 2.87-.85l.65-.651a2 2 0 000-2.828l-1.172-1.173a1.5 1.5 0 00-2.121 0l-.903.904a.749.749 0 01-.827.166 12.66 12.66 0 01-3.81-2.64z" stroke="#0FCC2D" stroke-width="1.5" stroke-linecap="round" stroke-linejoin="round"/></symbol><symbol fill="none" viewBox="0 0 20 20" id="signIn" xmlns="http://www.w3.org/2000/svg"><path d="M13.38 10H1" stroke="#75C75A" stroke-width="1.5" stroke-linecap="round" stroke-linejoin="round"/><path d="M13.38 10H1" stroke="#0FCC2D" stroke-width="1.5" stroke-linecap="round" stroke-linejoin="round"/><path d="M10 6.625L13.375 10 10 13.374" stroke="#75C75A" stroke-width="1.5" stroke-linecap="round" stroke-linejoin="round"/><path d="M10 6.625L13.375 10 10 13.374" stroke="#0FCC2D" stroke-width="1.5" stroke-linecap="round" stroke-linejoin="round"/><path d="M1 14.5v2.25A2.25 2.25 0 003.25 19h13.5A2.25 2.25 0 0019 16.75V3.25A2.25 2.25 0 0016.75 1H3.25A2.25 2.25 0 001 3.25V5.5" stroke="#75C75A" stroke-width="1.5" stroke-linecap="round" stroke-linejoin="round"/><path d="M1 14.5v2.25A2.25 2.25 0 003.25 19h13.5A2.25 2.25 0 0019 16.75V3.25A2.25 2.25 0 0016.75 1H3.25A2.25 2.25 0 001 3.25V5.5" stroke="#0FCC2D" stroke-width="1.5" stroke-linecap="round" stroke-linejoin="round"/></symbol><symbol fill="none" viewBox="0 0 48 48" id="speed" xmlns="http://www.w3.org/2000/svg"><path d="M20 4h8" stroke="#75C75A" stroke-width="2" stroke-linecap="round" stroke-linejoin="round"/><path d="M20 4h8" stroke="#0FCC2D" stroke-width="2" stroke-linecap="round" stroke-linejoin="round"/><path d="M35.314 14.686c6.248 6.249 6.248 16.38 0 22.628-6.249 6.248-16.38 6.248-22.628 0-6.248-6.249-6.248-16.38 0-22.628 6.249-6.248 16.38-6.248 22.628 0" stroke="#75C75A" stroke-width="2" stroke-linecap="round" stroke-linejoin="round"/><path d="M35.314 14.686c6.248 6.249 6.248 16.38 0 22.628-6.249 6.248-16.38 6.248-22.628 0-6.248-6.249-6.248-16.38 0-22.628 6.249-6.248 16.38-6.248 22.628 0" stroke="#0FCC2D" stroke-width="2" stroke-linecap="round" stroke-linejoin="round"/><path d="M23.996 25a1 1 0 10.009 2 1 1 0 00-.009-2" stroke="#75C75A" stroke-width="2" stroke-linecap="round" stroke-linejoin="round"/><path d="M23.996 25a1 1 0 10.009 2 1 1 0 00-.009-2" stroke="#0FCC2D" stroke-width="2" stroke-linecap="round" stroke-linejoin="round"/><path d="M31.072 33.072A9.977 9.977 0 0124 36c-5.522 0-10-4.478-10-10 0-.622.072-1.224.19-1.81" stroke="#75C75A" stroke-width="2" stroke-linecap="round" stroke-linejoin="round"/><path d="M31.072 33.072A9.977 9.977 0 0124 36c-5.522 0-10-4.478-10-10 0-.622.072-1.224.19-1.81" stroke="#0FCC2D" stroke-width="2" stroke-linecap="round" stroke-linejoin="round"/><path d="M16.92 18.92l6.38 6.38" stroke="#75C75A" stroke-width="2" stroke-linecap="round" stroke-linejoin="round"/><path d="M16.92 18.92l6.38 6.38" stroke="#0FCC2D" stroke-width="2" stroke-linecap="round" stroke-linejoin="round"/><path d="M40 10l-4.68 4.68" stroke="#75C75A" stroke-width="2" stroke-linecap="round" stroke-linejoin="round"/><path d="M40 10l-4.68 4.68" stroke="#0FCC2D" stroke-width="2" stroke-linecap="round" stroke-linejoin="round"/><path d="M38 8l4 4" stroke="#75C75A" stroke-width="2" stroke-linecap="round" stroke-linejoin="round"/><path d="M38 8l4 4" stroke="#0FCC2D" stroke-width="2" stroke-linecap="round" stroke-linejoin="round"/></symbol><symbol fill="none" viewBox="0 0 48 48" id="transparency" xmlns="http://www.w3.org/2000/svg"><path d="M38.242 27.758a6.006 6.006 0 01-.836 9.188c-2.006 1.408-4.808 1.408-6.814 0a6.005 6.005 0 01-.836-9.188 6 6 0 018.486 0" stroke="#75C75A" stroke-width="2" stroke-linecap="round" stroke-linejoin="round"/><path d="M38.242 27.758a6.006 6.006 0 01-.836 9.188c-2.006 1.408-4.808 1.408-6.814 0a6.005 6.005 0 01-.836-9.188 6 6 0 018.486 0" stroke="#0FCC2D" stroke-width="2" stroke-linecap="round" stroke-linejoin="round"/><path d="M42 40l-3.76-3.76" stroke="#75C75A" stroke-width="2" stroke-linecap="round" stroke-linejoin="round"/><path d="M42 40l-3.76-3.76" stroke="#0FCC2D" stroke-width="2" stroke-linecap="round" stroke-linejoin="round"/><path d="M14 26h8" stroke="#75C75A" stroke-width="2" stroke-linecap="round" stroke-linejoin="round"/><path d="M14 26h8" stroke="#0FCC2D" stroke-width="2" stroke-linecap="round" stroke-linejoin="round"/><path d="M14 18h16" stroke="#75C75A" stroke-width="2" stroke-linecap="round" stroke-linejoin="round"/><path d="M14 18h16" stroke="#0FCC2D" stroke-width="2" stroke-linecap="round" stroke-linejoin="round"/><path d="M38 20v-6a6 6 0 00-6-6H12a6 6 0 00-6 6v18a6 6 0 006 6h10" stroke="#75C75A" stroke-width="2" stroke-linecap="round" stroke-linejoin="round"/><path d="M38 20v-6a6 6 0 00-6-6H12a6 6 0 00-6 6v18a6 6 0 006 6h10" stroke="#0FCC2D" stroke-width="2" stroke-linecap="round" stroke-linejoin="round"/></symbol></svg>