<?xml version="1.0" encoding="utf-8"?>
<!-- Generator: Adobe Illustrator 23.0.3, SVG Export Plug-In . SVG Version: 6.00 Build 0)  -->
<svg version="1.1" id="Слой_1" xmlns="http://www.w3.org/2000/svg" xmlns:xlink="http://www.w3.org/1999/xlink" x="0px" y="0px"
	 width="2000px" height="2000px" viewBox="0 0 2000 2000" style="enable-background:new 0 0 2000 2000;" xml:space="preserve">
<style type="text/css">
	.st0{fill:#82AAFF;}
</style>
<g>
	<path class="st0" d="M1208,731.2c-81.5,0-157.2,25-220,67.7c32.8,19.4,54.9,55.2,54.9,96.2c0,61.7-50,111.7-111.7,111.7
		c-33.3,0-63.2-14.6-83.7-37.7c-20.3,47.4-31.6,99.5-31.6,154.3c0,216.2,146.8,360.8,363,364.2c155.4,2.4,388.5-284.1,390.9-400.6
		C1574.3,870.7,1424.2,731.2,1208,731.2z M1093.9,1123.3c-36.2,0-65.6-29.4-65.6-65.6s29.4-65.6,65.6-65.6s65.6,29.4,65.6,65.6
		S1130.1,1123.3,1093.9,1123.3z"/>
	<path class="st0" d="M1756.8,545.4h-186.9l-232.3-226.7v-0.4h-0.4l-1.2-1.2h-259L843,545.3H496.6V470H261v75.3h-9.7
		c-99.2,0-179.7,80.4-179.7,179.7v820.7c0,99.2,80.4,179.7,179.7,179.7h1505.4c99.2,0,179.7-80.4,179.7-179.7V725.1
		C1936.4,625.9,1856,545.4,1756.8,545.4z M1076.9,369.4h259v176h-259V369.4z M1652.1,1310.9c-24.3,57.4-59,109-103.3,153.2
		s-95.8,79-153.2,103.3c-59.5,25.1-122.6,37.9-187.6,37.9c-65.1,0-128.2-12.8-187.6-37.9c-57.4-24.3-109-59-153.2-103.3
		c-44.3-44.3-79-95.8-103.3-153.2c-25.1-59.5-37.9-122.6-37.9-187.6c0-65.1,12.8-128.2,37.9-187.6c24.3-57.4,59-109,103.3-153.2
		c44.3-44.3,95.8-79,153.2-103.3c59.5-25.1,122.6-37.9,187.6-37.9c65.1,0,128.2,12.8,187.6,37.9c57.4,24.3,109,59,153.2,103.3
		c44.3,44.3,79,95.8,103.3,153.2c25.1,59.5,37.9,122.6,37.9,187.6C1690,1188.4,1677.3,1251.5,1652.1,1310.9z"/>
</g>
</svg>
