<?xml version="1.0" encoding="utf-8"?>
<!-- Generator: Adobe Illustrator 23.0.3, SVG Export Plug-In . SVG Version: 6.00 Build 0)  -->
<svg version="1.1" id="Слой_1" xmlns="http://www.w3.org/2000/svg" xmlns:xlink="http://www.w3.org/1999/xlink" x="0px" y="0px"
	 width="2000px" height="2000px" viewBox="0 0 2000 2000" style="enable-background:new 0 0 2000 2000;" xml:space="preserve">
<style type="text/css">
	.st0{fill:#82AAFF;}
</style>
<g>
	<path class="st0" d="M1328.5,134.1H906.6c-149.6,0-271.3,114.2-271.3,254.5v183.2h145.8V388.5c0-64.9,56.3-117.7,125.5-117.7h421.9
		c69.2,0,125.5,52.8,125.5,117.7v1222.9c0,64.9-56.3,117.7-125.5,117.7H906.6c-69.2,0-125.5-52.8-125.5-117.7v-183.2H635.3v183.2
		c0,140.3,121.7,254.5,271.3,254.5h421.9c149.6,0,271.3-114.2,271.3-254.5V388.5C1599.8,248.2,1478.1,134.1,1328.5,134.1z"/>
	<polygon class="st0" points="941.2,1000 452.7,594.5 452.7,773.3 42.8,773.3 42.8,1226.7 452.7,1226.7 452.7,1405.5 	"/>
	<path class="st0" d="M1844.5,113.7L1152,73.1c-68.8-4-126.8,50.7-126.8,119.6v1614.6c0,70.3,60.3,125.5,130.4,119.3l692.5-61.6
		c61.8-5.5,109.2-57.3,109.2-119.3V233.2C1957.2,169.8,1907.8,117.4,1844.5,113.7z M1190,1135.6c-52.2,0-94.5-60.6-94.5-135.4
		s42.3-135.4,94.5-135.4s94.5,60.6,94.5,135.4C1284.4,1075,1242.1,1135.6,1190,1135.6z"/>
</g>
</svg>
