<svg id="Layer_1" data-name="Layer 1" xmlns="http://www.w3.org/2000/svg" viewBox="0 0 1180.21 426.58"><defs><style>.cls-1{fill:#35e000;}.cls-2{fill:#0018fd;}</style></defs><path class="cls-1" d="M402.85,419.73a14.51,14.51,0,0,1-10.3-4.26l-105-105-10.29,7.21a162.15,162.15,0,0,1-93.49,29.52c-90.09,0-163.38-73.29-163.38-163.38S93.69,20.45,183.78,20.45,347.16,93.74,347.16,183.83a161.93,161.93,0,0,1-31.25,95.93l-7.54,10.35L413.14,394.88a14.56,14.56,0,0,1-10.29,24.85ZM183.78,49.56c-74,0-134.26,60.23-134.26,134.27S109.75,318.1,183.78,318.1s134.27-60.24,134.27-134.27S257.82,49.56,183.78,49.56Z"/><path d="M786,397.22l1-1.13c.38-.44.85-1,1.42-1.58a16.23,16.23,0,0,0,.61-2.3c.19-.91.35-2,.48-3.22s.33-2.35.52-3.29.35-1.69.51-2.26l2.31-7.22c.55-1.7.87-2.71,1-3a47.61,47.61,0,0,1,2.29-5.37,37.26,37.26,0,0,1,2.43-4.11l.63-.71c.22-.25.47-.52.76-.81.81-.37,1.57-.74,2.28-1.09a7.83,7.83,0,0,1,1.2-.43,4.63,4.63,0,0,1,1.21-.16,1.55,1.55,0,0,1,1.42.87,5.5,5.5,0,0,1,.5,2.63,11.32,11.32,0,0,1-.3,2.43c-.2.89-.48,1.86-.83,2.92-.53,1.5-.93,2.69-1.22,3.58s-.46,1.45-.53,1.67a7.88,7.88,0,0,1-.63,1.75q-.5,1.06-1.32,2.58c-.68,1.3-1.21,2.3-1.6,3s-.61,1.12-.68,1.25l-.48.48-.51.51V385a1.71,1.71,0,0,1-.33.56c-.37.73-.87,1.63-1.5,2.71s-1.41,2.31-2.33,3.7a12.53,12.53,0,0,0-1.19,1.92,3.46,3.46,0,0,0-.4,1.42v2.91c.11.57.24,1.13.37,1.7s.26,1.1.39,1.63a3.16,3.16,0,0,0,.63,1.6,1.35,1.35,0,0,0,1.06.55,3.63,3.63,0,0,0,2.2-.65,3.79,3.79,0,0,0,1.3-2,4.12,4.12,0,0,1-1.37-.84,1.43,1.43,0,0,1-.48-1,4.44,4.44,0,0,0,.28-.73c.08-.26.16-.54.25-.82a2.66,2.66,0,0,1,.11-.47,2.1,2.1,0,0,0,.12-.59,22.88,22.88,0,0,1,2.78-4.18,3.32,3.32,0,0,1,2.24-1.4,4.72,4.72,0,0,1,.76.08,6.45,6.45,0,0,0,.79.08,3,3,0,0,0,.63-.11,2.71,2.71,0,0,1,.63-.12.85.85,0,0,1,.79.38,1.93,1.93,0,0,1,.23,1,6.89,6.89,0,0,1-.82,3.07,9.59,9.59,0,0,0-.83,1.89.64.64,0,0,0,.27.43,2.2,2.2,0,0,0,.41-.2,2.47,2.47,0,0,0,.41-.33,8.47,8.47,0,0,0,.41,1c.19.37.4.8.62,1.29a2,2,0,0,1,.23.41,1.12,1.12,0,0,1,.06.35,20.31,20.31,0,0,1-2.44,2.18,3.93,3.93,0,0,1-1.79.82h-.56l-.79-.05c-.31.37-.68.8-1.11,1.28s-.9,1.06-1.43,1.72l-.83.61c-.33.26-.7.57-1.12.95a7.17,7.17,0,0,1-1.9,1.4,4.36,4.36,0,0,1-1.9.44,2.94,2.94,0,0,1-.84-.11,4,4,0,0,1-1-.45,5.31,5.31,0,0,1-.84-.54c-.29-.23-.62-.5-1-.81a27.05,27.05,0,0,1-1-3.73,19.11,19.11,0,0,1-.3-3.27,1.47,1.47,0,0,0-.05-.45.75.75,0,0,0-.15-.31l-.29-.1-.23.1-.33.33c-.18-.49-.38-1-.6-1.49S786.23,397.75,786,397.22Zm15.3-26.86a.78.78,0,0,0,0-.28.52.52,0,0,0-.18-.22c-.13,0-.29.13-.46.45a5.8,5.8,0,0,0-.5,1.37,6.38,6.38,0,0,1-.59,1.55c-.31.6-.71,1.3-1.19,2.12a24.49,24.49,0,0,0-1.23,2.36c-.39.87-.79,1.81-1.19,2.82a25,25,0,0,0-1.12,3.14,9,9,0,0,0-.36,2.18l.06.3a3.79,3.79,0,0,0,.88-1.29c.41-.77.94-1.88,1.6-3.33.62-1.28,1.08-2.28,1.37-3s.48-1.21.55-1.45c.17-.6.38-1.29.63-2.08s.51-1.68.82-2.65c.22-.37.41-.69.56-1a2.32,2.32,0,0,0,.3-.52A1.39,1.39,0,0,0,801.26,370.36Z"/><path d="M805.72,397.22a17.2,17.2,0,0,1,2.33-1.92,23,23,0,0,0,2.33-1.85c.33-.4.76-.87,1.29-1.44l1.89-2a6.28,6.28,0,0,1,1.29-.93,2.69,2.69,0,0,1,1.26-.33,1.78,1.78,0,0,1,1.24.4,1.61,1.61,0,0,1,.44,1.25,14.71,14.71,0,0,1-1,4.16,14.84,14.84,0,0,0-1,4.36.6.6,0,0,0,.15.47.49.49,0,0,0,.35.13l.16,0c.42-.27.91-.6,1.47-1s1.2-.91,1.9-1.5,1.28-1.23,2.13-2.09,1.85-1.85,3-3a19.73,19.73,0,0,0,1.5-1.35c.57-.55,1.2-1.21,1.9-2a2.85,2.85,0,0,1,1.21-.92,4.86,4.86,0,0,1,1.9-.33,1.88,1.88,0,0,1,1.14.28,1,1,0,0,1,.38.84,2.14,2.14,0,0,1,0,.45c0,.14-.06.28-.08.41-.16.66-.39,1.47-.7,2.43s-.68,2.09-1.12,3.39c-.38.81-.77,1.79-1.17,2.92s-.85,2.38-1.31,3.75l.23.3a10.5,10.5,0,0,0,2.06-1.57q1.36-1.25,3.44-3.32l1.32,3-.64.64a7.39,7.39,0,0,1-1,.81,50.76,50.76,0,0,0-6.05,5,25.78,25.78,0,0,0-4,4.87q-2.22,3.65-3.69,5.92c-1,1.52-1.69,2.58-2.13,3.2a20.77,20.77,0,0,1-4.32,4.46,6.9,6.9,0,0,1-4,1.45,1.54,1.54,0,0,1-1.06-.29,1.2,1.2,0,0,1-.33-.93,2.66,2.66,0,0,1,.16-.82,3.62,3.62,0,0,1,.6-1.06,19.65,19.65,0,0,0,1.15-1.85l1-.86a2.92,2.92,0,0,0,.13-.59,3.1,3.1,0,0,1,.37-.4l.58-.53a10.22,10.22,0,0,1,1.24-2q1-1.38,2.82-3.52c.9-1.06,1.73-2,2.48-2.83l1.92-2.1c.08-.17.18-.38.28-.62a5.65,5.65,0,0,0,.24-.73c.29-.57.6-1.27.95-2.08s.75-1.77,1.23-2.87a16.65,16.65,0,0,0,.57-2.2c.15-.83.29-1.72.43-2.69a.85.85,0,0,1-.09-.35,2.62,2.62,0,0,0-.15-.61,6.88,6.88,0,0,0-1.3.89c-.47.4-1,.86-1.54,1.39a14.49,14.49,0,0,1-2.21,2.36,9.89,9.89,0,0,1-2.21,1.44,5.05,5.05,0,0,1-1.87,2.09,5,5,0,0,1-2.63.68,2.4,2.4,0,0,1-1.65-.51,2,2,0,0,1-.56-1.57,3.38,3.38,0,0,1,.05-.49,7,7,0,0,1,.15-.7c-.09-.22-.2-.53-.33-.92.09-.38.16-.8.23-1.26a5.52,5.52,0,0,0-.15-1.49c-.1-.33-.26-.49-.48-.49l-.13.07c-.24.17-.58.44-1,.79s-1,.78-1.59,1.29c-.11-.29-.25-.63-.41-1s-.34-.86-.52-1.39a1.46,1.46,0,0,0-.16-.36A.84.84,0,0,0,805.72,397.22Z"/><path d="M884.08,397.18c.48,1.08.9,2.1,1.25,3a6.55,6.55,0,0,1-1.75,1.21,15.33,15.33,0,0,1-2.54,1c-.27.06-.58.15-.94.26s-.78.22-1.24.33c-.64.05-1.41.11-2.3.2s-1.94.21-3.15.37a41.65,41.65,0,0,1-4.58,3.17,13.15,13.15,0,0,1-3.35,1.49l-.5.43a13.17,13.17,0,0,1-2.72.81c-1.07.21-2.33.39-3.79.55a2.05,2.05,0,0,1-.81-.48,9.41,9.41,0,0,1-.94-1.07c.22-.25.5-.56.83-1s.69-.85,1.09-1.38a4.24,4.24,0,0,1,1.17-1.18,4.79,4.79,0,0,1,1.74-.64,22.38,22.38,0,0,0,2.41-.66,6.65,6.65,0,0,1,.81-.55c.32-.18.67-.41,1.07-.67a8.69,8.69,0,0,0,1.59-1c.55-.44,1.15-1,1.81-1.62l2.12-2.06c.53-.52.85-.84,1-1a7.21,7.21,0,0,1,.56-.84,4.41,4.41,0,0,1,.72-.71c.31-.53.7-1.19,1.16-2s1-1.73,1.65-2.79a4.86,4.86,0,0,0,.41-.48c.17-.21.36-.43.58-.67a5,5,0,0,0,1-2.32,20.14,20.14,0,0,0,.3-3.76,7.39,7.39,0,0,0-.78-3.17,15.3,15.3,0,0,0-2.39-3.51,22.89,22.89,0,0,0-2.87-2.72,17.44,17.44,0,0,0-3.07-2c-.79-.39-1.54-.78-2.23-1.17l-1.9-1q-.46,1.65-1.17,4.56c-.47,1.94-1,4.29-1.6,7.07q-1,4.69-1.49,7.56a28.18,28.18,0,0,0-.49,3.87q-.2.82-.33,1.65L859,400.82a23.37,23.37,0,0,1-2,3.33c-.55.73-1,1.09-1.29,1.09s-.3-.12-.44-.38a6.08,6.08,0,0,1-.4-1.2l.4-1.89a3.73,3.73,0,0,1-.2-.56c.14-1.43.26-2.88.37-4.34s.24-2.93.37-4.38c.11-1.63.27-3.16.49-4.59s.47-2.76.73-4l-.4-1.69a9.13,9.13,0,0,0,.42-1.55c.12-.62.22-1.32.31-2.11.09-1,.17-1.84.23-2.47a7.31,7.31,0,0,1,.23-1.3,11.21,11.21,0,0,0,.28-1.09c.1-.44.22-1,.35-1.59a4.88,4.88,0,0,1,1.16-1.4,9.07,9.07,0,0,0,1.35-1.57,3.44,3.44,0,0,0,1-.28.54.54,0,0,0,.33-.48c0-.16-.13-.29-.38-.4a4.39,4.39,0,0,0-1.14-.26,4.65,4.65,0,0,1-.85-.09,4.07,4.07,0,0,1-1-.28l-2.71-1.32a5.55,5.55,0,0,1-1.31-.79,1.13,1.13,0,0,1-.45-.83q.19-.66.33-1.32c-.16-.44-.28-.8-.38-1.09a2.33,2.33,0,0,1-.16-.66.65.65,0,0,1,.15-.46.54.54,0,0,1,.42-.17l1.62.3.66-.22.66-.24a7.66,7.66,0,0,1,1.42.11,5.6,5.6,0,0,1,1,.25l.95.49a10.54,10.54,0,0,0,1,.47l1.06-.17a.86.86,0,0,1,.36.07,5,5,0,0,0,1,.48,9.59,9.59,0,0,0,1.29.38c.53.09,1,.18,1.35.28a4.72,4.72,0,0,1,.89.31c2.34,1.21,4.38,2.36,6.13,3.42a30.79,30.79,0,0,1,4.35,3.13,15.83,15.83,0,0,1,4,5,12.75,12.75,0,0,1,1.29,5.59,21.06,21.06,0,0,1-2.74,9.82,51.09,51.09,0,0,1-8.16,10.91,10.28,10.28,0,0,1,1.22-.43l1.75-.57c1.39-.31,2.82-.64,4.3-1a15.38,15.38,0,0,0,2.34-.86A5.35,5.35,0,0,0,884.08,397.18Z"/><path d="M883.88,397.22a8.16,8.16,0,0,1,1-1.41,13,13,0,0,1,1.59-1.47c.06-.44.13-.87.2-1.3s.11-.87.13-1.31a9.63,9.63,0,0,1,.31-1.09c.14-.41.3-.87.48-1.35s.47-1.09.81-1.82a26.4,26.4,0,0,1,1.34-2.44c.46-.51.94-1.06,1.45-1.67l1.52-1.83a8,8,0,0,1,.79-.57,7.74,7.74,0,0,0,.86-.59,6.39,6.39,0,0,1,.89-.23,5.39,5.39,0,0,1,1.09-.1,4.45,4.45,0,0,1,1.34.16,1.83,1.83,0,0,1,.85.57,2.8,2.8,0,0,1,.44.79,10.47,10.47,0,0,1,.41,1.29c.07.44.15.92.23,1.45,0-.13,0-.08-.11.17s-.19.62-.35,1.15l-.29,1.06a11.69,11.69,0,0,1-2.09,3.67,47.51,47.51,0,0,1-4.36,4.75,2.26,2.26,0,0,0-.39.58,1.71,1.71,0,0,0-.17.74,2.82,2.82,0,0,0,.25,1.23,1.71,1.71,0,0,0,.71.79,3.68,3.68,0,0,0,.84.4,12.13,12.13,0,0,0,1.37.36,10.92,10.92,0,0,0,2.35-.43,9.84,9.84,0,0,0,1.88-.79c.11-.07.29-.16.53-.28a4.15,4.15,0,0,0,.73-.48c.28.64.54,1.21.76,1.71s.39.95.53,1.33a20.6,20.6,0,0,1-3.42,2.79,5.5,5.5,0,0,1-2.83.94,3.77,3.77,0,0,1-1.2.48,7.6,7.6,0,0,1-1.61.15,5.82,5.82,0,0,1-2.16-.37A4,4,0,0,1,889,403.2a3.94,3.94,0,0,1-.66-1q-.33-.64-.69-1.53a5.2,5.2,0,0,0-.56-1.08.76.76,0,0,0-.6-.34,1,1,0,0,0-.59.24,4.37,4.37,0,0,0-.73.75,8.65,8.65,0,0,0-.46-1.23C884.52,398.55,884.23,397.94,883.88,397.22Zm10.57-10.74c-.49,0-1.14.63-2,1.9a6.2,6.2,0,0,0-1.22,2.79.36.36,0,0,0,.08.28.47.47,0,0,0,.35.09.68.68,0,0,0,.59-.38l.43-.71a9.69,9.69,0,0,0,.71-.72l.68-.74a3.65,3.65,0,0,0,.59-.92,2.23,2.23,0,0,0,.2-.93,1,1,0,0,0-.11-.48A.4.4,0,0,0,894.45,386.48Z"/><path d="M900.49,397.22a5.28,5.28,0,0,1,.35-.52l.51-.67c.22-.18.51-.43.86-.76s.75-.72,1.19-1.16l1.45-1.63,2.09-2.37,1.32-1.43,1.88-2.1a6.38,6.38,0,0,1,2-1.62,5,5,0,0,1,2.25-.53,2.05,2.05,0,0,1,1.75.75,3.55,3.55,0,0,1,.56,2.16,14.55,14.55,0,0,1-.56,2.91q-.57,2.14-1.75,5.68c-.2.44-.39.86-.56,1.25a3.52,3.52,0,0,0-.27.76,3.09,3.09,0,0,0-.06.5.82.82,0,0,0,.23.49,1.23,1.23,0,0,0,.31-.26c.1-.11.22-.24.35-.4a4.34,4.34,0,0,1,.81-1c.36-.36.8-.76,1.3-1.2a5.61,5.61,0,0,1,.78-1.11,8.56,8.56,0,0,1,1.07-1,2.7,2.7,0,0,0,.35-.43,7.85,7.85,0,0,1,.51-.62,10.86,10.86,0,0,1,1-.9c.39-.3.85-.62,1.38-.95a15.07,15.07,0,0,1,1.61-.73,3.48,3.48,0,0,1,1.23-.26,3.35,3.35,0,0,1,1.82.49,3.93,3.93,0,0,1,1.35,1.55c.45,1.37.86,2.64,1.26,3.8a4.42,4.42,0,0,0,.81,1.52,1.34,1.34,0,0,0,1,.5,1.77,1.77,0,0,0,.77-.17,2,2,0,0,0,.65-.49l1.32,3c-.38.3-.76.62-1.16.95l-1.15,1a5.43,5.43,0,0,1-1.42,1,3.48,3.48,0,0,1-1.32.28,3.35,3.35,0,0,1-1.46-.33,3.21,3.21,0,0,1-1.19-1,5.31,5.31,0,0,1-.66-1c-.26-.47-.57-1.06-.92-1.77a10.71,10.71,0,0,1-1-1.14c-.36-.47-.79-1-1.27-1.66l-.3-.1a5,5,0,0,0-1.23.59,10.62,10.62,0,0,0-1.31,1,12.36,12.36,0,0,1-2.14,1.65,1.91,1.91,0,0,0-.89.76,13.94,13.94,0,0,1-1.59,2.05c-.74.83-1.68,1.82-2.8,3-.29.29-.57.57-.86.84s-.57.55-.86.81a2.51,2.51,0,0,1-1,.51,4.53,4.53,0,0,1-1.2.15c-.89,0-1.37-.3-1.44-.91s-.15-1.21-.22-1.83c.33-.93.71-2.08,1.13-3.47s.9-3,1.44-4.86a1.39,1.39,0,0,1,.11-.44c.08-.19.17-.44.28-.74a4.69,4.69,0,0,0,.23-.75,3.07,3.07,0,0,0,.07-.54.45.45,0,0,0-.17-.37.89.89,0,0,0-.53-.13,1.62,1.62,0,0,0-.87.4,8.44,8.44,0,0,0-1.31,1.25c-.61.66-1.11,1.18-1.48,1.56a5,5,0,0,1-.76.66,6.24,6.24,0,0,0-.78.66l-1,1-.2.39a2.65,2.65,0,0,1-.42.6,8.89,8.89,0,0,0-.47-1.23C901.13,398.55,900.85,397.94,900.49,397.22Z"/><path d="M932.07,397.22l.2-.23.1-.33a21.89,21.89,0,0,1,3.14-3.19,20.82,20.82,0,0,0,3.11-3.19,2,2,0,0,1,.76-.76,1.81,1.81,0,0,1,.85-.23,3.2,3.2,0,0,1,1.95.58,2.82,2.82,0,0,1,1.06,1.73c.15.68.3,1.37.43,2.07s.24,1.39.33,2.09c.15.44.34,1.11.56,2a5.92,5.92,0,0,0,.5,1.54,1,1,0,0,0,.49.48,2,2,0,0,0,.83.15,3.84,3.84,0,0,0,1.22-.22,4.3,4.3,0,0,0,1.29-.74c.33-.29.68-.58,1-.88l1.07-.87,1.32,3a15.23,15.23,0,0,1-1.4,1.2c-.58.45-1.28,1-2.1,1.57a16.79,16.79,0,0,1-2.31,1.47,3.67,3.67,0,0,1-1.45.48q-3,0-3.9-.69c-.6-.47-1.26-1.75-2-3.87a5.54,5.54,0,0,0-.4-.63c-.18-.24-.37-.52-.59-.86a8,8,0,0,0-.7-1.13c-.2-.26-.36-.38-.49-.38a2.54,2.54,0,0,0-1.42.71,18.87,18.87,0,0,0-2.18,2.13c-.11-.29-.25-.63-.42-1s-.33-.86-.51-1.39a2,2,0,0,0-.16-.36A.87.87,0,0,0,932.07,397.22Zm13.81-26.07a1.82,1.82,0,0,1,1.21.33,1.21,1.21,0,0,1,.38,1c-.13.62-.24,1.14-.33,1.55-.22.8-.41,1.45-.58,1.95s-.29.87-.38,1.09a4.06,4.06,0,0,1-.81,1.27,5.37,5.37,0,0,1-1.24,1,7,7,0,0,1-1.27.74,1.39,1.39,0,0,1-.71.18l-1.07-.11c-.35,0-.68,0-1,0a1.58,1.58,0,0,1-.68-.89,5.37,5.37,0,0,1-.25-1.79,4.45,4.45,0,0,1,1.21-2.49,3.66,3.66,0,0,1,2.13-1.6c.37-.47.82-1,1.32-1.59a3,3,0,0,1,.86-.38A4.48,4.48,0,0,1,945.88,371.15Z"/><path d="M951,397.22l.2-.23a2.85,2.85,0,0,1,.58-1,5.45,5.45,0,0,1,1.27-1.05c.72-.46,1.29-.84,1.7-1.13a3.21,3.21,0,0,0,.74-.62,4.23,4.23,0,0,0,.4-.56c.24-.18.54-.42.89-.73s.75-.68,1.19-1.12a2.6,2.6,0,0,0,.5-.53c.17-.25.35-.52.52-.83a11.59,11.59,0,0,0,1-.76c.36-.31.79-.7,1.27-1.19s1.17-1.25,1.87-2,1.47-1.46,2.33-2.23a5.22,5.22,0,0,1,.81-.32,2.76,2.76,0,0,1,.74-.11,3.1,3.1,0,0,1,2.23.71,2.69,2.69,0,0,1,.74,2,9.48,9.48,0,0,1-.11,1.09c-.08.51-.16,1.14-.25,1.91-.31,2.23-.53,3.58-.66,4.07s-.6,2-1.39,4.56a13.56,13.56,0,0,0-.54,1.55c-.19.62-.42,1.37-.68,2.25a.73.73,0,0,0,.33.26,1.85,1.85,0,0,0,.82-.45c.4-.29.93-.74,1.59-1.33s1.38-1.25,1.82-1.62a7.8,7.8,0,0,1,.82-.66c.27.59.51,1.14.73,1.63s.41,1,.56,1.41a4.57,4.57,0,0,0-.78.59,5.67,5.67,0,0,0-.64.73l-1.6,1.05c-.61.4-1.27.83-2,1.29-.33.33-.78.74-1.34,1.21l-1.9,1.6-.63.13a5,5,0,0,1-.87,1,2.88,2.88,0,0,1-.74.46c-.36.14-.71.26-1.06.38l-1.12.38a.77.77,0,0,1-.53-.43,1.58,1.58,0,0,1-.13-.85,8.42,8.42,0,0,1-.8-2.05,10.27,10.27,0,0,1-.3-2.58c0-.18,0-.36,0-.56s0-.38.06-.53a7.12,7.12,0,0,1-.23-1,2.08,2.08,0,0,1,.76-1.64,2.59,2.59,0,0,1,1.72-.64.73.73,0,0,1,.71.51q.21.51.45.51c.15,0,.31-.3.48-.91a21.79,21.79,0,0,0,.47-2.66,26,26,0,0,0,.3-2.64c.05-.75.07-1.32.07-1.72a1,1,0,0,0-.18-.64.79.79,0,0,0-.61-.22c-.29,0-1.22.66-2.78,2s-3.74,3.29-6.54,5.91c-.09.15-.22.34-.38.56s-.36.5-.58.83a8.65,8.65,0,0,0-.46-1.23C951.61,398.55,951.32,397.94,951,397.22Z"/><path d="M1012,397.18l1.33,3a5.25,5.25,0,0,1-2,.63c-1,.17-2.4.33-4.08.46a37.91,37.91,0,0,1-5.79,4.71,23.53,23.53,0,0,1-5.73,2.78l-1.52.42A3.66,3.66,0,0,1,993,409a10.39,10.39,0,0,1-1.39-.61,6,6,0,0,1-1.22-1,1.4,1.4,0,0,1-.43-1,2.66,2.66,0,0,1,1-1.91,9.66,9.66,0,0,1,2.81-1.75c2.46-1.15,4.9-2.3,7.3-3.47a1.13,1.13,0,0,1,.76.21.75.75,0,0,1,.23.55c0,.59-.43,1.09-1.27,1.5s-1.28.7-1.28.88c.16.22.29.33.4.33.29,0,.92-.43,1.9-1.29s1.46-1.4,1.44-1.62l-.17-.76.07-.13a8.35,8.35,0,0,0,1.27-1.36,1.86,1.86,0,0,0,.41-1,4.8,4.8,0,0,0-.82-2.21,25.82,25.82,0,0,0-2.48-3.33,30.78,30.78,0,0,0-2.51-2.73c-.84-.8-1.64-1.51-2.41-2.13a7.47,7.47,0,0,1-.8-.78,4.69,4.69,0,0,1-.52-.71c-.25-.44-.44-.8-.58-1.09a2,2,0,0,0-.38-.56q-.16-.2-.45-.48c-.19-.18-.41-.4-.68-.64a4.9,4.9,0,0,1-1.07-2,11.59,11.59,0,0,1-.38-3.2,8.55,8.55,0,0,1,.35-2.43,6.81,6.81,0,0,1,1-2.1,4.31,4.31,0,0,0,.19-.46l.24-.59a12.74,12.74,0,0,1,2.57-3.36,34.31,34.31,0,0,1,4.76-3.81c.26-.13.58-.31,1-.53a13.62,13.62,0,0,0,1.25-.86,5.41,5.41,0,0,1,.88-.59,6.82,6.82,0,0,1,1.14-.5c.59-.24,1.26-.51,2-.79a24.35,24.35,0,0,1,2.74-1.26,5.46,5.46,0,0,1,1.66-.39,2,2,0,0,1,1.63.66,3,3,0,0,1,.55,1.91,9.83,9.83,0,0,1-.22,2.26,2.12,2.12,0,0,1-.58,1.18q-3.9,3.1-6.27,4.67a7.85,7.85,0,0,1-3.34,1.57,1,1,0,0,1-.73-.26,1.11,1.11,0,0,1-.26-.8c0-.59.49-1.25,1.49-2s1.47-1.26,1.45-1.64l-.3-.2a1,1,0,0,0-.38.1,3.08,3.08,0,0,0-.44.27,28,28,0,0,0-4.38,4.21,5.6,5.6,0,0,0-1.47,3.25,7,7,0,0,0,.38,2.22,11,11,0,0,0,1.11,2.31q.52.83,1.53,2.1c.67.85,1.53,1.86,2.56,3.05q2.15,2.47,3.3,3.84a18.73,18.73,0,0,0,1.29,1.42,12.92,12.92,0,0,1,1.13,1.71,6.54,6.54,0,0,1,.62,1.66,8.91,8.91,0,0,1,.24,1.55c0,.61.06,1.36.06,2.24,0,.52.08.82.23.9a2,2,0,0,0,.76.11.61.61,0,0,0,.32-.08A2.29,2.29,0,0,0,1012,397.18Z"/><path d="M1012,397.22a1.19,1.19,0,0,0,.22-.23.67.67,0,0,0,.08-.33,11.81,11.81,0,0,0,1.27-1.28c.47-.54,1-1.17,1.6-1.9s1-1.32,1.51-2,1.07-1.32,1.66-2,1-1.35,1.44-2.06,1-1.42,1.5-2.1c.88-.42,1.57-.72,2-.89a3.68,3.68,0,0,1,1-.27.93.93,0,0,1,.76.32,1.33,1.33,0,0,1,.27.9,2.73,2.73,0,0,1-.1.57c-.07.24-.15.5-.23.79-.16.44-.33.89-.53,1.35-.18.77-.39,1.54-.63,2.32s-.47,1.53-.69,2.27c-.22.95-.39,1.82-.52,2.61a14.74,14.74,0,0,0-.18,2.18,15.24,15.24,0,0,0,.18,2.75c.13.59.3.85.52.79l.82-.48,1.16-.64c.4-.42.84-.94,1.34-1.56s1.09-1.34,1.8-2.18c.39-.61.8-1.22,1.22-1.81l.54-.63a9.25,9.25,0,0,0,.58-.73,6.93,6.93,0,0,1,1.41-2.36,2.37,2.37,0,0,1,1.73-.78,3.66,3.66,0,0,1,1.37.22,1.29,1.29,0,0,1,.71.64,3.3,3.3,0,0,1,.17.8A14.51,14.51,0,0,1,1036,393a5.47,5.47,0,0,0,.15,1.06,5.36,5.36,0,0,1,.15,1,3.19,3.19,0,0,0,.43,1.84,1.53,1.53,0,0,0,1.32.61,2.71,2.71,0,0,0,.63-.1c.24-.07.48-.14.73-.23l1.32,3c-1.32.79-2.41,1.39-3.26,1.8a5.16,5.16,0,0,1-1.9.61,4.19,4.19,0,0,1-2.71-.86,5,5,0,0,1-1.55-2.54,2.55,2.55,0,0,0-.28-.8,4.63,4.63,0,0,0-.54-.79c-.2.22-.43.48-.68.79s-.52.62-.81.93c-.59.72-1.19,1.43-1.78,2.13s-1.2,1.38-1.82,2.06a8,8,0,0,1-2.33,2,4.73,4.73,0,0,1-2.2.61,3.31,3.31,0,0,1-2.44-.91,4.58,4.58,0,0,1-1.19-2.69c-.2-1.15-.33-2-.4-2.68a4.54,4.54,0,0,1,0-1.15,9.09,9.09,0,0,0-.18-1.46c-.08-.33-.19-.49-.35-.49l-.2.1-1.88,1.95a4.89,4.89,0,0,1-.33.57,8.63,8.63,0,0,1-.63.85,8.65,8.65,0,0,0-.46-1.23C1012.59,398.55,1012.3,397.94,1012,397.22Z"/><path d="M1039.44,397.22a6.57,6.57,0,0,0,.59-.81,7.74,7.74,0,0,1,.79-1l2.18-1.92a.34.34,0,0,0,.15-.26c0-.11,0-.27,0-.47a4.7,4.7,0,0,0-.1-.69,17.6,17.6,0,0,1,.3-2.54,7.47,7.47,0,0,1,.53-2.15l-.2-.63c.28-1.47.68-3.09,1.2-4.84s1.11-3.65,1.77-5.7a10.66,10.66,0,0,0,.69-1.33c.25-.54.52-1.15.83-1.84a27.33,27.33,0,0,1,1.49-3.6c.61-1.25,1.31-2.54,2.08-3.86a24.11,24.11,0,0,1,2.76-3.93,3.25,3.25,0,0,1,2.16-1.33,3.59,3.59,0,0,1,2.63.75,4.09,4.09,0,0,1,.71,2.79,11.57,11.57,0,0,1-.19,1.63,11.48,11.48,0,0,0-.18,1.67,5.18,5.18,0,0,1-.36,1.59,5.7,5.7,0,0,0-.36,1.88,1.82,1.82,0,0,1-.17.53l0,.46a11.07,11.07,0,0,1-.39,1.13c-.18.44-.41,1-.7,1.58s-.35,1.19-.59,1.92-.53,1.52-.86,2.38q-.2.33-.51.81c-.21.31-.44.67-.68,1.07a7.15,7.15,0,0,1-.33,1q-.23.56-.63,1.32a6.1,6.1,0,0,1-.53.86c-.22.31-.48.7-.79,1.19-.13.22-.27.49-.43.83s-.33.7-.53,1.12-.56.84-1,1.39-.85,1.2-1.36,1.94c-.68,1.22-1.39,2.37-2.11,3.47a7.77,7.77,0,0,0,1.27,4.84,4.54,4.54,0,0,0,3.81,1.64,6.55,6.55,0,0,0,1-.23c.56-.16,1.31-.4,2.28-.73a10.73,10.73,0,0,0,1-.74c.39-.32.85-.7,1.35-1.14l1.29,3c-.57.5-1.14,1-1.72,1.55s-1.15,1.05-1.75,1.55a8.27,8.27,0,0,1-2.08,1.31,5.44,5.44,0,0,1-2.08.44c-.35,0-.89,0-1.62-.11a16.35,16.35,0,0,0-1.65-.12,3.77,3.77,0,0,1-3.06-1.49,9.56,9.56,0,0,1-1.7-4.46,2,2,0,0,0-.18-.52,2.11,2.11,0,0,0-.41-.53c-.29.28-.62.63-1,1s-.85.85-1.4,1.36Zm15.75-25.93-.23-.14a17.06,17.06,0,0,0-2.79,3.37,6,6,0,0,0-.94,3.07,2.34,2.34,0,0,1-.22.78c-.14.36-.35.83-.64,1.41s-.72,1.43-1.09,2.24c-.42,1.24-.74,2.24-1,3a7,7,0,0,0-.33,1.65l.2.26c.2,0,.44-.22.73-.59a13.61,13.61,0,0,0,1-1.65,10.65,10.65,0,0,1,.76-1.39c.33-.53.7-1.16,1.12-1.88a21.53,21.53,0,0,0,1.68-3.74,22.37,22.37,0,0,0,1.26-3.83,7.14,7.14,0,0,1,.18-1.3C1055,372.13,1055.1,371.7,1055.19,371.29Z"/><path d="M1058.07,397.22l.13-.27.51-.66.74-.92a37.34,37.34,0,0,0,4.58-5.21,62.57,62.57,0,0,0,4.41-7,8.43,8.43,0,0,0,.59-1c.22-.39.47-.89.73-1.48a.38.38,0,0,0-.1-.3.42.42,0,0,0-.33-.1,2.77,2.77,0,0,0-.64.12,3.41,3.41,0,0,1-.68.11h-4.13l-.87,0-.88,0-.61-.28c-.19-.07-.37-.16-.55-.24a1.69,1.69,0,0,1-.61-.35.69.69,0,0,1-.21-.51,9.36,9.36,0,0,1,.44-3.24,1.48,1.48,0,0,1,1.38-1.12,15.83,15.83,0,0,1,1.73.08c.54.05,1,.13,1.44.21l.93-.19c.59,0,1.1,0,1.52.06a5.89,5.89,0,0,1,1,.17q.42-.11.84-.18l.91-.19,1.09.33c.77-.08,1.59-1.16,2.46-3.23s1.81-3.11,2.8-3.11a1.53,1.53,0,0,1,1.22.5,2.13,2.13,0,0,1,.43,1.45,6.22,6.22,0,0,1-.45,2,8.36,8.36,0,0,0-.51,1.87,1.61,1.61,0,0,0,.18.28,2.15,2.15,0,0,0,.34.34.78.78,0,0,1,.28.45,3.4,3.4,0,0,1,.08.78,19.58,19.58,0,0,1-.18,3c-.12.72-.32,1.09-.58,1.11l-2.24.46c0,.22-.1.49-.16.81s-.16.69-.27,1.11c-.37,1.1-.79,2.5-1.26,4.19s-1,3.7-1.55,6q-.54,2.78-.81,4.5a17.66,17.66,0,0,0-.29,2.31,1.5,1.5,0,0,0,.17.79.53.53,0,0,0,.49.27,5.44,5.44,0,0,0,1.44-1q1.24-1,3.45-2.84l1.29,3a10.49,10.49,0,0,1-.92.85,15.89,15.89,0,0,1-1.42,1.06c-.22.24-.5.51-.83.81s-.69.65-1.09,1-.79.88-1.17,1.32-.78.87-1.17,1.29a5.57,5.57,0,0,1-1.56,1.24,3.22,3.22,0,0,1-1.42.38,2.64,2.64,0,0,1-2.16-.86,4,4,0,0,1-.71-2.61c0-1.27,0-2.38.13-3.32a10,10,0,0,1,.43-2.26,5,5,0,0,0,.2-.46,5.18,5.18,0,0,1,.1-.9c.06-.37.14-.81.23-1.32.13-.86.27-1.71.43-2.57.24-.53.5-1.09.76-1.69,0-.11-.09-.21-.26-.3l-.33.2a12.37,12.37,0,0,1-1.29,1.67,22.32,22.32,0,0,1-1.89,1.83c-1.12,1.08-2.27,2.17-3.43,3.27a4.32,4.32,0,0,1-.37.5c-.17.22-.37.5-.59.83-.11-.27-.25-.6-.41-1s-.34-.88-.52-1.41a2,2,0,0,0-.16-.36A1,1,0,0,0,1058.07,397.22Z"/><path d="M1077.42,395.76l3-2c.11-.11.24-.26.4-.44a6.73,6.73,0,0,0,.53-.81,2.15,2.15,0,0,1,.61-.73,4.57,4.57,0,0,1,.87-.53c.18-.22.43-.49.76-.82s.75-.72,1.26-1.16c.24-.13.55-.33.92-.58a9,9,0,0,0,1.22-1,36.38,36.38,0,0,1,5.27-4.26,7.7,7.7,0,0,1,3.82-1.42,1.89,1.89,0,0,1,1.27.36,1.3,1.3,0,0,1,.41,1,2.92,2.92,0,0,1-.24,1.22,2.28,2.28,0,0,1-.78.89c-.55.4-1.15.84-1.78,1.32a16.15,16.15,0,0,1-1.29,1.47,14.87,14.87,0,0,1-1.79,1.54l-.56.76c-.11.11-.32.31-.63.59a12.93,12.93,0,0,1-1.22,1,7.88,7.88,0,0,1-1.43,1.88c-.74.77-1.73,1.7-3,2.77a11,11,0,0,0-.83,1.06l-1.55,2.18.23.3a5.84,5.84,0,0,0,1.52-.79,15.73,15.73,0,0,0,1.75-1.49l1.84-1.67a9.62,9.62,0,0,1,1-.84l.47-.27a4.3,4.3,0,0,0,.52-.33,14.33,14.33,0,0,1,2.84-2.69,4.56,4.56,0,0,1,2.45-.87,1.21,1.21,0,0,1,1.06.54,3.44,3.44,0,0,1,.43,1.64c0,1.1-.07,2.16-.07,3.17a3,3,0,0,0,.58,1.9,1.89,1.89,0,0,0,1.6.84,1.14,1.14,0,0,0,.58-.17,3.46,3.46,0,0,0,.58-.43l.44-.56.45-.53a3.45,3.45,0,0,0,.38-.23,4.11,4.11,0,0,0,.48-.39c.31.66.56,1.24.77,1.73a12.27,12.27,0,0,1,.48,1.31c-.5.46-1,.94-1.5,1.43a19,19,0,0,1-1.57,1.41,9,9,0,0,1-1.92,1.14,4.86,4.86,0,0,1-1.85.38,4.31,4.31,0,0,1-3.3-1.23,5.89,5.89,0,0,1-1.35-3.7,2.25,2.25,0,0,0-.09-.61,1.74,1.74,0,0,0-.34-.64c-.11.11-.23.23-.37.35s-.28.28-.46.48l-1.07.82-1.51,1.19c-.77.79-1.42,1.44-1.94,2l-1.13,1.09a14.48,14.48,0,0,1-1.53,1.12c-.59.38-1.24.76-2,1.16-.46.24-.86.43-1.19.58a2.13,2.13,0,0,1-.73.21,3.19,3.19,0,0,1-2.34-.77,3.31,3.31,0,0,1-.76-2.4,4,4,0,0,1,.38-1.7,5.53,5.53,0,0,1,1.14-1.57,5.69,5.69,0,0,0,.07-.69.79.79,0,0,0-.09-.35,3.21,3.21,0,0,0-.21-.41c-.13-.31-.28-.66-.45-1s-.35-.8-.54-1.24a4.76,4.76,0,0,0,.38-.52C1077,396.45,1077.2,396.14,1077.42,395.76Z"/><path d="M1101.77,397.22a4,4,0,0,1,.35-.52l.51-.67c.22-.18.51-.43.86-.76s.75-.72,1.19-1.16l1.45-1.63,2.08-2.37c.35-.37.8-.85,1.32-1.43l1.89-2.1a6.16,6.16,0,0,1,2-1.62,5,5,0,0,1,2.25-.53,2.05,2.05,0,0,1,1.75.75,3.55,3.55,0,0,1,.56,2.16,14.55,14.55,0,0,1-.56,2.91q-.57,2.14-1.75,5.68l-.57,1.25a3.43,3.43,0,0,0-.26.76,3.39,3.39,0,0,0-.07.5.88.88,0,0,0,.23.49,1.26,1.26,0,0,0,.32-.26l.35-.4a4.54,4.54,0,0,1,.8-1c.37-.36.8-.76,1.31-1.2a5.61,5.61,0,0,1,.78-1.11,7.37,7.37,0,0,1,1.07-1,3.4,3.4,0,0,0,.35-.43,7.85,7.85,0,0,1,.51-.62,10.66,10.66,0,0,1,1-.9c.4-.3.86-.62,1.39-.95a15,15,0,0,1,1.6-.73,3.57,3.57,0,0,1,1.24-.26,3.38,3.38,0,0,1,1.82.49,3.93,3.93,0,0,1,1.35,1.55c.44,1.37.86,2.64,1.26,3.8a4.42,4.42,0,0,0,.81,1.52,1.32,1.32,0,0,0,1,.5,1.79,1.79,0,0,0,.78-.17,2,2,0,0,0,.64-.49l1.33,3c-.38.3-.76.62-1.16.95l-1.16,1a5.27,5.27,0,0,1-1.42,1,3.48,3.48,0,0,1-1.32.28,3.31,3.31,0,0,1-1.45-.33,3.21,3.21,0,0,1-1.19-1,4.46,4.46,0,0,1-.66-1c-.27-.47-.57-1.06-.93-1.77a10.77,10.77,0,0,1-1-1.14c-.36-.47-.79-1-1.27-1.66l-.3-.1a5.18,5.18,0,0,0-1.24.59,11.39,11.39,0,0,0-1.3,1,12.31,12.31,0,0,1-2.15,1.65,2,2,0,0,0-.89.76,13.09,13.09,0,0,1-1.58,2.05c-.75.83-1.68,1.82-2.8,3l-.86.84c-.29.28-.57.55-.86.81a2.59,2.59,0,0,1-1,.51,4.61,4.61,0,0,1-1.21.15c-.88,0-1.36-.3-1.43-.91s-.15-1.21-.22-1.83c.33-.93.7-2.08,1.12-3.47s.9-3,1.45-4.86a1.39,1.39,0,0,1,.11-.44c.08-.19.17-.44.28-.74a4.69,4.69,0,0,0,.23-.75,3,3,0,0,0,.06-.54.44.44,0,0,0-.16-.37.91.91,0,0,0-.53-.13,1.67,1.67,0,0,0-.88.4,8.93,8.93,0,0,0-1.3,1.25c-.62.66-1.11,1.18-1.49,1.56a4.14,4.14,0,0,1-.76.66,5.59,5.59,0,0,0-.77.66l-1,1-.2.39a2.73,2.73,0,0,1-.43.6,8.65,8.65,0,0,0-.46-1.23C1102.41,398.55,1102.12,397.94,1101.77,397.22Z"/><path d="M1133.35,397.22a3.6,3.6,0,0,0,.48-.61c.17-.26.36-.54.58-.85L1137,394a15.41,15.41,0,0,1,1.42-1.43c.64-.59,1.43-1.3,2.38-2.13a3.86,3.86,0,0,1,.55-.85,7.14,7.14,0,0,1,.9-.94q.46-.42.93-.81c.31-.25.59-.5.86-.74s.64-.66.94-1,.6-.65.91-1a4.62,4.62,0,0,1,1.09-.73,2.9,2.9,0,0,1,1.22-.26,2.72,2.72,0,0,1,1.11.18.63.63,0,0,1,.41.51c-.22.51-.45,1-.69,1.52l.19.3c1-.38,1.73-.65,2.28-.83a5.21,5.21,0,0,1,1.06-.26,4.42,4.42,0,0,1,3.62,1.47,6.92,6.92,0,0,1,1.2,4.44,7.51,7.51,0,0,1-.13,1.32,11.67,11.67,0,0,1-.43,1.66,8.67,8.67,0,0,1-.71,1.65,3.69,3.69,0,0,1-.71.95,1.69,1.69,0,0,0,.3.62.55.55,0,0,0,.43.18,1,1,0,0,0,.54-.17,4.8,4.8,0,0,0,.68-.49c.22.48.44,1,.65,1.5s.42,1,.64,1.54l-1.16,1c-.37.33-.77.65-1.19,1a5.73,5.73,0,0,1-1.43.91,3.62,3.62,0,0,1-1.34.28,2,2,0,0,1-1.26-.37,2.5,2.5,0,0,1-.79-1,10.82,10.82,0,0,1-2,2,11.24,11.24,0,0,1-2.59,1.5,10.53,10.53,0,0,1-1.5.61,4,4,0,0,1-1.24.22,2.92,2.92,0,0,0-.65.13,2.92,2.92,0,0,1-.77.13,4.66,4.66,0,0,1-3.41-1.58,5,5,0,0,1-1.52-3.54,8.43,8.43,0,0,1,.37-2.1,10.44,10.44,0,0,0,.36-1.53.5.5,0,0,0-.15-.38.54.54,0,0,0-.41-.15,2.18,2.18,0,0,0-.79.49l-1.79,1.43a3.36,3.36,0,0,0-.23.39,2.73,2.73,0,0,1-.43.6c-.17-.51-.37-1-.59-1.54A14.86,14.86,0,0,0,1133.35,397.22Zm15.89-6.05a1.19,1.19,0,0,0-.48.35,4.7,4.7,0,0,0-.61.78c-.31.5-.66,1.05-1.06,1.65a3.08,3.08,0,0,1-.77.61,3.35,3.35,0,0,1-.94.31c-.22,0-.46.24-.7.65a8.47,8.47,0,0,0-.72,1.76,15.11,15.11,0,0,0-.53,1.75,5.86,5.86,0,0,0-.17,1.23,1.9,1.9,0,0,0,.46,1.38,1.94,1.94,0,0,0,1.42.47,4.91,4.91,0,0,0,2.8-.85,9,9,0,0,0,2.39-2.52l1-1.19a1.35,1.35,0,0,0,.43-.65,10.12,10.12,0,0,0,.33-1.1l.6-1.89a12.52,12.52,0,0,0-.57-1.57,1.48,1.48,0,0,0-.52-.71,3.43,3.43,0,0,0-.73-.21C1150.49,391.34,1150,391.26,1149.24,391.17Z"/><path d="M1157.24,397.22a6.3,6.3,0,0,1,.61-.91,19.16,19.16,0,0,1,1.37-1.6,17,17,0,0,0,1.53-1.74,7.3,7.3,0,0,0,.88-1.43c.26-.51.58-1.15.94-1.92s.77-1.66,1.21-2.68a9.4,9.4,0,0,1,1.42-1.07,4.88,4.88,0,0,1,1.65-.91c.28,0,.5.21.64.61a5.81,5.81,0,0,1,.22,1.87c0,1.23,0,2.26,0,3.09a10.5,10.5,0,0,1-.25,2c0,.11.09.24.13.39s.1.33.17.53-.1.45-.17.69a41.77,41.77,0,0,0,.3,5.87c.2,1.29.46,1.93.79,1.93s1-.55,1.79-1.67a41.39,41.39,0,0,0,2.8-5c1.1-2.19,1.94-4,2.51-5.37a13.72,13.72,0,0,0,1-3.16,6.56,6.56,0,0,1,1-2.79,2.13,2.13,0,0,1,1.83-.94.56.56,0,0,1,.47.18,1,1,0,0,1,.13.55,11,11,0,0,1-.35,2.69,12.09,12.09,0,0,1-1.07,2.72,5.84,5.84,0,0,1-.42,2,12.71,12.71,0,0,1-1.27,2.48,12.93,12.93,0,0,0-.46,1.75,18.36,18.36,0,0,1-1.5,3,23.28,23.28,0,0,1-1.84,3,3.51,3.51,0,0,1-.76,1.89,14.24,14.24,0,0,1-2.34,2.53c-.22.29-.45.56-.7.83s-.47.53-.69.79a2.56,2.56,0,0,1-.81.71,2.05,2.05,0,0,1-1,.25,3.07,3.07,0,0,1-2.71-1.36,7.28,7.28,0,0,1-.92-4.06c.06-.33.11-.62.13-.86a7.63,7.63,0,0,1-.33-1,8.35,8.35,0,0,1-.23-1.44c0-.7,0-1.27,0-1.71a3.13,3.13,0,0,0-.11-.9l.23-.76-.33-.19a7,7,0,0,0-1.23,1.12c-.66.68-1.59,1.68-2.8,3a12.57,12.57,0,0,0-.57-1.46C1157.78,398.32,1157.52,397.79,1157.24,397.22Z"/><path class="cls-2" d="M527.21,156.32a6.45,6.45,0,0,0-7.35-.87,58.41,58.41,0,0,1-27.8,6.86c-32.85,0-56.43-24.49-56.43-55.07,0-30.27,23.88-55.06,56.74-55.06s56.43,24.49,56.43,55.06a54.13,54.13,0,0,1-6.63,26.05,6.48,6.48,0,0,0,1.43,8.11l1.66,1.41a6.44,6.44,0,0,1,.62,9.23l-6.16,6.85a6.44,6.44,0,0,1-9.1.49Zm-25.82-22.73L494,127.34a6.45,6.45,0,0,1-.63-9.2l6.2-7a6.45,6.45,0,0,1,9.14-.49l8.48,7.67a3.72,3.72,0,0,0,6.12-2,40.72,40.72,0,0,0,1-9.15c0-18.25-13.38-33.46-32.25-33.46s-31.94,14.91-31.94,33.46c0,18.26,13.39,33.47,32.25,33.47a35.38,35.38,0,0,0,7.48-.78A3.65,3.65,0,0,0,501.39,133.59Z"/><path class="cls-2" d="M745.18,289.08a6.43,6.43,0,0,0-7.35-.87A58.4,58.4,0,0,1,710,295.07c-32.86,0-56.44-24.49-56.44-55.07,0-30.27,23.88-55.06,56.74-55.06s56.43,24.49,56.43,55.06a54,54,0,0,1-6.63,26.05,6.5,6.5,0,0,0,1.43,8.11l1.66,1.41a6.44,6.44,0,0,1,.63,9.22l-6.17,6.86a6.43,6.43,0,0,1-9.09.49Zm-25.82-22.73L712,260.1a6.44,6.44,0,0,1-.64-9.2l6.2-7a6.45,6.45,0,0,1,9.14-.49l8.48,7.67a3.72,3.72,0,0,0,6.12-2,40.72,40.72,0,0,0,1-9.15c0-18.25-13.38-33.46-32.24-33.46S678.09,221.45,678.09,240c0,18.26,13.39,33.47,32.25,33.47a35.54,35.54,0,0,0,7.49-.78A3.64,3.64,0,0,0,719.36,266.35Z"/><path class="cls-2" d="M567,114.85V60.45A6.44,6.44,0,0,1,573.45,54H584a6.44,6.44,0,0,1,6.44,6.44v53.79c0,17.34,8.67,26.32,23,26.32s23-8.67,23-25.56V60.45A6.44,6.44,0,0,1,642.82,54h10.53a6.44,6.44,0,0,1,6.45,6.44v53.64c0,32.25-18.11,48.07-46.7,48.07S567,146.19,567,114.85Z"/><path class="cls-2" d="M691.08,54H758.5A6.44,6.44,0,0,1,765,60.45v8a6.44,6.44,0,0,1-6.45,6.44H714.35a6.44,6.44,0,0,0-6.44,6.45V90a6.44,6.44,0,0,0,6.44,6.44h37.31a6.44,6.44,0,0,1,6.44,6.45v8a6.44,6.44,0,0,1-6.44,6.44H714.35a6.44,6.44,0,0,0-6.44,6.45v9.47a6.44,6.44,0,0,0,6.44,6.45h44.91a6.44,6.44,0,0,1,6.45,6.44V154a6.44,6.44,0,0,1-6.45,6.44H691.08a6.44,6.44,0,0,1-6.45-6.44V60.45A6.44,6.44,0,0,1,691.08,54Z"/><path class="cls-2" d="M787.28,139.93l5.68-6.8a6.42,6.42,0,0,1,8.63-1.15c8.2,5.81,16.91,9.34,27.12,9.34,9.58,0,15.36-3.8,15.36-10.35,0-5.93-3.65-9-21.45-13.53C801.18,112,787.33,106,787.33,84.58c0-19.32,15.52-32.1,37.27-32.1a62.21,62.21,0,0,1,34.09,9.62,6.46,6.46,0,0,1,1.87,9.12l-5,7.31a6.43,6.43,0,0,1-8.56,1.9c-7.7-4.59-15.29-7.26-22.66-7.26-9,0-13.69,4.11-13.69,9.58,0,7,4.56,9.28,23,14,21.6,5.63,33.76,13.38,33.76,32.25,0,21.14-16.12,33-39.09,33a68.09,68.09,0,0,1-39.75-12.69A6.46,6.46,0,0,1,787.28,139.93Z"/><path class="cls-2" d="M902.83,75.61h-19.5a6.45,6.45,0,0,1-6.45-6.45V60.45A6.44,6.44,0,0,1,883.33,54h75.33a6.44,6.44,0,0,1,6.45,6.44v8.71a6.45,6.45,0,0,1-6.45,6.45H939.15a6.44,6.44,0,0,0-6.44,6.44v72a6.44,6.44,0,0,1-6.45,6.44H915.73a6.44,6.44,0,0,1-6.45-6.44v-72A6.44,6.44,0,0,0,902.83,75.61Z"/><path class="cls-2" d="M446.43,193.33a6.44,6.44,0,0,1,6.45-6.44h42.23c13.53,0,24,3.8,31,10.79,5.93,5.94,9.12,14.3,9.12,24.65,0,14.32-6.44,24.21-16.42,30a6.46,6.46,0,0,0-2.13,9.23l14.85,21.71a6.44,6.44,0,0,1-5.32,10.08H514.49a6.44,6.44,0,0,1-5.33-2.82l-19.28-28.42a6.45,6.45,0,0,0-5.34-2.83H476.3a6.44,6.44,0,0,0-6.44,6.45v21.18a6.44,6.44,0,0,1-6.45,6.44H452.88a6.44,6.44,0,0,1-6.45-6.44Zm47.16,45.27c11.4,0,17.94-6.08,17.94-15.36,0-10-7-15.21-18.4-15.21H476.3a6.44,6.44,0,0,0-6.44,6.45v17.68a6.44,6.44,0,0,0,6.44,6.44Z"/><path class="cls-2" d="M562.85,186.89h67.42a6.44,6.44,0,0,1,6.45,6.44v7.95a6.44,6.44,0,0,1-6.45,6.44H586.12a6.44,6.44,0,0,0-6.44,6.45v8.71a6.44,6.44,0,0,0,6.44,6.44h37.31a6.45,6.45,0,0,1,6.45,6.45v7.95a6.44,6.44,0,0,1-6.45,6.44H586.12a6.44,6.44,0,0,0-6.44,6.45v9.47a6.44,6.44,0,0,0,6.44,6.44H631a6.45,6.45,0,0,1,6.45,6.45v7.95a6.44,6.44,0,0,1-6.45,6.44H562.85a6.44,6.44,0,0,1-6.45-6.44V193.33A6.44,6.44,0,0,1,562.85,186.89Z"/><path class="cls-2" d="M785.94,247.73v-54.4a6.44,6.44,0,0,1,6.44-6.44h10.53a6.44,6.44,0,0,1,6.45,6.44v53.79c0,17.34,8.67,26.32,23,26.32s23-8.67,23-25.56V193.33a6.44,6.44,0,0,1,6.45-6.44h10.53a6.44,6.44,0,0,1,6.45,6.44V247c0,32.25-18.11,48.07-46.7,48.07S785.94,279.07,785.94,247.73Z"/><path class="cls-2" d="M909.05,186.89h67.42a6.44,6.44,0,0,1,6.45,6.44v7.95a6.44,6.44,0,0,1-6.45,6.44H932.32a6.44,6.44,0,0,0-6.44,6.45v8.71a6.44,6.44,0,0,0,6.44,6.44h37.31a6.44,6.44,0,0,1,6.44,6.45v7.95a6.44,6.44,0,0,1-6.44,6.44H932.32a6.44,6.44,0,0,0-6.44,6.45v9.47a6.44,6.44,0,0,0,6.44,6.44h44.91a6.45,6.45,0,0,1,6.45,6.45v7.95a6.44,6.44,0,0,1-6.45,6.44H909.05a6.44,6.44,0,0,1-6.45-6.44V193.33A6.44,6.44,0,0,1,909.05,186.89Z"/><path class="cls-2" d="M1001.43,272.81l5.67-6.8a6.43,6.43,0,0,1,8.64-1.15c8.19,5.81,16.9,9.34,27.11,9.34,9.58,0,15.36-3.81,15.36-10.35,0-5.93-3.65-9-21.44-13.53-21.45-5.48-35.29-11.41-35.29-32.86,0-19.32,15.51-32.1,37.26-32.1a62.19,62.19,0,0,1,34.09,9.62,6.47,6.47,0,0,1,1.88,9.12l-5,7.31a6.44,6.44,0,0,1-8.57,1.9c-7.7-4.59-15.28-7.26-22.66-7.26-9,0-13.69,4.11-13.69,9.58,0,7,4.56,9.28,23,14,21.6,5.63,33.77,13.38,33.77,32.25,0,21.14-16.13,33-39.1,33a68.09,68.09,0,0,1-39.75-12.69A6.46,6.46,0,0,1,1001.43,272.81Z"/><path class="cls-2" d="M1117.93,208.49h-19.5A6.45,6.45,0,0,1,1092,202v-8.71a6.44,6.44,0,0,1,6.45-6.44h75.33a6.44,6.44,0,0,1,6.45,6.44V202a6.45,6.45,0,0,1-6.45,6.45h-19.51a6.44,6.44,0,0,0-6.44,6.44v72a6.44,6.44,0,0,1-6.45,6.44h-10.53a6.44,6.44,0,0,1-6.45-6.44v-72A6.44,6.44,0,0,0,1117.93,208.49Z"/><path class="cls-2" d="M392.74,374.43,288,269.66l7.53-10.35a161.94,161.94,0,0,0,31.26-95.93C326.76,73.29,253.47,0,163.38,0S0,73.29,0,163.38,73.29,326.76,163.38,326.76a162.15,162.15,0,0,0,93.49-29.52L267.16,290l105,105a14.56,14.56,0,0,0,20.59-20.59ZM267.93,249.63,208,187.73l9.86-10.58a51.5,51.5,0,0,0-37.67-86.66h-46a29.9,29.9,0,0,0-29.87,29.87V221.68a14.56,14.56,0,1,0,29.11,0V119.6h46.76a22.43,22.43,0,0,1,1.15,44.84,14.65,14.65,0,0,0-2.11-.17H161.4a14.56,14.56,0,1,0,0,29.11h7.7c3.41,0,6.3,3,6.3,3L247.14,270l-16.92,9.75a134.09,134.09,0,0,1-66.84,17.89c-74,0-134.27-60.24-134.27-134.27S89.35,29.11,163.38,29.11,297.65,89.34,297.65,163.38a133.82,133.82,0,0,1-19.78,70.07Z"/></svg>