<?xml version="1.0" encoding="utf-8"?>
<!-- Generator: Adobe Illustrator 23.0.3, SVG Export Plug-In . SVG Version: 6.00 Build 0)  -->
<svg version="1.1" id="Слой_1" xmlns="http://www.w3.org/2000/svg" xmlns:xlink="http://www.w3.org/1999/xlink" x="0px" y="0px"
	 width="2000px" height="2000px" viewBox="0 0 2000 2000" style="enable-background:new 0 0 2000 2000;" xml:space="preserve">
<style type="text/css">
	.st0{fill:#82AAFF;}
</style>
<g>
	<path class="st0" d="M73.5,1155.8L73.5,1155.8c-63,189,28.5,394.9,211,474.7L933,1914.3c223,97.6,481.9-15.5,561.8-245.5
		l454.9-1308.6c16.6-47.8-12.6-99.3-62.1-109.6L837.1,52.5c-53-10-105.5,20-123.7,70.8l-339.5,944.2c-13.3,36.9,6.9,77.5,44.3,89.2
		l0,0c35.3,11,73-7.7,85.5-42.6l332-926.5l955.9,197.8l-441.1,1274.4c-43,124.1-178.9,189.5-302.7,145.4l0,0
		c-115.4-41-180.3-163.4-149.7-282l7.6-29.5L73.5,1155.8z"/>
	<polygon class="st0" points="1922.9,1641.6 1788.3,1450.8 1788.3,1545.8 1621.6,1545.8 1621.6,1737.4 1788.3,1737.4 1788.3,1832.4 
			"/>
	<circle class="st0" cx="693.6" cy="1112.6" r="63.9"/>
	<circle class="st0" cx="808.9" cy="828.3" r="63.9"/>
	<circle class="st0" cx="928.4" cy="519.3" r="63.9"/>
	<path class="st0" d="M1227.6,1362.9l-368.1-120.2c-23-7.5-35.5-32.2-28-55.2l11.7-35.8c7.5-23,32.2-35.5,55.2-28l368.1,120.2
		c23,7.5,35.5,32.2,28,55.2l-11.7,35.8C1275.2,1357.8,1250.5,1370.4,1227.6,1362.9z"/>
	<path class="st0" d="M1346.5,1066.2L978.4,946c-23-7.5-35.5-32.2-28-55.2l11.7-35.8c7.5-23,32.2-35.5,55.2-28l368.1,120.2
		c23,7.5,35.5,32.2,28,55.2l-11.7,35.8C1394.2,1061.2,1369.5,1073.7,1346.5,1066.2z"/>
	<path class="st0" d="M1489.1,744.6l-374.9-96.9c-23.4-6-37.4-29.9-31.4-53.3l9.4-36.5c6-23.4,29.9-37.4,53.3-31.4l374.9,96.9
		c23.4,6,37.4,29.9,31.4,53.3l-9.4,36.5C1536.4,736.6,1512.5,750.6,1489.1,744.6z"/>
</g>
</svg>
