<?xml version="1.0" encoding="utf-8"?>
<!-- Generator: Adobe Illustrator 23.0.3, SVG Export Plug-In . SVG Version: 6.00 Build 0)  -->
<svg version="1.1" id="Слой_1" xmlns="http://www.w3.org/2000/svg" xmlns:xlink="http://www.w3.org/1999/xlink" x="0px" y="0px"
	 width="2000px" height="2000px" viewBox="0 0 2000 2000" style="enable-background:new 0 0 2000 2000;" xml:space="preserve">
<style type="text/css">
	.st0{fill:#82AAFF;}
</style>
<g>
	<g>
		<path class="st0" d="M1824.8,1507.2H178.9c-66.8,0-121.1-54.3-121.1-121.1V617.7c0-66.8,54.3-121.1,121.1-121.1h1645.9
			c66.8,0,121.1,54.3,121.1,121.1V1386C1946,1452.8,1891.6,1507.2,1824.8,1507.2z M178.9,574.7c-23.7,0-43,19.3-43,43V1386
			c0,23.7,19.3,43,43,43h1645.9c23.7,0,43-19.3,43-43V617.7c0-23.7-19.3-43-43-43H178.9z"/>
	</g>
	<circle class="st0" cx="1000" cy="1000" r="388.5"/>
	<path class="st0" d="M1493,694.1c-53.8,0-104.3,13.9-148.2,38.3c46.5,49.5,80.2,111.1,96,179.5c16.7-11,36.7-17.5,58.2-17.5
		c58.3,0,105.6,47.3,105.6,105.6s-47.3,105.6-105.6,105.6c-21.5,0-41.5-6.4-58.2-17.5c-15.8,68.5-49.5,130-96,179.5
		c43.9,24.4,94.5,38.3,148.2,38.3c168.9,0,305.9-137,305.9-305.9S1662,694.1,1493,694.1z"/>
	<path class="st0" d="M510.2,694.1c53.8,0,104.3,13.9,148.2,38.3c-46.5,49.5-80.2,111.1-96,179.5c-16.7-11-36.7-17.5-58.2-17.5
		c-58.3,0-105.6,47.3-105.6,105.6s47.3,105.6,105.6,105.6c21.5,0,41.5-6.4,58.2-17.5c15.8,68.5,49.5,130,96,179.5
		c-43.9,24.4-94.5,38.3-148.2,38.3c-168.9,0-305.9-137-305.9-305.9S341.3,694.1,510.2,694.1z"/>
</g>
</svg>
