<?xml version="1.0" encoding="utf-8"?>
<!-- Generator: Adobe Illustrator 23.0.3, SVG Export Plug-In . SVG Version: 6.00 Build 0)  -->
<svg version="1.1" id="Слой_1" xmlns="http://www.w3.org/2000/svg" xmlns:xlink="http://www.w3.org/1999/xlink" x="0px" y="0px"
	 width="2000px" height="2000px" viewBox="0 0 2000 2000" style="enable-background:new 0 0 2000 2000;" xml:space="preserve">
<style type="text/css">
	.st0{fill:#82AAFF;}
	.st1{fill:#FFFFFF;}
</style>
<path class="st0" d="M1000,55.1c-521.9,0-944.9,423-944.9,944.9s423.1,944.9,944.9,944.9s944.9-423.1,944.9-944.9
	S1521.9,55.1,1000,55.1z M1445.6,1037.6h-392.2v392.2c0,29.5-23.9,53.3-53.3,53.3c-29.5,0-53.3-23.9-53.3-53.3v-392.2H554.4
	c-29.5,0-53.3-23.9-53.3-53.3c0-29.5,23.9-53.3,53.3-53.3h392.2V538.7c0-29.5,23.9-53.3,53.3-53.3c29.5,0,53.3,23.9,53.3,53.3v392.2
	h392.2c29.5,0,53.3,23.9,53.3,53.3C1498.9,1013.7,1475,1037.6,1445.6,1037.6z"/>
<path class="st1" d="M1498.7,984.2c0.2,29.5-23.7,53.4-53.1,53.4h-392.2v392.2c0,29.5-23.9,53.3-53.3,53.3
	c-29.5,0-53.3-23.9-53.3-53.3v-392.2H554.4c-29.5,0-53.3-23.9-53.3-53.3c0-29.5,23.9-53.3,53.3-53.3h392.2V538.7
	c0-29.5,23.9-53.3,53.3-53.3c29.5,0,53.3,23.9,53.3,53.3v392.2h392.2C1474.9,930.9,1498.7,954.8,1498.7,984.2z"/>
</svg>
