<svg width="177" height="55" viewBox="0 0 177 55" fill="none" xmlns="http://www.w3.org/2000/svg">
<path d="M21.649 23.3225C21.4155 23.125 21.1235 23.0004 20.8127 22.9655C20.5018 22.9306 20.1872 22.9873 19.9115 23.1277C17.8894 24.1484 15.631 24.6764 13.3397 24.664C5.57418 24.664 0 19.1794 0 12.3309C0 5.55181 5.6451 0 13.413 0C21.1809 0 26.7528 5.48462 26.7528 12.3309C26.7564 14.3695 26.2174 16.376 25.1855 18.1649C25.0109 18.4578 24.9491 18.7991 25.0108 19.1304C25.0724 19.4617 25.2537 19.7624 25.5235 19.9811L25.9159 20.2969C26.0716 20.4218 26.1992 20.575 26.2912 20.7475C26.3832 20.92 26.4376 21.1082 26.4513 21.301C26.4649 21.4939 26.4376 21.6873 26.3708 21.8699C26.304 22.0525 26.1992 22.2205 26.0625 22.364L24.6063 23.8981C24.4727 24.0392 24.3111 24.154 24.1307 24.2359C23.9502 24.3178 23.7545 24.3652 23.5547 24.3754C23.3549 24.3856 23.155 24.3584 22.9663 24.2953C22.7776 24.2322 22.6039 24.1345 22.4551 24.0078L21.649 23.3225ZM15.5453 18.2321L13.7983 16.8323C13.6438 16.7075 13.5172 16.5547 13.4258 16.3829C13.3345 16.2111 13.2803 16.0238 13.2664 15.8318C13.2526 15.6399 13.2793 15.4473 13.3451 15.2653C13.4108 15.0833 13.5143 14.9156 13.6494 14.772L15.1151 13.2043C15.2489 13.0621 15.4112 12.9464 15.5925 12.8639C15.7737 12.7814 15.9705 12.7336 16.1713 12.7234C16.3721 12.7132 16.5731 12.7408 16.7626 12.8045C16.9522 12.8682 17.1266 12.9668 17.2757 13.0946L19.2803 14.8123C19.3952 14.9097 19.5351 14.9768 19.686 15.0068C19.8369 15.0369 19.9934 15.0288 20.14 14.9834C20.2865 14.938 20.4179 14.857 20.521 14.7483C20.624 14.6397 20.6951 14.5073 20.7271 14.3644C20.8874 13.692 20.9667 13.0045 20.9635 12.3152C20.9635 8.22805 17.8005 4.82172 13.3397 4.82172C8.87898 4.82172 5.7893 8.16087 5.7893 12.3152C5.7893 16.4046 8.95462 19.8109 13.413 19.8109C14.0073 19.8124 14.6001 19.7538 15.1813 19.6362C15.3336 19.6002 15.4727 19.5255 15.5835 19.4201C15.6944 19.3147 15.7727 19.1826 15.8102 19.0381C15.8476 18.8937 15.8428 18.7422 15.7961 18.6002C15.7494 18.4581 15.6627 18.3309 15.5453 18.2321V18.2321Z" fill="#0018FD"/>
<path d="M73.1761 53.055C72.943 52.8569 72.6509 52.7318 72.3399 52.697C72.0289 52.6621 71.7141 52.7191 71.4386 52.8601C69.4144 53.882 67.1533 54.41 64.8597 54.3964C57.0918 54.3964 51.5176 48.9118 51.5176 42.0633C51.5176 35.2842 57.1627 29.7324 64.9306 29.7324C72.6986 29.7324 78.2704 35.217 78.2704 42.0633C78.2754 44.102 77.7363 46.1089 76.7031 47.8973C76.5294 48.1905 76.4682 48.5315 76.5298 48.8626C76.5914 49.1937 76.7721 49.4944 77.0412 49.7136L77.4336 50.0293C77.5891 50.154 77.7166 50.307 77.8085 50.4792C77.9005 50.6514 77.955 50.8394 77.9689 51.0319C77.9828 51.2245 77.9558 51.4177 77.8894 51.6002C77.823 51.7826 77.7187 51.9506 77.5825 52.0942L76.124 53.6305C75.9906 53.7716 75.8292 53.8863 75.6489 53.9682C75.4687 54.0501 75.2732 54.0975 75.0736 54.1076C74.874 54.1178 74.6742 54.0906 74.4857 54.0276C74.2972 53.9646 74.1237 53.8669 73.9751 53.7403L73.1761 53.055ZM67.0724 47.9645L65.3325 46.5648C65.1775 46.4403 65.0505 46.2877 64.9587 46.116C64.867 45.9442 64.8124 45.7568 64.7983 45.5648C64.7842 45.3728 64.8109 45.1801 64.8766 44.9979C64.9424 44.8158 65.0459 44.648 65.1812 44.5044L66.6469 42.9367C66.7807 42.7945 66.943 42.6789 67.1243 42.5963C67.3055 42.5138 67.5023 42.4661 67.7031 42.4559C67.9039 42.4457 68.1049 42.4732 68.2944 42.5369C68.484 42.6006 68.6584 42.6992 68.8075 42.827L70.8121 44.5447C70.927 44.6421 71.0669 44.7092 71.2178 44.7393C71.3687 44.7693 71.5253 44.7612 71.6718 44.7158C71.8184 44.6705 71.9497 44.5894 72.0528 44.4807C72.1558 44.3721 72.2269 44.2397 72.2589 44.0968C72.4192 43.4244 72.4985 42.737 72.4953 42.0476C72.4953 37.9605 69.3323 34.5541 64.8739 34.5541C60.4155 34.5541 57.3164 37.909 57.3164 42.0633C57.3164 46.1527 60.4817 49.559 64.9401 49.559C65.5352 49.5604 66.1287 49.5018 66.7107 49.3844C66.867 49.3507 67.0102 49.2763 67.1243 49.1697C67.2384 49.063 67.3188 48.9283 67.3564 48.7807C67.394 48.6331 67.3873 48.4785 67.3371 48.3343C67.2869 48.1901 67.1953 48.062 67.0724 47.9645V47.9645Z" fill="#0018FD"/>
<path d="M31.0552 14.0348V1.85173C31.0549 1.66195 31.0941 1.47398 31.1706 1.29859C31.2471 1.12321 31.3594 0.963848 31.5011 0.829655C31.6427 0.695462 31.8109 0.589073 31.9961 0.516584C32.1812 0.444096 32.3796 0.406933 32.5799 0.407228H35.0739C35.4776 0.407228 35.8649 0.55918 36.1504 0.829656C36.4359 1.10013 36.5963 1.46698 36.5963 1.84949V13.896C36.5963 17.7793 38.6458 19.7904 42.0333 19.7904C45.4209 19.7904 47.4704 17.8487 47.4704 14.0662V1.85173C47.4698 1.47115 47.628 1.10575 47.9105 0.835173C48.193 0.564597 48.5769 0.410774 48.9786 0.407228H51.4679C51.668 0.406934 51.8662 0.444022 52.0512 0.51637C52.2362 0.588719 52.4043 0.694909 52.5459 0.828864C52.6875 0.96282 52.7998 1.12191 52.8765 1.29704C52.9531 1.47217 52.9926 1.6599 52.9926 1.84949V13.8624C52.9926 21.0849 48.7115 24.6278 41.953 24.6278C35.1944 24.6278 31.0552 21.0535 31.0552 14.0348Z" fill="#0018FD"/>
<path d="M60.3871 0.407289H76.3248C76.5261 0.405512 76.7258 0.44158 76.9123 0.513404C77.0988 0.585229 77.2684 0.691384 77.4113 0.825725C77.5542 0.960066 77.6676 1.11993 77.7449 1.29605C77.8221 1.47217 77.8617 1.66106 77.8614 1.85179V3.64342C77.8614 3.83301 77.822 4.02074 77.7453 4.19587C77.6686 4.37099 77.5563 4.53009 77.4147 4.66404C77.2731 4.798 77.105 4.90419 76.92 4.97654C76.735 5.04889 76.5368 5.08597 76.3367 5.08568H65.888C65.6878 5.08568 65.4897 5.12306 65.3048 5.19568C65.12 5.2683 64.952 5.37474 64.8106 5.5089C64.6692 5.64306 64.5572 5.80232 64.4808 5.97756C64.4044 6.1528 64.3653 6.34059 64.3656 6.53018V8.46962C64.3656 8.85213 64.526 9.21897 64.8115 9.48945C65.097 9.75992 65.4842 9.91188 65.888 9.91188H74.7079C74.908 9.91188 75.1062 9.94926 75.291 10.0219C75.4759 10.0945 75.6438 10.2009 75.7852 10.3351C75.9266 10.4693 76.0387 10.6285 76.1151 10.8038C76.1914 10.979 76.2306 11.1668 76.2303 11.3564V13.148C76.2303 13.3374 76.1909 13.525 76.1144 13.6999C76.0379 13.8749 75.9257 14.0339 75.7844 14.1678C75.643 14.3018 75.4752 14.408 75.2905 14.4805C75.1058 14.553 74.9078 14.5903 74.7079 14.5903H65.888C65.6878 14.5903 65.4897 14.6276 65.3048 14.7003C65.12 14.7729 64.952 14.8793 64.8106 15.0135C64.6692 15.1477 64.5572 15.3069 64.4808 15.4822C64.4044 15.6574 64.3653 15.8452 64.3656 16.0348V18.1556C64.3653 18.3452 64.4044 18.533 64.4808 18.7082C64.5572 18.8835 64.6692 19.0427 64.8106 19.1769C64.952 19.3111 65.12 19.4175 65.3048 19.4901C65.4897 19.5627 65.6878 19.6001 65.888 19.6001H76.5045C76.7046 19.5998 76.9028 19.6369 77.0878 19.7093C77.2728 19.7816 77.4409 19.8878 77.5825 20.0217C77.7241 20.1557 77.8365 20.3148 77.9131 20.4899C77.9898 20.6651 78.0293 20.8528 78.0293 21.0424V22.8026C78.0293 22.9922 77.9898 23.18 77.9131 23.3551C77.8365 23.5302 77.7241 23.6893 77.5825 23.8233C77.4409 23.9572 77.2728 24.0634 77.0878 24.1358C76.9028 24.2081 76.7046 24.2452 76.5045 24.2449H60.3871C60.1869 24.2452 59.9887 24.2081 59.8037 24.1358C59.6188 24.0634 59.4507 23.9572 59.309 23.8233C59.1674 23.6893 59.0551 23.5302 58.9784 23.3551C58.9018 23.18 58.8623 22.9922 58.8623 22.8026V1.85179C58.862 1.66201 58.9012 1.47404 58.9777 1.29865C59.0542 1.12327 59.1666 0.963908 59.3082 0.829715C59.4499 0.695522 59.6181 0.589133 59.8032 0.516645C59.9883 0.444156 60.1867 0.406994 60.3871 0.407289V0.407289Z" fill="#0018FD"/>
<path d="M83.128 19.6524L84.4707 18.1296C84.7144 17.8516 85.0596 17.6708 85.4376 17.6231C85.8157 17.5754 86.1988 17.6642 86.5108 17.872C88.4493 19.1732 90.5083 19.9637 92.9219 19.9637C95.1865 19.9637 96.5529 19.1127 96.5529 17.6458C96.5529 16.3178 95.69 15.6302 91.4822 14.6157C86.4139 13.3974 83.1398 12.0537 83.1398 7.25661C83.1398 2.92983 86.8087 0.0677033 91.9503 0.0677033C94.8001 0.0308675 97.5999 0.779357 100.009 2.22214C100.183 2.32619 100.332 2.46238 100.449 2.62254C100.566 2.78271 100.647 2.96356 100.689 3.15426C100.73 3.34496 100.73 3.5416 100.689 3.73238C100.649 3.92317 100.567 4.10419 100.451 4.26459L99.2691 5.90169C99.0512 6.20202 98.7213 6.41293 98.3457 6.49189C97.9702 6.57086 97.5771 6.512 97.2455 6.3272C95.4253 5.29926 93.6311 4.7013 91.8888 4.7013C89.7613 4.7013 88.6526 5.62175 88.6526 6.84677C88.6526 8.41445 89.7305 8.92506 94.0897 9.98212C99.1958 11.243 102.07 12.9786 102.07 17.2046C102.07 21.939 98.2597 24.5951 92.8297 24.5951C89.4607 24.6027 86.1741 23.6087 83.4329 21.7531C83.261 21.6388 83.1157 21.4922 83.0063 21.3223C82.8968 21.1524 82.8256 20.9629 82.797 20.7658C82.7683 20.5686 82.783 20.368 82.8399 20.1764C82.8969 19.9848 82.995 19.8065 83.128 19.6524V19.6524Z" fill="#0018FD"/>
<path d="M110.444 5.24686H105.834C105.634 5.24686 105.435 5.2095 105.25 5.13691C105.065 5.06431 104.897 4.95791 104.756 4.82378C104.614 4.68964 104.502 4.5304 104.425 4.35515C104.349 4.17989 104.309 3.99206 104.309 3.80236V1.85173C104.309 1.66195 104.348 1.47398 104.425 1.29859C104.501 1.1232 104.613 0.963847 104.755 0.829654C104.897 0.695461 105.065 0.589072 105.25 0.516584C105.435 0.444096 105.634 0.406933 105.834 0.407228H123.641C123.842 0.406934 124.04 0.444022 124.225 0.51637C124.41 0.588719 124.578 0.694909 124.719 0.828864C124.861 0.96282 124.973 1.12191 125.05 1.29704C125.127 1.47217 125.166 1.6599 125.166 1.84949V3.80012C125.166 4.18323 125.006 4.55064 124.72 4.82154C124.434 5.09243 124.046 5.24462 123.641 5.24462H119.029C118.626 5.24462 118.238 5.39657 117.953 5.66705C117.667 5.93753 117.507 6.30437 117.507 6.68688V22.8115C117.507 23.0011 117.468 23.1888 117.391 23.364C117.314 23.5391 117.202 23.6982 117.06 23.8322C116.919 23.9661 116.751 24.0723 116.566 24.1446C116.381 24.217 116.182 24.2541 115.982 24.2538H113.493C113.293 24.2541 113.095 24.217 112.91 24.1446C112.725 24.0723 112.557 23.9661 112.415 23.8322C112.273 23.6982 112.161 23.5391 112.084 23.364C112.008 23.1888 111.968 23.0011 111.968 22.8115V6.68688C111.968 6.49748 111.928 6.30999 111.851 6.13512C111.775 5.96025 111.662 5.80142 111.521 5.66771C111.379 5.53399 111.211 5.428 111.026 5.35579C110.841 5.28358 110.643 5.24657 110.444 5.24686V5.24686Z" fill="#0018FD"/>
<path d="M2.55322 31.6112C2.55322 31.4216 2.59268 31.2339 2.66934 31.0588C2.74599 30.8836 2.85834 30.7245 2.99995 30.5906C3.14157 30.4566 3.30968 30.3504 3.49465 30.2781C3.67963 30.2057 3.87785 30.1687 4.07797 30.1689H14.0609C17.2593 30.1689 19.7344 31.02 21.3891 32.5854C22.791 33.9157 23.5451 35.7879 23.5451 38.1059C23.5451 41.3129 22.0227 43.5278 19.6635 44.8245C19.4812 44.9236 19.3224 45.0573 19.1972 45.2172C19.0719 45.3772 18.9829 45.5599 18.9356 45.7539C18.8883 45.948 18.8839 46.1492 18.9225 46.3449C18.9611 46.5407 19.0419 46.7268 19.1599 46.8916L22.6704 51.7536C22.8272 51.9703 22.9185 52.2235 22.9344 52.4858C22.9503 52.7482 22.8904 53.0096 22.7609 53.242C22.6315 53.4743 22.4375 53.6688 22.1999 53.8043C21.9623 53.9399 21.6901 54.0113 21.4128 54.011H18.6422C18.3938 54.0112 18.149 53.9537 17.9294 53.8436C17.7098 53.7335 17.5219 53.5742 17.3823 53.3795L12.8246 47.0147C12.6848 46.8195 12.4967 46.6596 12.2766 46.5491C12.0565 46.4386 11.8113 46.3809 11.5622 46.3809H9.61433C9.41421 46.3809 9.21606 46.4183 9.0312 46.4909C8.84634 46.5636 8.67841 46.67 8.53701 46.8042C8.39562 46.9383 8.28353 47.0976 8.20716 47.2728C8.13079 47.4481 8.09164 47.6359 8.09195 47.8254V52.5688C8.09195 52.7584 8.0525 52.9461 7.97584 53.1212C7.89919 53.2964 7.78684 53.4555 7.64522 53.5894C7.50361 53.7234 7.3355 53.8296 7.15052 53.9019C6.96555 53.9743 6.76733 54.0113 6.56721 54.011H4.07797C3.87785 54.0113 3.67963 53.9743 3.49465 53.9019C3.30968 53.8296 3.14157 53.7234 2.99995 53.5894C2.85834 53.4555 2.74599 53.2964 2.66934 53.1212C2.59268 52.9461 2.55322 52.7584 2.55322 52.5688V31.6112ZM13.7016 41.7496C16.3965 41.7496 17.9425 40.3879 17.9425 38.3097C17.9425 36.0701 16.2878 34.9033 13.5929 34.9033H9.61433C9.41421 34.9033 9.21606 34.9407 9.0312 35.0133C8.84634 35.0859 8.67841 35.1924 8.53701 35.3265C8.39562 35.4607 8.28353 35.62 8.20716 35.7952C8.13079 35.9705 8.09164 36.1582 8.09195 36.3478V40.3073C8.09195 40.6898 8.25235 41.0567 8.53785 41.3272C8.82335 41.5976 9.21057 41.7496 9.61433 41.7496H13.7016Z" fill="#0018FD"/>
<path d="M30.0741 30.1689H46.0118C46.2119 30.1687 46.4101 30.2057 46.5951 30.2781C46.7801 30.3504 46.9482 30.4566 47.0898 30.5906C47.2314 30.7245 47.3438 30.8836 47.4204 31.0588C47.4971 31.2339 47.5365 31.4216 47.5365 31.6112V33.3916C47.5365 33.5812 47.4971 33.769 47.4204 33.9441C47.3438 34.1192 47.2314 34.2783 47.0898 34.4123C46.9482 34.5462 46.7801 34.6524 46.5951 34.7248C46.4101 34.7971 46.2119 34.8342 46.0118 34.8339H35.575C35.3748 34.8339 35.1767 34.8713 34.9918 34.9439C34.807 35.0165 34.639 35.123 34.4976 35.2571C34.3562 35.3913 34.2442 35.5505 34.1678 35.7258C34.0914 35.901 34.0523 36.0888 34.0526 36.2784V38.229C34.0526 38.6115 34.213 38.9784 34.4985 39.2489C34.784 39.5193 35.1712 39.6713 35.575 39.6713H44.3949C44.7992 39.6713 45.1871 39.8235 45.473 40.0944C45.759 40.3653 45.9196 40.7327 45.9196 41.1158V42.8962C45.9196 43.0858 45.8802 43.2735 45.8035 43.4487C45.7268 43.6238 45.6145 43.7829 45.4729 43.9168C45.3313 44.0508 45.1631 44.157 44.9782 44.2293C44.7932 44.3017 44.595 44.3388 44.3949 44.3385H35.575C35.3748 44.3385 35.1767 44.3759 34.9918 44.4485C34.807 44.5211 34.639 44.6275 34.4976 44.7617C34.3562 44.8959 34.2442 45.0551 34.1678 45.2304C34.0914 45.4056 34.0523 45.5934 34.0526 45.783V47.9038C34.0526 48.2863 34.213 48.6532 34.4985 48.9236C34.784 49.1941 35.1712 49.3461 35.575 49.3461H46.1844C46.3846 49.3461 46.5829 49.3834 46.7679 49.456C46.9529 49.5286 47.1209 49.635 47.2625 49.7692C47.4041 49.9033 47.5164 50.0625 47.5931 50.2378C47.6697 50.413 47.7091 50.6009 47.7091 50.7906V52.571C47.7091 52.7606 47.6697 52.9483 47.593 53.1235C47.5163 53.2986 47.404 53.4577 47.2624 53.5916C47.1208 53.7256 46.9527 53.8318 46.7677 53.9041C46.5827 53.9765 46.3845 54.0136 46.1844 54.0133H30.0741C29.8739 54.0136 29.6757 53.9765 29.4907 53.9041C29.3058 53.8318 29.1377 53.7256 28.996 53.5916C28.8544 53.4577 28.7421 53.2986 28.6654 53.1235C28.5888 52.9483 28.5493 52.7606 28.5493 52.571V31.6112C28.5493 31.4216 28.5888 31.2339 28.6654 31.0588C28.7421 30.8836 28.8544 30.7245 28.996 30.5906C29.1377 30.4566 29.3058 30.3504 29.4907 30.2781C29.6757 30.2057 29.8739 30.1687 30.0741 30.1689Z" fill="#0018FD"/>
<path d="M82.8115 43.7943V31.6112C82.8115 31.2287 82.9719 30.8619 83.2574 30.5914C83.5429 30.3209 83.9301 30.1689 84.3339 30.1689H86.8231C87.0233 30.1687 87.2215 30.2057 87.4065 30.2781C87.5914 30.3504 87.7595 30.4566 87.9011 30.5906C88.0428 30.7245 88.1551 30.8836 88.2318 31.0588C88.3084 31.2339 88.3479 31.4216 88.3479 31.6112V43.6577C88.3479 47.541 90.3974 49.5521 93.7849 49.5521C97.1725 49.5521 99.222 47.6104 99.222 43.8279V31.6112C99.222 31.4216 99.2615 31.2339 99.3381 31.0588C99.4148 30.8836 99.5271 30.7245 99.6688 30.5906C99.8104 30.4566 99.9785 30.3504 100.163 30.2781C100.348 30.2057 100.547 30.1687 100.747 30.1689H103.236C103.436 30.1687 103.634 30.2057 103.819 30.2781C104.004 30.3504 104.172 30.4566 104.314 30.5906C104.456 30.7245 104.568 30.8836 104.645 31.0588C104.721 31.2339 104.761 31.4216 104.761 31.6112V43.6308C104.761 50.8533 100.48 54.3962 93.7211 54.3962C86.9626 54.3962 82.8115 50.813 82.8115 43.7943Z" fill="#0018FD"/>
<path d="M111.914 30.1689H127.852C128.052 30.1687 128.25 30.2057 128.435 30.2781C128.62 30.3504 128.788 30.4566 128.93 30.5906C129.071 30.7245 129.184 30.8836 129.26 31.0588C129.337 31.2339 129.376 31.4216 129.376 31.6112V33.3916C129.376 33.5812 129.337 33.769 129.26 33.9441C129.184 34.1192 129.071 34.2783 128.93 34.4123C128.788 34.5462 128.62 34.6524 128.435 34.7248C128.25 34.7971 128.052 34.8342 127.852 34.8339H117.415C117.215 34.8339 117.017 34.8713 116.832 34.9439C116.647 35.0165 116.479 35.123 116.337 35.2571C116.196 35.3913 116.084 35.5505 116.008 35.7258C115.931 35.901 115.892 36.0888 115.892 36.2784V38.229C115.892 38.4184 115.932 38.606 116.008 38.781C116.085 38.9559 116.197 39.1149 116.338 39.2489C116.48 39.3828 116.648 39.489 116.832 39.5615C117.017 39.634 117.215 39.6713 117.415 39.6713H126.235C126.435 39.6713 126.633 39.7087 126.818 39.7813C127.003 39.8539 127.171 39.9603 127.312 40.0945C127.453 40.2287 127.565 40.3879 127.642 40.5632C127.718 40.7384 127.757 40.9262 127.757 41.1158V42.8962C127.757 43.2787 127.597 43.6456 127.311 43.9161C127.026 44.1865 126.638 44.3385 126.235 44.3385H117.415C117.215 44.3385 117.017 44.3759 116.832 44.4485C116.647 44.5211 116.479 44.6275 116.337 44.7617C116.196 44.8959 116.084 45.0551 116.008 45.2304C115.931 45.4056 115.892 45.5934 115.892 45.783V47.9038C115.892 48.0932 115.932 48.2808 116.008 48.4558C116.085 48.6307 116.197 48.7897 116.338 48.9236C116.48 49.0576 116.648 49.1638 116.832 49.2363C117.017 49.3088 117.215 49.3461 117.415 49.3461H128.031C128.436 49.3461 128.823 49.4983 129.109 49.7692C129.395 50.0401 129.556 50.4075 129.556 50.7906V52.571C129.556 52.7606 129.517 52.9483 129.44 53.1235C129.363 53.2986 129.251 53.4577 129.109 53.5916C128.968 53.7256 128.8 53.8318 128.615 53.9041C128.43 53.9765 128.231 54.0136 128.031 54.0133H111.914C111.714 54.0136 111.516 53.9765 111.331 53.9041C111.146 53.8318 110.978 53.7256 110.836 53.5916C110.694 53.4577 110.582 53.2986 110.505 53.1235C110.429 52.9483 110.389 52.7606 110.389 52.571V31.6112C110.389 31.4216 110.429 31.2339 110.505 31.0588C110.582 30.8836 110.694 30.7245 110.836 30.5906C110.978 30.4566 111.146 30.3504 111.331 30.2781C111.516 30.2057 111.714 30.1687 111.914 30.1689V30.1689Z" fill="#0018FD"/>
<path d="M133.752 49.4103L135.092 47.8874C135.336 47.6093 135.682 47.4284 136.06 47.3807C136.439 47.333 136.822 47.4219 137.135 47.6298C139.071 48.931 141.13 49.7216 143.543 49.7216C145.808 49.7216 147.174 48.8683 147.174 47.4036C147.174 46.0756 146.312 45.3881 142.106 44.3736C137.035 43.1463 133.764 41.8182 133.764 37.0144C133.764 32.6877 137.43 29.8255 142.572 29.8255C145.422 29.7884 148.222 30.5369 150.631 31.98C150.804 32.0841 150.954 32.2202 151.071 32.3803C151.188 32.5404 151.269 32.7212 151.311 32.9118C151.352 33.1024 151.353 33.299 151.312 33.4898C151.272 33.6806 151.191 33.8618 151.075 34.0224L149.893 35.6595C149.675 35.96 149.344 36.171 148.968 36.2499C148.593 36.3289 148.199 36.27 147.867 36.085C146.047 35.0571 144.255 34.4591 142.51 34.4591C140.383 34.4591 139.274 35.3796 139.274 36.6046C139.274 38.1723 140.352 38.6829 144.711 39.74C149.817 41.0008 152.694 42.7365 152.694 46.9625C152.694 51.6968 148.881 54.3529 143.451 54.3529C140.082 54.3606 136.796 53.3666 134.054 51.511C133.883 51.3965 133.738 51.2497 133.628 51.0797C133.519 50.9098 133.448 50.7203 133.42 50.5231C133.391 50.326 133.406 50.1254 133.463 49.9339C133.521 49.7424 133.619 49.5642 133.752 49.4103Z" fill="#0018FD"/>
<path d="M161.292 35.0065H156.682C156.482 35.0059 156.283 34.9678 156.098 34.8944C155.913 34.821 155.745 34.7137 155.604 34.5787C155.462 34.4436 155.351 34.2835 155.275 34.1075C155.199 33.9316 155.161 33.7431 155.162 33.553V31.6024C155.162 31.4128 155.202 31.2251 155.278 31.05C155.355 30.8748 155.467 30.7157 155.609 30.5818C155.75 30.4478 155.919 30.3416 156.104 30.2693C156.289 30.1969 156.487 30.1599 156.687 30.1602H174.494C174.695 30.1599 174.893 30.1969 175.078 30.2693C175.263 30.3416 175.431 30.4478 175.572 30.5818C175.714 30.7157 175.826 30.8748 175.903 31.05C175.98 31.2251 176.019 31.4128 176.019 31.6024V33.553C176.019 33.9362 175.859 34.3036 175.573 34.5745C175.287 34.8454 174.899 34.9975 174.494 34.9975H169.882C169.479 34.9975 169.091 35.1495 168.806 35.42C168.52 35.6904 168.36 36.0573 168.36 36.4398V52.5644C168.36 52.754 168.321 52.9418 168.244 53.1169C168.167 53.292 168.055 53.4511 167.913 53.5851C167.772 53.719 167.604 53.8252 167.419 53.8976C167.234 53.9699 167.035 54.007 166.835 54.0067H164.346C164.146 54.007 163.948 53.9699 163.763 53.8976C163.578 53.8252 163.41 53.719 163.268 53.5851C163.126 53.4511 163.014 53.292 162.937 53.1169C162.861 52.9418 162.821 52.754 162.821 52.5644V36.4398C162.819 36.0577 162.656 35.6921 162.37 35.4234C162.083 35.1547 161.695 35.0047 161.292 35.0065V35.0065Z" fill="#0018FD"/>
</svg>
