<?xml version="1.0" encoding="utf-8"?>
<!-- Generator: Adobe Illustrator 23.0.3, SVG Export Plug-In . SVG Version: 6.00 Build 0)  -->
<svg version="1.1" id="Слой_1" xmlns="http://www.w3.org/2000/svg" xmlns:xlink="http://www.w3.org/1999/xlink" x="0px" y="0px"
	 width="2000px" height="2000px" viewBox="0 0 2000 2000" style="enable-background:new 0 0 2000 2000;" xml:space="preserve">
<style type="text/css">
	.st0{fill:#82AAFF;}
</style>
<path class="st0" d="M1901,1765.9l-547.5-547.5c37.6-48.6,68.6-101.7,92.7-158.7c37.4-88.4,56.3-182.2,56.3-278.9
	s-19-190.5-56.3-278.9c-36.1-85.3-87.7-161.9-153.5-227.7S1150.4,156.8,1065,120.7c-88.4-37.4-182.2-56.3-278.9-56.3
	s-190.5,19-278.9,56.3c-85.3,36.1-161.9,87.7-227.7,153.5S162.3,416.7,126.3,502C88.9,590.4,70,684.2,70,780.9s19,190.5,56.3,278.9
	c36.1,85.3,87.7,161.9,153.5,227.7c65.8,65.8,142.3,117.4,227.7,153.5c88.4,37.4,182.2,56.3,278.9,56.3s190.5-19,278.9-56.3
	c52.2-22.1,101.2-50,146.4-83.4l549,549c38.8,38.8,101.7,38.8,140.5,0l0,0C1939.8,1867.6,1939.8,1804.7,1901,1765.9z M786.2,1297.2
	c-284.7,0-516.3-231.6-516.3-516.3s231.6-516.3,516.3-516.3s516.3,231.6,516.3,516.3C1302.6,1065.5,1070.9,1297.2,786.2,1297.2z"/>
</svg>
