<?xml version="1.0" encoding="utf-8"?>
<!-- Generator: Adobe Illustrator 23.0.3, SVG Export Plug-In . SVG Version: 6.00 Build 0)  -->
<svg version="1.1" id="Слой_1" xmlns="http://www.w3.org/2000/svg" xmlns:xlink="http://www.w3.org/1999/xlink" x="0px" y="0px"
	 width="2000px" height="2000px" viewBox="0 0 2000 2000" style="enable-background:new 0 0 2000 2000;" xml:space="preserve">
<style type="text/css">
	.st0{fill:#00AFFF;}
	.st1{fill:#00DE00;}
	.st2{fill:#82AAFF;}
</style>
<g>
	<path class="st0" d="M-1392.1,1051.1h-1135c-33.7,0-61.1,27.3-61.1,61.1v855c0,33.7,27.3,61.1,61.1,61.1h236.8v254
		c0,14.4,11.7,26.1,26.1,26.1h128.1c14.4,0,26.1-11.7,26.1-26.1v-227.9c0-14.4,11.7-26.1,26.1-26.1h107.2
		c14.4,0,26.1,11.7,26.1,26.1v227.9c0,14.4,11.7,26.1,26.1,26.1h113.2c14.4,0,26.1-11.7,26.1-26.1v-227.9
		c0-14.4,11.7-26.1,26.1-26.1h201.1c14.4,0,26.1,11.7,26.1,26.1v227.9c0,14.4,11.7,26.1,26.1,26.1h114c33.7,0,61.1-27.3,61.1-61.1
		v-1135C-1331,1078.4-1358.4,1051.1-1392.1,1051.1z M-1970.4,1162.1c46.9,0,84.9,38,84.9,84.9s-38,84.9-84.9,84.9
		c-46.9,0-84.9-38-84.9-84.9S-2017.3,1162.1-1970.4,1162.1z M-1531.4,1646.6c0,7.6-6.1,13.7-13.7,13.7h-829.1
		c-7.6,0-13.7-6.1-13.7-13.7V1607c0-7.6,6.1-13.7,13.7-13.7h829.1c7.6,0,13.7,6.1,13.7,13.7V1646.6z M-1531.4,1552.8
		c0,7.6-6.1,13.7-13.7,13.7h-829.1c-7.6,0-13.7-6.1-13.7-13.7v-39.7c0-7.6,6.1-13.7,13.7-13.7h829.1c7.6,0,13.7,6.1,13.7,13.7
		V1552.8z M-1531.4,1458.9c0,7.6-6.1,13.7-13.7,13.7h-829.1c-7.6,0-13.7-6.1-13.7-13.7v-39.7c0-7.6,6.1-13.7,13.7-13.7h829.1
		c7.6,0,13.7,6.1,13.7,13.7V1458.9z"/>
	<circle class="st1" cx="-962" cy="1977.6" r="274.1"/>
	<g>
		<path d="M-908,1898.2v255.4h-54.9v-186.3l-53.1,14.7v-46.3c14.3-4.2,27.8-9.5,40.4-16c12.7-6.5,24.1-13.6,34.3-21.4H-908z"/>
	</g>
</g>
<g>
	<polygon class="st2" points="1513.4,244.4 1449.2,378.3 1675.2,484.8 1738.6,352.2 	"/>
	
		<rect x="1637.5" y="424.1" transform="matrix(0.4265 -0.9045 0.9045 0.4265 597.6675 1790.8921)" class="st2" width="147" height="0.1"/>
	<polygon class="st2" points="1424.6,444 1048.8,1229 1274.1,1336.8 1274.2,1336.9 1650.6,550.5 1650.5,550.4 	"/>
	<path class="st2" d="M1790.6,85.7c-30-14.4-65.4-31.3-95.4-45.7c-37-17.7-81.2-2.6-98.6,33.9l-54.6,114.1l4.3,2l0,0
		c54.8,26.2,170.4,81.6,225.3,107.8l54.6-114.1C1843.5,147.3,1827.6,103.4,1790.6,85.7z"/>
	<path class="st2" d="M211.2,632.2h309.7c54.5,0,98.6-44.2,98.6-98.6V228.4c0-24.5-19.9-44.4-44.4-44.4h-7.5
		c-8.9,0-17.4,3.6-23.7,9.9L176.6,564.3c-6.2,6.3-9.7,14.7-9.7,23.5v0C166.9,612.4,186.7,632.2,211.2,632.2z"/>
	<path class="st2" d="M1030.5,1627.7c-8.2,6.4-18,9.6-27.9,9.6c-7,0-14-1.6-20.5-4.9c-15.8-7.9-25.4-23.7-25.3-41.3H514.8
		c-30.4,0-55.1-24.7-55.1-55.1l0,0c0-30.4,24.7-55.1,55.1-55.1H958c0.5-53.4,1.1-109.6,1.5-151.9H514.8c-30.4,0-55.1-24.7-55.1-55.1
		v0c0-30.4,24.7-55.1,55.1-55.1h465l85.4-178.4H514.8c-30.4,0-55.1-24.7-55.1-55.1v0c0-30.4,24.7-55.1,55.1-55.1h603.1l353.4-738.3
		c0.1-0.3,0.3-0.6,0.4-0.9l2.7-5.6H680.1v347.9c0,87.8-71.4,158.7-159.2,158.7H168.4V1858c0,60.4,49,109.4,109.4,109.4h1203.7
		c60.4,0,109.4-49,109.4-109.4V829.7l-285.3,595.9L1030.5,1627.7z"/>
	<path class="st2" d="M1024.1,1294.5V1509l-0.3,39.8l6.9-5.3c5.5,4,13.5,4.6,19.7-0.5l183.5-144.7c3.5-2.8,3-8.3-1-10.3l-198.5-99.7
		C1029.7,1285.9,1024.1,1289.3,1024.1,1294.5z"/>
</g>
</svg>
