<?xml version="1.0" encoding="utf-8"?>
<!-- Generator: Adobe Illustrator 23.0.3, SVG Export Plug-In . SVG Version: 6.00 Build 0)  -->
<svg version="1.1" id="Слой_1" xmlns="http://www.w3.org/2000/svg" xmlns:xlink="http://www.w3.org/1999/xlink" x="0px" y="0px"
	 width="2000px" height="2000px" viewBox="0 0 2000 2000" style="enable-background:new 0 0 2000 2000;" xml:space="preserve">
<style type="text/css">
	.st0{fill:#82AAFF;}
</style>
<g>
	<path class="st0" d="M1002.5,1122.7l953.4-603.5v-20.6c0-55.7-45.1-100.8-100.8-100.8h-1705c-55.7,0-100.8,45.1-100.8,100.8v29.6
		L1002.5,1122.7z"/>
	<path class="st0" d="M1341.1,1105.9c-14.1-8.7-18.5-27.2-9.8-41.3c8.7-14.1,27.2-18.5,41.3-9.8l583.3,358.8V590.2l-932.1,590
		c-6.4,4.1-13.8,6.1-21.3,6.1c-7.3,0-14.6-2-21-6L49.3,598.9v814.7l583.3-358.8c14.1-8.7,32.6-4.3,41.3,9.8
		c8.7,14.1,4.3,32.6-9.8,41.3L49.3,1484v25.4c0,55.7,45.1,100.8,100.8,100.8h1705c55.7,0,100.8-45.1,100.8-100.8V1484L1341.1,1105.9
		z"/>
</g>
</svg>
