<?xml version="1.0" encoding="utf-8"?>
<!-- Generator: Adobe Illustrator 23.0.3, SVG Export Plug-In . SVG Version: 6.00 Build 0)  -->
<svg version="1.1" id="Слой_1" xmlns="http://www.w3.org/2000/svg" xmlns:xlink="http://www.w3.org/1999/xlink" x="0px" y="0px"
	 width="2000px" height="2000px" viewBox="0 0 2000 2000" style="enable-background:new 0 0 2000 2000;" xml:space="preserve">
<style type="text/css">
	.st0{fill:#82AAFF;}
</style>
<g>
	<path class="st0" d="M1479.4,505.3c-94-94-215.8-143.7-339.2-149.1l-755,755c-10.2,10.2-18.3,22.5-23.6,35.9L75.7,1870.9
		c-9.4,23.9,14.2,47.6,38.1,38.1l723.8-285.9c13.5-5.3,25.7-13.3,35.9-23.6l755-755C1623.1,721.1,1573.4,599.3,1479.4,505.3z
		 M227.5,1757.2l212.1-559.4c0,0,141.8-29.2,259.2,88.2s88.2,259.2,88.2,259.2L227.5,1757.2z"/>
	<path class="st0" d="M1353.9,285c77.9,31.6,147.9,78,207.8,138c59.9,59.9,106.4,129.9,138,207.8c14.4,35.6,25.5,72.1,33.2,109.4
		L1856,617.1c134.8-134.8,134.8-353.5,0-488.3l0,0C1721.2-6,1502.5-6,1367.7,128.8l-123.1,123.1
		C1281.8,259.6,1318.3,270.6,1353.9,285z"/>
</g>
</svg>
