<?xml version="1.0" encoding="utf-8"?>
<!-- Generator: Adobe Illustrator 23.0.3, SVG Export Plug-In . SVG Version: 6.00 Build 0)  -->
<svg version="1.1" id="Слой_1" xmlns="http://www.w3.org/2000/svg" xmlns:xlink="http://www.w3.org/1999/xlink" x="0px" y="0px"
	 width="2000px" height="2000px" viewBox="0 0 2000 2000" style="enable-background:new 0 0 2000 2000;" xml:space="preserve">
<style type="text/css">
	.st0{fill:#82AAFF;}
</style>
<path class="st0" d="M1927.8,936.6C1821.9,797.4,1521.7,477,1000,477c-534,0-825.9,318-928.6,458.1c-28.1,38.4-27.4,90.2,1.9,127.8
	c108.4,139,414.3,460.1,926.7,460.1c528,0,824.2-319.6,928.4-459.1C1956.7,1025.9,1956.4,974.3,1927.8,936.6z M999.7,1264.8
	c-146,0-264.8-118.8-264.8-264.8s118.8-264.8,264.8-264.8S1264.5,854,1264.5,1000S1145.8,1264.8,999.7,1264.8z M305.5,1047.1
	c-22-28.1-22.5-67-1.4-95.8c64.8-88.3,230-271,519.1-326.8c-43.4,20.4-82.6,48-116.8,82.1c-38.1,38.1-68,82.4-88.9,131.8
	c-21.7,51.2-32.6,105.5-32.6,161.5c0,56,11,110.3,32.6,161.5c20.9,49.4,50.8,93.8,88.9,131.8c32.8,32.8,70.4,59.6,111.8,79.7
	C542.6,1314.3,373,1133.6,305.5,1047.1z M1695.8,1047.9c-65.5,87.8-232.5,270.6-518.5,327.1c43-20.4,81.9-47.7,115.7-81.6
	c38.1-38.1,68-82.4,88.9-131.8c21.7-51.2,32.6-105.5,32.6-161.5s-11-110.3-32.6-161.5c-20.9-49.4-50.8-93.8-88.9-131.8
	c-33.5-33.5-71.9-60.7-114.3-81c282,57.3,450.2,239.5,516.6,326.8C1716.8,980.8,1717,1019.4,1695.8,1047.9z"/>
</svg>
